<?xml version="1.0" encoding="utf-8" standalone="no"?>
<!DOCTYPE svg PUBLIC "-//W3C//DTD SVG 1.1//EN"
  "http://www.w3.org/Graphics/SVG/1.1/DTD/svg11.dtd">
<svg xmlns:xlink="http://www.w3.org/1999/xlink" width="288pt" height="288pt" viewBox="0 0 288 288" xmlns="http://www.w3.org/2000/svg" version="1.1">
 <metadata>
  <rdf:RDF xmlns:dc="http://purl.org/dc/elements/1.1/" xmlns:cc="http://creativecommons.org/ns#" xmlns:rdf="http://www.w3.org/1999/02/22-rdf-syntax-ns#">
   <cc:Work>
    <dc:type rdf:resource="http://purl.org/dc/dcmitype/StillImage"/>
    <dc:date>2023-01-15T04:16:17.745868</dc:date>
    <dc:format>image/svg+xml</dc:format>
    <dc:creator>
     <cc:Agent>
      <dc:title>Matplotlib v3.6.3, https://matplotlib.org/</dc:title>
     </cc:Agent>
    </dc:creator>
   </cc:Work>
  </rdf:RDF>
 </metadata>
 <defs>
  <style type="text/css">*{stroke-linejoin: round; stroke-linecap: butt}</style>
 </defs>
 <g id="figure_1">
  <g id="patch_1">
   <path d="M 0 288 
L 288 288 
L 288 0 
L 0 0 
z
" style="fill: #ffffff"/>
  </g>
  <g id="axes_1">
   <g id="patch_2">
    <path d="M 36 256.32 
L 259.2 256.32 
L 259.2 34.56 
L 36 34.56 
z
" style="fill: #ffffff"/>
   </g>
   <g id="PolyCollection_1">
    <defs>
     <path id="md65aaa6ad4" d="M 46.145455 -31.694156 
L 46.145455 -31.68 
L 46.891451 -31.68 
L 47.637447 -31.68 
L 48.383444 -31.68 
L 49.12944 -31.68 
L 49.875437 -31.68 
L 50.621433 -31.68 
L 51.367429 -31.68 
L 52.113426 -31.68 
L 52.859422 -31.68 
L 53.605419 -31.68 
L 54.351415 -31.68 
L 55.097411 -31.68 
L 55.843408 -31.68 
L 56.589404 -31.68 
L 57.335401 -31.68 
L 58.081397 -31.68 
L 58.827394 -31.68 
L 59.57339 -31.68 
L 60.319386 -31.68 
L 61.065383 -31.68 
L 61.811379 -31.68 
L 62.557376 -31.68 
L 63.303372 -31.68 
L 64.049368 -31.68 
L 64.795365 -31.68 
L 65.541361 -31.68 
L 66.287358 -31.68 
L 67.033354 -31.68 
L 67.77935 -31.68 
L 68.525347 -31.68 
L 69.271343 -31.68 
L 70.01734 -31.68 
L 70.763336 -31.68 
L 71.509333 -31.68 
L 72.255329 -31.68 
L 73.001325 -31.68 
L 73.747322 -31.68 
L 74.493318 -31.68 
L 75.239315 -31.68 
L 75.985311 -31.68 
L 76.731307 -31.68 
L 77.477304 -31.68 
L 78.2233 -31.68 
L 78.969297 -31.68 
L 79.715293 -31.68 
L 80.461289 -31.68 
L 81.207286 -31.68 
L 81.953282 -31.68 
L 82.699279 -31.68 
L 83.445275 -31.68 
L 84.191272 -31.68 
L 84.937268 -31.68 
L 85.683264 -31.68 
L 86.429261 -31.68 
L 87.175257 -31.68 
L 87.921254 -31.68 
L 88.66725 -31.68 
L 89.413246 -31.68 
L 90.159243 -31.68 
L 90.905239 -31.68 
L 91.651236 -31.68 
L 92.397232 -31.68 
L 93.143228 -31.68 
L 93.889225 -31.68 
L 94.635221 -31.68 
L 95.381218 -31.68 
L 96.127214 -31.68 
L 96.873211 -31.68 
L 97.619207 -31.68 
L 98.365203 -31.68 
L 99.1112 -31.68 
L 99.857196 -31.68 
L 100.603193 -31.68 
L 101.349189 -31.68 
L 102.095185 -31.68 
L 102.841182 -31.68 
L 103.587178 -31.68 
L 104.333175 -31.68 
L 105.079171 -31.68 
L 105.825167 -31.68 
L 106.571164 -31.68 
L 107.31716 -31.68 
L 108.063157 -31.68 
L 108.809153 -31.68 
L 109.55515 -31.68 
L 110.301146 -31.68 
L 111.047142 -31.68 
L 111.793139 -31.68 
L 112.539135 -31.68 
L 113.285132 -31.68 
L 114.031128 -31.68 
L 114.777124 -31.68 
L 115.523121 -31.68 
L 116.269117 -31.68 
L 117.015114 -31.68 
L 117.76111 -31.68 
L 118.507106 -31.68 
L 119.253103 -31.68 
L 119.999099 -31.68 
L 120.745096 -31.68 
L 121.491092 -31.68 
L 122.237089 -31.68 
L 122.983085 -31.68 
L 123.729081 -31.68 
L 124.475078 -31.68 
L 125.221074 -31.68 
L 125.967071 -31.68 
L 126.713067 -31.68 
L 127.459063 -31.68 
L 128.20506 -31.68 
L 128.951056 -31.68 
L 129.697053 -31.68 
L 130.443049 -31.68 
L 131.189045 -31.68 
L 131.935042 -31.68 
L 132.681038 -31.68 
L 133.427035 -31.68 
L 134.173031 -31.68 
L 134.919028 -31.68 
L 135.665024 -31.68 
L 136.41102 -31.68 
L 137.157017 -31.68 
L 137.903013 -31.68 
L 138.64901 -31.68 
L 139.395006 -31.68 
L 140.141002 -31.68 
L 140.886999 -31.68 
L 141.632995 -31.68 
L 142.378992 -31.68 
L 143.124988 -31.68 
L 143.870984 -31.68 
L 144.616981 -31.68 
L 145.362977 -31.68 
L 146.108974 -31.68 
L 146.85497 -31.68 
L 147.600967 -31.68 
L 148.346963 -31.68 
L 149.092959 -31.68 
L 149.838956 -31.68 
L 150.584952 -31.68 
L 151.330949 -31.68 
L 152.076945 -31.68 
L 152.822941 -31.68 
L 153.568938 -31.68 
L 154.314934 -31.68 
L 155.060931 -31.68 
L 155.806927 -31.68 
L 156.552923 -31.68 
L 157.29892 -31.68 
L 158.044916 -31.68 
L 158.790913 -31.68 
L 159.536909 -31.68 
L 160.282906 -31.68 
L 161.028902 -31.68 
L 161.774898 -31.68 
L 162.520895 -31.68 
L 163.266891 -31.68 
L 164.012888 -31.68 
L 164.758884 -31.68 
L 165.50488 -31.68 
L 166.250877 -31.68 
L 166.996873 -31.68 
L 167.74287 -31.68 
L 168.488866 -31.68 
L 169.234862 -31.68 
L 169.980859 -31.68 
L 170.726855 -31.68 
L 171.472852 -31.68 
L 172.218848 -31.68 
L 172.964845 -31.68 
L 173.710841 -31.68 
L 174.456837 -31.68 
L 175.202834 -31.68 
L 175.94883 -31.68 
L 176.694827 -31.68 
L 177.440823 -31.68 
L 178.186819 -31.68 
L 178.932816 -31.68 
L 179.678812 -31.68 
L 180.424809 -31.68 
L 181.170805 -31.68 
L 181.916801 -31.68 
L 182.662798 -31.68 
L 183.408794 -31.68 
L 184.154791 -31.68 
L 184.900787 -31.68 
L 185.646784 -31.68 
L 186.39278 -31.68 
L 187.138776 -31.68 
L 187.884773 -31.68 
L 188.630769 -31.68 
L 189.376766 -31.68 
L 190.122762 -31.68 
L 190.868758 -31.68 
L 191.614755 -31.68 
L 192.360751 -31.68 
L 193.106748 -31.68 
L 193.852744 -31.68 
L 194.59874 -31.68 
L 194.59874 -31.689955 
L 194.59874 -31.689955 
L 193.852744 -31.696152 
L 193.106748 -31.70551 
L 192.360751 -31.719219 
L 191.614755 -31.738702 
L 190.868758 -31.765557 
L 190.122762 -31.801442 
L 189.376766 -31.847921 
L 188.630769 -31.906245 
L 187.884773 -31.97713 
L 187.138776 -32.060533 
L 186.39278 -32.155492 
L 185.646784 -32.260051 
L 184.900787 -32.371324 
L 184.154791 -32.485675 
L 183.408794 -32.599021 
L 182.662798 -32.707188 
L 181.916801 -32.806275 
L 181.170805 -32.892952 
L 180.424809 -32.964637 
L 179.678812 -33.019562 
L 178.932816 -33.056722 
L 178.186819 -33.075781 
L 177.440823 -33.076991 
L 176.694827 -33.061191 
L 175.94883 -33.029914 
L 175.202834 -32.985605 
L 174.456837 -32.931891 
L 173.710841 -32.873835 
L 172.964845 -32.818097 
L 172.218848 -32.772936 
L 171.472852 -32.74801 
L 170.726855 -32.753982 
L 169.980859 -32.801963 
L 169.234862 -32.902843 
L 168.488866 -33.066573 
L 167.74287 -33.301454 
L 166.996873 -33.613489 
L 166.250877 -34.005845 
L 165.50488 -34.478474 
L 164.758884 -35.027935 
L 164.012888 -35.647469 
L 163.266891 -36.327373 
L 162.520895 -37.055676 
L 161.774898 -37.819107 
L 161.028902 -38.604298 
L 160.282906 -39.399109 
L 159.536909 -40.193967 
L 158.790913 -40.983077 
L 158.044916 -41.765421 
L 157.29892 -42.54547 
L 156.552923 -43.333596 
L 155.806927 -44.146196 
L 155.060931 -45.005519 
L 154.314934 -45.939168 
L 153.568938 -46.97919 
L 152.822941 -48.160612 
L 152.076945 -49.519286 
L 151.330949 -51.088955 
L 150.584952 -52.897603 
L 149.838956 -54.96337 
L 149.092959 -57.290538 
L 148.346963 -59.866307 
L 147.600967 -62.65916 
L 146.85497 -65.619552 
L 146.108974 -68.683364 
L 145.362977 -71.778144 
L 144.616981 -74.831596 
L 143.870984 -77.781295 
L 143.124988 -80.584229 
L 142.378992 -83.224642 
L 141.632995 -85.718851 
L 140.886999 -88.11611 
L 140.141002 -90.495214 
L 139.395006 -92.957192 
L 138.64901 -95.614984 
L 137.903013 -98.581398 
L 137.157017 -101.95681 
L 136.41102 -105.818048 
L 135.665024 -110.209683 
L 134.919028 -115.138693 
L 134.173031 -120.573073 
L 133.427035 -126.444618 
L 132.681038 -132.655641 
L 131.935042 -139.08896 
L 131.189045 -145.620059 
L 130.443049 -152.129931 
L 129.697053 -158.516919 
L 128.951056 -164.705879 
L 128.20506 -170.653285 
L 127.459063 -176.347509 
L 126.713067 -181.804258 
L 125.967071 -187.05803 
L 125.221074 -192.151136 
L 124.475078 -197.122314 
L 123.729081 -201.996943 
L 122.983085 -206.780516 
L 122.237089 -211.456292 
L 121.491092 -215.987149 
L 120.745096 -220.320817 
L 119.999099 -224.397111 
L 119.253103 -228.155534 
L 118.507106 -231.541854 
L 117.76111 -234.512751 
L 117.015114 -237.038285 
L 116.269117 -239.102507 
L 115.523121 -240.702931 
L 114.777124 -241.849598 
L 114.031128 -242.564286 
L 113.285132 -242.88 
L 112.539135 -242.8405 
L 111.793139 -242.499309 
L 111.047142 -241.917615 
L 110.301146 -241.160649 
L 109.55515 -240.292468 
L 108.809153 -239.369542 
L 108.063157 -238.43395 
L 107.31716 -237.507233 
L 106.571164 -236.586056 
L 105.825167 -235.640627 
L 105.079171 -234.616474 
L 104.333175 -233.439674 
L 103.587178 -232.025092 
L 102.841182 -230.286669 
L 102.095185 -228.148446 
L 101.349189 -225.554826 
L 100.603193 -222.47859 
L 99.857196 -218.925463 
L 99.1112 -214.934451 
L 98.365203 -210.573762 
L 97.619207 -205.932774 
L 96.873211 -201.111134 
L 96.127214 -196.206551 
L 95.381218 -191.303134 
L 94.635221 -186.462043 
L 93.889225 -181.715892 
L 93.143228 -177.067683 
L 92.397232 -172.494259 
L 91.651236 -167.953446 
L 90.905239 -163.393438 
L 90.159243 -158.762643 
L 89.413246 -154.018273 
L 88.66725 -149.132359 
L 87.921254 -144.094519 
L 87.175257 -138.911539 
L 86.429261 -133.604445 
L 85.683264 -128.204132 
L 84.937268 -122.746717 
L 84.191272 -117.26958 
L 83.445275 -111.808692 
L 82.699279 -106.397353 
L 81.953282 -101.066128 
L 81.207286 -95.843474 
L 80.461289 -90.756565 
L 79.715293 -85.831916 
L 78.969297 -81.095587 
L 78.2233 -76.572987 
L 77.477304 -72.288407 
L 76.731307 -68.264426 
L 75.985311 -64.521324 
L 75.239315 -61.076467 
L 74.493318 -57.943619 
L 73.747322 -55.132056 
L 73.001325 -52.64547 
L 72.255329 -50.480746 
L 71.509333 -48.626832 
L 70.763336 -47.06404 
L 70.01734 -45.764066 
L 69.271343 -44.690974 
L 68.525347 -43.803165 
L 67.77935 -43.056164 
L 67.033354 -42.405864 
L 66.287358 -41.81177 
L 65.541361 -41.23976 
L 64.795365 -40.664004 
L 64.049368 -40.06784 
L 63.303372 -39.443602 
L 62.557376 -38.791553 
L 61.811379 -38.118225 
L 61.065383 -37.434464 
L 60.319386 -36.753474 
L 59.57339 -36.089088 
L 58.827394 -35.454379 
L 58.081397 -34.860652 
L 57.335401 -34.316811 
L 56.589404 -33.829038 
L 55.843408 -33.400727 
L 55.097411 -33.032621 
L 54.351415 -32.723103 
L 53.605419 -32.468604 
L 52.859422 -32.264081 
L 52.113426 -32.103532 
L 51.367429 -31.980489 
L 50.621433 -31.888474 
L 49.875437 -31.821361 
L 49.12944 -31.773638 
L 48.383444 -31.740566 
L 47.637447 -31.718239 
L 46.891451 -31.703557 
L 46.145455 -31.694156 
z
" style="stroke: #48a185"/>
    </defs>
    <g clip-path="url(#pc80c97a911)">
     <use xlink:href="#md65aaa6ad4" x="0" y="288" style="fill: #48a185; fill-opacity: 0.25; stroke: #48a185"/>
    </g>
   </g>
   <g id="matplotlib.axis_1">
    <g id="xtick_1">
     <g id="line2d_1">
      <defs>
       <path id="m73e9e6960e" d="M 0 0 
L 0 -4 
" style="stroke: #000000; stroke-width: 0.5"/>
      </defs>
      <g>
       <use xlink:href="#m73e9e6960e" x="74.176903" y="256.32" style="stroke: #000000; stroke-width: 0.5"/>
      </g>
     </g>
     <g id="line2d_2">
      <defs>
       <path id="mc6d26dbc6c" d="M 0 0 
L 0 4 
" style="stroke: #000000; stroke-width: 0.5"/>
      </defs>
      <g>
       <use xlink:href="#mc6d26dbc6c" x="74.176903" y="34.56" style="stroke: #000000; stroke-width: 0.5"/>
      </g>
     </g>
     <g id="text_1">
      <!-- −0.1 -->
      <g transform="translate(62.040353 267.415398) scale(0.09996 -0.09996)">
       <defs>
        <path id="DejaVuSerif-2212" d="M 678 2259 
L 4684 2259 
L 4684 1753 
L 678 1753 
L 678 2259 
z
" transform="scale(0.015625)"/>
        <path id="DejaVuSerif-30" d="M 2034 219 
Q 2513 219 2750 744 
Q 2988 1269 2988 2328 
Q 2988 3391 2750 3916 
Q 2513 4441 2034 4441 
Q 1556 4441 1318 3916 
Q 1081 3391 1081 2328 
Q 1081 1269 1318 744 
Q 1556 219 2034 219 
z
M 2034 -91 
Q 1275 -91 848 546 
Q 422 1184 422 2328 
Q 422 3475 848 4112 
Q 1275 4750 2034 4750 
Q 2797 4750 3222 4112 
Q 3647 3475 3647 2328 
Q 3647 1184 3222 546 
Q 2797 -91 2034 -91 
z
" transform="scale(0.015625)"/>
        <path id="DejaVuSerif-2e" d="M 603 325 
Q 603 500 722 622 
Q 841 744 1019 744 
Q 1191 744 1312 622 
Q 1434 500 1434 325 
Q 1434 153 1312 31 
Q 1191 -91 1019 -91 
Q 841 -91 722 29 
Q 603 150 603 325 
z
" transform="scale(0.015625)"/>
        <path id="DejaVuSerif-31" d="M 909 0 
L 909 331 
L 1722 331 
L 1722 4213 
L 781 3603 
L 781 4013 
L 1919 4750 
L 2350 4750 
L 2350 331 
L 3163 331 
L 3163 0 
L 909 0 
z
" transform="scale(0.015625)"/>
       </defs>
       <use xlink:href="#DejaVuSerif-2212"/>
       <use xlink:href="#DejaVuSerif-30" x="83.789062"/>
       <use xlink:href="#DejaVuSerif-2e" x="147.412109"/>
       <use xlink:href="#DejaVuSerif-31" x="179.199219"/>
      </g>
     </g>
    </g>
    <g id="xtick_2">
     <g id="line2d_3">
      <g>
       <use xlink:href="#m73e9e6960e" x="113.232437" y="256.32" style="stroke: #000000; stroke-width: 0.5"/>
      </g>
     </g>
     <g id="line2d_4">
      <g>
       <use xlink:href="#mc6d26dbc6c" x="113.232437" y="34.56" style="stroke: #000000; stroke-width: 0.5"/>
      </g>
     </g>
     <g id="text_2">
      <!-- 0.0 -->
      <g transform="translate(105.284055 267.415398) scale(0.09996 -0.09996)">
       <use xlink:href="#DejaVuSerif-30"/>
       <use xlink:href="#DejaVuSerif-2e" x="63.623047"/>
       <use xlink:href="#DejaVuSerif-30" x="95.410156"/>
      </g>
     </g>
    </g>
    <g id="xtick_3">
     <g id="line2d_5">
      <g>
       <use xlink:href="#m73e9e6960e" x="152.287971" y="256.32" style="stroke: #000000; stroke-width: 0.5"/>
      </g>
     </g>
     <g id="line2d_6">
      <g>
       <use xlink:href="#mc6d26dbc6c" x="152.287971" y="34.56" style="stroke: #000000; stroke-width: 0.5"/>
      </g>
     </g>
     <g id="text_3">
      <!-- 0.1 -->
      <g transform="translate(144.339589 267.415398) scale(0.09996 -0.09996)">
       <use xlink:href="#DejaVuSerif-30"/>
       <use xlink:href="#DejaVuSerif-2e" x="63.623047"/>
       <use xlink:href="#DejaVuSerif-31" x="95.410156"/>
      </g>
     </g>
    </g>
    <g id="xtick_4">
     <g id="line2d_7">
      <g>
       <use xlink:href="#m73e9e6960e" x="191.343505" y="256.32" style="stroke: #000000; stroke-width: 0.5"/>
      </g>
     </g>
     <g id="line2d_8">
      <g>
       <use xlink:href="#mc6d26dbc6c" x="191.343505" y="34.56" style="stroke: #000000; stroke-width: 0.5"/>
      </g>
     </g>
     <g id="text_4">
      <!-- 0.2 -->
      <g transform="translate(183.395123 267.415398) scale(0.09996 -0.09996)">
       <defs>
        <path id="DejaVuSerif-32" d="M 819 3553 
L 469 3553 
L 469 4384 
Q 803 4563 1142 4656 
Q 1481 4750 1806 4750 
Q 2534 4750 2956 4397 
Q 3378 4044 3378 3438 
Q 3378 2753 2422 1800 
Q 2347 1728 2309 1691 
L 1131 513 
L 3078 513 
L 3078 1088 
L 3444 1088 
L 3444 0 
L 434 0 
L 434 341 
L 1850 1753 
Q 2319 2222 2519 2614 
Q 2719 3006 2719 3438 
Q 2719 3909 2473 4175 
Q 2228 4441 1797 4441 
Q 1350 4441 1106 4219 
Q 863 3997 819 3553 
z
" transform="scale(0.015625)"/>
       </defs>
       <use xlink:href="#DejaVuSerif-30"/>
       <use xlink:href="#DejaVuSerif-2e" x="63.623047"/>
       <use xlink:href="#DejaVuSerif-32" x="95.410156"/>
      </g>
     </g>
    </g>
    <g id="xtick_5">
     <g id="line2d_9">
      <g>
       <use xlink:href="#m73e9e6960e" x="230.399039" y="256.32" style="stroke: #000000; stroke-width: 0.5"/>
      </g>
     </g>
     <g id="line2d_10">
      <g>
       <use xlink:href="#mc6d26dbc6c" x="230.399039" y="34.56" style="stroke: #000000; stroke-width: 0.5"/>
      </g>
     </g>
     <g id="text_5">
      <!-- 0.3 -->
      <g transform="translate(222.450657 267.415398) scale(0.09996 -0.09996)">
       <defs>
        <path id="DejaVuSerif-33" d="M 622 4469 
Q 988 4606 1323 4678 
Q 1659 4750 1953 4750 
Q 2638 4750 3022 4454 
Q 3406 4159 3406 3634 
Q 3406 3213 3140 2930 
Q 2875 2647 2388 2547 
Q 2963 2466 3280 2130 
Q 3597 1794 3597 1259 
Q 3597 606 3158 257 
Q 2719 -91 1894 -91 
Q 1528 -91 1179 -12 
Q 831 66 488 225 
L 488 1131 
L 838 1131 
Q 869 681 1141 450 
Q 1413 219 1906 219 
Q 2384 219 2661 495 
Q 2938 772 2938 1253 
Q 2938 1803 2653 2086 
Q 2369 2369 1819 2369 
L 1522 2369 
L 1522 2688 
L 1678 2688 
Q 2225 2688 2498 2914 
Q 2772 3141 2772 3597 
Q 2772 4006 2547 4223 
Q 2322 4441 1900 4441 
Q 1478 4441 1245 4241 
Q 1013 4041 972 3647 
L 622 3647 
L 622 4469 
z
" transform="scale(0.015625)"/>
       </defs>
       <use xlink:href="#DejaVuSerif-30"/>
       <use xlink:href="#DejaVuSerif-2e" x="63.623047"/>
       <use xlink:href="#DejaVuSerif-33" x="95.410156"/>
      </g>
     </g>
    </g>
    <g id="xtick_6">
     <g id="line2d_11">
      <defs>
       <path id="mb555dc5b4c" d="M 0 0 
L 0 -2 
" style="stroke: #000000; stroke-width: 0.5"/>
      </defs>
      <g>
       <use xlink:href="#mb555dc5b4c" x="42.932476" y="256.32" style="stroke: #000000; stroke-width: 0.5"/>
      </g>
     </g>
     <g id="line2d_12">
      <defs>
       <path id="m8d8ce490a5" d="M 0 0 
L 0 2 
" style="stroke: #000000; stroke-width: 0.5"/>
      </defs>
      <g>
       <use xlink:href="#m8d8ce490a5" x="42.932476" y="34.56" style="stroke: #000000; stroke-width: 0.5"/>
      </g>
     </g>
    </g>
    <g id="xtick_7">
     <g id="line2d_13">
      <g>
       <use xlink:href="#mb555dc5b4c" x="50.743583" y="256.32" style="stroke: #000000; stroke-width: 0.5"/>
      </g>
     </g>
     <g id="line2d_14">
      <g>
       <use xlink:href="#m8d8ce490a5" x="50.743583" y="34.56" style="stroke: #000000; stroke-width: 0.5"/>
      </g>
     </g>
    </g>
    <g id="xtick_8">
     <g id="line2d_15">
      <g>
       <use xlink:href="#mb555dc5b4c" x="58.554689" y="256.32" style="stroke: #000000; stroke-width: 0.5"/>
      </g>
     </g>
     <g id="line2d_16">
      <g>
       <use xlink:href="#m8d8ce490a5" x="58.554689" y="34.56" style="stroke: #000000; stroke-width: 0.5"/>
      </g>
     </g>
    </g>
    <g id="xtick_9">
     <g id="line2d_17">
      <g>
       <use xlink:href="#mb555dc5b4c" x="66.365796" y="256.32" style="stroke: #000000; stroke-width: 0.5"/>
      </g>
     </g>
     <g id="line2d_18">
      <g>
       <use xlink:href="#m8d8ce490a5" x="66.365796" y="34.56" style="stroke: #000000; stroke-width: 0.5"/>
      </g>
     </g>
    </g>
    <g id="xtick_10">
     <g id="line2d_19">
      <g>
       <use xlink:href="#mb555dc5b4c" x="81.98801" y="256.32" style="stroke: #000000; stroke-width: 0.5"/>
      </g>
     </g>
     <g id="line2d_20">
      <g>
       <use xlink:href="#m8d8ce490a5" x="81.98801" y="34.56" style="stroke: #000000; stroke-width: 0.5"/>
      </g>
     </g>
    </g>
    <g id="xtick_11">
     <g id="line2d_21">
      <g>
       <use xlink:href="#mb555dc5b4c" x="89.799117" y="256.32" style="stroke: #000000; stroke-width: 0.5"/>
      </g>
     </g>
     <g id="line2d_22">
      <g>
       <use xlink:href="#m8d8ce490a5" x="89.799117" y="34.56" style="stroke: #000000; stroke-width: 0.5"/>
      </g>
     </g>
    </g>
    <g id="xtick_12">
     <g id="line2d_23">
      <g>
       <use xlink:href="#mb555dc5b4c" x="97.610223" y="256.32" style="stroke: #000000; stroke-width: 0.5"/>
      </g>
     </g>
     <g id="line2d_24">
      <g>
       <use xlink:href="#m8d8ce490a5" x="97.610223" y="34.56" style="stroke: #000000; stroke-width: 0.5"/>
      </g>
     </g>
    </g>
    <g id="xtick_13">
     <g id="line2d_25">
      <g>
       <use xlink:href="#mb555dc5b4c" x="105.42133" y="256.32" style="stroke: #000000; stroke-width: 0.5"/>
      </g>
     </g>
     <g id="line2d_26">
      <g>
       <use xlink:href="#m8d8ce490a5" x="105.42133" y="34.56" style="stroke: #000000; stroke-width: 0.5"/>
      </g>
     </g>
    </g>
    <g id="xtick_14">
     <g id="line2d_27">
      <g>
       <use xlink:href="#mb555dc5b4c" x="121.043544" y="256.32" style="stroke: #000000; stroke-width: 0.5"/>
      </g>
     </g>
     <g id="line2d_28">
      <g>
       <use xlink:href="#m8d8ce490a5" x="121.043544" y="34.56" style="stroke: #000000; stroke-width: 0.5"/>
      </g>
     </g>
    </g>
    <g id="xtick_15">
     <g id="line2d_29">
      <g>
       <use xlink:href="#mb555dc5b4c" x="128.854651" y="256.32" style="stroke: #000000; stroke-width: 0.5"/>
      </g>
     </g>
     <g id="line2d_30">
      <g>
       <use xlink:href="#m8d8ce490a5" x="128.854651" y="34.56" style="stroke: #000000; stroke-width: 0.5"/>
      </g>
     </g>
    </g>
    <g id="xtick_16">
     <g id="line2d_31">
      <g>
       <use xlink:href="#mb555dc5b4c" x="136.665758" y="256.32" style="stroke: #000000; stroke-width: 0.5"/>
      </g>
     </g>
     <g id="line2d_32">
      <g>
       <use xlink:href="#m8d8ce490a5" x="136.665758" y="34.56" style="stroke: #000000; stroke-width: 0.5"/>
      </g>
     </g>
    </g>
    <g id="xtick_17">
     <g id="line2d_33">
      <g>
       <use xlink:href="#mb555dc5b4c" x="144.476864" y="256.32" style="stroke: #000000; stroke-width: 0.5"/>
      </g>
     </g>
     <g id="line2d_34">
      <g>
       <use xlink:href="#m8d8ce490a5" x="144.476864" y="34.56" style="stroke: #000000; stroke-width: 0.5"/>
      </g>
     </g>
    </g>
    <g id="xtick_18">
     <g id="line2d_35">
      <g>
       <use xlink:href="#mb555dc5b4c" x="160.099078" y="256.32" style="stroke: #000000; stroke-width: 0.5"/>
      </g>
     </g>
     <g id="line2d_36">
      <g>
       <use xlink:href="#m8d8ce490a5" x="160.099078" y="34.56" style="stroke: #000000; stroke-width: 0.5"/>
      </g>
     </g>
    </g>
    <g id="xtick_19">
     <g id="line2d_37">
      <g>
       <use xlink:href="#mb555dc5b4c" x="167.910185" y="256.32" style="stroke: #000000; stroke-width: 0.5"/>
      </g>
     </g>
     <g id="line2d_38">
      <g>
       <use xlink:href="#m8d8ce490a5" x="167.910185" y="34.56" style="stroke: #000000; stroke-width: 0.5"/>
      </g>
     </g>
    </g>
    <g id="xtick_20">
     <g id="line2d_39">
      <g>
       <use xlink:href="#mb555dc5b4c" x="175.721292" y="256.32" style="stroke: #000000; stroke-width: 0.5"/>
      </g>
     </g>
     <g id="line2d_40">
      <g>
       <use xlink:href="#m8d8ce490a5" x="175.721292" y="34.56" style="stroke: #000000; stroke-width: 0.5"/>
      </g>
     </g>
    </g>
    <g id="xtick_21">
     <g id="line2d_41">
      <g>
       <use xlink:href="#mb555dc5b4c" x="183.532398" y="256.32" style="stroke: #000000; stroke-width: 0.5"/>
      </g>
     </g>
     <g id="line2d_42">
      <g>
       <use xlink:href="#m8d8ce490a5" x="183.532398" y="34.56" style="stroke: #000000; stroke-width: 0.5"/>
      </g>
     </g>
    </g>
    <g id="xtick_22">
     <g id="line2d_43">
      <g>
       <use xlink:href="#mb555dc5b4c" x="199.154612" y="256.32" style="stroke: #000000; stroke-width: 0.5"/>
      </g>
     </g>
     <g id="line2d_44">
      <g>
       <use xlink:href="#m8d8ce490a5" x="199.154612" y="34.56" style="stroke: #000000; stroke-width: 0.5"/>
      </g>
     </g>
    </g>
    <g id="xtick_23">
     <g id="line2d_45">
      <g>
       <use xlink:href="#mb555dc5b4c" x="206.965719" y="256.32" style="stroke: #000000; stroke-width: 0.5"/>
      </g>
     </g>
     <g id="line2d_46">
      <g>
       <use xlink:href="#m8d8ce490a5" x="206.965719" y="34.56" style="stroke: #000000; stroke-width: 0.5"/>
      </g>
     </g>
    </g>
    <g id="xtick_24">
     <g id="line2d_47">
      <g>
       <use xlink:href="#mb555dc5b4c" x="214.776826" y="256.32" style="stroke: #000000; stroke-width: 0.5"/>
      </g>
     </g>
     <g id="line2d_48">
      <g>
       <use xlink:href="#m8d8ce490a5" x="214.776826" y="34.56" style="stroke: #000000; stroke-width: 0.5"/>
      </g>
     </g>
    </g>
    <g id="xtick_25">
     <g id="line2d_49">
      <g>
       <use xlink:href="#mb555dc5b4c" x="222.587932" y="256.32" style="stroke: #000000; stroke-width: 0.5"/>
      </g>
     </g>
     <g id="line2d_50">
      <g>
       <use xlink:href="#m8d8ce490a5" x="222.587932" y="34.56" style="stroke: #000000; stroke-width: 0.5"/>
      </g>
     </g>
    </g>
    <g id="xtick_26">
     <g id="line2d_51">
      <g>
       <use xlink:href="#mb555dc5b4c" x="238.210146" y="256.32" style="stroke: #000000; stroke-width: 0.5"/>
      </g>
     </g>
     <g id="line2d_52">
      <g>
       <use xlink:href="#m8d8ce490a5" x="238.210146" y="34.56" style="stroke: #000000; stroke-width: 0.5"/>
      </g>
     </g>
    </g>
    <g id="xtick_27">
     <g id="line2d_53">
      <g>
       <use xlink:href="#mb555dc5b4c" x="246.021253" y="256.32" style="stroke: #000000; stroke-width: 0.5"/>
      </g>
     </g>
     <g id="line2d_54">
      <g>
       <use xlink:href="#m8d8ce490a5" x="246.021253" y="34.56" style="stroke: #000000; stroke-width: 0.5"/>
      </g>
     </g>
    </g>
    <g id="xtick_28">
     <g id="line2d_55">
      <g>
       <use xlink:href="#mb555dc5b4c" x="253.83236" y="256.32" style="stroke: #000000; stroke-width: 0.5"/>
      </g>
     </g>
     <g id="line2d_56">
      <g>
       <use xlink:href="#m8d8ce490a5" x="253.83236" y="34.56" style="stroke: #000000; stroke-width: 0.5"/>
      </g>
     </g>
    </g>
    <g id="text_6">
     <!-- Moran's I -->
     <g transform="translate(123.38469 281.089652) scale(0.09996 -0.09996)">
      <defs>
       <path id="DejaVuSerif-4d" d="M 353 0 
L 353 331 
L 947 331 
L 947 4331 
L 319 4331 
L 319 4666 
L 1678 4666 
L 3316 1344 
L 4953 4666 
L 6228 4666 
L 6228 4331 
L 5606 4331 
L 5606 331 
L 6203 331 
L 6203 0 
L 4378 0 
L 4378 331 
L 4972 331 
L 4972 3938 
L 3372 684 
L 2931 684 
L 1331 3938 
L 1331 331 
L 1925 331 
L 1925 0 
L 353 0 
z
" transform="scale(0.015625)"/>
       <path id="DejaVuSerif-6f" d="M 1925 219 
Q 2388 219 2623 584 
Q 2859 950 2859 1663 
Q 2859 2375 2623 2739 
Q 2388 3103 1925 3103 
Q 1463 3103 1227 2739 
Q 991 2375 991 1663 
Q 991 950 1228 584 
Q 1466 219 1925 219 
z
M 1925 -91 
Q 1200 -91 759 389 
Q 319 869 319 1663 
Q 319 2456 758 2934 
Q 1197 3413 1925 3413 
Q 2653 3413 3092 2934 
Q 3531 2456 3531 1663 
Q 3531 869 3092 389 
Q 2653 -91 1925 -91 
z
" transform="scale(0.015625)"/>
       <path id="DejaVuSerif-72" d="M 3059 3328 
L 3059 2497 
L 2728 2497 
Q 2713 2744 2591 2866 
Q 2469 2988 2234 2988 
Q 1809 2988 1582 2694 
Q 1356 2400 1356 1850 
L 1356 331 
L 2022 331 
L 2022 0 
L 263 0 
L 263 331 
L 781 331 
L 781 2994 
L 231 2994 
L 231 3322 
L 1356 3322 
L 1356 2731 
Q 1525 3078 1790 3245 
Q 2056 3413 2438 3413 
Q 2578 3413 2733 3391 
Q 2888 3369 3059 3328 
z
" transform="scale(0.015625)"/>
       <path id="DejaVuSerif-61" d="M 2547 1044 
L 2547 1747 
L 1806 1747 
Q 1378 1747 1168 1562 
Q 959 1378 959 997 
Q 959 650 1171 447 
Q 1384 244 1747 244 
Q 2106 244 2326 466 
Q 2547 688 2547 1044 
z
M 3122 2075 
L 3122 331 
L 3634 331 
L 3634 0 
L 2547 0 
L 2547 359 
Q 2356 128 2106 18 
Q 1856 -91 1522 -91 
Q 969 -91 644 203 
Q 319 497 319 997 
Q 319 1513 691 1797 
Q 1063 2081 1741 2081 
L 2547 2081 
L 2547 2309 
Q 2547 2688 2317 2895 
Q 2088 3103 1672 3103 
Q 1328 3103 1125 2947 
Q 922 2791 872 2484 
L 575 2484 
L 575 3156 
Q 875 3284 1158 3348 
Q 1441 3413 1709 3413 
Q 2400 3413 2761 3070 
Q 3122 2728 3122 2075 
z
" transform="scale(0.015625)"/>
       <path id="DejaVuSerif-6e" d="M 263 0 
L 263 331 
L 781 331 
L 781 2988 
L 231 2988 
L 231 3322 
L 1356 3322 
L 1356 2731 
Q 1516 3069 1770 3241 
Q 2025 3413 2363 3413 
Q 2913 3413 3172 3097 
Q 3431 2781 3431 2113 
L 3431 331 
L 3944 331 
L 3944 0 
L 2356 0 
L 2356 331 
L 2853 331 
L 2853 1931 
Q 2853 2541 2703 2767 
Q 2553 2994 2175 2994 
Q 1775 2994 1565 2701 
Q 1356 2409 1356 1850 
L 1356 331 
L 1856 331 
L 1856 0 
L 263 0 
z
" transform="scale(0.015625)"/>
       <path id="DejaVuSerif-27" d="M 1125 4666 
L 1125 2931 
L 628 2931 
L 628 4666 
L 1125 4666 
z
" transform="scale(0.015625)"/>
       <path id="DejaVuSerif-73" d="M 359 184 
L 359 959 
L 691 959 
Q 703 588 923 403 
Q 1144 219 1575 219 
Q 1963 219 2166 364 
Q 2369 509 2369 788 
Q 2369 1006 2220 1140 
Q 2072 1275 1594 1428 
L 1178 1569 
Q 750 1706 558 1912 
Q 366 2119 366 2438 
Q 366 2894 700 3153 
Q 1034 3413 1625 3413 
Q 1888 3413 2178 3344 
Q 2469 3275 2778 3144 
L 2778 2419 
L 2447 2419 
Q 2434 2741 2221 2922 
Q 2009 3103 1644 3103 
Q 1281 3103 1095 2975 
Q 909 2847 909 2591 
Q 909 2381 1050 2254 
Q 1191 2128 1613 1997 
L 2069 1856 
Q 2541 1709 2748 1489 
Q 2956 1269 2956 922 
Q 2956 450 2595 179 
Q 2234 -91 1600 -91 
Q 1278 -91 972 -22 
Q 666 47 359 184 
z
" transform="scale(0.015625)"/>
       <path id="DejaVuSerif-20" transform="scale(0.015625)"/>
       <path id="DejaVuSerif-49" d="M 1581 331 
L 2175 331 
L 2175 0 
L 353 0 
L 353 331 
L 947 331 
L 947 4331 
L 353 4331 
L 353 4666 
L 2175 4666 
L 2175 4331 
L 1581 4331 
L 1581 331 
z
" transform="scale(0.015625)"/>
      </defs>
      <use xlink:href="#DejaVuSerif-4d"/>
      <use xlink:href="#DejaVuSerif-6f" x="102.392578"/>
      <use xlink:href="#DejaVuSerif-72" x="162.597656"/>
      <use xlink:href="#DejaVuSerif-61" x="210.400391"/>
      <use xlink:href="#DejaVuSerif-6e" x="270.019531"/>
      <use xlink:href="#DejaVuSerif-27" x="334.423828"/>
      <use xlink:href="#DejaVuSerif-73" x="361.914062"/>
      <use xlink:href="#DejaVuSerif-20" x="413.232422"/>
      <use xlink:href="#DejaVuSerif-49" x="445.019531"/>
     </g>
    </g>
   </g>
   <g id="matplotlib.axis_2">
    <g id="ytick_1">
     <g id="line2d_57">
      <defs>
       <path id="m478ad2b52d" d="M 0 0 
L 5 0 
" style="stroke: #000000; stroke-width: 0.5"/>
      </defs>
      <g>
       <use xlink:href="#m478ad2b52d" x="36" y="256.32" style="stroke: #000000; stroke-width: 0.5"/>
      </g>
     </g>
     <g id="line2d_58">
      <defs>
       <path id="m6a371c70f4" d="M 0 0 
L -5 0 
" style="stroke: #000000; stroke-width: 0.5"/>
      </defs>
      <g>
       <use xlink:href="#m6a371c70f4" x="259.2" y="256.32" style="stroke: #000000; stroke-width: 0.5"/>
      </g>
     </g>
     <g id="text_7">
      <!-- 0 -->
      <g transform="translate(26.140045 260.117699) scale(0.09996 -0.09996)">
       <use xlink:href="#DejaVuSerif-30"/>
      </g>
     </g>
    </g>
    <g id="ytick_2">
     <g id="line2d_59">
      <g>
       <use xlink:href="#m478ad2b52d" x="36" y="230.549075" style="stroke: #000000; stroke-width: 0.5"/>
      </g>
     </g>
     <g id="line2d_60">
      <g>
       <use xlink:href="#m6a371c70f4" x="259.2" y="230.549075" style="stroke: #000000; stroke-width: 0.5"/>
      </g>
     </g>
     <g id="text_8">
      <!-- 1 -->
      <g transform="translate(26.140045 234.346774) scale(0.09996 -0.09996)">
       <use xlink:href="#DejaVuSerif-31"/>
      </g>
     </g>
    </g>
    <g id="ytick_3">
     <g id="line2d_61">
      <g>
       <use xlink:href="#m478ad2b52d" x="36" y="204.77815" style="stroke: #000000; stroke-width: 0.5"/>
      </g>
     </g>
     <g id="line2d_62">
      <g>
       <use xlink:href="#m6a371c70f4" x="259.2" y="204.77815" style="stroke: #000000; stroke-width: 0.5"/>
      </g>
     </g>
     <g id="text_9">
      <!-- 2 -->
      <g transform="translate(26.140045 208.575849) scale(0.09996 -0.09996)">
       <use xlink:href="#DejaVuSerif-32"/>
      </g>
     </g>
    </g>
    <g id="ytick_4">
     <g id="line2d_63">
      <g>
       <use xlink:href="#m478ad2b52d" x="36" y="179.007225" style="stroke: #000000; stroke-width: 0.5"/>
      </g>
     </g>
     <g id="line2d_64">
      <g>
       <use xlink:href="#m6a371c70f4" x="259.2" y="179.007225" style="stroke: #000000; stroke-width: 0.5"/>
      </g>
     </g>
     <g id="text_10">
      <!-- 3 -->
      <g transform="translate(26.140045 182.804924) scale(0.09996 -0.09996)">
       <use xlink:href="#DejaVuSerif-33"/>
      </g>
     </g>
    </g>
    <g id="ytick_5">
     <g id="line2d_65">
      <g>
       <use xlink:href="#m478ad2b52d" x="36" y="153.2363" style="stroke: #000000; stroke-width: 0.5"/>
      </g>
     </g>
     <g id="line2d_66">
      <g>
       <use xlink:href="#m6a371c70f4" x="259.2" y="153.2363" style="stroke: #000000; stroke-width: 0.5"/>
      </g>
     </g>
     <g id="text_11">
      <!-- 4 -->
      <g transform="translate(26.140045 157.033999) scale(0.09996 -0.09996)">
       <defs>
        <path id="DejaVuSerif-34" d="M 2234 1581 
L 2234 4063 
L 641 1581 
L 2234 1581 
z
M 3609 0 
L 1484 0 
L 1484 331 
L 2234 331 
L 2234 1247 
L 197 1247 
L 197 1588 
L 2241 4750 
L 2859 4750 
L 2859 1581 
L 3750 1581 
L 3750 1247 
L 2859 1247 
L 2859 331 
L 3609 331 
L 3609 0 
z
" transform="scale(0.015625)"/>
       </defs>
       <use xlink:href="#DejaVuSerif-34"/>
      </g>
     </g>
    </g>
    <g id="ytick_6">
     <g id="line2d_67">
      <g>
       <use xlink:href="#m478ad2b52d" x="36" y="127.465375" style="stroke: #000000; stroke-width: 0.5"/>
      </g>
     </g>
     <g id="line2d_68">
      <g>
       <use xlink:href="#m6a371c70f4" x="259.2" y="127.465375" style="stroke: #000000; stroke-width: 0.5"/>
      </g>
     </g>
     <g id="text_12">
      <!-- 5 -->
      <g transform="translate(26.140045 131.263074) scale(0.09996 -0.09996)">
       <defs>
        <path id="DejaVuSerif-35" d="M 3219 4666 
L 3219 4153 
L 1081 4153 
L 1081 2816 
Q 1244 2928 1461 2984 
Q 1678 3041 1947 3041 
Q 2703 3041 3140 2622 
Q 3578 2203 3578 1478 
Q 3578 738 3136 323 
Q 2694 -91 1894 -91 
Q 1572 -91 1234 -12 
Q 897 66 544 225 
L 544 1131 
L 897 1131 
Q 925 688 1179 453 
Q 1434 219 1894 219 
Q 2388 219 2653 544 
Q 2919 869 2919 1478 
Q 2919 2084 2655 2407 
Q 2391 2731 1894 2731 
Q 1613 2731 1398 2631 
Q 1184 2531 1019 2322 
L 750 2322 
L 750 4666 
L 3219 4666 
z
" transform="scale(0.015625)"/>
       </defs>
       <use xlink:href="#DejaVuSerif-35"/>
      </g>
     </g>
    </g>
    <g id="ytick_7">
     <g id="line2d_69">
      <g>
       <use xlink:href="#m478ad2b52d" x="36" y="101.69445" style="stroke: #000000; stroke-width: 0.5"/>
      </g>
     </g>
     <g id="line2d_70">
      <g>
       <use xlink:href="#m6a371c70f4" x="259.2" y="101.69445" style="stroke: #000000; stroke-width: 0.5"/>
      </g>
     </g>
     <g id="text_13">
      <!-- 6 -->
      <g transform="translate(26.140045 105.492149) scale(0.09996 -0.09996)">
       <defs>
        <path id="DejaVuSerif-36" d="M 2094 219 
Q 2534 219 2771 542 
Q 3009 866 3009 1472 
Q 3009 2078 2771 2401 
Q 2534 2725 2094 2725 
Q 1647 2725 1412 2412 
Q 1178 2100 1178 1509 
Q 1178 888 1415 553 
Q 1653 219 2094 219 
z
M 1075 2569 
Q 1288 2803 1556 2918 
Q 1825 3034 2163 3034 
Q 2859 3034 3264 2615 
Q 3669 2197 3669 1472 
Q 3669 763 3233 336 
Q 2797 -91 2069 -91 
Q 1278 -91 853 498 
Q 428 1088 428 2181 
Q 428 3406 931 4078 
Q 1434 4750 2350 4750 
Q 2597 4750 2869 4703 
Q 3141 4656 3425 4563 
L 3425 3794 
L 3072 3794 
Q 3034 4109 2831 4275 
Q 2628 4441 2284 4441 
Q 1678 4441 1381 3981 
Q 1084 3522 1075 2569 
z
" transform="scale(0.015625)"/>
       </defs>
       <use xlink:href="#DejaVuSerif-36"/>
      </g>
     </g>
    </g>
    <g id="ytick_8">
     <g id="line2d_71">
      <g>
       <use xlink:href="#m478ad2b52d" x="36" y="75.923525" style="stroke: #000000; stroke-width: 0.5"/>
      </g>
     </g>
     <g id="line2d_72">
      <g>
       <use xlink:href="#m6a371c70f4" x="259.2" y="75.923525" style="stroke: #000000; stroke-width: 0.5"/>
      </g>
     </g>
     <g id="text_14">
      <!-- 7 -->
      <g transform="translate(26.140045 79.721224) scale(0.09996 -0.09996)">
       <defs>
        <path id="DejaVuSerif-37" d="M 3609 4347 
L 1784 0 
L 1319 0 
L 3059 4153 
L 903 4153 
L 903 3578 
L 538 3578 
L 538 4666 
L 3609 4666 
L 3609 4347 
z
" transform="scale(0.015625)"/>
       </defs>
       <use xlink:href="#DejaVuSerif-37"/>
      </g>
     </g>
    </g>
    <g id="ytick_9">
     <g id="line2d_73">
      <g>
       <use xlink:href="#m478ad2b52d" x="36" y="50.1526" style="stroke: #000000; stroke-width: 0.5"/>
      </g>
     </g>
     <g id="line2d_74">
      <g>
       <use xlink:href="#m6a371c70f4" x="259.2" y="50.1526" style="stroke: #000000; stroke-width: 0.5"/>
      </g>
     </g>
     <g id="text_15">
      <!-- 8 -->
      <g transform="translate(26.140045 53.950299) scale(0.09996 -0.09996)">
       <defs>
        <path id="DejaVuSerif-38" d="M 2981 1275 
Q 2981 1775 2732 2051 
Q 2484 2328 2034 2328 
Q 1584 2328 1336 2051 
Q 1088 1775 1088 1275 
Q 1088 772 1336 495 
Q 1584 219 2034 219 
Q 2484 219 2732 495 
Q 2981 772 2981 1275 
z
M 2853 3541 
Q 2853 3966 2637 4203 
Q 2422 4441 2034 4441 
Q 1650 4441 1433 4203 
Q 1216 3966 1216 3541 
Q 1216 3113 1433 2875 
Q 1650 2638 2034 2638 
Q 2422 2638 2637 2875 
Q 2853 3113 2853 3541 
z
M 2516 2484 
Q 3047 2413 3344 2092 
Q 3641 1772 3641 1275 
Q 3641 619 3225 264 
Q 2809 -91 2034 -91 
Q 1263 -91 845 264 
Q 428 619 428 1275 
Q 428 1772 725 2092 
Q 1022 2413 1556 2484 
Q 1084 2569 832 2842 
Q 581 3116 581 3541 
Q 581 4103 968 4426 
Q 1356 4750 2034 4750 
Q 2713 4750 3100 4426 
Q 3488 4103 3488 3541 
Q 3488 3116 3236 2842 
Q 2984 2569 2516 2484 
z
" transform="scale(0.015625)"/>
       </defs>
       <use xlink:href="#DejaVuSerif-38"/>
      </g>
     </g>
    </g>
    <g id="ytick_10">
     <g id="line2d_75">
      <defs>
       <path id="me4e5bf4571" d="M 0 0 
L 3 0 
" style="stroke: #000000; stroke-width: 0.5"/>
      </defs>
      <g>
       <use xlink:href="#me4e5bf4571" x="36" y="251.165815" style="stroke: #000000; stroke-width: 0.5"/>
      </g>
     </g>
     <g id="line2d_76">
      <defs>
       <path id="mb07e3dd6c8" d="M 0 0 
L -3 0 
" style="stroke: #000000; stroke-width: 0.5"/>
      </defs>
      <g>
       <use xlink:href="#mb07e3dd6c8" x="259.2" y="251.165815" style="stroke: #000000; stroke-width: 0.5"/>
      </g>
     </g>
    </g>
    <g id="ytick_11">
     <g id="line2d_77">
      <g>
       <use xlink:href="#me4e5bf4571" x="36" y="246.01163" style="stroke: #000000; stroke-width: 0.5"/>
      </g>
     </g>
     <g id="line2d_78">
      <g>
       <use xlink:href="#mb07e3dd6c8" x="259.2" y="246.01163" style="stroke: #000000; stroke-width: 0.5"/>
      </g>
     </g>
    </g>
    <g id="ytick_12">
     <g id="line2d_79">
      <g>
       <use xlink:href="#me4e5bf4571" x="36" y="240.857445" style="stroke: #000000; stroke-width: 0.5"/>
      </g>
     </g>
     <g id="line2d_80">
      <g>
       <use xlink:href="#mb07e3dd6c8" x="259.2" y="240.857445" style="stroke: #000000; stroke-width: 0.5"/>
      </g>
     </g>
    </g>
    <g id="ytick_13">
     <g id="line2d_81">
      <g>
       <use xlink:href="#me4e5bf4571" x="36" y="235.70326" style="stroke: #000000; stroke-width: 0.5"/>
      </g>
     </g>
     <g id="line2d_82">
      <g>
       <use xlink:href="#mb07e3dd6c8" x="259.2" y="235.70326" style="stroke: #000000; stroke-width: 0.5"/>
      </g>
     </g>
    </g>
    <g id="ytick_14">
     <g id="line2d_83">
      <g>
       <use xlink:href="#me4e5bf4571" x="36" y="225.39489" style="stroke: #000000; stroke-width: 0.5"/>
      </g>
     </g>
     <g id="line2d_84">
      <g>
       <use xlink:href="#mb07e3dd6c8" x="259.2" y="225.39489" style="stroke: #000000; stroke-width: 0.5"/>
      </g>
     </g>
    </g>
    <g id="ytick_15">
     <g id="line2d_85">
      <g>
       <use xlink:href="#me4e5bf4571" x="36" y="220.240705" style="stroke: #000000; stroke-width: 0.5"/>
      </g>
     </g>
     <g id="line2d_86">
      <g>
       <use xlink:href="#mb07e3dd6c8" x="259.2" y="220.240705" style="stroke: #000000; stroke-width: 0.5"/>
      </g>
     </g>
    </g>
    <g id="ytick_16">
     <g id="line2d_87">
      <g>
       <use xlink:href="#me4e5bf4571" x="36" y="215.08652" style="stroke: #000000; stroke-width: 0.5"/>
      </g>
     </g>
     <g id="line2d_88">
      <g>
       <use xlink:href="#mb07e3dd6c8" x="259.2" y="215.08652" style="stroke: #000000; stroke-width: 0.5"/>
      </g>
     </g>
    </g>
    <g id="ytick_17">
     <g id="line2d_89">
      <g>
       <use xlink:href="#me4e5bf4571" x="36" y="209.932335" style="stroke: #000000; stroke-width: 0.5"/>
      </g>
     </g>
     <g id="line2d_90">
      <g>
       <use xlink:href="#mb07e3dd6c8" x="259.2" y="209.932335" style="stroke: #000000; stroke-width: 0.5"/>
      </g>
     </g>
    </g>
    <g id="ytick_18">
     <g id="line2d_91">
      <g>
       <use xlink:href="#me4e5bf4571" x="36" y="199.623965" style="stroke: #000000; stroke-width: 0.5"/>
      </g>
     </g>
     <g id="line2d_92">
      <g>
       <use xlink:href="#mb07e3dd6c8" x="259.2" y="199.623965" style="stroke: #000000; stroke-width: 0.5"/>
      </g>
     </g>
    </g>
    <g id="ytick_19">
     <g id="line2d_93">
      <g>
       <use xlink:href="#me4e5bf4571" x="36" y="194.46978" style="stroke: #000000; stroke-width: 0.5"/>
      </g>
     </g>
     <g id="line2d_94">
      <g>
       <use xlink:href="#mb07e3dd6c8" x="259.2" y="194.46978" style="stroke: #000000; stroke-width: 0.5"/>
      </g>
     </g>
    </g>
    <g id="ytick_20">
     <g id="line2d_95">
      <g>
       <use xlink:href="#me4e5bf4571" x="36" y="189.315595" style="stroke: #000000; stroke-width: 0.5"/>
      </g>
     </g>
     <g id="line2d_96">
      <g>
       <use xlink:href="#mb07e3dd6c8" x="259.2" y="189.315595" style="stroke: #000000; stroke-width: 0.5"/>
      </g>
     </g>
    </g>
    <g id="ytick_21">
     <g id="line2d_97">
      <g>
       <use xlink:href="#me4e5bf4571" x="36" y="184.16141" style="stroke: #000000; stroke-width: 0.5"/>
      </g>
     </g>
     <g id="line2d_98">
      <g>
       <use xlink:href="#mb07e3dd6c8" x="259.2" y="184.16141" style="stroke: #000000; stroke-width: 0.5"/>
      </g>
     </g>
    </g>
    <g id="ytick_22">
     <g id="line2d_99">
      <g>
       <use xlink:href="#me4e5bf4571" x="36" y="173.85304" style="stroke: #000000; stroke-width: 0.5"/>
      </g>
     </g>
     <g id="line2d_100">
      <g>
       <use xlink:href="#mb07e3dd6c8" x="259.2" y="173.85304" style="stroke: #000000; stroke-width: 0.5"/>
      </g>
     </g>
    </g>
    <g id="ytick_23">
     <g id="line2d_101">
      <g>
       <use xlink:href="#me4e5bf4571" x="36" y="168.698855" style="stroke: #000000; stroke-width: 0.5"/>
      </g>
     </g>
     <g id="line2d_102">
      <g>
       <use xlink:href="#mb07e3dd6c8" x="259.2" y="168.698855" style="stroke: #000000; stroke-width: 0.5"/>
      </g>
     </g>
    </g>
    <g id="ytick_24">
     <g id="line2d_103">
      <g>
       <use xlink:href="#me4e5bf4571" x="36" y="163.54467" style="stroke: #000000; stroke-width: 0.5"/>
      </g>
     </g>
     <g id="line2d_104">
      <g>
       <use xlink:href="#mb07e3dd6c8" x="259.2" y="163.54467" style="stroke: #000000; stroke-width: 0.5"/>
      </g>
     </g>
    </g>
    <g id="ytick_25">
     <g id="line2d_105">
      <g>
       <use xlink:href="#me4e5bf4571" x="36" y="158.390485" style="stroke: #000000; stroke-width: 0.5"/>
      </g>
     </g>
     <g id="line2d_106">
      <g>
       <use xlink:href="#mb07e3dd6c8" x="259.2" y="158.390485" style="stroke: #000000; stroke-width: 0.5"/>
      </g>
     </g>
    </g>
    <g id="ytick_26">
     <g id="line2d_107">
      <g>
       <use xlink:href="#me4e5bf4571" x="36" y="148.082115" style="stroke: #000000; stroke-width: 0.5"/>
      </g>
     </g>
     <g id="line2d_108">
      <g>
       <use xlink:href="#mb07e3dd6c8" x="259.2" y="148.082115" style="stroke: #000000; stroke-width: 0.5"/>
      </g>
     </g>
    </g>
    <g id="ytick_27">
     <g id="line2d_109">
      <g>
       <use xlink:href="#me4e5bf4571" x="36" y="142.92793" style="stroke: #000000; stroke-width: 0.5"/>
      </g>
     </g>
     <g id="line2d_110">
      <g>
       <use xlink:href="#mb07e3dd6c8" x="259.2" y="142.92793" style="stroke: #000000; stroke-width: 0.5"/>
      </g>
     </g>
    </g>
    <g id="ytick_28">
     <g id="line2d_111">
      <g>
       <use xlink:href="#me4e5bf4571" x="36" y="137.773745" style="stroke: #000000; stroke-width: 0.5"/>
      </g>
     </g>
     <g id="line2d_112">
      <g>
       <use xlink:href="#mb07e3dd6c8" x="259.2" y="137.773745" style="stroke: #000000; stroke-width: 0.5"/>
      </g>
     </g>
    </g>
    <g id="ytick_29">
     <g id="line2d_113">
      <g>
       <use xlink:href="#me4e5bf4571" x="36" y="132.61956" style="stroke: #000000; stroke-width: 0.5"/>
      </g>
     </g>
     <g id="line2d_114">
      <g>
       <use xlink:href="#mb07e3dd6c8" x="259.2" y="132.61956" style="stroke: #000000; stroke-width: 0.5"/>
      </g>
     </g>
    </g>
    <g id="ytick_30">
     <g id="line2d_115">
      <g>
       <use xlink:href="#me4e5bf4571" x="36" y="122.31119" style="stroke: #000000; stroke-width: 0.5"/>
      </g>
     </g>
     <g id="line2d_116">
      <g>
       <use xlink:href="#mb07e3dd6c8" x="259.2" y="122.31119" style="stroke: #000000; stroke-width: 0.5"/>
      </g>
     </g>
    </g>
    <g id="ytick_31">
     <g id="line2d_117">
      <g>
       <use xlink:href="#me4e5bf4571" x="36" y="117.157005" style="stroke: #000000; stroke-width: 0.5"/>
      </g>
     </g>
     <g id="line2d_118">
      <g>
       <use xlink:href="#mb07e3dd6c8" x="259.2" y="117.157005" style="stroke: #000000; stroke-width: 0.5"/>
      </g>
     </g>
    </g>
    <g id="ytick_32">
     <g id="line2d_119">
      <g>
       <use xlink:href="#me4e5bf4571" x="36" y="112.00282" style="stroke: #000000; stroke-width: 0.5"/>
      </g>
     </g>
     <g id="line2d_120">
      <g>
       <use xlink:href="#mb07e3dd6c8" x="259.2" y="112.00282" style="stroke: #000000; stroke-width: 0.5"/>
      </g>
     </g>
    </g>
    <g id="ytick_33">
     <g id="line2d_121">
      <g>
       <use xlink:href="#me4e5bf4571" x="36" y="106.848635" style="stroke: #000000; stroke-width: 0.5"/>
      </g>
     </g>
     <g id="line2d_122">
      <g>
       <use xlink:href="#mb07e3dd6c8" x="259.2" y="106.848635" style="stroke: #000000; stroke-width: 0.5"/>
      </g>
     </g>
    </g>
    <g id="ytick_34">
     <g id="line2d_123">
      <g>
       <use xlink:href="#me4e5bf4571" x="36" y="96.540265" style="stroke: #000000; stroke-width: 0.5"/>
      </g>
     </g>
     <g id="line2d_124">
      <g>
       <use xlink:href="#mb07e3dd6c8" x="259.2" y="96.540265" style="stroke: #000000; stroke-width: 0.5"/>
      </g>
     </g>
    </g>
    <g id="ytick_35">
     <g id="line2d_125">
      <g>
       <use xlink:href="#me4e5bf4571" x="36" y="91.38608" style="stroke: #000000; stroke-width: 0.5"/>
      </g>
     </g>
     <g id="line2d_126">
      <g>
       <use xlink:href="#mb07e3dd6c8" x="259.2" y="91.38608" style="stroke: #000000; stroke-width: 0.5"/>
      </g>
     </g>
    </g>
    <g id="ytick_36">
     <g id="line2d_127">
      <g>
       <use xlink:href="#me4e5bf4571" x="36" y="86.231895" style="stroke: #000000; stroke-width: 0.5"/>
      </g>
     </g>
     <g id="line2d_128">
      <g>
       <use xlink:href="#mb07e3dd6c8" x="259.2" y="86.231895" style="stroke: #000000; stroke-width: 0.5"/>
      </g>
     </g>
    </g>
    <g id="ytick_37">
     <g id="line2d_129">
      <g>
       <use xlink:href="#me4e5bf4571" x="36" y="81.07771" style="stroke: #000000; stroke-width: 0.5"/>
      </g>
     </g>
     <g id="line2d_130">
      <g>
       <use xlink:href="#mb07e3dd6c8" x="259.2" y="81.07771" style="stroke: #000000; stroke-width: 0.5"/>
      </g>
     </g>
    </g>
    <g id="ytick_38">
     <g id="line2d_131">
      <g>
       <use xlink:href="#me4e5bf4571" x="36" y="70.76934" style="stroke: #000000; stroke-width: 0.5"/>
      </g>
     </g>
     <g id="line2d_132">
      <g>
       <use xlink:href="#mb07e3dd6c8" x="259.2" y="70.76934" style="stroke: #000000; stroke-width: 0.5"/>
      </g>
     </g>
    </g>
    <g id="ytick_39">
     <g id="line2d_133">
      <g>
       <use xlink:href="#me4e5bf4571" x="36" y="65.615155" style="stroke: #000000; stroke-width: 0.5"/>
      </g>
     </g>
     <g id="line2d_134">
      <g>
       <use xlink:href="#mb07e3dd6c8" x="259.2" y="65.615155" style="stroke: #000000; stroke-width: 0.5"/>
      </g>
     </g>
    </g>
    <g id="ytick_40">
     <g id="line2d_135">
      <g>
       <use xlink:href="#me4e5bf4571" x="36" y="60.46097" style="stroke: #000000; stroke-width: 0.5"/>
      </g>
     </g>
     <g id="line2d_136">
      <g>
       <use xlink:href="#mb07e3dd6c8" x="259.2" y="60.46097" style="stroke: #000000; stroke-width: 0.5"/>
      </g>
     </g>
    </g>
    <g id="ytick_41">
     <g id="line2d_137">
      <g>
       <use xlink:href="#me4e5bf4571" x="36" y="55.306785" style="stroke: #000000; stroke-width: 0.5"/>
      </g>
     </g>
     <g id="line2d_138">
      <g>
       <use xlink:href="#mb07e3dd6c8" x="259.2" y="55.306785" style="stroke: #000000; stroke-width: 0.5"/>
      </g>
     </g>
    </g>
    <g id="ytick_42">
     <g id="line2d_139">
      <g>
       <use xlink:href="#me4e5bf4571" x="36" y="44.998415" style="stroke: #000000; stroke-width: 0.5"/>
      </g>
     </g>
     <g id="line2d_140">
      <g>
       <use xlink:href="#mb07e3dd6c8" x="259.2" y="44.998415" style="stroke: #000000; stroke-width: 0.5"/>
      </g>
     </g>
    </g>
    <g id="ytick_43">
     <g id="line2d_141">
      <g>
       <use xlink:href="#me4e5bf4571" x="36" y="39.84423" style="stroke: #000000; stroke-width: 0.5"/>
      </g>
     </g>
     <g id="line2d_142">
      <g>
       <use xlink:href="#mb07e3dd6c8" x="259.2" y="39.84423" style="stroke: #000000; stroke-width: 0.5"/>
      </g>
     </g>
    </g>
    <g id="ytick_44">
     <g id="line2d_143">
      <g>
       <use xlink:href="#me4e5bf4571" x="36" y="34.690045" style="stroke: #000000; stroke-width: 0.5"/>
      </g>
     </g>
     <g id="line2d_144">
      <g>
       <use xlink:href="#mb07e3dd6c8" x="259.2" y="34.690045" style="stroke: #000000; stroke-width: 0.5"/>
      </g>
     </g>
    </g>
    <g id="text_16">
     <!-- Density -->
     <g transform="translate(19.919059 164.619825) rotate(-90) scale(0.09996 -0.09996)">
      <defs>
       <path id="DejaVuSerif-44" d="M 1581 331 
L 2163 331 
Q 3072 331 3558 850 
Q 4044 1369 4044 2338 
Q 4044 3306 3559 3818 
Q 3075 4331 2163 4331 
L 1581 4331 
L 1581 331 
z
M 353 0 
L 353 331 
L 947 331 
L 947 4331 
L 353 4331 
L 353 4666 
L 2209 4666 
Q 3416 4666 4089 4050 
Q 4763 3434 4763 2338 
Q 4763 1238 4088 619 
Q 3413 0 2209 0 
L 353 0 
z
" transform="scale(0.015625)"/>
       <path id="DejaVuSerif-65" d="M 3469 1600 
L 991 1600 
L 991 1575 
Q 991 903 1244 561 
Q 1497 219 1991 219 
Q 2369 219 2611 417 
Q 2853 616 2950 1006 
L 3413 1006 
Q 3275 459 2904 184 
Q 2534 -91 1931 -91 
Q 1203 -91 761 389 
Q 319 869 319 1663 
Q 319 2450 753 2931 
Q 1188 3413 1894 3413 
Q 2647 3413 3050 2948 
Q 3453 2484 3469 1600 
z
M 2791 1931 
Q 2772 2513 2545 2808 
Q 2319 3103 1894 3103 
Q 1497 3103 1269 2806 
Q 1041 2509 991 1931 
L 2791 1931 
z
" transform="scale(0.015625)"/>
       <path id="DejaVuSerif-69" d="M 622 4353 
Q 622 4497 726 4603 
Q 831 4709 978 4709 
Q 1122 4709 1226 4603 
Q 1331 4497 1331 4353 
Q 1331 4206 1228 4103 
Q 1125 4000 978 4000 
Q 831 4000 726 4103 
Q 622 4206 622 4353 
z
M 1356 331 
L 1900 331 
L 1900 0 
L 231 0 
L 231 331 
L 781 331 
L 781 2988 
L 231 2988 
L 231 3322 
L 1356 3322 
L 1356 331 
z
" transform="scale(0.015625)"/>
       <path id="DejaVuSerif-74" d="M 691 2988 
L 184 2988 
L 184 3322 
L 691 3322 
L 691 4353 
L 1269 4353 
L 1269 3322 
L 2350 3322 
L 2350 2988 
L 1269 2988 
L 1269 878 
Q 1269 456 1350 337 
Q 1431 219 1650 219 
Q 1875 219 1978 351 
Q 2081 484 2088 781 
L 2522 781 
Q 2497 328 2275 118 
Q 2053 -91 1600 -91 
Q 1103 -91 897 129 
Q 691 350 691 878 
L 691 2988 
z
" transform="scale(0.015625)"/>
       <path id="DejaVuSerif-79" d="M 1381 -609 
L 1600 -56 
L 359 2988 
L -19 2988 
L -19 3322 
L 1509 3322 
L 1509 2988 
L 978 2988 
L 1913 703 
L 2847 2988 
L 2350 2988 
L 2350 3322 
L 3597 3322 
L 3597 2988 
L 3225 2988 
L 1703 -750 
Q 1547 -1138 1356 -1280 
Q 1166 -1422 819 -1422 
Q 672 -1422 517 -1397 
Q 363 -1372 206 -1325 
L 206 -691 
L 500 -691 
Q 519 -903 608 -995 
Q 697 -1088 884 -1088 
Q 1056 -1088 1161 -992 
Q 1266 -897 1381 -609 
z
" transform="scale(0.015625)"/>
      </defs>
      <use xlink:href="#DejaVuSerif-44"/>
      <use xlink:href="#DejaVuSerif-65" x="80.175781"/>
      <use xlink:href="#DejaVuSerif-6e" x="139.355469"/>
      <use xlink:href="#DejaVuSerif-73" x="203.759766"/>
      <use xlink:href="#DejaVuSerif-69" x="255.078125"/>
      <use xlink:href="#DejaVuSerif-74" x="287.060547"/>
      <use xlink:href="#DejaVuSerif-79" x="327.246094"/>
     </g>
    </g>
   </g>
   <g id="line2d_145">
    <path d="M 111.219265 256.32 
L 111.219265 34.56 
" clip-path="url(#pc80c97a911)" style="fill: none; stroke: #000000; stroke-width: 1.25; stroke-linecap: square"/>
   </g>
   <g id="line2d_146">
    <path d="M 249.054545 256.32 
L 249.054545 34.56 
" clip-path="url(#pc80c97a911)" style="fill: none; stroke: #ff0000; stroke-width: 1.25; stroke-linecap: square"/>
   </g>
   <g id="patch_3">
    <path d="M 36 256.32 
L 36 34.56 
" style="fill: none; stroke: #000000; stroke-width: 0.5; stroke-linejoin: miter; stroke-linecap: square"/>
   </g>
   <g id="patch_4">
    <path d="M 259.2 256.32 
L 259.2 34.56 
" style="fill: none; stroke: #000000; stroke-width: 0.5; stroke-linejoin: miter; stroke-linecap: square"/>
   </g>
   <g id="patch_5">
    <path d="M 36 256.32 
L 259.2 256.32 
" style="fill: none; stroke: #000000; stroke-width: 0.5; stroke-linejoin: miter; stroke-linecap: square"/>
   </g>
   <g id="patch_6">
    <path d="M 36 34.56 
L 259.2 34.56 
" style="fill: none; stroke: #000000; stroke-width: 0.5; stroke-linejoin: miter; stroke-linecap: square"/>
   </g>
  </g>
 </g>
 <defs>
  <clipPath id="pc80c97a911">
   <rect x="36" y="34.56" width="223.2" height="221.76"/>
  </clipPath>
 </defs>
</svg>
