<?xml version="1.0" encoding="utf-8" standalone="no"?>
<!DOCTYPE svg PUBLIC "-//W3C//DTD SVG 1.1//EN"
  "http://www.w3.org/Graphics/SVG/1.1/DTD/svg11.dtd">
<svg xmlns:xlink="http://www.w3.org/1999/xlink" width="288pt" height="288pt" viewBox="0 0 288 288" xmlns="http://www.w3.org/2000/svg" version="1.1">
 <metadata>
  <rdf:RDF xmlns:dc="http://purl.org/dc/elements/1.1/" xmlns:cc="http://creativecommons.org/ns#" xmlns:rdf="http://www.w3.org/1999/02/22-rdf-syntax-ns#">
   <cc:Work>
    <dc:type rdf:resource="http://purl.org/dc/dcmitype/StillImage"/>
    <dc:date>2023-01-13T23:19:50.701580</dc:date>
    <dc:format>image/svg+xml</dc:format>
    <dc:creator>
     <cc:Agent>
      <dc:title>Matplotlib v3.6.3, https://matplotlib.org/</dc:title>
     </cc:Agent>
    </dc:creator>
   </cc:Work>
  </rdf:RDF>
 </metadata>
 <defs>
  <style type="text/css">*{stroke-linejoin: round; stroke-linecap: butt}</style>
 </defs>
 <g id="figure_1">
  <g id="patch_1">
   <path d="M 0 288 
L 288 288 
L 288 0 
L 0 0 
z
" style="fill: #ffffff"/>
  </g>
  <g id="axes_1">
   <g id="patch_2">
    <path d="M 36 256.32 
L 259.2 256.32 
L 259.2 34.56 
L 36 34.56 
z
" style="fill: #ffffff"/>
   </g>
   <g id="PolyCollection_1">
    <defs>
     <path id="mfa0426c453" d="M 46.145455 -31.69192 
L 46.145455 -31.68 
L 46.724762 -31.68 
L 47.304069 -31.68 
L 47.883376 -31.68 
L 48.462683 -31.68 
L 49.04199 -31.68 
L 49.621297 -31.68 
L 50.200605 -31.68 
L 50.779912 -31.68 
L 51.359219 -31.68 
L 51.938526 -31.68 
L 52.517833 -31.68 
L 53.09714 -31.68 
L 53.676447 -31.68 
L 54.255755 -31.68 
L 54.835062 -31.68 
L 55.414369 -31.68 
L 55.993676 -31.68 
L 56.572983 -31.68 
L 57.15229 -31.68 
L 57.731598 -31.68 
L 58.310905 -31.68 
L 58.890212 -31.68 
L 59.469519 -31.68 
L 60.048826 -31.68 
L 60.628133 -31.68 
L 61.20744 -31.68 
L 61.786748 -31.68 
L 62.366055 -31.68 
L 62.945362 -31.68 
L 63.524669 -31.68 
L 64.103976 -31.68 
L 64.683283 -31.68 
L 65.26259 -31.68 
L 65.841898 -31.68 
L 66.421205 -31.68 
L 67.000512 -31.68 
L 67.579819 -31.68 
L 68.159126 -31.68 
L 68.738433 -31.68 
L 69.31774 -31.68 
L 69.897048 -31.68 
L 70.476355 -31.68 
L 71.055662 -31.68 
L 71.634969 -31.68 
L 72.214276 -31.68 
L 72.793583 -31.68 
L 73.37289 -31.68 
L 73.952198 -31.68 
L 74.531505 -31.68 
L 75.110812 -31.68 
L 75.690119 -31.68 
L 76.269426 -31.68 
L 76.848733 -31.68 
L 77.428041 -31.68 
L 78.007348 -31.68 
L 78.586655 -31.68 
L 79.165962 -31.68 
L 79.745269 -31.68 
L 80.324576 -31.68 
L 80.903883 -31.68 
L 81.483191 -31.68 
L 82.062498 -31.68 
L 82.641805 -31.68 
L 83.221112 -31.68 
L 83.800419 -31.68 
L 84.379726 -31.68 
L 84.959033 -31.68 
L 85.538341 -31.68 
L 86.117648 -31.68 
L 86.696955 -31.68 
L 87.276262 -31.68 
L 87.855569 -31.68 
L 88.434876 -31.68 
L 89.014183 -31.68 
L 89.593491 -31.68 
L 90.172798 -31.68 
L 90.752105 -31.68 
L 91.331412 -31.68 
L 91.910719 -31.68 
L 92.490026 -31.68 
L 93.069334 -31.68 
L 93.648641 -31.68 
L 94.227948 -31.68 
L 94.807255 -31.68 
L 95.386562 -31.68 
L 95.965869 -31.68 
L 96.545176 -31.68 
L 97.124484 -31.68 
L 97.703791 -31.68 
L 98.283098 -31.68 
L 98.862405 -31.68 
L 99.441712 -31.68 
L 100.021019 -31.68 
L 100.600326 -31.68 
L 101.179634 -31.68 
L 101.758941 -31.68 
L 102.338248 -31.68 
L 102.917555 -31.68 
L 103.496862 -31.68 
L 104.076169 -31.68 
L 104.655476 -31.68 
L 105.234784 -31.68 
L 105.814091 -31.68 
L 106.393398 -31.68 
L 106.972705 -31.68 
L 107.552012 -31.68 
L 108.131319 -31.68 
L 108.710627 -31.68 
L 109.289934 -31.68 
L 109.869241 -31.68 
L 110.448548 -31.68 
L 111.027855 -31.68 
L 111.607162 -31.68 
L 112.186469 -31.68 
L 112.765777 -31.68 
L 113.345084 -31.68 
L 113.924391 -31.68 
L 114.503698 -31.68 
L 115.083005 -31.68 
L 115.662312 -31.68 
L 116.241619 -31.68 
L 116.820927 -31.68 
L 117.400234 -31.68 
L 117.979541 -31.68 
L 118.558848 -31.68 
L 119.138155 -31.68 
L 119.717462 -31.68 
L 120.296769 -31.68 
L 120.876077 -31.68 
L 121.455384 -31.68 
L 122.034691 -31.68 
L 122.613998 -31.68 
L 123.193305 -31.68 
L 123.772612 -31.68 
L 124.35192 -31.68 
L 124.931227 -31.68 
L 125.510534 -31.68 
L 126.089841 -31.68 
L 126.669148 -31.68 
L 127.248455 -31.68 
L 127.827762 -31.68 
L 128.40707 -31.68 
L 128.986377 -31.68 
L 129.565684 -31.68 
L 130.144991 -31.68 
L 130.724298 -31.68 
L 131.303605 -31.68 
L 131.882912 -31.68 
L 132.46222 -31.68 
L 133.041527 -31.68 
L 133.620834 -31.68 
L 134.200141 -31.68 
L 134.779448 -31.68 
L 135.358755 -31.68 
L 135.938062 -31.68 
L 136.51737 -31.68 
L 137.096677 -31.68 
L 137.675984 -31.68 
L 138.255291 -31.68 
L 138.834598 -31.68 
L 139.413905 -31.68 
L 139.993212 -31.68 
L 140.57252 -31.68 
L 141.151827 -31.68 
L 141.731134 -31.68 
L 142.310441 -31.68 
L 142.889748 -31.68 
L 143.469055 -31.68 
L 144.048363 -31.68 
L 144.62767 -31.68 
L 145.206977 -31.68 
L 145.786284 -31.68 
L 146.365591 -31.68 
L 146.944898 -31.68 
L 147.524205 -31.68 
L 148.103513 -31.68 
L 148.68282 -31.68 
L 149.262127 -31.68 
L 149.841434 -31.68 
L 150.420741 -31.68 
L 151.000048 -31.68 
L 151.579355 -31.68 
L 152.158663 -31.68 
L 152.73797 -31.68 
L 153.317277 -31.68 
L 153.896584 -31.68 
L 154.475891 -31.68 
L 155.055198 -31.68 
L 155.634505 -31.68 
L 156.213813 -31.68 
L 156.79312 -31.68 
L 157.372427 -31.68 
L 157.951734 -31.68 
L 158.531041 -31.68 
L 159.110348 -31.68 
L 159.689656 -31.68 
L 160.268963 -31.68 
L 160.84827 -31.68 
L 161.427577 -31.68 
L 161.427577 -31.689253 
L 161.427577 -31.689253 
L 160.84827 -31.694514 
L 160.268963 -31.702234 
L 159.689656 -31.713263 
L 159.110348 -31.728596 
L 158.531041 -31.749338 
L 157.951734 -31.77662 
L 157.372427 -31.811494 
L 156.79312 -31.854788 
L 156.213813 -31.906946 
L 155.634505 -31.967865 
L 155.055198 -32.036771 
L 154.475891 -32.112163 
L 153.896584 -32.191853 
L 153.317277 -32.273142 
L 152.73797 -32.353135 
L 152.158663 -32.429194 
L 151.579355 -32.499495 
L 151.000048 -32.563639 
L 150.420741 -32.623249 
L 149.841434 -32.682476 
L 149.262127 -32.748331 
L 148.68282 -32.830777 
L 148.103513 -32.942539 
L 147.524205 -33.098598 
L 146.944898 -33.315385 
L 146.365591 -33.609698 
L 145.786284 -33.997431 
L 145.206977 -34.492192 
L 144.62767 -35.103943 
L 144.048363 -35.837789 
L 143.469055 -36.693062 
L 142.889748 -37.66283 
L 142.310441 -38.733913 
L 141.731134 -39.887474 
L 141.151827 -41.100167 
L 140.57252 -42.345769 
L 139.993212 -43.597187 
L 139.413905 -44.828646 
L 138.834598 -46.017902 
L 138.255291 -47.148262 
L 137.675984 -48.210285 
L 137.096677 -49.203 
L 136.51737 -50.134577 
L 135.938062 -51.022374 
L 135.358755 -51.892337 
L 134.779448 -52.777728 
L 134.200141 -53.717204 
L 133.620834 -54.752276 
L 133.041527 -55.924246 
L 132.46222 -57.270787 
L 131.882912 -58.822399 
L 131.303605 -60.599062 
L 130.724298 -62.607466 
L 130.144991 -64.839197 
L 129.565684 -67.270203 
L 128.986377 -69.86179 
L 128.40707 -72.563175 
L 127.827762 -75.315471 
L 127.248455 -78.056773 
L 126.669148 -80.727823 
L 126.089841 -83.277679 
L 125.510534 -85.668751 
L 124.931227 -87.880677 
L 124.35192 -89.912626 
L 123.772612 -91.783809 
L 123.193305 -93.532195 
L 122.613998 -95.211621 
L 122.034691 -96.887613 
L 121.455384 -98.632376 
L 120.876077 -100.519403 
L 120.296769 -102.61816 
L 119.717462 -104.98925 
L 119.138155 -107.68035 
L 118.558848 -110.723137 
L 117.979541 -114.131358 
L 117.400234 -117.900068 
L 116.820927 -122.006083 
L 116.241619 -126.40957 
L 115.662312 -131.0567 
L 115.083005 -135.883196 
L 114.503698 -140.818571 
L 113.924391 -145.790768 
L 113.345084 -150.730855 
L 112.765777 -155.577429 
L 112.186469 -160.280354 
L 111.607162 -164.803529 
L 111.027855 -169.126448 
L 110.448548 -173.24443 
L 109.869241 -177.167483 
L 109.289934 -180.917925 
L 108.710627 -184.526958 
L 108.131319 -188.030499 
L 107.552012 -191.464675 
L 106.972705 -194.861422 
L 106.393398 -198.244676 
L 105.814091 -201.6276 
L 105.234784 -205.011208 
L 104.655476 -208.38458 
L 104.076169 -211.726636 
L 103.496862 -215.009207 
L 102.917555 -218.2009 
L 102.338248 -221.271094 
L 101.758941 -224.193372 
L 101.179634 -226.947741 
L 100.600326 -229.521232 
L 100.021019 -231.906749 
L 99.441712 -234.100408 
L 98.862405 -236.097881 
L 98.283098 -237.890515 
L 97.703791 -239.462019 
L 97.124484 -240.78645 
L 96.545176 -241.827934 
L 95.965869 -242.542248 
L 95.386562 -242.88 
L 94.807255 -242.79083 
L 94.227948 -242.227934 
L 93.648641 -241.152158 
L 93.069334 -239.535123 
L 92.490026 -237.3611 
L 91.910719 -234.627652 
L 91.331412 -231.345333 
L 90.752105 -227.536851 
L 90.172798 -223.236103 
L 89.593491 -218.487335 
L 89.014183 -213.344459 
L 88.434876 -207.870367 
L 87.855569 -202.135897 
L 87.276262 -196.218122 
L 86.696955 -190.197705 
L 86.117648 -184.155272 
L 85.538341 -178.167033 
L 84.959033 -172.30007 
L 84.379726 -166.607908 
L 83.800419 -161.127001 
L 83.221112 -155.874697 
L 82.641805 -150.849015 
L 82.062498 -146.030347 
L 81.483191 -141.384858 
L 80.903883 -136.869164 
L 80.324576 -132.435664 
L 79.745269 -128.037873 
L 79.165962 -123.63516 
L 78.586655 -119.196436 
L 78.007348 -114.702552 
L 77.428041 -110.147368 
L 76.848733 -105.537623 
L 76.269426 -100.891845 
L 75.690119 -96.238568 
L 75.110812 -91.614097 
L 74.531505 -87.060001 
L 73.952198 -82.620464 
L 73.37289 -78.339575 
L 72.793583 -74.258673 
L 72.214276 -70.41385 
L 71.634969 -66.833799 
L 71.055662 -63.538178 
L 70.476355 -60.536663 
L 69.897048 -57.828808 
L 69.31774 -55.404713 
L 68.738433 -53.246424 
L 68.159126 -51.329866 
L 67.579819 -49.627083 
L 67.000512 -48.1085 
L 66.421205 -46.745004 
L 65.841898 -45.509649 
L 65.26259 -44.3789 
L 64.683283 -43.333371 
L 64.103976 -42.358092 
L 63.524669 -41.44235 
L 62.945362 -40.579195 
L 62.366055 -39.764714 
L 61.786748 -38.997163 
L 61.20744 -38.276086 
L 60.628133 -37.601508 
L 60.048826 -36.973305 
L 59.469519 -36.390804 
L 58.890212 -35.85263 
L 58.310905 -35.356777 
L 57.731598 -34.90085 
L 57.15229 -34.482372 
L 56.572983 -34.099088 
L 55.993676 -33.74918 
L 55.414369 -33.431349 
L 54.835062 -33.144758 
L 54.255755 -32.888865 
L 53.676447 -32.663192 
L 53.09714 -32.467082 
L 52.517833 -32.299508 
L 51.938526 -32.15896 
L 51.359219 -32.043422 
L 50.779912 -31.950438 
L 50.200605 -31.877243 
L 49.621297 -31.820925 
L 49.04199 -31.778591 
L 48.462683 -31.747513 
L 47.883376 -31.725239 
L 47.304069 -31.709655 
L 46.724762 -31.699013 
L 46.145455 -31.69192 
z
" style="stroke: #48a185"/>
    </defs>
    <g clip-path="url(#p5198673b40)">
     <use xlink:href="#mfa0426c453" x="0" y="288" style="fill: #48a185; fill-opacity: 0.25; stroke: #48a185"/>
    </g>
   </g>
   <g id="matplotlib.axis_1">
    <g id="xtick_1">
     <g id="line2d_1">
      <defs>
       <path id="mc6c9479493" d="M 0 0 
L 0 -4 
" style="stroke: #000000; stroke-width: 0.5"/>
      </defs>
      <g>
       <use xlink:href="#mc6c9479493" x="55.036132" y="256.32" style="stroke: #000000; stroke-width: 0.5"/>
      </g>
     </g>
     <g id="line2d_2">
      <defs>
       <path id="m1fc5f21152" d="M 0 0 
L 0 4 
" style="stroke: #000000; stroke-width: 0.5"/>
      </defs>
      <g>
       <use xlink:href="#m1fc5f21152" x="55.036132" y="34.56" style="stroke: #000000; stroke-width: 0.5"/>
      </g>
     </g>
     <g id="text_1">
      <!-- −0.1 -->
      <g transform="translate(42.899582 267.415398) scale(0.09996 -0.09996)">
       <defs>
        <path id="DejaVuSerif-2212" d="M 678 2259 
L 4684 2259 
L 4684 1753 
L 678 1753 
L 678 2259 
z
" transform="scale(0.015625)"/>
        <path id="DejaVuSerif-30" d="M 2034 219 
Q 2513 219 2750 744 
Q 2988 1269 2988 2328 
Q 2988 3391 2750 3916 
Q 2513 4441 2034 4441 
Q 1556 4441 1318 3916 
Q 1081 3391 1081 2328 
Q 1081 1269 1318 744 
Q 1556 219 2034 219 
z
M 2034 -91 
Q 1275 -91 848 546 
Q 422 1184 422 2328 
Q 422 3475 848 4112 
Q 1275 4750 2034 4750 
Q 2797 4750 3222 4112 
Q 3647 3475 3647 2328 
Q 3647 1184 3222 546 
Q 2797 -91 2034 -91 
z
" transform="scale(0.015625)"/>
        <path id="DejaVuSerif-2e" d="M 603 325 
Q 603 500 722 622 
Q 841 744 1019 744 
Q 1191 744 1312 622 
Q 1434 500 1434 325 
Q 1434 153 1312 31 
Q 1191 -91 1019 -91 
Q 841 -91 722 29 
Q 603 150 603 325 
z
" transform="scale(0.015625)"/>
        <path id="DejaVuSerif-31" d="M 909 0 
L 909 331 
L 1722 331 
L 1722 4213 
L 781 3603 
L 781 4013 
L 1919 4750 
L 2350 4750 
L 2350 331 
L 3163 331 
L 3163 0 
L 909 0 
z
" transform="scale(0.015625)"/>
       </defs>
       <use xlink:href="#DejaVuSerif-2212"/>
       <use xlink:href="#DejaVuSerif-30" x="83.789062"/>
       <use xlink:href="#DejaVuSerif-2e" x="147.412109"/>
       <use xlink:href="#DejaVuSerif-31" x="179.199219"/>
      </g>
     </g>
    </g>
    <g id="xtick_2">
     <g id="line2d_3">
      <g>
       <use xlink:href="#mc6c9479493" x="101.809081" y="256.32" style="stroke: #000000; stroke-width: 0.5"/>
      </g>
     </g>
     <g id="line2d_4">
      <g>
       <use xlink:href="#m1fc5f21152" x="101.809081" y="34.56" style="stroke: #000000; stroke-width: 0.5"/>
      </g>
     </g>
     <g id="text_2">
      <!-- 0.0 -->
      <g transform="translate(93.860699 267.415398) scale(0.09996 -0.09996)">
       <use xlink:href="#DejaVuSerif-30"/>
       <use xlink:href="#DejaVuSerif-2e" x="63.623047"/>
       <use xlink:href="#DejaVuSerif-30" x="95.410156"/>
      </g>
     </g>
    </g>
    <g id="xtick_3">
     <g id="line2d_5">
      <g>
       <use xlink:href="#mc6c9479493" x="148.58203" y="256.32" style="stroke: #000000; stroke-width: 0.5"/>
      </g>
     </g>
     <g id="line2d_6">
      <g>
       <use xlink:href="#m1fc5f21152" x="148.58203" y="34.56" style="stroke: #000000; stroke-width: 0.5"/>
      </g>
     </g>
     <g id="text_3">
      <!-- 0.1 -->
      <g transform="translate(140.633648 267.415398) scale(0.09996 -0.09996)">
       <use xlink:href="#DejaVuSerif-30"/>
       <use xlink:href="#DejaVuSerif-2e" x="63.623047"/>
       <use xlink:href="#DejaVuSerif-31" x="95.410156"/>
      </g>
     </g>
    </g>
    <g id="xtick_4">
     <g id="line2d_7">
      <g>
       <use xlink:href="#mc6c9479493" x="195.354979" y="256.32" style="stroke: #000000; stroke-width: 0.5"/>
      </g>
     </g>
     <g id="line2d_8">
      <g>
       <use xlink:href="#m1fc5f21152" x="195.354979" y="34.56" style="stroke: #000000; stroke-width: 0.5"/>
      </g>
     </g>
     <g id="text_4">
      <!-- 0.2 -->
      <g transform="translate(187.406598 267.415398) scale(0.09996 -0.09996)">
       <defs>
        <path id="DejaVuSerif-32" d="M 819 3553 
L 469 3553 
L 469 4384 
Q 803 4563 1142 4656 
Q 1481 4750 1806 4750 
Q 2534 4750 2956 4397 
Q 3378 4044 3378 3438 
Q 3378 2753 2422 1800 
Q 2347 1728 2309 1691 
L 1131 513 
L 3078 513 
L 3078 1088 
L 3444 1088 
L 3444 0 
L 434 0 
L 434 341 
L 1850 1753 
Q 2319 2222 2519 2614 
Q 2719 3006 2719 3438 
Q 2719 3909 2473 4175 
Q 2228 4441 1797 4441 
Q 1350 4441 1106 4219 
Q 863 3997 819 3553 
z
" transform="scale(0.015625)"/>
       </defs>
       <use xlink:href="#DejaVuSerif-30"/>
       <use xlink:href="#DejaVuSerif-2e" x="63.623047"/>
       <use xlink:href="#DejaVuSerif-32" x="95.410156"/>
      </g>
     </g>
    </g>
    <g id="xtick_5">
     <g id="line2d_9">
      <g>
       <use xlink:href="#mc6c9479493" x="242.127929" y="256.32" style="stroke: #000000; stroke-width: 0.5"/>
      </g>
     </g>
     <g id="line2d_10">
      <g>
       <use xlink:href="#m1fc5f21152" x="242.127929" y="34.56" style="stroke: #000000; stroke-width: 0.5"/>
      </g>
     </g>
     <g id="text_5">
      <!-- 0.3 -->
      <g transform="translate(234.179547 267.415398) scale(0.09996 -0.09996)">
       <defs>
        <path id="DejaVuSerif-33" d="M 622 4469 
Q 988 4606 1323 4678 
Q 1659 4750 1953 4750 
Q 2638 4750 3022 4454 
Q 3406 4159 3406 3634 
Q 3406 3213 3140 2930 
Q 2875 2647 2388 2547 
Q 2963 2466 3280 2130 
Q 3597 1794 3597 1259 
Q 3597 606 3158 257 
Q 2719 -91 1894 -91 
Q 1528 -91 1179 -12 
Q 831 66 488 225 
L 488 1131 
L 838 1131 
Q 869 681 1141 450 
Q 1413 219 1906 219 
Q 2384 219 2661 495 
Q 2938 772 2938 1253 
Q 2938 1803 2653 2086 
Q 2369 2369 1819 2369 
L 1522 2369 
L 1522 2688 
L 1678 2688 
Q 2225 2688 2498 2914 
Q 2772 3141 2772 3597 
Q 2772 4006 2547 4223 
Q 2322 4441 1900 4441 
Q 1478 4441 1245 4241 
Q 1013 4041 972 3647 
L 622 3647 
L 622 4469 
z
" transform="scale(0.015625)"/>
       </defs>
       <use xlink:href="#DejaVuSerif-30"/>
       <use xlink:href="#DejaVuSerif-2e" x="63.623047"/>
       <use xlink:href="#DejaVuSerif-33" x="95.410156"/>
      </g>
     </g>
    </g>
    <g id="xtick_6">
     <g id="line2d_11">
      <defs>
       <path id="m552815a01a" d="M 0 0 
L 0 -2 
" style="stroke: #000000; stroke-width: 0.5"/>
      </defs>
      <g>
       <use xlink:href="#m552815a01a" x="36.326952" y="256.32" style="stroke: #000000; stroke-width: 0.5"/>
      </g>
     </g>
     <g id="line2d_12">
      <defs>
       <path id="m412be884d3" d="M 0 0 
L 0 2 
" style="stroke: #000000; stroke-width: 0.5"/>
      </defs>
      <g>
       <use xlink:href="#m412be884d3" x="36.326952" y="34.56" style="stroke: #000000; stroke-width: 0.5"/>
      </g>
     </g>
    </g>
    <g id="xtick_7">
     <g id="line2d_13">
      <g>
       <use xlink:href="#m552815a01a" x="45.681542" y="256.32" style="stroke: #000000; stroke-width: 0.5"/>
      </g>
     </g>
     <g id="line2d_14">
      <g>
       <use xlink:href="#m412be884d3" x="45.681542" y="34.56" style="stroke: #000000; stroke-width: 0.5"/>
      </g>
     </g>
    </g>
    <g id="xtick_8">
     <g id="line2d_15">
      <g>
       <use xlink:href="#m552815a01a" x="64.390722" y="256.32" style="stroke: #000000; stroke-width: 0.5"/>
      </g>
     </g>
     <g id="line2d_16">
      <g>
       <use xlink:href="#m412be884d3" x="64.390722" y="34.56" style="stroke: #000000; stroke-width: 0.5"/>
      </g>
     </g>
    </g>
    <g id="xtick_9">
     <g id="line2d_17">
      <g>
       <use xlink:href="#m552815a01a" x="73.745312" y="256.32" style="stroke: #000000; stroke-width: 0.5"/>
      </g>
     </g>
     <g id="line2d_18">
      <g>
       <use xlink:href="#m412be884d3" x="73.745312" y="34.56" style="stroke: #000000; stroke-width: 0.5"/>
      </g>
     </g>
    </g>
    <g id="xtick_10">
     <g id="line2d_19">
      <g>
       <use xlink:href="#m552815a01a" x="83.099901" y="256.32" style="stroke: #000000; stroke-width: 0.5"/>
      </g>
     </g>
     <g id="line2d_20">
      <g>
       <use xlink:href="#m412be884d3" x="83.099901" y="34.56" style="stroke: #000000; stroke-width: 0.5"/>
      </g>
     </g>
    </g>
    <g id="xtick_11">
     <g id="line2d_21">
      <g>
       <use xlink:href="#m552815a01a" x="92.454491" y="256.32" style="stroke: #000000; stroke-width: 0.5"/>
      </g>
     </g>
     <g id="line2d_22">
      <g>
       <use xlink:href="#m412be884d3" x="92.454491" y="34.56" style="stroke: #000000; stroke-width: 0.5"/>
      </g>
     </g>
    </g>
    <g id="xtick_12">
     <g id="line2d_23">
      <g>
       <use xlink:href="#m552815a01a" x="111.163671" y="256.32" style="stroke: #000000; stroke-width: 0.5"/>
      </g>
     </g>
     <g id="line2d_24">
      <g>
       <use xlink:href="#m412be884d3" x="111.163671" y="34.56" style="stroke: #000000; stroke-width: 0.5"/>
      </g>
     </g>
    </g>
    <g id="xtick_13">
     <g id="line2d_25">
      <g>
       <use xlink:href="#m552815a01a" x="120.518261" y="256.32" style="stroke: #000000; stroke-width: 0.5"/>
      </g>
     </g>
     <g id="line2d_26">
      <g>
       <use xlink:href="#m412be884d3" x="120.518261" y="34.56" style="stroke: #000000; stroke-width: 0.5"/>
      </g>
     </g>
    </g>
    <g id="xtick_14">
     <g id="line2d_27">
      <g>
       <use xlink:href="#m552815a01a" x="129.872851" y="256.32" style="stroke: #000000; stroke-width: 0.5"/>
      </g>
     </g>
     <g id="line2d_28">
      <g>
       <use xlink:href="#m412be884d3" x="129.872851" y="34.56" style="stroke: #000000; stroke-width: 0.5"/>
      </g>
     </g>
    </g>
    <g id="xtick_15">
     <g id="line2d_29">
      <g>
       <use xlink:href="#m552815a01a" x="139.22744" y="256.32" style="stroke: #000000; stroke-width: 0.5"/>
      </g>
     </g>
     <g id="line2d_30">
      <g>
       <use xlink:href="#m412be884d3" x="139.22744" y="34.56" style="stroke: #000000; stroke-width: 0.5"/>
      </g>
     </g>
    </g>
    <g id="xtick_16">
     <g id="line2d_31">
      <g>
       <use xlink:href="#m552815a01a" x="157.93662" y="256.32" style="stroke: #000000; stroke-width: 0.5"/>
      </g>
     </g>
     <g id="line2d_32">
      <g>
       <use xlink:href="#m412be884d3" x="157.93662" y="34.56" style="stroke: #000000; stroke-width: 0.5"/>
      </g>
     </g>
    </g>
    <g id="xtick_17">
     <g id="line2d_33">
      <g>
       <use xlink:href="#m552815a01a" x="167.29121" y="256.32" style="stroke: #000000; stroke-width: 0.5"/>
      </g>
     </g>
     <g id="line2d_34">
      <g>
       <use xlink:href="#m412be884d3" x="167.29121" y="34.56" style="stroke: #000000; stroke-width: 0.5"/>
      </g>
     </g>
    </g>
    <g id="xtick_18">
     <g id="line2d_35">
      <g>
       <use xlink:href="#m552815a01a" x="176.6458" y="256.32" style="stroke: #000000; stroke-width: 0.5"/>
      </g>
     </g>
     <g id="line2d_36">
      <g>
       <use xlink:href="#m412be884d3" x="176.6458" y="34.56" style="stroke: #000000; stroke-width: 0.5"/>
      </g>
     </g>
    </g>
    <g id="xtick_19">
     <g id="line2d_37">
      <g>
       <use xlink:href="#m552815a01a" x="186.00039" y="256.32" style="stroke: #000000; stroke-width: 0.5"/>
      </g>
     </g>
     <g id="line2d_38">
      <g>
       <use xlink:href="#m412be884d3" x="186.00039" y="34.56" style="stroke: #000000; stroke-width: 0.5"/>
      </g>
     </g>
    </g>
    <g id="xtick_20">
     <g id="line2d_39">
      <g>
       <use xlink:href="#m552815a01a" x="204.709569" y="256.32" style="stroke: #000000; stroke-width: 0.5"/>
      </g>
     </g>
     <g id="line2d_40">
      <g>
       <use xlink:href="#m412be884d3" x="204.709569" y="34.56" style="stroke: #000000; stroke-width: 0.5"/>
      </g>
     </g>
    </g>
    <g id="xtick_21">
     <g id="line2d_41">
      <g>
       <use xlink:href="#m552815a01a" x="214.064159" y="256.32" style="stroke: #000000; stroke-width: 0.5"/>
      </g>
     </g>
     <g id="line2d_42">
      <g>
       <use xlink:href="#m412be884d3" x="214.064159" y="34.56" style="stroke: #000000; stroke-width: 0.5"/>
      </g>
     </g>
    </g>
    <g id="xtick_22">
     <g id="line2d_43">
      <g>
       <use xlink:href="#m552815a01a" x="223.418749" y="256.32" style="stroke: #000000; stroke-width: 0.5"/>
      </g>
     </g>
     <g id="line2d_44">
      <g>
       <use xlink:href="#m412be884d3" x="223.418749" y="34.56" style="stroke: #000000; stroke-width: 0.5"/>
      </g>
     </g>
    </g>
    <g id="xtick_23">
     <g id="line2d_45">
      <g>
       <use xlink:href="#m552815a01a" x="232.773339" y="256.32" style="stroke: #000000; stroke-width: 0.5"/>
      </g>
     </g>
     <g id="line2d_46">
      <g>
       <use xlink:href="#m412be884d3" x="232.773339" y="34.56" style="stroke: #000000; stroke-width: 0.5"/>
      </g>
     </g>
    </g>
    <g id="xtick_24">
     <g id="line2d_47">
      <g>
       <use xlink:href="#m552815a01a" x="251.482518" y="256.32" style="stroke: #000000; stroke-width: 0.5"/>
      </g>
     </g>
     <g id="line2d_48">
      <g>
       <use xlink:href="#m412be884d3" x="251.482518" y="34.56" style="stroke: #000000; stroke-width: 0.5"/>
      </g>
     </g>
    </g>
    <g id="text_6">
     <!-- Moran's I -->
     <g transform="translate(123.38469 281.089652) scale(0.09996 -0.09996)">
      <defs>
       <path id="DejaVuSerif-4d" d="M 353 0 
L 353 331 
L 947 331 
L 947 4331 
L 319 4331 
L 319 4666 
L 1678 4666 
L 3316 1344 
L 4953 4666 
L 6228 4666 
L 6228 4331 
L 5606 4331 
L 5606 331 
L 6203 331 
L 6203 0 
L 4378 0 
L 4378 331 
L 4972 331 
L 4972 3938 
L 3372 684 
L 2931 684 
L 1331 3938 
L 1331 331 
L 1925 331 
L 1925 0 
L 353 0 
z
" transform="scale(0.015625)"/>
       <path id="DejaVuSerif-6f" d="M 1925 219 
Q 2388 219 2623 584 
Q 2859 950 2859 1663 
Q 2859 2375 2623 2739 
Q 2388 3103 1925 3103 
Q 1463 3103 1227 2739 
Q 991 2375 991 1663 
Q 991 950 1228 584 
Q 1466 219 1925 219 
z
M 1925 -91 
Q 1200 -91 759 389 
Q 319 869 319 1663 
Q 319 2456 758 2934 
Q 1197 3413 1925 3413 
Q 2653 3413 3092 2934 
Q 3531 2456 3531 1663 
Q 3531 869 3092 389 
Q 2653 -91 1925 -91 
z
" transform="scale(0.015625)"/>
       <path id="DejaVuSerif-72" d="M 3059 3328 
L 3059 2497 
L 2728 2497 
Q 2713 2744 2591 2866 
Q 2469 2988 2234 2988 
Q 1809 2988 1582 2694 
Q 1356 2400 1356 1850 
L 1356 331 
L 2022 331 
L 2022 0 
L 263 0 
L 263 331 
L 781 331 
L 781 2994 
L 231 2994 
L 231 3322 
L 1356 3322 
L 1356 2731 
Q 1525 3078 1790 3245 
Q 2056 3413 2438 3413 
Q 2578 3413 2733 3391 
Q 2888 3369 3059 3328 
z
" transform="scale(0.015625)"/>
       <path id="DejaVuSerif-61" d="M 2547 1044 
L 2547 1747 
L 1806 1747 
Q 1378 1747 1168 1562 
Q 959 1378 959 997 
Q 959 650 1171 447 
Q 1384 244 1747 244 
Q 2106 244 2326 466 
Q 2547 688 2547 1044 
z
M 3122 2075 
L 3122 331 
L 3634 331 
L 3634 0 
L 2547 0 
L 2547 359 
Q 2356 128 2106 18 
Q 1856 -91 1522 -91 
Q 969 -91 644 203 
Q 319 497 319 997 
Q 319 1513 691 1797 
Q 1063 2081 1741 2081 
L 2547 2081 
L 2547 2309 
Q 2547 2688 2317 2895 
Q 2088 3103 1672 3103 
Q 1328 3103 1125 2947 
Q 922 2791 872 2484 
L 575 2484 
L 575 3156 
Q 875 3284 1158 3348 
Q 1441 3413 1709 3413 
Q 2400 3413 2761 3070 
Q 3122 2728 3122 2075 
z
" transform="scale(0.015625)"/>
       <path id="DejaVuSerif-6e" d="M 263 0 
L 263 331 
L 781 331 
L 781 2988 
L 231 2988 
L 231 3322 
L 1356 3322 
L 1356 2731 
Q 1516 3069 1770 3241 
Q 2025 3413 2363 3413 
Q 2913 3413 3172 3097 
Q 3431 2781 3431 2113 
L 3431 331 
L 3944 331 
L 3944 0 
L 2356 0 
L 2356 331 
L 2853 331 
L 2853 1931 
Q 2853 2541 2703 2767 
Q 2553 2994 2175 2994 
Q 1775 2994 1565 2701 
Q 1356 2409 1356 1850 
L 1356 331 
L 1856 331 
L 1856 0 
L 263 0 
z
" transform="scale(0.015625)"/>
       <path id="DejaVuSerif-27" d="M 1125 4666 
L 1125 2931 
L 628 2931 
L 628 4666 
L 1125 4666 
z
" transform="scale(0.015625)"/>
       <path id="DejaVuSerif-73" d="M 359 184 
L 359 959 
L 691 959 
Q 703 588 923 403 
Q 1144 219 1575 219 
Q 1963 219 2166 364 
Q 2369 509 2369 788 
Q 2369 1006 2220 1140 
Q 2072 1275 1594 1428 
L 1178 1569 
Q 750 1706 558 1912 
Q 366 2119 366 2438 
Q 366 2894 700 3153 
Q 1034 3413 1625 3413 
Q 1888 3413 2178 3344 
Q 2469 3275 2778 3144 
L 2778 2419 
L 2447 2419 
Q 2434 2741 2221 2922 
Q 2009 3103 1644 3103 
Q 1281 3103 1095 2975 
Q 909 2847 909 2591 
Q 909 2381 1050 2254 
Q 1191 2128 1613 1997 
L 2069 1856 
Q 2541 1709 2748 1489 
Q 2956 1269 2956 922 
Q 2956 450 2595 179 
Q 2234 -91 1600 -91 
Q 1278 -91 972 -22 
Q 666 47 359 184 
z
" transform="scale(0.015625)"/>
       <path id="DejaVuSerif-20" transform="scale(0.015625)"/>
       <path id="DejaVuSerif-49" d="M 1581 331 
L 2175 331 
L 2175 0 
L 353 0 
L 353 331 
L 947 331 
L 947 4331 
L 353 4331 
L 353 4666 
L 2175 4666 
L 2175 4331 
L 1581 4331 
L 1581 331 
z
" transform="scale(0.015625)"/>
      </defs>
      <use xlink:href="#DejaVuSerif-4d"/>
      <use xlink:href="#DejaVuSerif-6f" x="102.392578"/>
      <use xlink:href="#DejaVuSerif-72" x="162.597656"/>
      <use xlink:href="#DejaVuSerif-61" x="210.400391"/>
      <use xlink:href="#DejaVuSerif-6e" x="270.019531"/>
      <use xlink:href="#DejaVuSerif-27" x="334.423828"/>
      <use xlink:href="#DejaVuSerif-73" x="361.914062"/>
      <use xlink:href="#DejaVuSerif-20" x="413.232422"/>
      <use xlink:href="#DejaVuSerif-49" x="445.019531"/>
     </g>
    </g>
   </g>
   <g id="matplotlib.axis_2">
    <g id="ytick_1">
     <g id="line2d_49">
      <defs>
       <path id="m2351ccd96d" d="M 0 0 
L 5 0 
" style="stroke: #000000; stroke-width: 0.5"/>
      </defs>
      <g>
       <use xlink:href="#m2351ccd96d" x="36" y="256.32" style="stroke: #000000; stroke-width: 0.5"/>
      </g>
     </g>
     <g id="line2d_50">
      <defs>
       <path id="m1487475477" d="M 0 0 
L -5 0 
" style="stroke: #000000; stroke-width: 0.5"/>
      </defs>
      <g>
       <use xlink:href="#m1487475477" x="259.2" y="256.32" style="stroke: #000000; stroke-width: 0.5"/>
      </g>
     </g>
     <g id="text_7">
      <!-- 0 -->
      <g transform="translate(26.140045 260.117699) scale(0.09996 -0.09996)">
       <use xlink:href="#DejaVuSerif-30"/>
      </g>
     </g>
    </g>
    <g id="ytick_2">
     <g id="line2d_51">
      <g>
       <use xlink:href="#m2351ccd96d" x="36" y="222.776219" style="stroke: #000000; stroke-width: 0.5"/>
      </g>
     </g>
     <g id="line2d_52">
      <g>
       <use xlink:href="#m1487475477" x="259.2" y="222.776219" style="stroke: #000000; stroke-width: 0.5"/>
      </g>
     </g>
     <g id="text_8">
      <!-- 2 -->
      <g transform="translate(26.140045 226.573918) scale(0.09996 -0.09996)">
       <use xlink:href="#DejaVuSerif-32"/>
      </g>
     </g>
    </g>
    <g id="ytick_3">
     <g id="line2d_53">
      <g>
       <use xlink:href="#m2351ccd96d" x="36" y="189.232437" style="stroke: #000000; stroke-width: 0.5"/>
      </g>
     </g>
     <g id="line2d_54">
      <g>
       <use xlink:href="#m1487475477" x="259.2" y="189.232437" style="stroke: #000000; stroke-width: 0.5"/>
      </g>
     </g>
     <g id="text_9">
      <!-- 4 -->
      <g transform="translate(26.140045 193.030136) scale(0.09996 -0.09996)">
       <defs>
        <path id="DejaVuSerif-34" d="M 2234 1581 
L 2234 4063 
L 641 1581 
L 2234 1581 
z
M 3609 0 
L 1484 0 
L 1484 331 
L 2234 331 
L 2234 1247 
L 197 1247 
L 197 1588 
L 2241 4750 
L 2859 4750 
L 2859 1581 
L 3750 1581 
L 3750 1247 
L 2859 1247 
L 2859 331 
L 3609 331 
L 3609 0 
z
" transform="scale(0.015625)"/>
       </defs>
       <use xlink:href="#DejaVuSerif-34"/>
      </g>
     </g>
    </g>
    <g id="ytick_4">
     <g id="line2d_55">
      <g>
       <use xlink:href="#m2351ccd96d" x="36" y="155.688656" style="stroke: #000000; stroke-width: 0.5"/>
      </g>
     </g>
     <g id="line2d_56">
      <g>
       <use xlink:href="#m1487475477" x="259.2" y="155.688656" style="stroke: #000000; stroke-width: 0.5"/>
      </g>
     </g>
     <g id="text_10">
      <!-- 6 -->
      <g transform="translate(26.140045 159.486355) scale(0.09996 -0.09996)">
       <defs>
        <path id="DejaVuSerif-36" d="M 2094 219 
Q 2534 219 2771 542 
Q 3009 866 3009 1472 
Q 3009 2078 2771 2401 
Q 2534 2725 2094 2725 
Q 1647 2725 1412 2412 
Q 1178 2100 1178 1509 
Q 1178 888 1415 553 
Q 1653 219 2094 219 
z
M 1075 2569 
Q 1288 2803 1556 2918 
Q 1825 3034 2163 3034 
Q 2859 3034 3264 2615 
Q 3669 2197 3669 1472 
Q 3669 763 3233 336 
Q 2797 -91 2069 -91 
Q 1278 -91 853 498 
Q 428 1088 428 2181 
Q 428 3406 931 4078 
Q 1434 4750 2350 4750 
Q 2597 4750 2869 4703 
Q 3141 4656 3425 4563 
L 3425 3794 
L 3072 3794 
Q 3034 4109 2831 4275 
Q 2628 4441 2284 4441 
Q 1678 4441 1381 3981 
Q 1084 3522 1075 2569 
z
" transform="scale(0.015625)"/>
       </defs>
       <use xlink:href="#DejaVuSerif-36"/>
      </g>
     </g>
    </g>
    <g id="ytick_5">
     <g id="line2d_57">
      <g>
       <use xlink:href="#m2351ccd96d" x="36" y="122.144874" style="stroke: #000000; stroke-width: 0.5"/>
      </g>
     </g>
     <g id="line2d_58">
      <g>
       <use xlink:href="#m1487475477" x="259.2" y="122.144874" style="stroke: #000000; stroke-width: 0.5"/>
      </g>
     </g>
     <g id="text_11">
      <!-- 8 -->
      <g transform="translate(26.140045 125.942573) scale(0.09996 -0.09996)">
       <defs>
        <path id="DejaVuSerif-38" d="M 2981 1275 
Q 2981 1775 2732 2051 
Q 2484 2328 2034 2328 
Q 1584 2328 1336 2051 
Q 1088 1775 1088 1275 
Q 1088 772 1336 495 
Q 1584 219 2034 219 
Q 2484 219 2732 495 
Q 2981 772 2981 1275 
z
M 2853 3541 
Q 2853 3966 2637 4203 
Q 2422 4441 2034 4441 
Q 1650 4441 1433 4203 
Q 1216 3966 1216 3541 
Q 1216 3113 1433 2875 
Q 1650 2638 2034 2638 
Q 2422 2638 2637 2875 
Q 2853 3113 2853 3541 
z
M 2516 2484 
Q 3047 2413 3344 2092 
Q 3641 1772 3641 1275 
Q 3641 619 3225 264 
Q 2809 -91 2034 -91 
Q 1263 -91 845 264 
Q 428 619 428 1275 
Q 428 1772 725 2092 
Q 1022 2413 1556 2484 
Q 1084 2569 832 2842 
Q 581 3116 581 3541 
Q 581 4103 968 4426 
Q 1356 4750 2034 4750 
Q 2713 4750 3100 4426 
Q 3488 4103 3488 3541 
Q 3488 3116 3236 2842 
Q 2984 2569 2516 2484 
z
" transform="scale(0.015625)"/>
       </defs>
       <use xlink:href="#DejaVuSerif-38"/>
      </g>
     </g>
    </g>
    <g id="ytick_6">
     <g id="line2d_59">
      <g>
       <use xlink:href="#m2351ccd96d" x="36" y="88.601093" style="stroke: #000000; stroke-width: 0.5"/>
      </g>
     </g>
     <g id="line2d_60">
      <g>
       <use xlink:href="#m1487475477" x="259.2" y="88.601093" style="stroke: #000000; stroke-width: 0.5"/>
      </g>
     </g>
     <g id="text_12">
      <!-- 10 -->
      <g transform="translate(19.78009 92.398792) scale(0.09996 -0.09996)">
       <use xlink:href="#DejaVuSerif-31"/>
       <use xlink:href="#DejaVuSerif-30" x="63.623047"/>
      </g>
     </g>
    </g>
    <g id="ytick_7">
     <g id="line2d_61">
      <g>
       <use xlink:href="#m2351ccd96d" x="36" y="55.057311" style="stroke: #000000; stroke-width: 0.5"/>
      </g>
     </g>
     <g id="line2d_62">
      <g>
       <use xlink:href="#m1487475477" x="259.2" y="55.057311" style="stroke: #000000; stroke-width: 0.5"/>
      </g>
     </g>
     <g id="text_13">
      <!-- 12 -->
      <g transform="translate(19.78009 58.85501) scale(0.09996 -0.09996)">
       <use xlink:href="#DejaVuSerif-31"/>
       <use xlink:href="#DejaVuSerif-32" x="63.623047"/>
      </g>
     </g>
    </g>
    <g id="ytick_8">
     <g id="line2d_63">
      <defs>
       <path id="m90ed1b28d1" d="M 0 0 
L 3 0 
" style="stroke: #000000; stroke-width: 0.5"/>
      </defs>
      <g>
       <use xlink:href="#m90ed1b28d1" x="36" y="247.934055" style="stroke: #000000; stroke-width: 0.5"/>
      </g>
     </g>
     <g id="line2d_64">
      <defs>
       <path id="mf470d2587a" d="M 0 0 
L -3 0 
" style="stroke: #000000; stroke-width: 0.5"/>
      </defs>
      <g>
       <use xlink:href="#mf470d2587a" x="259.2" y="247.934055" style="stroke: #000000; stroke-width: 0.5"/>
      </g>
     </g>
    </g>
    <g id="ytick_9">
     <g id="line2d_65">
      <g>
       <use xlink:href="#m90ed1b28d1" x="36" y="239.548109" style="stroke: #000000; stroke-width: 0.5"/>
      </g>
     </g>
     <g id="line2d_66">
      <g>
       <use xlink:href="#mf470d2587a" x="259.2" y="239.548109" style="stroke: #000000; stroke-width: 0.5"/>
      </g>
     </g>
    </g>
    <g id="ytick_10">
     <g id="line2d_67">
      <g>
       <use xlink:href="#m90ed1b28d1" x="36" y="231.162164" style="stroke: #000000; stroke-width: 0.5"/>
      </g>
     </g>
     <g id="line2d_68">
      <g>
       <use xlink:href="#mf470d2587a" x="259.2" y="231.162164" style="stroke: #000000; stroke-width: 0.5"/>
      </g>
     </g>
    </g>
    <g id="ytick_11">
     <g id="line2d_69">
      <g>
       <use xlink:href="#m90ed1b28d1" x="36" y="214.390273" style="stroke: #000000; stroke-width: 0.5"/>
      </g>
     </g>
     <g id="line2d_70">
      <g>
       <use xlink:href="#mf470d2587a" x="259.2" y="214.390273" style="stroke: #000000; stroke-width: 0.5"/>
      </g>
     </g>
    </g>
    <g id="ytick_12">
     <g id="line2d_71">
      <g>
       <use xlink:href="#m90ed1b28d1" x="36" y="206.004328" style="stroke: #000000; stroke-width: 0.5"/>
      </g>
     </g>
     <g id="line2d_72">
      <g>
       <use xlink:href="#mf470d2587a" x="259.2" y="206.004328" style="stroke: #000000; stroke-width: 0.5"/>
      </g>
     </g>
    </g>
    <g id="ytick_13">
     <g id="line2d_73">
      <g>
       <use xlink:href="#m90ed1b28d1" x="36" y="197.618382" style="stroke: #000000; stroke-width: 0.5"/>
      </g>
     </g>
     <g id="line2d_74">
      <g>
       <use xlink:href="#mf470d2587a" x="259.2" y="197.618382" style="stroke: #000000; stroke-width: 0.5"/>
      </g>
     </g>
    </g>
    <g id="ytick_14">
     <g id="line2d_75">
      <g>
       <use xlink:href="#m90ed1b28d1" x="36" y="180.846492" style="stroke: #000000; stroke-width: 0.5"/>
      </g>
     </g>
     <g id="line2d_76">
      <g>
       <use xlink:href="#mf470d2587a" x="259.2" y="180.846492" style="stroke: #000000; stroke-width: 0.5"/>
      </g>
     </g>
    </g>
    <g id="ytick_15">
     <g id="line2d_77">
      <g>
       <use xlink:href="#m90ed1b28d1" x="36" y="172.460546" style="stroke: #000000; stroke-width: 0.5"/>
      </g>
     </g>
     <g id="line2d_78">
      <g>
       <use xlink:href="#mf470d2587a" x="259.2" y="172.460546" style="stroke: #000000; stroke-width: 0.5"/>
      </g>
     </g>
    </g>
    <g id="ytick_16">
     <g id="line2d_79">
      <g>
       <use xlink:href="#m90ed1b28d1" x="36" y="164.074601" style="stroke: #000000; stroke-width: 0.5"/>
      </g>
     </g>
     <g id="line2d_80">
      <g>
       <use xlink:href="#mf470d2587a" x="259.2" y="164.074601" style="stroke: #000000; stroke-width: 0.5"/>
      </g>
     </g>
    </g>
    <g id="ytick_17">
     <g id="line2d_81">
      <g>
       <use xlink:href="#m90ed1b28d1" x="36" y="147.30271" style="stroke: #000000; stroke-width: 0.5"/>
      </g>
     </g>
     <g id="line2d_82">
      <g>
       <use xlink:href="#mf470d2587a" x="259.2" y="147.30271" style="stroke: #000000; stroke-width: 0.5"/>
      </g>
     </g>
    </g>
    <g id="ytick_18">
     <g id="line2d_83">
      <g>
       <use xlink:href="#m90ed1b28d1" x="36" y="138.916765" style="stroke: #000000; stroke-width: 0.5"/>
      </g>
     </g>
     <g id="line2d_84">
      <g>
       <use xlink:href="#mf470d2587a" x="259.2" y="138.916765" style="stroke: #000000; stroke-width: 0.5"/>
      </g>
     </g>
    </g>
    <g id="ytick_19">
     <g id="line2d_85">
      <g>
       <use xlink:href="#m90ed1b28d1" x="36" y="130.530819" style="stroke: #000000; stroke-width: 0.5"/>
      </g>
     </g>
     <g id="line2d_86">
      <g>
       <use xlink:href="#mf470d2587a" x="259.2" y="130.530819" style="stroke: #000000; stroke-width: 0.5"/>
      </g>
     </g>
    </g>
    <g id="ytick_20">
     <g id="line2d_87">
      <g>
       <use xlink:href="#m90ed1b28d1" x="36" y="113.758929" style="stroke: #000000; stroke-width: 0.5"/>
      </g>
     </g>
     <g id="line2d_88">
      <g>
       <use xlink:href="#mf470d2587a" x="259.2" y="113.758929" style="stroke: #000000; stroke-width: 0.5"/>
      </g>
     </g>
    </g>
    <g id="ytick_21">
     <g id="line2d_89">
      <g>
       <use xlink:href="#m90ed1b28d1" x="36" y="105.372983" style="stroke: #000000; stroke-width: 0.5"/>
      </g>
     </g>
     <g id="line2d_90">
      <g>
       <use xlink:href="#mf470d2587a" x="259.2" y="105.372983" style="stroke: #000000; stroke-width: 0.5"/>
      </g>
     </g>
    </g>
    <g id="ytick_22">
     <g id="line2d_91">
      <g>
       <use xlink:href="#m90ed1b28d1" x="36" y="96.987038" style="stroke: #000000; stroke-width: 0.5"/>
      </g>
     </g>
     <g id="line2d_92">
      <g>
       <use xlink:href="#mf470d2587a" x="259.2" y="96.987038" style="stroke: #000000; stroke-width: 0.5"/>
      </g>
     </g>
    </g>
    <g id="ytick_23">
     <g id="line2d_93">
      <g>
       <use xlink:href="#m90ed1b28d1" x="36" y="80.215147" style="stroke: #000000; stroke-width: 0.5"/>
      </g>
     </g>
     <g id="line2d_94">
      <g>
       <use xlink:href="#mf470d2587a" x="259.2" y="80.215147" style="stroke: #000000; stroke-width: 0.5"/>
      </g>
     </g>
    </g>
    <g id="ytick_24">
     <g id="line2d_95">
      <g>
       <use xlink:href="#m90ed1b28d1" x="36" y="71.829202" style="stroke: #000000; stroke-width: 0.5"/>
      </g>
     </g>
     <g id="line2d_96">
      <g>
       <use xlink:href="#mf470d2587a" x="259.2" y="71.829202" style="stroke: #000000; stroke-width: 0.5"/>
      </g>
     </g>
    </g>
    <g id="ytick_25">
     <g id="line2d_97">
      <g>
       <use xlink:href="#m90ed1b28d1" x="36" y="63.443257" style="stroke: #000000; stroke-width: 0.5"/>
      </g>
     </g>
     <g id="line2d_98">
      <g>
       <use xlink:href="#mf470d2587a" x="259.2" y="63.443257" style="stroke: #000000; stroke-width: 0.5"/>
      </g>
     </g>
    </g>
    <g id="ytick_26">
     <g id="line2d_99">
      <g>
       <use xlink:href="#m90ed1b28d1" x="36" y="46.671366" style="stroke: #000000; stroke-width: 0.5"/>
      </g>
     </g>
     <g id="line2d_100">
      <g>
       <use xlink:href="#mf470d2587a" x="259.2" y="46.671366" style="stroke: #000000; stroke-width: 0.5"/>
      </g>
     </g>
    </g>
    <g id="ytick_27">
     <g id="line2d_101">
      <g>
       <use xlink:href="#m90ed1b28d1" x="36" y="38.28542" style="stroke: #000000; stroke-width: 0.5"/>
      </g>
     </g>
     <g id="line2d_102">
      <g>
       <use xlink:href="#mf470d2587a" x="259.2" y="38.28542" style="stroke: #000000; stroke-width: 0.5"/>
      </g>
     </g>
    </g>
    <g id="text_14">
     <!-- Density -->
     <g transform="translate(13.559104 164.619825) rotate(-90) scale(0.09996 -0.09996)">
      <defs>
       <path id="DejaVuSerif-44" d="M 1581 331 
L 2163 331 
Q 3072 331 3558 850 
Q 4044 1369 4044 2338 
Q 4044 3306 3559 3818 
Q 3075 4331 2163 4331 
L 1581 4331 
L 1581 331 
z
M 353 0 
L 353 331 
L 947 331 
L 947 4331 
L 353 4331 
L 353 4666 
L 2209 4666 
Q 3416 4666 4089 4050 
Q 4763 3434 4763 2338 
Q 4763 1238 4088 619 
Q 3413 0 2209 0 
L 353 0 
z
" transform="scale(0.015625)"/>
       <path id="DejaVuSerif-65" d="M 3469 1600 
L 991 1600 
L 991 1575 
Q 991 903 1244 561 
Q 1497 219 1991 219 
Q 2369 219 2611 417 
Q 2853 616 2950 1006 
L 3413 1006 
Q 3275 459 2904 184 
Q 2534 -91 1931 -91 
Q 1203 -91 761 389 
Q 319 869 319 1663 
Q 319 2450 753 2931 
Q 1188 3413 1894 3413 
Q 2647 3413 3050 2948 
Q 3453 2484 3469 1600 
z
M 2791 1931 
Q 2772 2513 2545 2808 
Q 2319 3103 1894 3103 
Q 1497 3103 1269 2806 
Q 1041 2509 991 1931 
L 2791 1931 
z
" transform="scale(0.015625)"/>
       <path id="DejaVuSerif-69" d="M 622 4353 
Q 622 4497 726 4603 
Q 831 4709 978 4709 
Q 1122 4709 1226 4603 
Q 1331 4497 1331 4353 
Q 1331 4206 1228 4103 
Q 1125 4000 978 4000 
Q 831 4000 726 4103 
Q 622 4206 622 4353 
z
M 1356 331 
L 1900 331 
L 1900 0 
L 231 0 
L 231 331 
L 781 331 
L 781 2988 
L 231 2988 
L 231 3322 
L 1356 3322 
L 1356 331 
z
" transform="scale(0.015625)"/>
       <path id="DejaVuSerif-74" d="M 691 2988 
L 184 2988 
L 184 3322 
L 691 3322 
L 691 4353 
L 1269 4353 
L 1269 3322 
L 2350 3322 
L 2350 2988 
L 1269 2988 
L 1269 878 
Q 1269 456 1350 337 
Q 1431 219 1650 219 
Q 1875 219 1978 351 
Q 2081 484 2088 781 
L 2522 781 
Q 2497 328 2275 118 
Q 2053 -91 1600 -91 
Q 1103 -91 897 129 
Q 691 350 691 878 
L 691 2988 
z
" transform="scale(0.015625)"/>
       <path id="DejaVuSerif-79" d="M 1381 -609 
L 1600 -56 
L 359 2988 
L -19 2988 
L -19 3322 
L 1509 3322 
L 1509 2988 
L 978 2988 
L 1913 703 
L 2847 2988 
L 2350 2988 
L 2350 3322 
L 3597 3322 
L 3597 2988 
L 3225 2988 
L 1703 -750 
Q 1547 -1138 1356 -1280 
Q 1166 -1422 819 -1422 
Q 672 -1422 517 -1397 
Q 363 -1372 206 -1325 
L 206 -691 
L 500 -691 
Q 519 -903 608 -995 
Q 697 -1088 884 -1088 
Q 1056 -1088 1161 -992 
Q 1266 -897 1381 -609 
z
" transform="scale(0.015625)"/>
      </defs>
      <use xlink:href="#DejaVuSerif-44"/>
      <use xlink:href="#DejaVuSerif-65" x="80.175781"/>
      <use xlink:href="#DejaVuSerif-6e" x="139.355469"/>
      <use xlink:href="#DejaVuSerif-73" x="203.759766"/>
      <use xlink:href="#DejaVuSerif-69" x="255.078125"/>
      <use xlink:href="#DejaVuSerif-74" x="287.060547"/>
      <use xlink:href="#DejaVuSerif-79" x="327.246094"/>
     </g>
    </g>
   </g>
   <g id="line2d_103">
    <path d="M 99.398104 256.32 
L 99.398104 34.56 
" clip-path="url(#p5198673b40)" style="fill: none; stroke: #000000; stroke-width: 1.25; stroke-linecap: square"/>
   </g>
   <g id="line2d_104">
    <path d="M 249.054545 256.32 
L 249.054545 34.56 
" clip-path="url(#p5198673b40)" style="fill: none; stroke: #000000; stroke-width: 1.25; stroke-linecap: square"/>
   </g>
   <g id="patch_3">
    <path d="M 36 256.32 
L 36 34.56 
" style="fill: none; stroke: #000000; stroke-width: 0.5; stroke-linejoin: miter; stroke-linecap: square"/>
   </g>
   <g id="patch_4">
    <path d="M 259.2 256.32 
L 259.2 34.56 
" style="fill: none; stroke: #000000; stroke-width: 0.5; stroke-linejoin: miter; stroke-linecap: square"/>
   </g>
   <g id="patch_5">
    <path d="M 36 256.32 
L 259.2 256.32 
" style="fill: none; stroke: #000000; stroke-width: 0.5; stroke-linejoin: miter; stroke-linecap: square"/>
   </g>
   <g id="patch_6">
    <path d="M 36 34.56 
L 259.2 34.56 
" style="fill: none; stroke: #000000; stroke-width: 0.5; stroke-linejoin: miter; stroke-linecap: square"/>
   </g>
  </g>
 </g>
 <defs>
  <clipPath id="p5198673b40">
   <rect x="36" y="34.56" width="223.2" height="221.76"/>
  </clipPath>
 </defs>
</svg>
