<?xml version="1.0" encoding="utf-8" standalone="no"?>
<!DOCTYPE svg PUBLIC "-//W3C//DTD SVG 1.1//EN"
  "http://www.w3.org/Graphics/SVG/1.1/DTD/svg11.dtd">
<svg xmlns:xlink="http://www.w3.org/1999/xlink" width="288pt" height="288pt" viewBox="0 0 288 288" xmlns="http://www.w3.org/2000/svg" version="1.1">
 <metadata>
  <rdf:RDF xmlns:dc="http://purl.org/dc/elements/1.1/" xmlns:cc="http://creativecommons.org/ns#" xmlns:rdf="http://www.w3.org/1999/02/22-rdf-syntax-ns#">
   <cc:Work>
    <dc:type rdf:resource="http://purl.org/dc/dcmitype/StillImage"/>
    <dc:date>2023-01-13T23:15:49.587276</dc:date>
    <dc:format>image/svg+xml</dc:format>
    <dc:creator>
     <cc:Agent>
      <dc:title>Matplotlib v3.6.3, https://matplotlib.org/</dc:title>
     </cc:Agent>
    </dc:creator>
   </cc:Work>
  </rdf:RDF>
 </metadata>
 <defs>
  <style type="text/css">*{stroke-linejoin: round; stroke-linecap: butt}</style>
 </defs>
 <g id="figure_1">
  <g id="patch_1">
   <path d="M 0 288 
L 288 288 
L 288 0 
L 0 0 
z
" style="fill: #ffffff"/>
  </g>
  <g id="axes_1">
   <g id="patch_2">
    <path d="M 36 256.32 
L 259.2 256.32 
L 259.2 34.56 
L 36 34.56 
z
" style="fill: #ffffff"/>
   </g>
   <g id="PolyCollection_1">
    <defs>
     <path id="mec7c2a5d7c" d="M 46.145455 -31.694869 
L 46.145455 -31.68 
L 46.771252 -31.68 
L 47.397049 -31.68 
L 48.022846 -31.68 
L 48.648643 -31.68 
L 49.274441 -31.68 
L 49.900238 -31.68 
L 50.526035 -31.68 
L 51.151832 -31.68 
L 51.777629 -31.68 
L 52.403427 -31.68 
L 53.029224 -31.68 
L 53.655021 -31.68 
L 54.280818 -31.68 
L 54.906615 -31.68 
L 55.532413 -31.68 
L 56.15821 -31.68 
L 56.784007 -31.68 
L 57.409804 -31.68 
L 58.035601 -31.68 
L 58.661399 -31.68 
L 59.287196 -31.68 
L 59.912993 -31.68 
L 60.53879 -31.68 
L 61.164587 -31.68 
L 61.790385 -31.68 
L 62.416182 -31.68 
L 63.041979 -31.68 
L 63.667776 -31.68 
L 64.293574 -31.68 
L 64.919371 -31.68 
L 65.545168 -31.68 
L 66.170965 -31.68 
L 66.796762 -31.68 
L 67.42256 -31.68 
L 68.048357 -31.68 
L 68.674154 -31.68 
L 69.299951 -31.68 
L 69.925748 -31.68 
L 70.551546 -31.68 
L 71.177343 -31.68 
L 71.80314 -31.68 
L 72.428937 -31.68 
L 73.054734 -31.68 
L 73.680532 -31.68 
L 74.306329 -31.68 
L 74.932126 -31.68 
L 75.557923 -31.68 
L 76.18372 -31.68 
L 76.809518 -31.68 
L 77.435315 -31.68 
L 78.061112 -31.68 
L 78.686909 -31.68 
L 79.312706 -31.68 
L 79.938504 -31.68 
L 80.564301 -31.68 
L 81.190098 -31.68 
L 81.815895 -31.68 
L 82.441692 -31.68 
L 83.06749 -31.68 
L 83.693287 -31.68 
L 84.319084 -31.68 
L 84.944881 -31.68 
L 85.570678 -31.68 
L 86.196476 -31.68 
L 86.822273 -31.68 
L 87.44807 -31.68 
L 88.073867 -31.68 
L 88.699665 -31.68 
L 89.325462 -31.68 
L 89.951259 -31.68 
L 90.577056 -31.68 
L 91.202853 -31.68 
L 91.828651 -31.68 
L 92.454448 -31.68 
L 93.080245 -31.68 
L 93.706042 -31.68 
L 94.331839 -31.68 
L 94.957637 -31.68 
L 95.583434 -31.68 
L 96.209231 -31.68 
L 96.835028 -31.68 
L 97.460825 -31.68 
L 98.086623 -31.68 
L 98.71242 -31.68 
L 99.338217 -31.68 
L 99.964014 -31.68 
L 100.589811 -31.68 
L 101.215609 -31.68 
L 101.841406 -31.68 
L 102.467203 -31.68 
L 103.093 -31.68 
L 103.718797 -31.68 
L 104.344595 -31.68 
L 104.970392 -31.68 
L 105.596189 -31.68 
L 106.221986 -31.68 
L 106.847783 -31.68 
L 107.473581 -31.68 
L 108.099378 -31.68 
L 108.725175 -31.68 
L 109.350972 -31.68 
L 109.97677 -31.68 
L 110.602567 -31.68 
L 111.228364 -31.68 
L 111.854161 -31.68 
L 112.479958 -31.68 
L 113.105756 -31.68 
L 113.731553 -31.68 
L 114.35735 -31.68 
L 114.983147 -31.68 
L 115.608944 -31.68 
L 116.234742 -31.68 
L 116.860539 -31.68 
L 117.486336 -31.68 
L 118.112133 -31.68 
L 118.73793 -31.68 
L 119.363728 -31.68 
L 119.989525 -31.68 
L 120.615322 -31.68 
L 121.241119 -31.68 
L 121.866916 -31.68 
L 122.492714 -31.68 
L 123.118511 -31.68 
L 123.744308 -31.68 
L 124.370105 -31.68 
L 124.995902 -31.68 
L 125.6217 -31.68 
L 126.247497 -31.68 
L 126.873294 -31.68 
L 127.499091 -31.68 
L 128.124888 -31.68 
L 128.750686 -31.68 
L 129.376483 -31.68 
L 130.00228 -31.68 
L 130.628077 -31.68 
L 131.253875 -31.68 
L 131.879672 -31.68 
L 132.505469 -31.68 
L 133.131266 -31.68 
L 133.757063 -31.68 
L 134.382861 -31.68 
L 135.008658 -31.68 
L 135.634455 -31.68 
L 136.260252 -31.68 
L 136.886049 -31.68 
L 137.511847 -31.68 
L 138.137644 -31.68 
L 138.763441 -31.68 
L 139.389238 -31.68 
L 140.015035 -31.68 
L 140.640833 -31.68 
L 141.26663 -31.68 
L 141.892427 -31.68 
L 142.518224 -31.68 
L 143.144021 -31.68 
L 143.769819 -31.68 
L 144.395616 -31.68 
L 145.021413 -31.68 
L 145.64721 -31.68 
L 146.273007 -31.68 
L 146.898805 -31.68 
L 147.524602 -31.68 
L 148.150399 -31.68 
L 148.776196 -31.68 
L 149.401993 -31.68 
L 150.027791 -31.68 
L 150.653588 -31.68 
L 151.279385 -31.68 
L 151.905182 -31.68 
L 152.53098 -31.68 
L 153.156777 -31.68 
L 153.782574 -31.68 
L 154.408371 -31.68 
L 155.034168 -31.68 
L 155.659966 -31.68 
L 156.285763 -31.68 
L 156.91156 -31.68 
L 157.537357 -31.68 
L 158.163154 -31.68 
L 158.788952 -31.68 
L 159.414749 -31.68 
L 160.040546 -31.68 
L 160.666343 -31.68 
L 161.29214 -31.68 
L 161.917938 -31.68 
L 162.543735 -31.68 
L 163.169532 -31.68 
L 163.795329 -31.68 
L 164.421126 -31.68 
L 165.046924 -31.68 
L 165.672721 -31.68 
L 166.298518 -31.68 
L 166.924315 -31.68 
L 167.550112 -31.68 
L 168.17591 -31.68 
L 168.801707 -31.68 
L 169.427504 -31.68 
L 170.053301 -31.68 
L 170.679098 -31.68 
L 170.679098 -31.698304 
L 170.679098 -31.698304 
L 170.053301 -31.709064 
L 169.427504 -31.725041 
L 168.801707 -31.748128 
L 168.17591 -31.780587 
L 167.550112 -31.824976 
L 166.924315 -31.884001 
L 166.298518 -31.960287 
L 165.672721 -32.056073 
L 165.046924 -32.172844 
L 164.421126 -32.310957 
L 163.795329 -32.4693 
L 163.169532 -32.645049 
L 162.543735 -32.833595 
L 161.917938 -33.028672 
L 161.29214 -33.222713 
L 160.666343 -33.407401 
L 160.040546 -33.574382 
L 159.414749 -33.716039 
L 158.788952 -33.826233 
L 158.163154 -33.900925 
L 157.537357 -33.938597 
L 156.91156 -33.940434 
L 156.285763 -33.910265 
L 155.659966 -33.854285 
L 155.034168 -33.780604 
L 154.408371 -33.698696 
L 153.782574 -33.618788 
L 153.156777 -33.551238 
L 152.53098 -33.505952 
L 151.905182 -33.491847 
L 151.279385 -33.516389 
L 150.653588 -33.585236 
L 150.027791 -33.701994 
L 149.401993 -33.868125 
L 148.776196 -34.083017 
L 148.150399 -34.344247 
L 147.524602 -34.648023 
L 146.898805 -34.989788 
L 146.273007 -35.364946 
L 145.64721 -35.769627 
L 145.021413 -36.201394 
L 144.395616 -36.65978 
L 143.769819 -37.146551 
L 143.144021 -37.665623 
L 142.518224 -38.2226 
L 141.892427 -38.824009 
L 141.26663 -39.476333 
L 140.640833 -40.185053 
L 140.015035 -40.953891 
L 139.389238 -41.784441 
L 138.763441 -42.676311 
L 138.137644 -43.627747 
L 137.511847 -44.636644 
L 136.886049 -45.701707 
L 136.260252 -46.823489 
L 135.634455 -48.005072 
L 135.008658 -49.252197 
L 134.382861 -50.572824 
L 133.757063 -51.976215 
L 133.131266 -53.471754 
L 132.505469 -55.067791 
L 131.879672 -56.770768 
L 131.253875 -58.58482 
L 130.628077 -60.511912 
L 130.00228 -62.552453 
L 129.376483 -64.706212 
L 128.750686 -66.9733 
L 128.124888 -69.355007 
L 127.499091 -71.854305 
L 126.873294 -74.475945 
L 126.247497 -77.226153 
L 125.6217 -80.112015 
L 124.995902 -83.140669 
L 124.370105 -86.318448 
L 123.744308 -89.650077 
L 123.118511 -93.138003 
L 122.492714 -96.781882 
L 121.866916 -100.578251 
L 121.241119 -104.520359 
L 120.615322 -108.598162 
L 119.989525 -112.798488 
L 119.363728 -117.105357 
L 118.73793 -121.500472 
L 118.112133 -125.963855 
L 117.486336 -130.474607 
L 116.860539 -135.011747 
L 116.234742 -139.555043 
L 115.608944 -144.085793 
L 114.983147 -148.587449 
L 114.35735 -153.046036 
L 113.731553 -157.450295 
L 113.105756 -161.791523 
L 112.479958 -166.063081 
L 111.854161 -170.259608 
L 111.228364 -174.375988 
L 110.602567 -178.406186 
L 109.97677 -182.342114 
L 109.350972 -186.172752 
L 108.725175 -189.883753 
L 108.099378 -193.457769 
L 107.473581 -196.875658 
L 106.847783 -200.118626 
L 106.221986 -203.171151 
L 105.596189 -206.024389 
L 104.970392 -208.679524 
L 104.344595 -211.150427 
L 103.718797 -213.464937 
L 103.093 -215.664161 
L 102.467203 -217.799442 
L 101.841406 -219.926925 
L 101.215609 -222.100126 
L 100.589811 -224.361266 
L 99.964014 -226.732529 
L 99.338217 -229.20859 
L 98.71242 -231.751764 
L 98.086623 -234.290903 
L 97.460825 -236.724695 
L 96.835028 -238.929359 
L 96.209231 -240.770021 
L 95.583434 -242.114362 
L 94.957637 -242.846637 
L 94.331839 -242.88 
L 93.706042 -242.165275 
L 93.080245 -240.694865 
L 92.454448 -238.501335 
L 91.828651 -235.651122 
L 91.202853 -232.234649 
L 90.577056 -228.354691 
L 89.951259 -224.114974 
L 89.325462 -219.610775 
L 88.699665 -214.922705 
L 88.073867 -210.114123 
L 87.44807 -205.231868 
L 86.822273 -200.309414 
L 86.196476 -195.371247 
L 85.570678 -190.437205 
L 84.944881 -185.525794 
L 84.319084 -180.655865 
L 83.693287 -175.8465 
L 83.06749 -171.115402 
L 82.441692 -166.476358 
L 81.815895 -161.936515 
L 81.190098 -157.494207 
L 80.564301 -153.137919 
L 79.938504 -148.84676 
L 79.312706 -144.592482 
L 78.686909 -140.342838 
L 78.061112 -136.065784 
L 77.435315 -131.733904 
L 76.809518 -127.32836 
L 76.18372 -122.841778 
L 75.557923 -118.279632 
L 74.932126 -113.659968 
L 74.306329 -109.011567 
L 73.680532 -104.370897 
L 73.054734 -99.778366 
L 72.428937 -95.274471 
L 71.80314 -90.896353 
L 71.177343 -86.675195 
L 70.551546 -82.634668 
L 69.925748 -78.79045 
L 69.299951 -75.150676 
L 68.674154 -71.717049 
L 68.048357 -68.486314 
L 67.42256 -65.451778 
L 66.796762 -62.60468 
L 66.170965 -59.935262 
L 65.545168 -57.433512 
L 64.919371 -55.089625 
L 64.293574 -52.894258 
L 63.667776 -50.838675 
L 63.041979 -48.914866 
L 62.416182 -47.115662 
L 61.790385 -45.434864 
L 61.164587 -43.867349 
L 60.53879 -42.409129 
L 59.912993 -41.057315 
L 59.287196 -39.80997 
L 58.661399 -38.665864 
L 58.035601 -37.624127 
L 57.409804 -36.683865 
L 56.784007 -35.843765 
L 56.15821 -35.10175 
L 55.532413 -34.454709 
L 54.906615 -33.898349 
L 54.280818 -33.427165 
L 53.655021 -33.034541 
L 53.029224 -32.712959 
L 52.403427 -32.454288 
L 51.777629 -32.250116 
L 51.151832 -32.092095 
L 50.526035 -31.972251 
L 49.900238 -31.88324 
L 49.274441 -31.818531 
L 48.648643 -31.772506 
L 48.022846 -31.740494 
L 47.397049 -31.718726 
L 46.771252 -31.704261 
L 46.145455 -31.694869 
z
" style="stroke: #48a185"/>
    </defs>
    <g clip-path="url(#p3f7fc18f40)">
     <use xlink:href="#mec7c2a5d7c" x="0" y="288" style="fill: #48a185; fill-opacity: 0.25; stroke: #48a185"/>
    </g>
   </g>
   <g id="matplotlib.axis_1">
    <g id="xtick_1">
     <g id="line2d_1">
      <defs>
       <path id="mef089a4cb7" d="M 0 0 
L 0 -4 
" style="stroke: #000000; stroke-width: 0.5"/>
      </defs>
      <g>
       <use xlink:href="#mef089a4cb7" x="52.882075" y="256.32" style="stroke: #000000; stroke-width: 0.5"/>
      </g>
     </g>
     <g id="line2d_2">
      <defs>
       <path id="m7f209f5b7c" d="M 0 0 
L 0 4 
" style="stroke: #000000; stroke-width: 0.5"/>
      </defs>
      <g>
       <use xlink:href="#m7f209f5b7c" x="52.882075" y="34.56" style="stroke: #000000; stroke-width: 0.5"/>
      </g>
     </g>
     <g id="text_1">
      <!-- −0.1 -->
      <g transform="translate(40.745525 267.415398) scale(0.09996 -0.09996)">
       <defs>
        <path id="DejaVuSerif-2212" d="M 678 2259 
L 4684 2259 
L 4684 1753 
L 678 1753 
L 678 2259 
z
" transform="scale(0.015625)"/>
        <path id="DejaVuSerif-30" d="M 2034 219 
Q 2513 219 2750 744 
Q 2988 1269 2988 2328 
Q 2988 3391 2750 3916 
Q 2513 4441 2034 4441 
Q 1556 4441 1318 3916 
Q 1081 3391 1081 2328 
Q 1081 1269 1318 744 
Q 1556 219 2034 219 
z
M 2034 -91 
Q 1275 -91 848 546 
Q 422 1184 422 2328 
Q 422 3475 848 4112 
Q 1275 4750 2034 4750 
Q 2797 4750 3222 4112 
Q 3647 3475 3647 2328 
Q 3647 1184 3222 546 
Q 2797 -91 2034 -91 
z
" transform="scale(0.015625)"/>
        <path id="DejaVuSerif-2e" d="M 603 325 
Q 603 500 722 622 
Q 841 744 1019 744 
Q 1191 744 1312 622 
Q 1434 500 1434 325 
Q 1434 153 1312 31 
Q 1191 -91 1019 -91 
Q 841 -91 722 29 
Q 603 150 603 325 
z
" transform="scale(0.015625)"/>
        <path id="DejaVuSerif-31" d="M 909 0 
L 909 331 
L 1722 331 
L 1722 4213 
L 781 3603 
L 781 4013 
L 1919 4750 
L 2350 4750 
L 2350 331 
L 3163 331 
L 3163 0 
L 909 0 
z
" transform="scale(0.015625)"/>
       </defs>
       <use xlink:href="#DejaVuSerif-2212"/>
       <use xlink:href="#DejaVuSerif-30" x="83.789062"/>
       <use xlink:href="#DejaVuSerif-2e" x="147.412109"/>
       <use xlink:href="#DejaVuSerif-31" x="179.199219"/>
      </g>
     </g>
    </g>
    <g id="xtick_2">
     <g id="line2d_3">
      <g>
       <use xlink:href="#mef089a4cb7" x="100.174313" y="256.32" style="stroke: #000000; stroke-width: 0.5"/>
      </g>
     </g>
     <g id="line2d_4">
      <g>
       <use xlink:href="#m7f209f5b7c" x="100.174313" y="34.56" style="stroke: #000000; stroke-width: 0.5"/>
      </g>
     </g>
     <g id="text_2">
      <!-- 0.0 -->
      <g transform="translate(92.225931 267.415398) scale(0.09996 -0.09996)">
       <use xlink:href="#DejaVuSerif-30"/>
       <use xlink:href="#DejaVuSerif-2e" x="63.623047"/>
       <use xlink:href="#DejaVuSerif-30" x="95.410156"/>
      </g>
     </g>
    </g>
    <g id="xtick_3">
     <g id="line2d_5">
      <g>
       <use xlink:href="#mef089a4cb7" x="147.466551" y="256.32" style="stroke: #000000; stroke-width: 0.5"/>
      </g>
     </g>
     <g id="line2d_6">
      <g>
       <use xlink:href="#m7f209f5b7c" x="147.466551" y="34.56" style="stroke: #000000; stroke-width: 0.5"/>
      </g>
     </g>
     <g id="text_3">
      <!-- 0.1 -->
      <g transform="translate(139.518169 267.415398) scale(0.09996 -0.09996)">
       <use xlink:href="#DejaVuSerif-30"/>
       <use xlink:href="#DejaVuSerif-2e" x="63.623047"/>
       <use xlink:href="#DejaVuSerif-31" x="95.410156"/>
      </g>
     </g>
    </g>
    <g id="xtick_4">
     <g id="line2d_7">
      <g>
       <use xlink:href="#mef089a4cb7" x="194.758789" y="256.32" style="stroke: #000000; stroke-width: 0.5"/>
      </g>
     </g>
     <g id="line2d_8">
      <g>
       <use xlink:href="#m7f209f5b7c" x="194.758789" y="34.56" style="stroke: #000000; stroke-width: 0.5"/>
      </g>
     </g>
     <g id="text_4">
      <!-- 0.2 -->
      <g transform="translate(186.810407 267.415398) scale(0.09996 -0.09996)">
       <defs>
        <path id="DejaVuSerif-32" d="M 819 3553 
L 469 3553 
L 469 4384 
Q 803 4563 1142 4656 
Q 1481 4750 1806 4750 
Q 2534 4750 2956 4397 
Q 3378 4044 3378 3438 
Q 3378 2753 2422 1800 
Q 2347 1728 2309 1691 
L 1131 513 
L 3078 513 
L 3078 1088 
L 3444 1088 
L 3444 0 
L 434 0 
L 434 341 
L 1850 1753 
Q 2319 2222 2519 2614 
Q 2719 3006 2719 3438 
Q 2719 3909 2473 4175 
Q 2228 4441 1797 4441 
Q 1350 4441 1106 4219 
Q 863 3997 819 3553 
z
" transform="scale(0.015625)"/>
       </defs>
       <use xlink:href="#DejaVuSerif-30"/>
       <use xlink:href="#DejaVuSerif-2e" x="63.623047"/>
       <use xlink:href="#DejaVuSerif-32" x="95.410156"/>
      </g>
     </g>
    </g>
    <g id="xtick_5">
     <g id="line2d_9">
      <g>
       <use xlink:href="#mef089a4cb7" x="242.051027" y="256.32" style="stroke: #000000; stroke-width: 0.5"/>
      </g>
     </g>
     <g id="line2d_10">
      <g>
       <use xlink:href="#m7f209f5b7c" x="242.051027" y="34.56" style="stroke: #000000; stroke-width: 0.5"/>
      </g>
     </g>
     <g id="text_5">
      <!-- 0.3 -->
      <g transform="translate(234.102645 267.415398) scale(0.09996 -0.09996)">
       <defs>
        <path id="DejaVuSerif-33" d="M 622 4469 
Q 988 4606 1323 4678 
Q 1659 4750 1953 4750 
Q 2638 4750 3022 4454 
Q 3406 4159 3406 3634 
Q 3406 3213 3140 2930 
Q 2875 2647 2388 2547 
Q 2963 2466 3280 2130 
Q 3597 1794 3597 1259 
Q 3597 606 3158 257 
Q 2719 -91 1894 -91 
Q 1528 -91 1179 -12 
Q 831 66 488 225 
L 488 1131 
L 838 1131 
Q 869 681 1141 450 
Q 1413 219 1906 219 
Q 2384 219 2661 495 
Q 2938 772 2938 1253 
Q 2938 1803 2653 2086 
Q 2369 2369 1819 2369 
L 1522 2369 
L 1522 2688 
L 1678 2688 
Q 2225 2688 2498 2914 
Q 2772 3141 2772 3597 
Q 2772 4006 2547 4223 
Q 2322 4441 1900 4441 
Q 1478 4441 1245 4241 
Q 1013 4041 972 3647 
L 622 3647 
L 622 4469 
z
" transform="scale(0.015625)"/>
       </defs>
       <use xlink:href="#DejaVuSerif-30"/>
       <use xlink:href="#DejaVuSerif-2e" x="63.623047"/>
       <use xlink:href="#DejaVuSerif-33" x="95.410156"/>
      </g>
     </g>
    </g>
    <g id="xtick_6">
     <g id="line2d_11">
      <defs>
       <path id="m9d700ac851" d="M 0 0 
L 0 -2 
" style="stroke: #000000; stroke-width: 0.5"/>
      </defs>
      <g>
       <use xlink:href="#m9d700ac851" x="43.423628" y="256.32" style="stroke: #000000; stroke-width: 0.5"/>
      </g>
     </g>
     <g id="line2d_12">
      <defs>
       <path id="me273677ac7" d="M 0 0 
L 0 2 
" style="stroke: #000000; stroke-width: 0.5"/>
      </defs>
      <g>
       <use xlink:href="#me273677ac7" x="43.423628" y="34.56" style="stroke: #000000; stroke-width: 0.5"/>
      </g>
     </g>
    </g>
    <g id="xtick_7">
     <g id="line2d_13">
      <g>
       <use xlink:href="#m9d700ac851" x="62.340523" y="256.32" style="stroke: #000000; stroke-width: 0.5"/>
      </g>
     </g>
     <g id="line2d_14">
      <g>
       <use xlink:href="#me273677ac7" x="62.340523" y="34.56" style="stroke: #000000; stroke-width: 0.5"/>
      </g>
     </g>
    </g>
    <g id="xtick_8">
     <g id="line2d_15">
      <g>
       <use xlink:href="#m9d700ac851" x="71.79897" y="256.32" style="stroke: #000000; stroke-width: 0.5"/>
      </g>
     </g>
     <g id="line2d_16">
      <g>
       <use xlink:href="#me273677ac7" x="71.79897" y="34.56" style="stroke: #000000; stroke-width: 0.5"/>
      </g>
     </g>
    </g>
    <g id="xtick_9">
     <g id="line2d_17">
      <g>
       <use xlink:href="#m9d700ac851" x="81.257418" y="256.32" style="stroke: #000000; stroke-width: 0.5"/>
      </g>
     </g>
     <g id="line2d_18">
      <g>
       <use xlink:href="#me273677ac7" x="81.257418" y="34.56" style="stroke: #000000; stroke-width: 0.5"/>
      </g>
     </g>
    </g>
    <g id="xtick_10">
     <g id="line2d_19">
      <g>
       <use xlink:href="#m9d700ac851" x="90.715866" y="256.32" style="stroke: #000000; stroke-width: 0.5"/>
      </g>
     </g>
     <g id="line2d_20">
      <g>
       <use xlink:href="#me273677ac7" x="90.715866" y="34.56" style="stroke: #000000; stroke-width: 0.5"/>
      </g>
     </g>
    </g>
    <g id="xtick_11">
     <g id="line2d_21">
      <g>
       <use xlink:href="#m9d700ac851" x="109.632761" y="256.32" style="stroke: #000000; stroke-width: 0.5"/>
      </g>
     </g>
     <g id="line2d_22">
      <g>
       <use xlink:href="#me273677ac7" x="109.632761" y="34.56" style="stroke: #000000; stroke-width: 0.5"/>
      </g>
     </g>
    </g>
    <g id="xtick_12">
     <g id="line2d_23">
      <g>
       <use xlink:href="#m9d700ac851" x="119.091208" y="256.32" style="stroke: #000000; stroke-width: 0.5"/>
      </g>
     </g>
     <g id="line2d_24">
      <g>
       <use xlink:href="#me273677ac7" x="119.091208" y="34.56" style="stroke: #000000; stroke-width: 0.5"/>
      </g>
     </g>
    </g>
    <g id="xtick_13">
     <g id="line2d_25">
      <g>
       <use xlink:href="#m9d700ac851" x="128.549656" y="256.32" style="stroke: #000000; stroke-width: 0.5"/>
      </g>
     </g>
     <g id="line2d_26">
      <g>
       <use xlink:href="#me273677ac7" x="128.549656" y="34.56" style="stroke: #000000; stroke-width: 0.5"/>
      </g>
     </g>
    </g>
    <g id="xtick_14">
     <g id="line2d_27">
      <g>
       <use xlink:href="#m9d700ac851" x="138.008103" y="256.32" style="stroke: #000000; stroke-width: 0.5"/>
      </g>
     </g>
     <g id="line2d_28">
      <g>
       <use xlink:href="#me273677ac7" x="138.008103" y="34.56" style="stroke: #000000; stroke-width: 0.5"/>
      </g>
     </g>
    </g>
    <g id="xtick_15">
     <g id="line2d_29">
      <g>
       <use xlink:href="#m9d700ac851" x="156.924999" y="256.32" style="stroke: #000000; stroke-width: 0.5"/>
      </g>
     </g>
     <g id="line2d_30">
      <g>
       <use xlink:href="#me273677ac7" x="156.924999" y="34.56" style="stroke: #000000; stroke-width: 0.5"/>
      </g>
     </g>
    </g>
    <g id="xtick_16">
     <g id="line2d_31">
      <g>
       <use xlink:href="#m9d700ac851" x="166.383446" y="256.32" style="stroke: #000000; stroke-width: 0.5"/>
      </g>
     </g>
     <g id="line2d_32">
      <g>
       <use xlink:href="#me273677ac7" x="166.383446" y="34.56" style="stroke: #000000; stroke-width: 0.5"/>
      </g>
     </g>
    </g>
    <g id="xtick_17">
     <g id="line2d_33">
      <g>
       <use xlink:href="#m9d700ac851" x="175.841894" y="256.32" style="stroke: #000000; stroke-width: 0.5"/>
      </g>
     </g>
     <g id="line2d_34">
      <g>
       <use xlink:href="#me273677ac7" x="175.841894" y="34.56" style="stroke: #000000; stroke-width: 0.5"/>
      </g>
     </g>
    </g>
    <g id="xtick_18">
     <g id="line2d_35">
      <g>
       <use xlink:href="#m9d700ac851" x="185.300341" y="256.32" style="stroke: #000000; stroke-width: 0.5"/>
      </g>
     </g>
     <g id="line2d_36">
      <g>
       <use xlink:href="#me273677ac7" x="185.300341" y="34.56" style="stroke: #000000; stroke-width: 0.5"/>
      </g>
     </g>
    </g>
    <g id="xtick_19">
     <g id="line2d_37">
      <g>
       <use xlink:href="#m9d700ac851" x="204.217237" y="256.32" style="stroke: #000000; stroke-width: 0.5"/>
      </g>
     </g>
     <g id="line2d_38">
      <g>
       <use xlink:href="#me273677ac7" x="204.217237" y="34.56" style="stroke: #000000; stroke-width: 0.5"/>
      </g>
     </g>
    </g>
    <g id="xtick_20">
     <g id="line2d_39">
      <g>
       <use xlink:href="#m9d700ac851" x="213.675684" y="256.32" style="stroke: #000000; stroke-width: 0.5"/>
      </g>
     </g>
     <g id="line2d_40">
      <g>
       <use xlink:href="#me273677ac7" x="213.675684" y="34.56" style="stroke: #000000; stroke-width: 0.5"/>
      </g>
     </g>
    </g>
    <g id="xtick_21">
     <g id="line2d_41">
      <g>
       <use xlink:href="#m9d700ac851" x="223.134132" y="256.32" style="stroke: #000000; stroke-width: 0.5"/>
      </g>
     </g>
     <g id="line2d_42">
      <g>
       <use xlink:href="#me273677ac7" x="223.134132" y="34.56" style="stroke: #000000; stroke-width: 0.5"/>
      </g>
     </g>
    </g>
    <g id="xtick_22">
     <g id="line2d_43">
      <g>
       <use xlink:href="#m9d700ac851" x="232.592579" y="256.32" style="stroke: #000000; stroke-width: 0.5"/>
      </g>
     </g>
     <g id="line2d_44">
      <g>
       <use xlink:href="#me273677ac7" x="232.592579" y="34.56" style="stroke: #000000; stroke-width: 0.5"/>
      </g>
     </g>
    </g>
    <g id="xtick_23">
     <g id="line2d_45">
      <g>
       <use xlink:href="#m9d700ac851" x="251.509475" y="256.32" style="stroke: #000000; stroke-width: 0.5"/>
      </g>
     </g>
     <g id="line2d_46">
      <g>
       <use xlink:href="#me273677ac7" x="251.509475" y="34.56" style="stroke: #000000; stroke-width: 0.5"/>
      </g>
     </g>
    </g>
    <g id="text_6">
     <!-- Moran's I -->
     <g transform="translate(123.38469 281.089652) scale(0.09996 -0.09996)">
      <defs>
       <path id="DejaVuSerif-4d" d="M 353 0 
L 353 331 
L 947 331 
L 947 4331 
L 319 4331 
L 319 4666 
L 1678 4666 
L 3316 1344 
L 4953 4666 
L 6228 4666 
L 6228 4331 
L 5606 4331 
L 5606 331 
L 6203 331 
L 6203 0 
L 4378 0 
L 4378 331 
L 4972 331 
L 4972 3938 
L 3372 684 
L 2931 684 
L 1331 3938 
L 1331 331 
L 1925 331 
L 1925 0 
L 353 0 
z
" transform="scale(0.015625)"/>
       <path id="DejaVuSerif-6f" d="M 1925 219 
Q 2388 219 2623 584 
Q 2859 950 2859 1663 
Q 2859 2375 2623 2739 
Q 2388 3103 1925 3103 
Q 1463 3103 1227 2739 
Q 991 2375 991 1663 
Q 991 950 1228 584 
Q 1466 219 1925 219 
z
M 1925 -91 
Q 1200 -91 759 389 
Q 319 869 319 1663 
Q 319 2456 758 2934 
Q 1197 3413 1925 3413 
Q 2653 3413 3092 2934 
Q 3531 2456 3531 1663 
Q 3531 869 3092 389 
Q 2653 -91 1925 -91 
z
" transform="scale(0.015625)"/>
       <path id="DejaVuSerif-72" d="M 3059 3328 
L 3059 2497 
L 2728 2497 
Q 2713 2744 2591 2866 
Q 2469 2988 2234 2988 
Q 1809 2988 1582 2694 
Q 1356 2400 1356 1850 
L 1356 331 
L 2022 331 
L 2022 0 
L 263 0 
L 263 331 
L 781 331 
L 781 2994 
L 231 2994 
L 231 3322 
L 1356 3322 
L 1356 2731 
Q 1525 3078 1790 3245 
Q 2056 3413 2438 3413 
Q 2578 3413 2733 3391 
Q 2888 3369 3059 3328 
z
" transform="scale(0.015625)"/>
       <path id="DejaVuSerif-61" d="M 2547 1044 
L 2547 1747 
L 1806 1747 
Q 1378 1747 1168 1562 
Q 959 1378 959 997 
Q 959 650 1171 447 
Q 1384 244 1747 244 
Q 2106 244 2326 466 
Q 2547 688 2547 1044 
z
M 3122 2075 
L 3122 331 
L 3634 331 
L 3634 0 
L 2547 0 
L 2547 359 
Q 2356 128 2106 18 
Q 1856 -91 1522 -91 
Q 969 -91 644 203 
Q 319 497 319 997 
Q 319 1513 691 1797 
Q 1063 2081 1741 2081 
L 2547 2081 
L 2547 2309 
Q 2547 2688 2317 2895 
Q 2088 3103 1672 3103 
Q 1328 3103 1125 2947 
Q 922 2791 872 2484 
L 575 2484 
L 575 3156 
Q 875 3284 1158 3348 
Q 1441 3413 1709 3413 
Q 2400 3413 2761 3070 
Q 3122 2728 3122 2075 
z
" transform="scale(0.015625)"/>
       <path id="DejaVuSerif-6e" d="M 263 0 
L 263 331 
L 781 331 
L 781 2988 
L 231 2988 
L 231 3322 
L 1356 3322 
L 1356 2731 
Q 1516 3069 1770 3241 
Q 2025 3413 2363 3413 
Q 2913 3413 3172 3097 
Q 3431 2781 3431 2113 
L 3431 331 
L 3944 331 
L 3944 0 
L 2356 0 
L 2356 331 
L 2853 331 
L 2853 1931 
Q 2853 2541 2703 2767 
Q 2553 2994 2175 2994 
Q 1775 2994 1565 2701 
Q 1356 2409 1356 1850 
L 1356 331 
L 1856 331 
L 1856 0 
L 263 0 
z
" transform="scale(0.015625)"/>
       <path id="DejaVuSerif-27" d="M 1125 4666 
L 1125 2931 
L 628 2931 
L 628 4666 
L 1125 4666 
z
" transform="scale(0.015625)"/>
       <path id="DejaVuSerif-73" d="M 359 184 
L 359 959 
L 691 959 
Q 703 588 923 403 
Q 1144 219 1575 219 
Q 1963 219 2166 364 
Q 2369 509 2369 788 
Q 2369 1006 2220 1140 
Q 2072 1275 1594 1428 
L 1178 1569 
Q 750 1706 558 1912 
Q 366 2119 366 2438 
Q 366 2894 700 3153 
Q 1034 3413 1625 3413 
Q 1888 3413 2178 3344 
Q 2469 3275 2778 3144 
L 2778 2419 
L 2447 2419 
Q 2434 2741 2221 2922 
Q 2009 3103 1644 3103 
Q 1281 3103 1095 2975 
Q 909 2847 909 2591 
Q 909 2381 1050 2254 
Q 1191 2128 1613 1997 
L 2069 1856 
Q 2541 1709 2748 1489 
Q 2956 1269 2956 922 
Q 2956 450 2595 179 
Q 2234 -91 1600 -91 
Q 1278 -91 972 -22 
Q 666 47 359 184 
z
" transform="scale(0.015625)"/>
       <path id="DejaVuSerif-20" transform="scale(0.015625)"/>
       <path id="DejaVuSerif-49" d="M 1581 331 
L 2175 331 
L 2175 0 
L 353 0 
L 353 331 
L 947 331 
L 947 4331 
L 353 4331 
L 353 4666 
L 2175 4666 
L 2175 4331 
L 1581 4331 
L 1581 331 
z
" transform="scale(0.015625)"/>
      </defs>
      <use xlink:href="#DejaVuSerif-4d"/>
      <use xlink:href="#DejaVuSerif-6f" x="102.392578"/>
      <use xlink:href="#DejaVuSerif-72" x="162.597656"/>
      <use xlink:href="#DejaVuSerif-61" x="210.400391"/>
      <use xlink:href="#DejaVuSerif-6e" x="270.019531"/>
      <use xlink:href="#DejaVuSerif-27" x="334.423828"/>
      <use xlink:href="#DejaVuSerif-73" x="361.914062"/>
      <use xlink:href="#DejaVuSerif-20" x="413.232422"/>
      <use xlink:href="#DejaVuSerif-49" x="445.019531"/>
     </g>
    </g>
   </g>
   <g id="matplotlib.axis_2">
    <g id="ytick_1">
     <g id="line2d_47">
      <defs>
       <path id="m4ff0b89cfc" d="M 0 0 
L 5 0 
" style="stroke: #000000; stroke-width: 0.5"/>
      </defs>
      <g>
       <use xlink:href="#m4ff0b89cfc" x="36" y="256.32" style="stroke: #000000; stroke-width: 0.5"/>
      </g>
     </g>
     <g id="line2d_48">
      <defs>
       <path id="mfad726ad06" d="M 0 0 
L -5 0 
" style="stroke: #000000; stroke-width: 0.5"/>
      </defs>
      <g>
       <use xlink:href="#mfad726ad06" x="259.2" y="256.32" style="stroke: #000000; stroke-width: 0.5"/>
      </g>
     </g>
     <g id="text_7">
      <!-- 0 -->
      <g transform="translate(26.140045 260.117699) scale(0.09996 -0.09996)">
       <use xlink:href="#DejaVuSerif-30"/>
      </g>
     </g>
    </g>
    <g id="ytick_2">
     <g id="line2d_49">
      <g>
       <use xlink:href="#m4ff0b89cfc" x="36" y="220.753038" style="stroke: #000000; stroke-width: 0.5"/>
      </g>
     </g>
     <g id="line2d_50">
      <g>
       <use xlink:href="#mfad726ad06" x="259.2" y="220.753038" style="stroke: #000000; stroke-width: 0.5"/>
      </g>
     </g>
     <g id="text_8">
      <!-- 2 -->
      <g transform="translate(26.140045 224.550738) scale(0.09996 -0.09996)">
       <use xlink:href="#DejaVuSerif-32"/>
      </g>
     </g>
    </g>
    <g id="ytick_3">
     <g id="line2d_51">
      <g>
       <use xlink:href="#m4ff0b89cfc" x="36" y="185.186077" style="stroke: #000000; stroke-width: 0.5"/>
      </g>
     </g>
     <g id="line2d_52">
      <g>
       <use xlink:href="#mfad726ad06" x="259.2" y="185.186077" style="stroke: #000000; stroke-width: 0.5"/>
      </g>
     </g>
     <g id="text_9">
      <!-- 4 -->
      <g transform="translate(26.140045 188.983776) scale(0.09996 -0.09996)">
       <defs>
        <path id="DejaVuSerif-34" d="M 2234 1581 
L 2234 4063 
L 641 1581 
L 2234 1581 
z
M 3609 0 
L 1484 0 
L 1484 331 
L 2234 331 
L 2234 1247 
L 197 1247 
L 197 1588 
L 2241 4750 
L 2859 4750 
L 2859 1581 
L 3750 1581 
L 3750 1247 
L 2859 1247 
L 2859 331 
L 3609 331 
L 3609 0 
z
" transform="scale(0.015625)"/>
       </defs>
       <use xlink:href="#DejaVuSerif-34"/>
      </g>
     </g>
    </g>
    <g id="ytick_4">
     <g id="line2d_53">
      <g>
       <use xlink:href="#m4ff0b89cfc" x="36" y="149.619115" style="stroke: #000000; stroke-width: 0.5"/>
      </g>
     </g>
     <g id="line2d_54">
      <g>
       <use xlink:href="#mfad726ad06" x="259.2" y="149.619115" style="stroke: #000000; stroke-width: 0.5"/>
      </g>
     </g>
     <g id="text_10">
      <!-- 6 -->
      <g transform="translate(26.140045 153.416815) scale(0.09996 -0.09996)">
       <defs>
        <path id="DejaVuSerif-36" d="M 2094 219 
Q 2534 219 2771 542 
Q 3009 866 3009 1472 
Q 3009 2078 2771 2401 
Q 2534 2725 2094 2725 
Q 1647 2725 1412 2412 
Q 1178 2100 1178 1509 
Q 1178 888 1415 553 
Q 1653 219 2094 219 
z
M 1075 2569 
Q 1288 2803 1556 2918 
Q 1825 3034 2163 3034 
Q 2859 3034 3264 2615 
Q 3669 2197 3669 1472 
Q 3669 763 3233 336 
Q 2797 -91 2069 -91 
Q 1278 -91 853 498 
Q 428 1088 428 2181 
Q 428 3406 931 4078 
Q 1434 4750 2350 4750 
Q 2597 4750 2869 4703 
Q 3141 4656 3425 4563 
L 3425 3794 
L 3072 3794 
Q 3034 4109 2831 4275 
Q 2628 4441 2284 4441 
Q 1678 4441 1381 3981 
Q 1084 3522 1075 2569 
z
" transform="scale(0.015625)"/>
       </defs>
       <use xlink:href="#DejaVuSerif-36"/>
      </g>
     </g>
    </g>
    <g id="ytick_5">
     <g id="line2d_55">
      <g>
       <use xlink:href="#m4ff0b89cfc" x="36" y="114.052154" style="stroke: #000000; stroke-width: 0.5"/>
      </g>
     </g>
     <g id="line2d_56">
      <g>
       <use xlink:href="#mfad726ad06" x="259.2" y="114.052154" style="stroke: #000000; stroke-width: 0.5"/>
      </g>
     </g>
     <g id="text_11">
      <!-- 8 -->
      <g transform="translate(26.140045 117.849853) scale(0.09996 -0.09996)">
       <defs>
        <path id="DejaVuSerif-38" d="M 2981 1275 
Q 2981 1775 2732 2051 
Q 2484 2328 2034 2328 
Q 1584 2328 1336 2051 
Q 1088 1775 1088 1275 
Q 1088 772 1336 495 
Q 1584 219 2034 219 
Q 2484 219 2732 495 
Q 2981 772 2981 1275 
z
M 2853 3541 
Q 2853 3966 2637 4203 
Q 2422 4441 2034 4441 
Q 1650 4441 1433 4203 
Q 1216 3966 1216 3541 
Q 1216 3113 1433 2875 
Q 1650 2638 2034 2638 
Q 2422 2638 2637 2875 
Q 2853 3113 2853 3541 
z
M 2516 2484 
Q 3047 2413 3344 2092 
Q 3641 1772 3641 1275 
Q 3641 619 3225 264 
Q 2809 -91 2034 -91 
Q 1263 -91 845 264 
Q 428 619 428 1275 
Q 428 1772 725 2092 
Q 1022 2413 1556 2484 
Q 1084 2569 832 2842 
Q 581 3116 581 3541 
Q 581 4103 968 4426 
Q 1356 4750 2034 4750 
Q 2713 4750 3100 4426 
Q 3488 4103 3488 3541 
Q 3488 3116 3236 2842 
Q 2984 2569 2516 2484 
z
" transform="scale(0.015625)"/>
       </defs>
       <use xlink:href="#DejaVuSerif-38"/>
      </g>
     </g>
    </g>
    <g id="ytick_6">
     <g id="line2d_57">
      <g>
       <use xlink:href="#m4ff0b89cfc" x="36" y="78.485192" style="stroke: #000000; stroke-width: 0.5"/>
      </g>
     </g>
     <g id="line2d_58">
      <g>
       <use xlink:href="#mfad726ad06" x="259.2" y="78.485192" style="stroke: #000000; stroke-width: 0.5"/>
      </g>
     </g>
     <g id="text_12">
      <!-- 10 -->
      <g transform="translate(19.78009 82.282891) scale(0.09996 -0.09996)">
       <use xlink:href="#DejaVuSerif-31"/>
       <use xlink:href="#DejaVuSerif-30" x="63.623047"/>
      </g>
     </g>
    </g>
    <g id="ytick_7">
     <g id="line2d_59">
      <g>
       <use xlink:href="#m4ff0b89cfc" x="36" y="42.918231" style="stroke: #000000; stroke-width: 0.5"/>
      </g>
     </g>
     <g id="line2d_60">
      <g>
       <use xlink:href="#mfad726ad06" x="259.2" y="42.918231" style="stroke: #000000; stroke-width: 0.5"/>
      </g>
     </g>
     <g id="text_13">
      <!-- 12 -->
      <g transform="translate(19.78009 46.71593) scale(0.09996 -0.09996)">
       <use xlink:href="#DejaVuSerif-31"/>
       <use xlink:href="#DejaVuSerif-32" x="63.623047"/>
      </g>
     </g>
    </g>
    <g id="ytick_8">
     <g id="line2d_61">
      <defs>
       <path id="m0a16e60e98" d="M 0 0 
L 3 0 
" style="stroke: #000000; stroke-width: 0.5"/>
      </defs>
      <g>
       <use xlink:href="#m0a16e60e98" x="36" y="247.42826" style="stroke: #000000; stroke-width: 0.5"/>
      </g>
     </g>
     <g id="line2d_62">
      <defs>
       <path id="mcf73d1da92" d="M 0 0 
L -3 0 
" style="stroke: #000000; stroke-width: 0.5"/>
      </defs>
      <g>
       <use xlink:href="#mcf73d1da92" x="259.2" y="247.42826" style="stroke: #000000; stroke-width: 0.5"/>
      </g>
     </g>
    </g>
    <g id="ytick_9">
     <g id="line2d_63">
      <g>
       <use xlink:href="#m0a16e60e98" x="36" y="238.536519" style="stroke: #000000; stroke-width: 0.5"/>
      </g>
     </g>
     <g id="line2d_64">
      <g>
       <use xlink:href="#mcf73d1da92" x="259.2" y="238.536519" style="stroke: #000000; stroke-width: 0.5"/>
      </g>
     </g>
    </g>
    <g id="ytick_10">
     <g id="line2d_65">
      <g>
       <use xlink:href="#m0a16e60e98" x="36" y="229.644779" style="stroke: #000000; stroke-width: 0.5"/>
      </g>
     </g>
     <g id="line2d_66">
      <g>
       <use xlink:href="#mcf73d1da92" x="259.2" y="229.644779" style="stroke: #000000; stroke-width: 0.5"/>
      </g>
     </g>
    </g>
    <g id="ytick_11">
     <g id="line2d_67">
      <g>
       <use xlink:href="#m0a16e60e98" x="36" y="211.861298" style="stroke: #000000; stroke-width: 0.5"/>
      </g>
     </g>
     <g id="line2d_68">
      <g>
       <use xlink:href="#mcf73d1da92" x="259.2" y="211.861298" style="stroke: #000000; stroke-width: 0.5"/>
      </g>
     </g>
    </g>
    <g id="ytick_12">
     <g id="line2d_69">
      <g>
       <use xlink:href="#m0a16e60e98" x="36" y="202.969558" style="stroke: #000000; stroke-width: 0.5"/>
      </g>
     </g>
     <g id="line2d_70">
      <g>
       <use xlink:href="#mcf73d1da92" x="259.2" y="202.969558" style="stroke: #000000; stroke-width: 0.5"/>
      </g>
     </g>
    </g>
    <g id="ytick_13">
     <g id="line2d_71">
      <g>
       <use xlink:href="#m0a16e60e98" x="36" y="194.077817" style="stroke: #000000; stroke-width: 0.5"/>
      </g>
     </g>
     <g id="line2d_72">
      <g>
       <use xlink:href="#mcf73d1da92" x="259.2" y="194.077817" style="stroke: #000000; stroke-width: 0.5"/>
      </g>
     </g>
    </g>
    <g id="ytick_14">
     <g id="line2d_73">
      <g>
       <use xlink:href="#m0a16e60e98" x="36" y="176.294337" style="stroke: #000000; stroke-width: 0.5"/>
      </g>
     </g>
     <g id="line2d_74">
      <g>
       <use xlink:href="#mcf73d1da92" x="259.2" y="176.294337" style="stroke: #000000; stroke-width: 0.5"/>
      </g>
     </g>
    </g>
    <g id="ytick_15">
     <g id="line2d_75">
      <g>
       <use xlink:href="#m0a16e60e98" x="36" y="167.402596" style="stroke: #000000; stroke-width: 0.5"/>
      </g>
     </g>
     <g id="line2d_76">
      <g>
       <use xlink:href="#mcf73d1da92" x="259.2" y="167.402596" style="stroke: #000000; stroke-width: 0.5"/>
      </g>
     </g>
    </g>
    <g id="ytick_16">
     <g id="line2d_77">
      <g>
       <use xlink:href="#m0a16e60e98" x="36" y="158.510856" style="stroke: #000000; stroke-width: 0.5"/>
      </g>
     </g>
     <g id="line2d_78">
      <g>
       <use xlink:href="#mcf73d1da92" x="259.2" y="158.510856" style="stroke: #000000; stroke-width: 0.5"/>
      </g>
     </g>
    </g>
    <g id="ytick_17">
     <g id="line2d_79">
      <g>
       <use xlink:href="#m0a16e60e98" x="36" y="140.727375" style="stroke: #000000; stroke-width: 0.5"/>
      </g>
     </g>
     <g id="line2d_80">
      <g>
       <use xlink:href="#mcf73d1da92" x="259.2" y="140.727375" style="stroke: #000000; stroke-width: 0.5"/>
      </g>
     </g>
    </g>
    <g id="ytick_18">
     <g id="line2d_81">
      <g>
       <use xlink:href="#m0a16e60e98" x="36" y="131.835635" style="stroke: #000000; stroke-width: 0.5"/>
      </g>
     </g>
     <g id="line2d_82">
      <g>
       <use xlink:href="#mcf73d1da92" x="259.2" y="131.835635" style="stroke: #000000; stroke-width: 0.5"/>
      </g>
     </g>
    </g>
    <g id="ytick_19">
     <g id="line2d_83">
      <g>
       <use xlink:href="#m0a16e60e98" x="36" y="122.943894" style="stroke: #000000; stroke-width: 0.5"/>
      </g>
     </g>
     <g id="line2d_84">
      <g>
       <use xlink:href="#mcf73d1da92" x="259.2" y="122.943894" style="stroke: #000000; stroke-width: 0.5"/>
      </g>
     </g>
    </g>
    <g id="ytick_20">
     <g id="line2d_85">
      <g>
       <use xlink:href="#m0a16e60e98" x="36" y="105.160414" style="stroke: #000000; stroke-width: 0.5"/>
      </g>
     </g>
     <g id="line2d_86">
      <g>
       <use xlink:href="#mcf73d1da92" x="259.2" y="105.160414" style="stroke: #000000; stroke-width: 0.5"/>
      </g>
     </g>
    </g>
    <g id="ytick_21">
     <g id="line2d_87">
      <g>
       <use xlink:href="#m0a16e60e98" x="36" y="96.268673" style="stroke: #000000; stroke-width: 0.5"/>
      </g>
     </g>
     <g id="line2d_88">
      <g>
       <use xlink:href="#mcf73d1da92" x="259.2" y="96.268673" style="stroke: #000000; stroke-width: 0.5"/>
      </g>
     </g>
    </g>
    <g id="ytick_22">
     <g id="line2d_89">
      <g>
       <use xlink:href="#m0a16e60e98" x="36" y="87.376933" style="stroke: #000000; stroke-width: 0.5"/>
      </g>
     </g>
     <g id="line2d_90">
      <g>
       <use xlink:href="#mcf73d1da92" x="259.2" y="87.376933" style="stroke: #000000; stroke-width: 0.5"/>
      </g>
     </g>
    </g>
    <g id="ytick_23">
     <g id="line2d_91">
      <g>
       <use xlink:href="#m0a16e60e98" x="36" y="69.593452" style="stroke: #000000; stroke-width: 0.5"/>
      </g>
     </g>
     <g id="line2d_92">
      <g>
       <use xlink:href="#mcf73d1da92" x="259.2" y="69.593452" style="stroke: #000000; stroke-width: 0.5"/>
      </g>
     </g>
    </g>
    <g id="ytick_24">
     <g id="line2d_93">
      <g>
       <use xlink:href="#m0a16e60e98" x="36" y="60.701712" style="stroke: #000000; stroke-width: 0.5"/>
      </g>
     </g>
     <g id="line2d_94">
      <g>
       <use xlink:href="#mcf73d1da92" x="259.2" y="60.701712" style="stroke: #000000; stroke-width: 0.5"/>
      </g>
     </g>
    </g>
    <g id="ytick_25">
     <g id="line2d_95">
      <g>
       <use xlink:href="#m0a16e60e98" x="36" y="51.809971" style="stroke: #000000; stroke-width: 0.5"/>
      </g>
     </g>
     <g id="line2d_96">
      <g>
       <use xlink:href="#mcf73d1da92" x="259.2" y="51.809971" style="stroke: #000000; stroke-width: 0.5"/>
      </g>
     </g>
    </g>
    <g id="text_14">
     <!-- Density -->
     <g transform="translate(13.559104 164.619825) rotate(-90) scale(0.09996 -0.09996)">
      <defs>
       <path id="DejaVuSerif-44" d="M 1581 331 
L 2163 331 
Q 3072 331 3558 850 
Q 4044 1369 4044 2338 
Q 4044 3306 3559 3818 
Q 3075 4331 2163 4331 
L 1581 4331 
L 1581 331 
z
M 353 0 
L 353 331 
L 947 331 
L 947 4331 
L 353 4331 
L 353 4666 
L 2209 4666 
Q 3416 4666 4089 4050 
Q 4763 3434 4763 2338 
Q 4763 1238 4088 619 
Q 3413 0 2209 0 
L 353 0 
z
" transform="scale(0.015625)"/>
       <path id="DejaVuSerif-65" d="M 3469 1600 
L 991 1600 
L 991 1575 
Q 991 903 1244 561 
Q 1497 219 1991 219 
Q 2369 219 2611 417 
Q 2853 616 2950 1006 
L 3413 1006 
Q 3275 459 2904 184 
Q 2534 -91 1931 -91 
Q 1203 -91 761 389 
Q 319 869 319 1663 
Q 319 2450 753 2931 
Q 1188 3413 1894 3413 
Q 2647 3413 3050 2948 
Q 3453 2484 3469 1600 
z
M 2791 1931 
Q 2772 2513 2545 2808 
Q 2319 3103 1894 3103 
Q 1497 3103 1269 2806 
Q 1041 2509 991 1931 
L 2791 1931 
z
" transform="scale(0.015625)"/>
       <path id="DejaVuSerif-69" d="M 622 4353 
Q 622 4497 726 4603 
Q 831 4709 978 4709 
Q 1122 4709 1226 4603 
Q 1331 4497 1331 4353 
Q 1331 4206 1228 4103 
Q 1125 4000 978 4000 
Q 831 4000 726 4103 
Q 622 4206 622 4353 
z
M 1356 331 
L 1900 331 
L 1900 0 
L 231 0 
L 231 331 
L 781 331 
L 781 2988 
L 231 2988 
L 231 3322 
L 1356 3322 
L 1356 331 
z
" transform="scale(0.015625)"/>
       <path id="DejaVuSerif-74" d="M 691 2988 
L 184 2988 
L 184 3322 
L 691 3322 
L 691 4353 
L 1269 4353 
L 1269 3322 
L 2350 3322 
L 2350 2988 
L 1269 2988 
L 1269 878 
Q 1269 456 1350 337 
Q 1431 219 1650 219 
Q 1875 219 1978 351 
Q 2081 484 2088 781 
L 2522 781 
Q 2497 328 2275 118 
Q 2053 -91 1600 -91 
Q 1103 -91 897 129 
Q 691 350 691 878 
L 691 2988 
z
" transform="scale(0.015625)"/>
       <path id="DejaVuSerif-79" d="M 1381 -609 
L 1600 -56 
L 359 2988 
L -19 2988 
L -19 3322 
L 1509 3322 
L 1509 2988 
L 978 2988 
L 1913 703 
L 2847 2988 
L 2350 2988 
L 2350 3322 
L 3597 3322 
L 3597 2988 
L 3225 2988 
L 1703 -750 
Q 1547 -1138 1356 -1280 
Q 1166 -1422 819 -1422 
Q 672 -1422 517 -1397 
Q 363 -1372 206 -1325 
L 206 -691 
L 500 -691 
Q 519 -903 608 -995 
Q 697 -1088 884 -1088 
Q 1056 -1088 1161 -992 
Q 1266 -897 1381 -609 
z
" transform="scale(0.015625)"/>
      </defs>
      <use xlink:href="#DejaVuSerif-44"/>
      <use xlink:href="#DejaVuSerif-65" x="80.175781"/>
      <use xlink:href="#DejaVuSerif-6e" x="139.355469"/>
      <use xlink:href="#DejaVuSerif-73" x="203.759766"/>
      <use xlink:href="#DejaVuSerif-69" x="255.078125"/>
      <use xlink:href="#DejaVuSerif-74" x="287.060547"/>
      <use xlink:href="#DejaVuSerif-79" x="327.246094"/>
     </g>
    </g>
   </g>
   <g id="line2d_97">
    <path d="M 97.736569 256.32 
L 97.736569 34.56 
" clip-path="url(#p3f7fc18f40)" style="fill: none; stroke: #000000; stroke-width: 1.25; stroke-linecap: square"/>
   </g>
   <g id="line2d_98">
    <path d="M 249.054545 256.32 
L 249.054545 34.56 
" clip-path="url(#p3f7fc18f40)" style="fill: none; stroke: #000000; stroke-width: 1.25; stroke-linecap: square"/>
   </g>
   <g id="patch_3">
    <path d="M 36 256.32 
L 36 34.56 
" style="fill: none; stroke: #000000; stroke-width: 0.5; stroke-linejoin: miter; stroke-linecap: square"/>
   </g>
   <g id="patch_4">
    <path d="M 259.2 256.32 
L 259.2 34.56 
" style="fill: none; stroke: #000000; stroke-width: 0.5; stroke-linejoin: miter; stroke-linecap: square"/>
   </g>
   <g id="patch_5">
    <path d="M 36 256.32 
L 259.2 256.32 
" style="fill: none; stroke: #000000; stroke-width: 0.5; stroke-linejoin: miter; stroke-linecap: square"/>
   </g>
   <g id="patch_6">
    <path d="M 36 34.56 
L 259.2 34.56 
" style="fill: none; stroke: #000000; stroke-width: 0.5; stroke-linejoin: miter; stroke-linecap: square"/>
   </g>
  </g>
 </g>
 <defs>
  <clipPath id="p3f7fc18f40">
   <rect x="36" y="34.56" width="223.2" height="221.76"/>
  </clipPath>
 </defs>
</svg>
