<?xml version="1.0" encoding="utf-8" standalone="no"?>
<!DOCTYPE svg PUBLIC "-//W3C//DTD SVG 1.1//EN"
  "http://www.w3.org/Graphics/SVG/1.1/DTD/svg11.dtd">
<svg xmlns:xlink="http://www.w3.org/1999/xlink" width="288pt" height="288pt" viewBox="0 0 288 288" xmlns="http://www.w3.org/2000/svg" version="1.1">
 <metadata>
  <rdf:RDF xmlns:dc="http://purl.org/dc/elements/1.1/" xmlns:cc="http://creativecommons.org/ns#" xmlns:rdf="http://www.w3.org/1999/02/22-rdf-syntax-ns#">
   <cc:Work>
    <dc:type rdf:resource="http://purl.org/dc/dcmitype/StillImage"/>
    <dc:date>2023-01-14T03:55:09.643548</dc:date>
    <dc:format>image/svg+xml</dc:format>
    <dc:creator>
     <cc:Agent>
      <dc:title>Matplotlib v3.6.3, https://matplotlib.org/</dc:title>
     </cc:Agent>
    </dc:creator>
   </cc:Work>
  </rdf:RDF>
 </metadata>
 <defs>
  <style type="text/css">*{stroke-linejoin: round; stroke-linecap: butt}</style>
 </defs>
 <g id="figure_1">
  <g id="patch_1">
   <path d="M 0 288 
L 288 288 
L 288 0 
L 0 0 
z
" style="fill: #ffffff"/>
  </g>
  <g id="axes_1">
   <g id="patch_2">
    <path d="M 36 256.32 
L 259.2 256.32 
L 259.2 34.56 
L 36 34.56 
z
" style="fill: #ffffff"/>
   </g>
   <g id="PolyCollection_1">
    <defs>
     <path id="ma5849647ca" d="M 46.145455 -31.694792 
L 46.145455 -31.68 
L 46.798073 -31.68 
L 47.450692 -31.68 
L 48.10331 -31.68 
L 48.755929 -31.68 
L 49.408548 -31.68 
L 50.061166 -31.68 
L 50.713785 -31.68 
L 51.366404 -31.68 
L 52.019022 -31.68 
L 52.671641 -31.68 
L 53.32426 -31.68 
L 53.976878 -31.68 
L 54.629497 -31.68 
L 55.282116 -31.68 
L 55.934734 -31.68 
L 56.587353 -31.68 
L 57.239972 -31.68 
L 57.89259 -31.68 
L 58.545209 -31.68 
L 59.197828 -31.68 
L 59.850446 -31.68 
L 60.503065 -31.68 
L 61.155683 -31.68 
L 61.808302 -31.68 
L 62.460921 -31.68 
L 63.113539 -31.68 
L 63.766158 -31.68 
L 64.418777 -31.68 
L 65.071395 -31.68 
L 65.724014 -31.68 
L 66.376633 -31.68 
L 67.029251 -31.68 
L 67.68187 -31.68 
L 68.334489 -31.68 
L 68.987107 -31.68 
L 69.639726 -31.68 
L 70.292345 -31.68 
L 70.944963 -31.68 
L 71.597582 -31.68 
L 72.250201 -31.68 
L 72.902819 -31.68 
L 73.555438 -31.68 
L 74.208056 -31.68 
L 74.860675 -31.68 
L 75.513294 -31.68 
L 76.165912 -31.68 
L 76.818531 -31.68 
L 77.47115 -31.68 
L 78.123768 -31.68 
L 78.776387 -31.68 
L 79.429006 -31.68 
L 80.081624 -31.68 
L 80.734243 -31.68 
L 81.386862 -31.68 
L 82.03948 -31.68 
L 82.692099 -31.68 
L 83.344718 -31.68 
L 83.997336 -31.68 
L 84.649955 -31.68 
L 85.302573 -31.68 
L 85.955192 -31.68 
L 86.607811 -31.68 
L 87.260429 -31.68 
L 87.913048 -31.68 
L 88.565667 -31.68 
L 89.218285 -31.68 
L 89.870904 -31.68 
L 90.523523 -31.68 
L 91.176141 -31.68 
L 91.82876 -31.68 
L 92.481379 -31.68 
L 93.133997 -31.68 
L 93.786616 -31.68 
L 94.439235 -31.68 
L 95.091853 -31.68 
L 95.744472 -31.68 
L 96.397091 -31.68 
L 97.049709 -31.68 
L 97.702328 -31.68 
L 98.354946 -31.68 
L 99.007565 -31.68 
L 99.660184 -31.68 
L 100.312802 -31.68 
L 100.965421 -31.68 
L 101.61804 -31.68 
L 102.270658 -31.68 
L 102.923277 -31.68 
L 103.575896 -31.68 
L 104.228514 -31.68 
L 104.881133 -31.68 
L 105.533752 -31.68 
L 106.18637 -31.68 
L 106.838989 -31.68 
L 107.491608 -31.68 
L 108.144226 -31.68 
L 108.796845 -31.68 
L 109.449463 -31.68 
L 110.102082 -31.68 
L 110.754701 -31.68 
L 111.407319 -31.68 
L 112.059938 -31.68 
L 112.712557 -31.68 
L 113.365175 -31.68 
L 114.017794 -31.68 
L 114.670413 -31.68 
L 115.323031 -31.68 
L 115.97565 -31.68 
L 116.628269 -31.68 
L 117.280887 -31.68 
L 117.933506 -31.68 
L 118.586125 -31.68 
L 119.238743 -31.68 
L 119.891362 -31.68 
L 120.543981 -31.68 
L 121.196599 -31.68 
L 121.849218 -31.68 
L 122.501836 -31.68 
L 123.154455 -31.68 
L 123.807074 -31.68 
L 124.459692 -31.68 
L 125.112311 -31.68 
L 125.76493 -31.68 
L 126.417548 -31.68 
L 127.070167 -31.68 
L 127.722786 -31.68 
L 128.375404 -31.68 
L 129.028023 -31.68 
L 129.680642 -31.68 
L 130.33326 -31.68 
L 130.985879 -31.68 
L 131.638498 -31.68 
L 132.291116 -31.68 
L 132.943735 -31.68 
L 133.596353 -31.68 
L 134.248972 -31.68 
L 134.901591 -31.68 
L 135.554209 -31.68 
L 136.206828 -31.68 
L 136.859447 -31.68 
L 137.512065 -31.68 
L 138.164684 -31.68 
L 138.817303 -31.68 
L 139.469921 -31.68 
L 140.12254 -31.68 
L 140.775159 -31.68 
L 141.427777 -31.68 
L 142.080396 -31.68 
L 142.733015 -31.68 
L 143.385633 -31.68 
L 144.038252 -31.68 
L 144.690871 -31.68 
L 145.343489 -31.68 
L 145.996108 -31.68 
L 146.648726 -31.68 
L 147.301345 -31.68 
L 147.953964 -31.68 
L 148.606582 -31.68 
L 149.259201 -31.68 
L 149.91182 -31.68 
L 150.564438 -31.68 
L 151.217057 -31.68 
L 151.869676 -31.68 
L 152.522294 -31.68 
L 153.174913 -31.68 
L 153.827532 -31.68 
L 154.48015 -31.68 
L 155.132769 -31.68 
L 155.785388 -31.68 
L 156.438006 -31.68 
L 157.090625 -31.68 
L 157.743244 -31.68 
L 158.395862 -31.68 
L 159.048481 -31.68 
L 159.701099 -31.68 
L 160.353718 -31.68 
L 161.006337 -31.68 
L 161.658955 -31.68 
L 162.311574 -31.68 
L 162.964193 -31.68 
L 163.616811 -31.68 
L 164.26943 -31.68 
L 164.922049 -31.68 
L 165.574667 -31.68 
L 166.227286 -31.68 
L 166.879905 -31.68 
L 167.532523 -31.68 
L 168.185142 -31.68 
L 168.837761 -31.68 
L 169.490379 -31.68 
L 170.142998 -31.68 
L 170.795616 -31.68 
L 171.448235 -31.68 
L 172.100854 -31.68 
L 172.753472 -31.68 
L 173.406091 -31.68 
L 174.05871 -31.68 
L 174.711328 -31.68 
L 175.363947 -31.68 
L 176.016566 -31.68 
L 176.016566 -31.689132 
L 176.016566 -31.689132 
L 175.363947 -31.695184 
L 174.711328 -31.704493 
L 174.05871 -31.718333 
L 173.406091 -31.738209 
L 172.753472 -31.765771 
L 172.100854 -31.80265 
L 171.448235 -31.850234 
L 170.795616 -31.909388 
L 170.142998 -31.980172 
L 169.490379 -32.061605 
L 168.837761 -32.151556 
L 168.185142 -32.246804 
L 167.532523 -32.343303 
L 166.879905 -32.43664 
L 166.227286 -32.522604 
L 165.574667 -32.59777 
L 164.922049 -32.659955 
L 164.26943 -32.708442 
L 163.616811 -32.743893 
L 162.964193 -32.767993 
L 162.311574 -32.782885 
L 161.658955 -32.790585 
L 161.006337 -32.792531 
L 160.353718 -32.78942 
L 159.701099 -32.781405 
L 159.048481 -32.768615 
L 158.395862 -32.751885 
L 157.743244 -32.733495 
L 157.090625 -32.717704 
L 156.438006 -32.710916 
L 155.785388 -32.721354 
L 155.132769 -32.758251 
L 154.48015 -32.830641 
L 153.827532 -32.945948 
L 153.174913 -33.108589 
L 152.522294 -33.318873 
L 151.869676 -33.572423 
L 151.217057 -33.860313 
L 150.564438 -34.170011 
L 149.91182 -34.487078 
L 149.259201 -34.797475 
L 148.606582 -35.090131 
L 147.953964 -35.359384 
L 147.301345 -35.606833 
L 146.648726 -35.842183 
L 145.996108 -36.082817 
L 145.343489 -36.352008 
L 144.690871 -36.675931 
L 144.038252 -37.079868 
L 143.385633 -37.584184 
L 142.733015 -38.200731 
L 142.080396 -38.93032 
L 141.427777 -39.761766 
L 140.775159 -40.67275 
L 140.12254 -41.632498 
L 139.469921 -42.605914 
L 138.817303 -43.558625 
L 138.164684 -44.46219 
L 137.512065 -45.298729 
L 136.859447 -46.064356 
L 136.206828 -46.770975 
L 135.554209 -47.446308 
L 134.901591 -48.132258 
L 134.248972 -48.881891 
L 133.596353 -49.755421 
L 132.943735 -50.815534 
L 132.291116 -52.122338 
L 131.638498 -53.728133 
L 130.985879 -55.672204 
L 130.33326 -57.975938 
L 129.680642 -60.638707 
L 129.028023 -63.635188 
L 128.375404 -66.914881 
L 127.722786 -70.404499 
L 127.070167 -74.013644 
L 126.417548 -77.643632 
L 125.76493 -81.198685 
L 125.112311 -84.598099 
L 124.459692 -87.787532 
L 123.807074 -90.747473 
L 123.154455 -93.497246 
L 122.501836 -96.093597 
L 121.849218 -98.623842 
L 121.196599 -101.194541 
L 120.543981 -103.917512 
L 119.891362 -106.895469 
L 119.238743 -110.209636 
L 118.586125 -113.911241 
L 117.933506 -118.018058 
L 117.280887 -122.516137 
L 116.628269 -127.365929 
L 115.97565 -132.511175 
L 115.323031 -137.888516 
L 114.670413 -143.435739 
L 114.017794 -149.097018 
L 113.365175 -154.82425 
L 112.712557 -160.574614 
L 112.059938 -166.305407 
L 111.407319 -171.96802 
L 110.754701 -177.503224 
L 110.102082 -182.839748 
L 109.449463 -187.897406 
L 108.796845 -192.594891 
L 108.144226 -196.861147 
L 107.491608 -200.648117 
L 106.838989 -203.942119 
L 106.18637 -206.771129 
L 105.533752 -209.205955 
L 104.881133 -211.354434 
L 104.228514 -213.349159 
L 103.575896 -215.330436 
L 102.923277 -217.427032 
L 102.270658 -219.737619 
L 101.61804 -222.315639 
L 100.965421 -225.159739 
L 100.312802 -228.211078 
L 99.660184 -231.357843 
L 99.007565 -234.446342 
L 98.354946 -237.297136 
L 97.702328 -239.724004 
L 97.049709 -241.553109 
L 96.397091 -242.639685 
L 95.744472 -242.88 
L 95.091853 -242.21718 
L 94.439235 -240.640639 
L 93.786616 -238.180098 
L 93.133997 -234.896179 
L 92.481379 -230.870106 
L 91.82876 -226.194866 
L 91.176141 -220.969409 
L 90.523523 -215.296258 
L 89.870904 -209.281588 
L 89.218285 -203.035977 
L 88.565667 -196.673723 
L 87.913048 -190.309191 
L 87.260429 -184.049734 
L 86.607811 -177.986133 
L 85.955192 -172.182613 
L 85.302573 -166.669056 
L 84.649955 -161.437723 
L 83.997336 -156.445845 
L 83.344718 -151.623972 
L 82.692099 -146.88855 
L 82.03948 -142.156218 
L 81.386862 -137.356949 
L 80.734243 -132.443602 
L 80.081624 -127.396425 
L 79.429006 -122.22229 
L 78.776387 -116.949598 
L 78.123768 -111.620595 
L 77.47115 -106.283122 
L 76.818531 -100.983574 
L 76.165912 -95.76227 
L 75.513294 -90.651618 
L 74.860675 -85.676735 
L 74.208056 -80.857636 
L 73.555438 -76.211915 
L 72.902819 -71.756954 
L 72.250201 -67.511031 
L 71.597582 -63.493196 
L 70.944963 -59.722197 
L 70.292345 -56.214983 
L 69.639726 -52.985343 
L 68.987107 -50.043086 
L 68.334489 -47.393857 
L 67.68187 -45.039422 
L 67.029251 -42.978086 
L 66.376633 -41.204882 
L 65.724014 -39.711333 
L 65.071395 -38.484791 
L 64.418777 -37.507604 
L 63.766158 -36.756455 
L 63.113539 -36.202274 
L 62.460921 -35.81096 
L 61.808302 -35.544978 
L 61.155683 -35.365671 
L 60.503065 -35.235966 
L 59.850446 -35.123037 
L 59.197828 -35.000537 
L 58.545209 -34.850057 
L 57.89259 -34.661653 
L 57.239972 -34.433411 
L 56.587353 -34.170196 
L 55.934734 -33.881833 
L 55.282116 -33.580993 
L 54.629497 -33.281131 
L 53.976878 -32.994695 
L 53.32426 -32.73182 
L 52.671641 -32.499565 
L 52.019022 -32.301709 
L 51.366404 -32.138997 
L 50.713785 -32.009702 
L 50.061166 -31.910358 
L 49.408548 -31.836513 
L 48.755929 -31.783385 
L 48.10331 -31.746381 
L 47.450692 -31.72142 
L 46.798073 -31.705113 
L 46.145455 -31.694792 
z
" style="stroke: #48a185"/>
    </defs>
    <g clip-path="url(#p3d1f339392)">
     <use xlink:href="#ma5849647ca" x="0" y="288" style="fill: #48a185; fill-opacity: 0.25; stroke: #48a185"/>
    </g>
   </g>
   <g id="matplotlib.axis_1">
    <g id="xtick_1">
     <g id="line2d_1">
      <defs>
       <path id="m2c70fea7ca" d="M 0 0 
L 0 -4 
" style="stroke: #000000; stroke-width: 0.5"/>
      </defs>
      <g>
       <use xlink:href="#m2c70fea7ca" x="55.280588" y="256.32" style="stroke: #000000; stroke-width: 0.5"/>
      </g>
     </g>
     <g id="line2d_2">
      <defs>
       <path id="m4a71b258de" d="M 0 0 
L 0 4 
" style="stroke: #000000; stroke-width: 0.5"/>
      </defs>
      <g>
       <use xlink:href="#m4a71b258de" x="55.280588" y="34.56" style="stroke: #000000; stroke-width: 0.5"/>
      </g>
     </g>
     <g id="text_1">
      <!-- −0.1 -->
      <g transform="translate(43.144038 267.415398) scale(0.09996 -0.09996)">
       <defs>
        <path id="DejaVuSerif-2212" d="M 678 2259 
L 4684 2259 
L 4684 1753 
L 678 1753 
L 678 2259 
z
" transform="scale(0.015625)"/>
        <path id="DejaVuSerif-30" d="M 2034 219 
Q 2513 219 2750 744 
Q 2988 1269 2988 2328 
Q 2988 3391 2750 3916 
Q 2513 4441 2034 4441 
Q 1556 4441 1318 3916 
Q 1081 3391 1081 2328 
Q 1081 1269 1318 744 
Q 1556 219 2034 219 
z
M 2034 -91 
Q 1275 -91 848 546 
Q 422 1184 422 2328 
Q 422 3475 848 4112 
Q 1275 4750 2034 4750 
Q 2797 4750 3222 4112 
Q 3647 3475 3647 2328 
Q 3647 1184 3222 546 
Q 2797 -91 2034 -91 
z
" transform="scale(0.015625)"/>
        <path id="DejaVuSerif-2e" d="M 603 325 
Q 603 500 722 622 
Q 841 744 1019 744 
Q 1191 744 1312 622 
Q 1434 500 1434 325 
Q 1434 153 1312 31 
Q 1191 -91 1019 -91 
Q 841 -91 722 29 
Q 603 150 603 325 
z
" transform="scale(0.015625)"/>
        <path id="DejaVuSerif-31" d="M 909 0 
L 909 331 
L 1722 331 
L 1722 4213 
L 781 3603 
L 781 4013 
L 1919 4750 
L 2350 4750 
L 2350 331 
L 3163 331 
L 3163 0 
L 909 0 
z
" transform="scale(0.015625)"/>
       </defs>
       <use xlink:href="#DejaVuSerif-2212"/>
       <use xlink:href="#DejaVuSerif-30" x="83.789062"/>
       <use xlink:href="#DejaVuSerif-2e" x="147.412109"/>
       <use xlink:href="#DejaVuSerif-31" x="179.199219"/>
      </g>
     </g>
    </g>
    <g id="xtick_2">
     <g id="line2d_3">
      <g>
       <use xlink:href="#m2c70fea7ca" x="101.994605" y="256.32" style="stroke: #000000; stroke-width: 0.5"/>
      </g>
     </g>
     <g id="line2d_4">
      <g>
       <use xlink:href="#m4a71b258de" x="101.994605" y="34.56" style="stroke: #000000; stroke-width: 0.5"/>
      </g>
     </g>
     <g id="text_2">
      <!-- 0.0 -->
      <g transform="translate(94.046223 267.415398) scale(0.09996 -0.09996)">
       <use xlink:href="#DejaVuSerif-30"/>
       <use xlink:href="#DejaVuSerif-2e" x="63.623047"/>
       <use xlink:href="#DejaVuSerif-30" x="95.410156"/>
      </g>
     </g>
    </g>
    <g id="xtick_3">
     <g id="line2d_5">
      <g>
       <use xlink:href="#m2c70fea7ca" x="148.708622" y="256.32" style="stroke: #000000; stroke-width: 0.5"/>
      </g>
     </g>
     <g id="line2d_6">
      <g>
       <use xlink:href="#m4a71b258de" x="148.708622" y="34.56" style="stroke: #000000; stroke-width: 0.5"/>
      </g>
     </g>
     <g id="text_3">
      <!-- 0.1 -->
      <g transform="translate(140.76024 267.415398) scale(0.09996 -0.09996)">
       <use xlink:href="#DejaVuSerif-30"/>
       <use xlink:href="#DejaVuSerif-2e" x="63.623047"/>
       <use xlink:href="#DejaVuSerif-31" x="95.410156"/>
      </g>
     </g>
    </g>
    <g id="xtick_4">
     <g id="line2d_7">
      <g>
       <use xlink:href="#m2c70fea7ca" x="195.422639" y="256.32" style="stroke: #000000; stroke-width: 0.5"/>
      </g>
     </g>
     <g id="line2d_8">
      <g>
       <use xlink:href="#m4a71b258de" x="195.422639" y="34.56" style="stroke: #000000; stroke-width: 0.5"/>
      </g>
     </g>
     <g id="text_4">
      <!-- 0.2 -->
      <g transform="translate(187.474257 267.415398) scale(0.09996 -0.09996)">
       <defs>
        <path id="DejaVuSerif-32" d="M 819 3553 
L 469 3553 
L 469 4384 
Q 803 4563 1142 4656 
Q 1481 4750 1806 4750 
Q 2534 4750 2956 4397 
Q 3378 4044 3378 3438 
Q 3378 2753 2422 1800 
Q 2347 1728 2309 1691 
L 1131 513 
L 3078 513 
L 3078 1088 
L 3444 1088 
L 3444 0 
L 434 0 
L 434 341 
L 1850 1753 
Q 2319 2222 2519 2614 
Q 2719 3006 2719 3438 
Q 2719 3909 2473 4175 
Q 2228 4441 1797 4441 
Q 1350 4441 1106 4219 
Q 863 3997 819 3553 
z
" transform="scale(0.015625)"/>
       </defs>
       <use xlink:href="#DejaVuSerif-30"/>
       <use xlink:href="#DejaVuSerif-2e" x="63.623047"/>
       <use xlink:href="#DejaVuSerif-32" x="95.410156"/>
      </g>
     </g>
    </g>
    <g id="xtick_5">
     <g id="line2d_9">
      <g>
       <use xlink:href="#m2c70fea7ca" x="242.136656" y="256.32" style="stroke: #000000; stroke-width: 0.5"/>
      </g>
     </g>
     <g id="line2d_10">
      <g>
       <use xlink:href="#m4a71b258de" x="242.136656" y="34.56" style="stroke: #000000; stroke-width: 0.5"/>
      </g>
     </g>
     <g id="text_5">
      <!-- 0.3 -->
      <g transform="translate(234.188274 267.415398) scale(0.09996 -0.09996)">
       <defs>
        <path id="DejaVuSerif-33" d="M 622 4469 
Q 988 4606 1323 4678 
Q 1659 4750 1953 4750 
Q 2638 4750 3022 4454 
Q 3406 4159 3406 3634 
Q 3406 3213 3140 2930 
Q 2875 2647 2388 2547 
Q 2963 2466 3280 2130 
Q 3597 1794 3597 1259 
Q 3597 606 3158 257 
Q 2719 -91 1894 -91 
Q 1528 -91 1179 -12 
Q 831 66 488 225 
L 488 1131 
L 838 1131 
Q 869 681 1141 450 
Q 1413 219 1906 219 
Q 2384 219 2661 495 
Q 2938 772 2938 1253 
Q 2938 1803 2653 2086 
Q 2369 2369 1819 2369 
L 1522 2369 
L 1522 2688 
L 1678 2688 
Q 2225 2688 2498 2914 
Q 2772 3141 2772 3597 
Q 2772 4006 2547 4223 
Q 2322 4441 1900 4441 
Q 1478 4441 1245 4241 
Q 1013 4041 972 3647 
L 622 3647 
L 622 4469 
z
" transform="scale(0.015625)"/>
       </defs>
       <use xlink:href="#DejaVuSerif-30"/>
       <use xlink:href="#DejaVuSerif-2e" x="63.623047"/>
       <use xlink:href="#DejaVuSerif-33" x="95.410156"/>
      </g>
     </g>
    </g>
    <g id="xtick_6">
     <g id="line2d_11">
      <defs>
       <path id="m59c52a04b5" d="M 0 0 
L 0 -2 
" style="stroke: #000000; stroke-width: 0.5"/>
      </defs>
      <g>
       <use xlink:href="#m59c52a04b5" x="36.594981" y="256.32" style="stroke: #000000; stroke-width: 0.5"/>
      </g>
     </g>
     <g id="line2d_12">
      <defs>
       <path id="m8396a6f9f3" d="M 0 0 
L 0 2 
" style="stroke: #000000; stroke-width: 0.5"/>
      </defs>
      <g>
       <use xlink:href="#m8396a6f9f3" x="36.594981" y="34.56" style="stroke: #000000; stroke-width: 0.5"/>
      </g>
     </g>
    </g>
    <g id="xtick_7">
     <g id="line2d_13">
      <g>
       <use xlink:href="#m59c52a04b5" x="45.937784" y="256.32" style="stroke: #000000; stroke-width: 0.5"/>
      </g>
     </g>
     <g id="line2d_14">
      <g>
       <use xlink:href="#m8396a6f9f3" x="45.937784" y="34.56" style="stroke: #000000; stroke-width: 0.5"/>
      </g>
     </g>
    </g>
    <g id="xtick_8">
     <g id="line2d_15">
      <g>
       <use xlink:href="#m59c52a04b5" x="64.623391" y="256.32" style="stroke: #000000; stroke-width: 0.5"/>
      </g>
     </g>
     <g id="line2d_16">
      <g>
       <use xlink:href="#m8396a6f9f3" x="64.623391" y="34.56" style="stroke: #000000; stroke-width: 0.5"/>
      </g>
     </g>
    </g>
    <g id="xtick_9">
     <g id="line2d_17">
      <g>
       <use xlink:href="#m59c52a04b5" x="73.966195" y="256.32" style="stroke: #000000; stroke-width: 0.5"/>
      </g>
     </g>
     <g id="line2d_18">
      <g>
       <use xlink:href="#m8396a6f9f3" x="73.966195" y="34.56" style="stroke: #000000; stroke-width: 0.5"/>
      </g>
     </g>
    </g>
    <g id="xtick_10">
     <g id="line2d_19">
      <g>
       <use xlink:href="#m59c52a04b5" x="83.308998" y="256.32" style="stroke: #000000; stroke-width: 0.5"/>
      </g>
     </g>
     <g id="line2d_20">
      <g>
       <use xlink:href="#m8396a6f9f3" x="83.308998" y="34.56" style="stroke: #000000; stroke-width: 0.5"/>
      </g>
     </g>
    </g>
    <g id="xtick_11">
     <g id="line2d_21">
      <g>
       <use xlink:href="#m59c52a04b5" x="92.651801" y="256.32" style="stroke: #000000; stroke-width: 0.5"/>
      </g>
     </g>
     <g id="line2d_22">
      <g>
       <use xlink:href="#m8396a6f9f3" x="92.651801" y="34.56" style="stroke: #000000; stroke-width: 0.5"/>
      </g>
     </g>
    </g>
    <g id="xtick_12">
     <g id="line2d_23">
      <g>
       <use xlink:href="#m59c52a04b5" x="111.337408" y="256.32" style="stroke: #000000; stroke-width: 0.5"/>
      </g>
     </g>
     <g id="line2d_24">
      <g>
       <use xlink:href="#m8396a6f9f3" x="111.337408" y="34.56" style="stroke: #000000; stroke-width: 0.5"/>
      </g>
     </g>
    </g>
    <g id="xtick_13">
     <g id="line2d_25">
      <g>
       <use xlink:href="#m59c52a04b5" x="120.680212" y="256.32" style="stroke: #000000; stroke-width: 0.5"/>
      </g>
     </g>
     <g id="line2d_26">
      <g>
       <use xlink:href="#m8396a6f9f3" x="120.680212" y="34.56" style="stroke: #000000; stroke-width: 0.5"/>
      </g>
     </g>
    </g>
    <g id="xtick_14">
     <g id="line2d_27">
      <g>
       <use xlink:href="#m59c52a04b5" x="130.023015" y="256.32" style="stroke: #000000; stroke-width: 0.5"/>
      </g>
     </g>
     <g id="line2d_28">
      <g>
       <use xlink:href="#m8396a6f9f3" x="130.023015" y="34.56" style="stroke: #000000; stroke-width: 0.5"/>
      </g>
     </g>
    </g>
    <g id="xtick_15">
     <g id="line2d_29">
      <g>
       <use xlink:href="#m59c52a04b5" x="139.365818" y="256.32" style="stroke: #000000; stroke-width: 0.5"/>
      </g>
     </g>
     <g id="line2d_30">
      <g>
       <use xlink:href="#m8396a6f9f3" x="139.365818" y="34.56" style="stroke: #000000; stroke-width: 0.5"/>
      </g>
     </g>
    </g>
    <g id="xtick_16">
     <g id="line2d_31">
      <g>
       <use xlink:href="#m59c52a04b5" x="158.051425" y="256.32" style="stroke: #000000; stroke-width: 0.5"/>
      </g>
     </g>
     <g id="line2d_32">
      <g>
       <use xlink:href="#m8396a6f9f3" x="158.051425" y="34.56" style="stroke: #000000; stroke-width: 0.5"/>
      </g>
     </g>
    </g>
    <g id="xtick_17">
     <g id="line2d_33">
      <g>
       <use xlink:href="#m59c52a04b5" x="167.394229" y="256.32" style="stroke: #000000; stroke-width: 0.5"/>
      </g>
     </g>
     <g id="line2d_34">
      <g>
       <use xlink:href="#m8396a6f9f3" x="167.394229" y="34.56" style="stroke: #000000; stroke-width: 0.5"/>
      </g>
     </g>
    </g>
    <g id="xtick_18">
     <g id="line2d_35">
      <g>
       <use xlink:href="#m59c52a04b5" x="176.737032" y="256.32" style="stroke: #000000; stroke-width: 0.5"/>
      </g>
     </g>
     <g id="line2d_36">
      <g>
       <use xlink:href="#m8396a6f9f3" x="176.737032" y="34.56" style="stroke: #000000; stroke-width: 0.5"/>
      </g>
     </g>
    </g>
    <g id="xtick_19">
     <g id="line2d_37">
      <g>
       <use xlink:href="#m59c52a04b5" x="186.079835" y="256.32" style="stroke: #000000; stroke-width: 0.5"/>
      </g>
     </g>
     <g id="line2d_38">
      <g>
       <use xlink:href="#m8396a6f9f3" x="186.079835" y="34.56" style="stroke: #000000; stroke-width: 0.5"/>
      </g>
     </g>
    </g>
    <g id="xtick_20">
     <g id="line2d_39">
      <g>
       <use xlink:href="#m59c52a04b5" x="204.765442" y="256.32" style="stroke: #000000; stroke-width: 0.5"/>
      </g>
     </g>
     <g id="line2d_40">
      <g>
       <use xlink:href="#m8396a6f9f3" x="204.765442" y="34.56" style="stroke: #000000; stroke-width: 0.5"/>
      </g>
     </g>
    </g>
    <g id="xtick_21">
     <g id="line2d_41">
      <g>
       <use xlink:href="#m59c52a04b5" x="214.108246" y="256.32" style="stroke: #000000; stroke-width: 0.5"/>
      </g>
     </g>
     <g id="line2d_42">
      <g>
       <use xlink:href="#m8396a6f9f3" x="214.108246" y="34.56" style="stroke: #000000; stroke-width: 0.5"/>
      </g>
     </g>
    </g>
    <g id="xtick_22">
     <g id="line2d_43">
      <g>
       <use xlink:href="#m59c52a04b5" x="223.451049" y="256.32" style="stroke: #000000; stroke-width: 0.5"/>
      </g>
     </g>
     <g id="line2d_44">
      <g>
       <use xlink:href="#m8396a6f9f3" x="223.451049" y="34.56" style="stroke: #000000; stroke-width: 0.5"/>
      </g>
     </g>
    </g>
    <g id="xtick_23">
     <g id="line2d_45">
      <g>
       <use xlink:href="#m59c52a04b5" x="232.793852" y="256.32" style="stroke: #000000; stroke-width: 0.5"/>
      </g>
     </g>
     <g id="line2d_46">
      <g>
       <use xlink:href="#m8396a6f9f3" x="232.793852" y="34.56" style="stroke: #000000; stroke-width: 0.5"/>
      </g>
     </g>
    </g>
    <g id="xtick_24">
     <g id="line2d_47">
      <g>
       <use xlink:href="#m59c52a04b5" x="251.479459" y="256.32" style="stroke: #000000; stroke-width: 0.5"/>
      </g>
     </g>
     <g id="line2d_48">
      <g>
       <use xlink:href="#m8396a6f9f3" x="251.479459" y="34.56" style="stroke: #000000; stroke-width: 0.5"/>
      </g>
     </g>
    </g>
    <g id="text_6">
     <!-- Moran's I -->
     <g transform="translate(123.38469 281.089652) scale(0.09996 -0.09996)">
      <defs>
       <path id="DejaVuSerif-4d" d="M 353 0 
L 353 331 
L 947 331 
L 947 4331 
L 319 4331 
L 319 4666 
L 1678 4666 
L 3316 1344 
L 4953 4666 
L 6228 4666 
L 6228 4331 
L 5606 4331 
L 5606 331 
L 6203 331 
L 6203 0 
L 4378 0 
L 4378 331 
L 4972 331 
L 4972 3938 
L 3372 684 
L 2931 684 
L 1331 3938 
L 1331 331 
L 1925 331 
L 1925 0 
L 353 0 
z
" transform="scale(0.015625)"/>
       <path id="DejaVuSerif-6f" d="M 1925 219 
Q 2388 219 2623 584 
Q 2859 950 2859 1663 
Q 2859 2375 2623 2739 
Q 2388 3103 1925 3103 
Q 1463 3103 1227 2739 
Q 991 2375 991 1663 
Q 991 950 1228 584 
Q 1466 219 1925 219 
z
M 1925 -91 
Q 1200 -91 759 389 
Q 319 869 319 1663 
Q 319 2456 758 2934 
Q 1197 3413 1925 3413 
Q 2653 3413 3092 2934 
Q 3531 2456 3531 1663 
Q 3531 869 3092 389 
Q 2653 -91 1925 -91 
z
" transform="scale(0.015625)"/>
       <path id="DejaVuSerif-72" d="M 3059 3328 
L 3059 2497 
L 2728 2497 
Q 2713 2744 2591 2866 
Q 2469 2988 2234 2988 
Q 1809 2988 1582 2694 
Q 1356 2400 1356 1850 
L 1356 331 
L 2022 331 
L 2022 0 
L 263 0 
L 263 331 
L 781 331 
L 781 2994 
L 231 2994 
L 231 3322 
L 1356 3322 
L 1356 2731 
Q 1525 3078 1790 3245 
Q 2056 3413 2438 3413 
Q 2578 3413 2733 3391 
Q 2888 3369 3059 3328 
z
" transform="scale(0.015625)"/>
       <path id="DejaVuSerif-61" d="M 2547 1044 
L 2547 1747 
L 1806 1747 
Q 1378 1747 1168 1562 
Q 959 1378 959 997 
Q 959 650 1171 447 
Q 1384 244 1747 244 
Q 2106 244 2326 466 
Q 2547 688 2547 1044 
z
M 3122 2075 
L 3122 331 
L 3634 331 
L 3634 0 
L 2547 0 
L 2547 359 
Q 2356 128 2106 18 
Q 1856 -91 1522 -91 
Q 969 -91 644 203 
Q 319 497 319 997 
Q 319 1513 691 1797 
Q 1063 2081 1741 2081 
L 2547 2081 
L 2547 2309 
Q 2547 2688 2317 2895 
Q 2088 3103 1672 3103 
Q 1328 3103 1125 2947 
Q 922 2791 872 2484 
L 575 2484 
L 575 3156 
Q 875 3284 1158 3348 
Q 1441 3413 1709 3413 
Q 2400 3413 2761 3070 
Q 3122 2728 3122 2075 
z
" transform="scale(0.015625)"/>
       <path id="DejaVuSerif-6e" d="M 263 0 
L 263 331 
L 781 331 
L 781 2988 
L 231 2988 
L 231 3322 
L 1356 3322 
L 1356 2731 
Q 1516 3069 1770 3241 
Q 2025 3413 2363 3413 
Q 2913 3413 3172 3097 
Q 3431 2781 3431 2113 
L 3431 331 
L 3944 331 
L 3944 0 
L 2356 0 
L 2356 331 
L 2853 331 
L 2853 1931 
Q 2853 2541 2703 2767 
Q 2553 2994 2175 2994 
Q 1775 2994 1565 2701 
Q 1356 2409 1356 1850 
L 1356 331 
L 1856 331 
L 1856 0 
L 263 0 
z
" transform="scale(0.015625)"/>
       <path id="DejaVuSerif-27" d="M 1125 4666 
L 1125 2931 
L 628 2931 
L 628 4666 
L 1125 4666 
z
" transform="scale(0.015625)"/>
       <path id="DejaVuSerif-73" d="M 359 184 
L 359 959 
L 691 959 
Q 703 588 923 403 
Q 1144 219 1575 219 
Q 1963 219 2166 364 
Q 2369 509 2369 788 
Q 2369 1006 2220 1140 
Q 2072 1275 1594 1428 
L 1178 1569 
Q 750 1706 558 1912 
Q 366 2119 366 2438 
Q 366 2894 700 3153 
Q 1034 3413 1625 3413 
Q 1888 3413 2178 3344 
Q 2469 3275 2778 3144 
L 2778 2419 
L 2447 2419 
Q 2434 2741 2221 2922 
Q 2009 3103 1644 3103 
Q 1281 3103 1095 2975 
Q 909 2847 909 2591 
Q 909 2381 1050 2254 
Q 1191 2128 1613 1997 
L 2069 1856 
Q 2541 1709 2748 1489 
Q 2956 1269 2956 922 
Q 2956 450 2595 179 
Q 2234 -91 1600 -91 
Q 1278 -91 972 -22 
Q 666 47 359 184 
z
" transform="scale(0.015625)"/>
       <path id="DejaVuSerif-20" transform="scale(0.015625)"/>
       <path id="DejaVuSerif-49" d="M 1581 331 
L 2175 331 
L 2175 0 
L 353 0 
L 353 331 
L 947 331 
L 947 4331 
L 353 4331 
L 353 4666 
L 2175 4666 
L 2175 4331 
L 1581 4331 
L 1581 331 
z
" transform="scale(0.015625)"/>
      </defs>
      <use xlink:href="#DejaVuSerif-4d"/>
      <use xlink:href="#DejaVuSerif-6f" x="102.392578"/>
      <use xlink:href="#DejaVuSerif-72" x="162.597656"/>
      <use xlink:href="#DejaVuSerif-61" x="210.400391"/>
      <use xlink:href="#DejaVuSerif-6e" x="270.019531"/>
      <use xlink:href="#DejaVuSerif-27" x="334.423828"/>
      <use xlink:href="#DejaVuSerif-73" x="361.914062"/>
      <use xlink:href="#DejaVuSerif-20" x="413.232422"/>
      <use xlink:href="#DejaVuSerif-49" x="445.019531"/>
     </g>
    </g>
   </g>
   <g id="matplotlib.axis_2">
    <g id="ytick_1">
     <g id="line2d_49">
      <defs>
       <path id="m82c53812ad" d="M 0 0 
L 5 0 
" style="stroke: #000000; stroke-width: 0.5"/>
      </defs>
      <g>
       <use xlink:href="#m82c53812ad" x="36" y="256.32" style="stroke: #000000; stroke-width: 0.5"/>
      </g>
     </g>
     <g id="line2d_50">
      <defs>
       <path id="m13d6026003" d="M 0 0 
L -5 0 
" style="stroke: #000000; stroke-width: 0.5"/>
      </defs>
      <g>
       <use xlink:href="#m13d6026003" x="259.2" y="256.32" style="stroke: #000000; stroke-width: 0.5"/>
      </g>
     </g>
     <g id="text_7">
      <!-- 0 -->
      <g transform="translate(26.140045 260.117699) scale(0.09996 -0.09996)">
       <use xlink:href="#DejaVuSerif-30"/>
      </g>
     </g>
    </g>
    <g id="ytick_2">
     <g id="line2d_51">
      <g>
       <use xlink:href="#m82c53812ad" x="36" y="223.382019" style="stroke: #000000; stroke-width: 0.5"/>
      </g>
     </g>
     <g id="line2d_52">
      <g>
       <use xlink:href="#m13d6026003" x="259.2" y="223.382019" style="stroke: #000000; stroke-width: 0.5"/>
      </g>
     </g>
     <g id="text_8">
      <!-- 2 -->
      <g transform="translate(26.140045 227.179718) scale(0.09996 -0.09996)">
       <use xlink:href="#DejaVuSerif-32"/>
      </g>
     </g>
    </g>
    <g id="ytick_3">
     <g id="line2d_53">
      <g>
       <use xlink:href="#m82c53812ad" x="36" y="190.444038" style="stroke: #000000; stroke-width: 0.5"/>
      </g>
     </g>
     <g id="line2d_54">
      <g>
       <use xlink:href="#m13d6026003" x="259.2" y="190.444038" style="stroke: #000000; stroke-width: 0.5"/>
      </g>
     </g>
     <g id="text_9">
      <!-- 4 -->
      <g transform="translate(26.140045 194.241737) scale(0.09996 -0.09996)">
       <defs>
        <path id="DejaVuSerif-34" d="M 2234 1581 
L 2234 4063 
L 641 1581 
L 2234 1581 
z
M 3609 0 
L 1484 0 
L 1484 331 
L 2234 331 
L 2234 1247 
L 197 1247 
L 197 1588 
L 2241 4750 
L 2859 4750 
L 2859 1581 
L 3750 1581 
L 3750 1247 
L 2859 1247 
L 2859 331 
L 3609 331 
L 3609 0 
z
" transform="scale(0.015625)"/>
       </defs>
       <use xlink:href="#DejaVuSerif-34"/>
      </g>
     </g>
    </g>
    <g id="ytick_4">
     <g id="line2d_55">
      <g>
       <use xlink:href="#m82c53812ad" x="36" y="157.506057" style="stroke: #000000; stroke-width: 0.5"/>
      </g>
     </g>
     <g id="line2d_56">
      <g>
       <use xlink:href="#m13d6026003" x="259.2" y="157.506057" style="stroke: #000000; stroke-width: 0.5"/>
      </g>
     </g>
     <g id="text_10">
      <!-- 6 -->
      <g transform="translate(26.140045 161.303756) scale(0.09996 -0.09996)">
       <defs>
        <path id="DejaVuSerif-36" d="M 2094 219 
Q 2534 219 2771 542 
Q 3009 866 3009 1472 
Q 3009 2078 2771 2401 
Q 2534 2725 2094 2725 
Q 1647 2725 1412 2412 
Q 1178 2100 1178 1509 
Q 1178 888 1415 553 
Q 1653 219 2094 219 
z
M 1075 2569 
Q 1288 2803 1556 2918 
Q 1825 3034 2163 3034 
Q 2859 3034 3264 2615 
Q 3669 2197 3669 1472 
Q 3669 763 3233 336 
Q 2797 -91 2069 -91 
Q 1278 -91 853 498 
Q 428 1088 428 2181 
Q 428 3406 931 4078 
Q 1434 4750 2350 4750 
Q 2597 4750 2869 4703 
Q 3141 4656 3425 4563 
L 3425 3794 
L 3072 3794 
Q 3034 4109 2831 4275 
Q 2628 4441 2284 4441 
Q 1678 4441 1381 3981 
Q 1084 3522 1075 2569 
z
" transform="scale(0.015625)"/>
       </defs>
       <use xlink:href="#DejaVuSerif-36"/>
      </g>
     </g>
    </g>
    <g id="ytick_5">
     <g id="line2d_57">
      <g>
       <use xlink:href="#m82c53812ad" x="36" y="124.568076" style="stroke: #000000; stroke-width: 0.5"/>
      </g>
     </g>
     <g id="line2d_58">
      <g>
       <use xlink:href="#m13d6026003" x="259.2" y="124.568076" style="stroke: #000000; stroke-width: 0.5"/>
      </g>
     </g>
     <g id="text_11">
      <!-- 8 -->
      <g transform="translate(26.140045 128.365775) scale(0.09996 -0.09996)">
       <defs>
        <path id="DejaVuSerif-38" d="M 2981 1275 
Q 2981 1775 2732 2051 
Q 2484 2328 2034 2328 
Q 1584 2328 1336 2051 
Q 1088 1775 1088 1275 
Q 1088 772 1336 495 
Q 1584 219 2034 219 
Q 2484 219 2732 495 
Q 2981 772 2981 1275 
z
M 2853 3541 
Q 2853 3966 2637 4203 
Q 2422 4441 2034 4441 
Q 1650 4441 1433 4203 
Q 1216 3966 1216 3541 
Q 1216 3113 1433 2875 
Q 1650 2638 2034 2638 
Q 2422 2638 2637 2875 
Q 2853 3113 2853 3541 
z
M 2516 2484 
Q 3047 2413 3344 2092 
Q 3641 1772 3641 1275 
Q 3641 619 3225 264 
Q 2809 -91 2034 -91 
Q 1263 -91 845 264 
Q 428 619 428 1275 
Q 428 1772 725 2092 
Q 1022 2413 1556 2484 
Q 1084 2569 832 2842 
Q 581 3116 581 3541 
Q 581 4103 968 4426 
Q 1356 4750 2034 4750 
Q 2713 4750 3100 4426 
Q 3488 4103 3488 3541 
Q 3488 3116 3236 2842 
Q 2984 2569 2516 2484 
z
" transform="scale(0.015625)"/>
       </defs>
       <use xlink:href="#DejaVuSerif-38"/>
      </g>
     </g>
    </g>
    <g id="ytick_6">
     <g id="line2d_59">
      <g>
       <use xlink:href="#m82c53812ad" x="36" y="91.630096" style="stroke: #000000; stroke-width: 0.5"/>
      </g>
     </g>
     <g id="line2d_60">
      <g>
       <use xlink:href="#m13d6026003" x="259.2" y="91.630096" style="stroke: #000000; stroke-width: 0.5"/>
      </g>
     </g>
     <g id="text_12">
      <!-- 10 -->
      <g transform="translate(19.78009 95.427795) scale(0.09996 -0.09996)">
       <use xlink:href="#DejaVuSerif-31"/>
       <use xlink:href="#DejaVuSerif-30" x="63.623047"/>
      </g>
     </g>
    </g>
    <g id="ytick_7">
     <g id="line2d_61">
      <g>
       <use xlink:href="#m82c53812ad" x="36" y="58.692115" style="stroke: #000000; stroke-width: 0.5"/>
      </g>
     </g>
     <g id="line2d_62">
      <g>
       <use xlink:href="#m13d6026003" x="259.2" y="58.692115" style="stroke: #000000; stroke-width: 0.5"/>
      </g>
     </g>
     <g id="text_13">
      <!-- 12 -->
      <g transform="translate(19.78009 62.489814) scale(0.09996 -0.09996)">
       <use xlink:href="#DejaVuSerif-31"/>
       <use xlink:href="#DejaVuSerif-32" x="63.623047"/>
      </g>
     </g>
    </g>
    <g id="ytick_8">
     <g id="line2d_63">
      <defs>
       <path id="ma80885b0a4" d="M 0 0 
L 3 0 
" style="stroke: #000000; stroke-width: 0.5"/>
      </defs>
      <g>
       <use xlink:href="#ma80885b0a4" x="36" y="248.085505" style="stroke: #000000; stroke-width: 0.5"/>
      </g>
     </g>
     <g id="line2d_64">
      <defs>
       <path id="mf2dcec344c" d="M 0 0 
L -3 0 
" style="stroke: #000000; stroke-width: 0.5"/>
      </defs>
      <g>
       <use xlink:href="#mf2dcec344c" x="259.2" y="248.085505" style="stroke: #000000; stroke-width: 0.5"/>
      </g>
     </g>
    </g>
    <g id="ytick_9">
     <g id="line2d_65">
      <g>
       <use xlink:href="#ma80885b0a4" x="36" y="239.85101" style="stroke: #000000; stroke-width: 0.5"/>
      </g>
     </g>
     <g id="line2d_66">
      <g>
       <use xlink:href="#mf2dcec344c" x="259.2" y="239.85101" style="stroke: #000000; stroke-width: 0.5"/>
      </g>
     </g>
    </g>
    <g id="ytick_10">
     <g id="line2d_67">
      <g>
       <use xlink:href="#ma80885b0a4" x="36" y="231.616514" style="stroke: #000000; stroke-width: 0.5"/>
      </g>
     </g>
     <g id="line2d_68">
      <g>
       <use xlink:href="#mf2dcec344c" x="259.2" y="231.616514" style="stroke: #000000; stroke-width: 0.5"/>
      </g>
     </g>
    </g>
    <g id="ytick_11">
     <g id="line2d_69">
      <g>
       <use xlink:href="#ma80885b0a4" x="36" y="215.147524" style="stroke: #000000; stroke-width: 0.5"/>
      </g>
     </g>
     <g id="line2d_70">
      <g>
       <use xlink:href="#mf2dcec344c" x="259.2" y="215.147524" style="stroke: #000000; stroke-width: 0.5"/>
      </g>
     </g>
    </g>
    <g id="ytick_12">
     <g id="line2d_71">
      <g>
       <use xlink:href="#ma80885b0a4" x="36" y="206.913029" style="stroke: #000000; stroke-width: 0.5"/>
      </g>
     </g>
     <g id="line2d_72">
      <g>
       <use xlink:href="#mf2dcec344c" x="259.2" y="206.913029" style="stroke: #000000; stroke-width: 0.5"/>
      </g>
     </g>
    </g>
    <g id="ytick_13">
     <g id="line2d_73">
      <g>
       <use xlink:href="#ma80885b0a4" x="36" y="198.678533" style="stroke: #000000; stroke-width: 0.5"/>
      </g>
     </g>
     <g id="line2d_74">
      <g>
       <use xlink:href="#mf2dcec344c" x="259.2" y="198.678533" style="stroke: #000000; stroke-width: 0.5"/>
      </g>
     </g>
    </g>
    <g id="ytick_14">
     <g id="line2d_75">
      <g>
       <use xlink:href="#ma80885b0a4" x="36" y="182.209543" style="stroke: #000000; stroke-width: 0.5"/>
      </g>
     </g>
     <g id="line2d_76">
      <g>
       <use xlink:href="#mf2dcec344c" x="259.2" y="182.209543" style="stroke: #000000; stroke-width: 0.5"/>
      </g>
     </g>
    </g>
    <g id="ytick_15">
     <g id="line2d_77">
      <g>
       <use xlink:href="#ma80885b0a4" x="36" y="173.975048" style="stroke: #000000; stroke-width: 0.5"/>
      </g>
     </g>
     <g id="line2d_78">
      <g>
       <use xlink:href="#mf2dcec344c" x="259.2" y="173.975048" style="stroke: #000000; stroke-width: 0.5"/>
      </g>
     </g>
    </g>
    <g id="ytick_16">
     <g id="line2d_79">
      <g>
       <use xlink:href="#ma80885b0a4" x="36" y="165.740553" style="stroke: #000000; stroke-width: 0.5"/>
      </g>
     </g>
     <g id="line2d_80">
      <g>
       <use xlink:href="#mf2dcec344c" x="259.2" y="165.740553" style="stroke: #000000; stroke-width: 0.5"/>
      </g>
     </g>
    </g>
    <g id="ytick_17">
     <g id="line2d_81">
      <g>
       <use xlink:href="#ma80885b0a4" x="36" y="149.271562" style="stroke: #000000; stroke-width: 0.5"/>
      </g>
     </g>
     <g id="line2d_82">
      <g>
       <use xlink:href="#mf2dcec344c" x="259.2" y="149.271562" style="stroke: #000000; stroke-width: 0.5"/>
      </g>
     </g>
    </g>
    <g id="ytick_18">
     <g id="line2d_83">
      <g>
       <use xlink:href="#ma80885b0a4" x="36" y="141.037067" style="stroke: #000000; stroke-width: 0.5"/>
      </g>
     </g>
     <g id="line2d_84">
      <g>
       <use xlink:href="#mf2dcec344c" x="259.2" y="141.037067" style="stroke: #000000; stroke-width: 0.5"/>
      </g>
     </g>
    </g>
    <g id="ytick_19">
     <g id="line2d_85">
      <g>
       <use xlink:href="#ma80885b0a4" x="36" y="132.802572" style="stroke: #000000; stroke-width: 0.5"/>
      </g>
     </g>
     <g id="line2d_86">
      <g>
       <use xlink:href="#mf2dcec344c" x="259.2" y="132.802572" style="stroke: #000000; stroke-width: 0.5"/>
      </g>
     </g>
    </g>
    <g id="ytick_20">
     <g id="line2d_87">
      <g>
       <use xlink:href="#ma80885b0a4" x="36" y="116.333581" style="stroke: #000000; stroke-width: 0.5"/>
      </g>
     </g>
     <g id="line2d_88">
      <g>
       <use xlink:href="#mf2dcec344c" x="259.2" y="116.333581" style="stroke: #000000; stroke-width: 0.5"/>
      </g>
     </g>
    </g>
    <g id="ytick_21">
     <g id="line2d_89">
      <g>
       <use xlink:href="#ma80885b0a4" x="36" y="108.099086" style="stroke: #000000; stroke-width: 0.5"/>
      </g>
     </g>
     <g id="line2d_90">
      <g>
       <use xlink:href="#mf2dcec344c" x="259.2" y="108.099086" style="stroke: #000000; stroke-width: 0.5"/>
      </g>
     </g>
    </g>
    <g id="ytick_22">
     <g id="line2d_91">
      <g>
       <use xlink:href="#ma80885b0a4" x="36" y="99.864591" style="stroke: #000000; stroke-width: 0.5"/>
      </g>
     </g>
     <g id="line2d_92">
      <g>
       <use xlink:href="#mf2dcec344c" x="259.2" y="99.864591" style="stroke: #000000; stroke-width: 0.5"/>
      </g>
     </g>
    </g>
    <g id="ytick_23">
     <g id="line2d_93">
      <g>
       <use xlink:href="#ma80885b0a4" x="36" y="83.3956" style="stroke: #000000; stroke-width: 0.5"/>
      </g>
     </g>
     <g id="line2d_94">
      <g>
       <use xlink:href="#mf2dcec344c" x="259.2" y="83.3956" style="stroke: #000000; stroke-width: 0.5"/>
      </g>
     </g>
    </g>
    <g id="ytick_24">
     <g id="line2d_95">
      <g>
       <use xlink:href="#ma80885b0a4" x="36" y="75.161105" style="stroke: #000000; stroke-width: 0.5"/>
      </g>
     </g>
     <g id="line2d_96">
      <g>
       <use xlink:href="#mf2dcec344c" x="259.2" y="75.161105" style="stroke: #000000; stroke-width: 0.5"/>
      </g>
     </g>
    </g>
    <g id="ytick_25">
     <g id="line2d_97">
      <g>
       <use xlink:href="#ma80885b0a4" x="36" y="66.92661" style="stroke: #000000; stroke-width: 0.5"/>
      </g>
     </g>
     <g id="line2d_98">
      <g>
       <use xlink:href="#mf2dcec344c" x="259.2" y="66.92661" style="stroke: #000000; stroke-width: 0.5"/>
      </g>
     </g>
    </g>
    <g id="ytick_26">
     <g id="line2d_99">
      <g>
       <use xlink:href="#ma80885b0a4" x="36" y="50.457619" style="stroke: #000000; stroke-width: 0.5"/>
      </g>
     </g>
     <g id="line2d_100">
      <g>
       <use xlink:href="#mf2dcec344c" x="259.2" y="50.457619" style="stroke: #000000; stroke-width: 0.5"/>
      </g>
     </g>
    </g>
    <g id="ytick_27">
     <g id="line2d_101">
      <g>
       <use xlink:href="#ma80885b0a4" x="36" y="42.223124" style="stroke: #000000; stroke-width: 0.5"/>
      </g>
     </g>
     <g id="line2d_102">
      <g>
       <use xlink:href="#mf2dcec344c" x="259.2" y="42.223124" style="stroke: #000000; stroke-width: 0.5"/>
      </g>
     </g>
    </g>
    <g id="text_14">
     <!-- Density -->
     <g transform="translate(13.559104 164.619825) rotate(-90) scale(0.09996 -0.09996)">
      <defs>
       <path id="DejaVuSerif-44" d="M 1581 331 
L 2163 331 
Q 3072 331 3558 850 
Q 4044 1369 4044 2338 
Q 4044 3306 3559 3818 
Q 3075 4331 2163 4331 
L 1581 4331 
L 1581 331 
z
M 353 0 
L 353 331 
L 947 331 
L 947 4331 
L 353 4331 
L 353 4666 
L 2209 4666 
Q 3416 4666 4089 4050 
Q 4763 3434 4763 2338 
Q 4763 1238 4088 619 
Q 3413 0 2209 0 
L 353 0 
z
" transform="scale(0.015625)"/>
       <path id="DejaVuSerif-65" d="M 3469 1600 
L 991 1600 
L 991 1575 
Q 991 903 1244 561 
Q 1497 219 1991 219 
Q 2369 219 2611 417 
Q 2853 616 2950 1006 
L 3413 1006 
Q 3275 459 2904 184 
Q 2534 -91 1931 -91 
Q 1203 -91 761 389 
Q 319 869 319 1663 
Q 319 2450 753 2931 
Q 1188 3413 1894 3413 
Q 2647 3413 3050 2948 
Q 3453 2484 3469 1600 
z
M 2791 1931 
Q 2772 2513 2545 2808 
Q 2319 3103 1894 3103 
Q 1497 3103 1269 2806 
Q 1041 2509 991 1931 
L 2791 1931 
z
" transform="scale(0.015625)"/>
       <path id="DejaVuSerif-69" d="M 622 4353 
Q 622 4497 726 4603 
Q 831 4709 978 4709 
Q 1122 4709 1226 4603 
Q 1331 4497 1331 4353 
Q 1331 4206 1228 4103 
Q 1125 4000 978 4000 
Q 831 4000 726 4103 
Q 622 4206 622 4353 
z
M 1356 331 
L 1900 331 
L 1900 0 
L 231 0 
L 231 331 
L 781 331 
L 781 2988 
L 231 2988 
L 231 3322 
L 1356 3322 
L 1356 331 
z
" transform="scale(0.015625)"/>
       <path id="DejaVuSerif-74" d="M 691 2988 
L 184 2988 
L 184 3322 
L 691 3322 
L 691 4353 
L 1269 4353 
L 1269 3322 
L 2350 3322 
L 2350 2988 
L 1269 2988 
L 1269 878 
Q 1269 456 1350 337 
Q 1431 219 1650 219 
Q 1875 219 1978 351 
Q 2081 484 2088 781 
L 2522 781 
Q 2497 328 2275 118 
Q 2053 -91 1600 -91 
Q 1103 -91 897 129 
Q 691 350 691 878 
L 691 2988 
z
" transform="scale(0.015625)"/>
       <path id="DejaVuSerif-79" d="M 1381 -609 
L 1600 -56 
L 359 2988 
L -19 2988 
L -19 3322 
L 1509 3322 
L 1509 2988 
L 978 2988 
L 1913 703 
L 2847 2988 
L 2350 2988 
L 2350 3322 
L 3597 3322 
L 3597 2988 
L 3225 2988 
L 1703 -750 
Q 1547 -1138 1356 -1280 
Q 1166 -1422 819 -1422 
Q 672 -1422 517 -1397 
Q 363 -1372 206 -1325 
L 206 -691 
L 500 -691 
Q 519 -903 608 -995 
Q 697 -1088 884 -1088 
Q 1056 -1088 1161 -992 
Q 1266 -897 1381 -609 
z
" transform="scale(0.015625)"/>
      </defs>
      <use xlink:href="#DejaVuSerif-44"/>
      <use xlink:href="#DejaVuSerif-65" x="80.175781"/>
      <use xlink:href="#DejaVuSerif-6e" x="139.355469"/>
      <use xlink:href="#DejaVuSerif-73" x="203.759766"/>
      <use xlink:href="#DejaVuSerif-69" x="255.078125"/>
      <use xlink:href="#DejaVuSerif-74" x="287.060547"/>
      <use xlink:href="#DejaVuSerif-79" x="327.246094"/>
     </g>
    </g>
   </g>
   <g id="line2d_103">
    <path d="M 99.586666 256.32 
L 99.586666 34.56 
" clip-path="url(#p3d1f339392)" style="fill: none; stroke: #000000; stroke-width: 1.25; stroke-linecap: square"/>
   </g>
   <g id="line2d_104">
    <path d="M 249.054545 256.32 
L 249.054545 34.56 
" clip-path="url(#p3d1f339392)" style="fill: none; stroke: #ff0000; stroke-width: 1.25; stroke-linecap: square"/>
   </g>
   <g id="patch_3">
    <path d="M 36 256.32 
L 36 34.56 
" style="fill: none; stroke: #000000; stroke-width: 0.5; stroke-linejoin: miter; stroke-linecap: square"/>
   </g>
   <g id="patch_4">
    <path d="M 259.2 256.32 
L 259.2 34.56 
" style="fill: none; stroke: #000000; stroke-width: 0.5; stroke-linejoin: miter; stroke-linecap: square"/>
   </g>
   <g id="patch_5">
    <path d="M 36 256.32 
L 259.2 256.32 
" style="fill: none; stroke: #000000; stroke-width: 0.5; stroke-linejoin: miter; stroke-linecap: square"/>
   </g>
   <g id="patch_6">
    <path d="M 36 34.56 
L 259.2 34.56 
" style="fill: none; stroke: #000000; stroke-width: 0.5; stroke-linejoin: miter; stroke-linecap: square"/>
   </g>
  </g>
 </g>
 <defs>
  <clipPath id="p3d1f339392">
   <rect x="36" y="34.56" width="223.2" height="221.76"/>
  </clipPath>
 </defs>
</svg>
