<?xml version="1.0" encoding="utf-8" standalone="no"?>
<!DOCTYPE svg PUBLIC "-//W3C//DTD SVG 1.1//EN"
  "http://www.w3.org/Graphics/SVG/1.1/DTD/svg11.dtd">
<svg xmlns:xlink="http://www.w3.org/1999/xlink" width="288pt" height="288pt" viewBox="0 0 288 288" xmlns="http://www.w3.org/2000/svg" version="1.1">
 <metadata>
  <rdf:RDF xmlns:dc="http://purl.org/dc/elements/1.1/" xmlns:cc="http://creativecommons.org/ns#" xmlns:rdf="http://www.w3.org/1999/02/22-rdf-syntax-ns#">
   <cc:Work>
    <dc:type rdf:resource="http://purl.org/dc/dcmitype/StillImage"/>
    <dc:date>2023-01-15T04:20:12.253419</dc:date>
    <dc:format>image/svg+xml</dc:format>
    <dc:creator>
     <cc:Agent>
      <dc:title>Matplotlib v3.6.3, https://matplotlib.org/</dc:title>
     </cc:Agent>
    </dc:creator>
   </cc:Work>
  </rdf:RDF>
 </metadata>
 <defs>
  <style type="text/css">*{stroke-linejoin: round; stroke-linecap: butt}</style>
 </defs>
 <g id="figure_1">
  <g id="patch_1">
   <path d="M 0 288 
L 288 288 
L 288 0 
L 0 0 
z
" style="fill: #ffffff"/>
  </g>
  <g id="axes_1">
   <g id="patch_2">
    <path d="M 36 256.32 
L 259.2 256.32 
L 259.2 34.56 
L 36 34.56 
z
" style="fill: #ffffff"/>
   </g>
   <g id="PolyCollection_1">
    <defs>
     <path id="mc2f459e3f4" d="M 46.145455 -31.700508 
L 46.145455 -31.68 
L 47.165098 -31.68 
L 48.184742 -31.68 
L 49.204386 -31.68 
L 50.224029 -31.68 
L 51.243673 -31.68 
L 52.263317 -31.68 
L 53.28296 -31.68 
L 54.302604 -31.68 
L 55.322248 -31.68 
L 56.341891 -31.68 
L 57.361535 -31.68 
L 58.381179 -31.68 
L 59.400822 -31.68 
L 60.420466 -31.68 
L 61.44011 -31.68 
L 62.459753 -31.68 
L 63.479397 -31.68 
L 64.499041 -31.68 
L 65.518684 -31.68 
L 66.538328 -31.68 
L 67.557972 -31.68 
L 68.577615 -31.68 
L 69.597259 -31.68 
L 70.616903 -31.68 
L 71.636546 -31.68 
L 72.65619 -31.68 
L 73.675834 -31.68 
L 74.695477 -31.68 
L 75.715121 -31.68 
L 76.734765 -31.68 
L 77.754408 -31.68 
L 78.774052 -31.68 
L 79.793696 -31.68 
L 80.813339 -31.68 
L 81.832983 -31.68 
L 82.852627 -31.68 
L 83.87227 -31.68 
L 84.891914 -31.68 
L 85.911558 -31.68 
L 86.931201 -31.68 
L 87.950845 -31.68 
L 88.970489 -31.68 
L 89.990132 -31.68 
L 91.009776 -31.68 
L 92.02942 -31.68 
L 93.049063 -31.68 
L 94.068707 -31.68 
L 95.088351 -31.68 
L 96.107995 -31.68 
L 97.127638 -31.68 
L 98.147282 -31.68 
L 99.166926 -31.68 
L 100.186569 -31.68 
L 101.206213 -31.68 
L 102.225857 -31.68 
L 103.2455 -31.68 
L 104.265144 -31.68 
L 105.284788 -31.68 
L 106.304431 -31.68 
L 107.324075 -31.68 
L 108.343719 -31.68 
L 109.363362 -31.68 
L 110.383006 -31.68 
L 111.40265 -31.68 
L 112.422293 -31.68 
L 113.441937 -31.68 
L 114.461581 -31.68 
L 115.481224 -31.68 
L 116.500868 -31.68 
L 117.520512 -31.68 
L 118.540155 -31.68 
L 119.559799 -31.68 
L 120.579443 -31.68 
L 121.599086 -31.68 
L 122.61873 -31.68 
L 123.638374 -31.68 
L 124.658017 -31.68 
L 125.677661 -31.68 
L 126.697305 -31.68 
L 127.716948 -31.68 
L 128.736592 -31.68 
L 129.756236 -31.68 
L 130.775879 -31.68 
L 131.795523 -31.68 
L 132.815167 -31.68 
L 133.83481 -31.68 
L 134.854454 -31.68 
L 135.874098 -31.68 
L 136.893741 -31.68 
L 137.913385 -31.68 
L 138.933029 -31.68 
L 139.952672 -31.68 
L 140.972316 -31.68 
L 141.99196 -31.68 
L 143.011603 -31.68 
L 144.031247 -31.68 
L 145.050891 -31.68 
L 146.070534 -31.68 
L 147.090178 -31.68 
L 148.109822 -31.68 
L 149.129466 -31.68 
L 150.149109 -31.68 
L 151.168753 -31.68 
L 152.188397 -31.68 
L 153.20804 -31.68 
L 154.227684 -31.68 
L 155.247328 -31.68 
L 156.266971 -31.68 
L 157.286615 -31.68 
L 158.306259 -31.68 
L 159.325902 -31.68 
L 160.345546 -31.68 
L 161.36519 -31.68 
L 162.384833 -31.68 
L 163.404477 -31.68 
L 164.424121 -31.68 
L 165.443764 -31.68 
L 166.463408 -31.68 
L 167.483052 -31.68 
L 168.502695 -31.68 
L 169.522339 -31.68 
L 170.541983 -31.68 
L 171.561626 -31.68 
L 172.58127 -31.68 
L 173.600914 -31.68 
L 174.620557 -31.68 
L 175.640201 -31.68 
L 176.659845 -31.68 
L 177.679488 -31.68 
L 178.699132 -31.68 
L 179.718776 -31.68 
L 180.738419 -31.68 
L 181.758063 -31.68 
L 182.777707 -31.68 
L 183.79735 -31.68 
L 184.816994 -31.68 
L 185.836638 -31.68 
L 186.856281 -31.68 
L 187.875925 -31.68 
L 188.895569 -31.68 
L 189.915212 -31.68 
L 190.934856 -31.68 
L 191.9545 -31.68 
L 192.974143 -31.68 
L 193.993787 -31.68 
L 195.013431 -31.68 
L 196.033074 -31.68 
L 197.052718 -31.68 
L 198.072362 -31.68 
L 199.092005 -31.68 
L 200.111649 -31.68 
L 201.131293 -31.68 
L 202.150937 -31.68 
L 203.17058 -31.68 
L 204.190224 -31.68 
L 205.209868 -31.68 
L 206.229511 -31.68 
L 207.249155 -31.68 
L 208.268799 -31.68 
L 209.288442 -31.68 
L 210.308086 -31.68 
L 211.32773 -31.68 
L 212.347373 -31.68 
L 213.367017 -31.68 
L 214.386661 -31.68 
L 215.406304 -31.68 
L 216.425948 -31.68 
L 217.445592 -31.68 
L 218.465235 -31.68 
L 219.484879 -31.68 
L 220.504523 -31.68 
L 221.524166 -31.68 
L 222.54381 -31.68 
L 223.563454 -31.68 
L 224.583097 -31.68 
L 225.602741 -31.68 
L 226.622385 -31.68 
L 227.642028 -31.68 
L 228.661672 -31.68 
L 229.681316 -31.68 
L 230.700959 -31.68 
L 231.720603 -31.68 
L 232.740247 -31.68 
L 233.75989 -31.68 
L 234.779534 -31.68 
L 235.799178 -31.68 
L 236.818821 -31.68 
L 237.838465 -31.68 
L 238.858109 -31.68 
L 239.877752 -31.68 
L 240.897396 -31.68 
L 241.91704 -31.68 
L 242.936683 -31.68 
L 243.956327 -31.68 
L 244.975971 -31.68 
L 245.995614 -31.68 
L 247.015258 -31.68 
L 248.034902 -31.68 
L 249.054545 -31.68 
L 249.054545 -31.714981 
L 249.054545 -31.714981 
L 248.034902 -31.731293 
L 247.015258 -31.753981 
L 245.995614 -31.784963 
L 244.975971 -31.826485 
L 243.956327 -31.881092 
L 242.936683 -31.951548 
L 241.91704 -32.040698 
L 240.897396 -32.151293 
L 239.877752 -32.285744 
L 238.858109 -32.445842 
L 237.838465 -32.632459 
L 236.818821 -32.845237 
L 235.799178 -33.082327 
L 234.779534 -33.340203 
L 233.75989 -33.613579 
L 232.740247 -33.895487 
L 231.720603 -34.177513 
L 230.700959 -34.450205 
L 229.681316 -34.703639 
L 228.661672 -34.9281 
L 227.642028 -35.114824 
L 226.622385 -35.256738 
L 225.602741 -35.349116 
L 224.583097 -35.390077 
L 223.563454 -35.38088 
L 222.54381 -35.325965 
L 221.524166 -35.232728 
L 220.504523 -35.111061 
L 219.484879 -34.972667 
L 218.465235 -34.830252 
L 217.445592 -34.69663 
L 216.425948 -34.583836 
L 215.406304 -34.50233 
L 214.386661 -34.460327 
L 213.367017 -34.463323 
L 212.347373 -34.513827 
L 211.32773 -34.611307 
L 210.308086 -34.752343 
L 209.288442 -34.930957 
L 208.268799 -35.139084 
L 207.249155 -35.367142 
L 206.229511 -35.604666 
L 205.209868 -35.840946 
L 204.190224 -36.065652 
L 203.17058 -36.269388 
L 202.150937 -36.444172 
L 201.131293 -36.583796 
L 200.111649 -36.684065 
L 199.092005 -36.742905 
L 198.072362 -36.760337 
L 197.052718 -36.738328 
L 196.033074 -36.680534 
L 195.013431 -36.591961 
L 193.993787 -36.478575 
L 192.974143 -36.346895 
L 191.9545 -36.203606 
L 190.934856 -36.055228 
L 189.915212 -35.907859 
L 188.895569 -35.767017 
L 187.875925 -35.637579 
L 186.856281 -35.523809 
L 185.836638 -35.429448 
L 184.816994 -35.357845 
L 183.79735 -35.312087 
L 182.777707 -35.295099 
L 181.758063 -35.30969 
L 180.738419 -35.358529 
L 179.718776 -35.444055 
L 178.699132 -35.568319 
L 177.679488 -35.732794 
L 176.659845 -35.938166 
L 175.640201 -36.184132 
L 174.620557 -36.469238 
L 173.600914 -36.790763 
L 172.58127 -37.144665 
L 171.561626 -37.525599 
L 170.541983 -37.926994 
L 169.522339 -38.341206 
L 168.502695 -38.759725 
L 167.483052 -39.173456 
L 166.463408 -39.573055 
L 165.443764 -39.949338 
L 164.424121 -40.29373 
L 163.404477 -40.59877 
L 162.384833 -40.858632 
L 161.36519 -41.069628 
L 160.345546 -41.230672 
L 159.325902 -41.343638 
L 158.306259 -41.413585 
L 157.286615 -41.448795 
L 156.266971 -41.460619 
L 155.247328 -41.463104 
L 154.227684 -41.472421 
L 153.20804 -41.506136 
L 152.188397 -41.582386 
L 151.168753 -41.719009 
L 150.149109 -41.932752 
L 149.129466 -42.238606 
L 148.109822 -42.649355 
L 147.090178 -43.1754 
L 146.070534 -43.824867 
L 145.050891 -44.604008 
L 144.031247 -45.51784 
L 143.011603 -46.570956 
L 141.99196 -47.768412 
L 140.972316 -49.116582 
L 139.952672 -50.623866 
L 138.933029 -52.301162 
L 137.913385 -54.16203 
L 136.893741 -56.222512 
L 135.874098 -58.500605 
L 134.854454 -61.015435 
L 133.83481 -63.786204 
L 132.815167 -66.831016 
L 131.795523 -70.165704 
L 130.775879 -73.802799 
L 129.756236 -77.750743 
L 128.736592 -82.013483 
L 127.716948 -86.590491 
L 126.697305 -91.477241 
L 125.677661 -96.666129 
L 124.658017 -102.147692 
L 123.638374 -107.912004 
L 122.61873 -113.949979 
L 121.599086 -120.25433 
L 120.579443 -126.819888 
L 119.559799 -133.643015 
L 118.540155 -140.719924 
L 117.520512 -148.043822 
L 116.500868 -155.600946 
L 115.481224 -163.365758 
L 114.461581 -171.295719 
L 113.441937 -179.326243 
L 112.422293 -187.366523 
L 111.40265 -195.296962 
L 110.383006 -202.968873 
L 109.363362 -210.206941 
L 108.343719 -216.814697 
L 107.324075 -222.582926 
L 106.304431 -227.300558 
L 105.284788 -230.767299 
L 104.265144 -232.806915 
L 103.2455 -233.28 
L 102.225857 -232.094955 
L 101.206213 -229.216082 
L 100.186569 -224.667941 
L 99.166926 -218.535479 
L 98.147282 -210.959915 
L 97.127638 -202.130739 
L 96.107995 -192.274639 
L 95.088351 -181.64239 
L 94.068707 -170.494923 
L 93.049063 -159.089778 
L 92.02942 -147.669014 
L 91.009776 -136.449403 
L 89.990132 -125.615417 
L 88.970489 -115.315205 
L 87.950845 -105.659423 
L 86.931201 -96.72255 
L 85.911558 -88.546127 
L 84.891914 -81.143312 
L 83.87227 -74.5041 
L 82.852627 -68.60067 
L 81.832983 -63.392413 
L 80.813339 -58.830334 
L 79.793696 -54.860692 
L 78.774052 -51.427815 
L 77.754408 -48.476169 
L 76.734765 -45.951793 
L 75.715121 -43.803242 
L 74.695477 -41.982186 
L 73.675834 -40.443787 
L 72.65619 -39.146944 
L 71.636546 -38.054456 
L 70.616903 -37.133131 
L 69.597259 -36.353843 
L 68.577615 -35.691512 
L 67.557972 -35.124999 
L 66.538328 -34.636908 
L 65.518684 -34.21328 
L 64.499041 -33.843207 
L 63.479397 -33.518374 
L 62.459753 -33.232572 
L 61.44011 -32.981206 
L 60.420466 -32.760836 
L 59.400822 -32.56878 
L 58.381179 -32.402787 
L 57.361535 -32.260804 
L 56.341891 -32.140816 
L 55.322248 -32.04077 
L 54.302604 -31.958553 
L 53.28296 -31.892015 
L 52.263317 -31.839018 
L 51.243673 -31.797494 
L 50.224029 -31.7655 
L 49.204386 -31.741263 
L 48.184742 -31.723216 
L 47.165098 -31.710008 
L 46.145455 -31.700508 
z
" style="stroke: #48a185"/>
    </defs>
    <g clip-path="url(#p0c42c58077)">
     <use xlink:href="#mc2f459e3f4" x="0" y="288" style="fill: #48a185; fill-opacity: 0.25; stroke: #48a185"/>
    </g>
   </g>
   <g id="matplotlib.axis_1">
    <g id="xtick_1">
     <g id="line2d_1">
      <defs>
       <path id="mddddc3fda4" d="M 0 0 
L 0 -4 
" style="stroke: #000000; stroke-width: 0.5"/>
      </defs>
      <g>
       <use xlink:href="#mddddc3fda4" x="43.512361" y="256.32" style="stroke: #000000; stroke-width: 0.5"/>
      </g>
     </g>
     <g id="line2d_2">
      <defs>
       <path id="m55c864834a" d="M 0 0 
L 0 4 
" style="stroke: #000000; stroke-width: 0.5"/>
      </defs>
      <g>
       <use xlink:href="#m55c864834a" x="43.512361" y="34.56" style="stroke: #000000; stroke-width: 0.5"/>
      </g>
     </g>
     <g id="text_1">
      <!-- −2 -->
      <g transform="translate(36.144216 267.415398) scale(0.09996 -0.09996)">
       <defs>
        <path id="DejaVuSerif-2212" d="M 678 2259 
L 4684 2259 
L 4684 1753 
L 678 1753 
L 678 2259 
z
" transform="scale(0.015625)"/>
        <path id="DejaVuSerif-32" d="M 819 3553 
L 469 3553 
L 469 4384 
Q 803 4563 1142 4656 
Q 1481 4750 1806 4750 
Q 2534 4750 2956 4397 
Q 3378 4044 3378 3438 
Q 3378 2753 2422 1800 
Q 2347 1728 2309 1691 
L 1131 513 
L 3078 513 
L 3078 1088 
L 3444 1088 
L 3444 0 
L 434 0 
L 434 341 
L 1850 1753 
Q 2319 2222 2519 2614 
Q 2719 3006 2719 3438 
Q 2719 3909 2473 4175 
Q 2228 4441 1797 4441 
Q 1350 4441 1106 4219 
Q 863 3997 819 3553 
z
" transform="scale(0.015625)"/>
       </defs>
       <use xlink:href="#DejaVuSerif-2212"/>
       <use xlink:href="#DejaVuSerif-32" x="83.789062"/>
      </g>
     </g>
    </g>
    <g id="xtick_2">
     <g id="line2d_3">
      <g>
       <use xlink:href="#mddddc3fda4" x="101.569406" y="256.32" style="stroke: #000000; stroke-width: 0.5"/>
      </g>
     </g>
     <g id="line2d_4">
      <g>
       <use xlink:href="#m55c864834a" x="101.569406" y="34.56" style="stroke: #000000; stroke-width: 0.5"/>
      </g>
     </g>
     <g id="text_2">
      <!-- 0 -->
      <g transform="translate(98.389428 267.415398) scale(0.09996 -0.09996)">
       <defs>
        <path id="DejaVuSerif-30" d="M 2034 219 
Q 2513 219 2750 744 
Q 2988 1269 2988 2328 
Q 2988 3391 2750 3916 
Q 2513 4441 2034 4441 
Q 1556 4441 1318 3916 
Q 1081 3391 1081 2328 
Q 1081 1269 1318 744 
Q 1556 219 2034 219 
z
M 2034 -91 
Q 1275 -91 848 546 
Q 422 1184 422 2328 
Q 422 3475 848 4112 
Q 1275 4750 2034 4750 
Q 2797 4750 3222 4112 
Q 3647 3475 3647 2328 
Q 3647 1184 3222 546 
Q 2797 -91 2034 -91 
z
" transform="scale(0.015625)"/>
       </defs>
       <use xlink:href="#DejaVuSerif-30"/>
      </g>
     </g>
    </g>
    <g id="xtick_3">
     <g id="line2d_5">
      <g>
       <use xlink:href="#mddddc3fda4" x="159.62645" y="256.32" style="stroke: #000000; stroke-width: 0.5"/>
      </g>
     </g>
     <g id="line2d_6">
      <g>
       <use xlink:href="#m55c864834a" x="159.62645" y="34.56" style="stroke: #000000; stroke-width: 0.5"/>
      </g>
     </g>
     <g id="text_3">
      <!-- 2 -->
      <g transform="translate(156.446473 267.415398) scale(0.09996 -0.09996)">
       <use xlink:href="#DejaVuSerif-32"/>
      </g>
     </g>
    </g>
    <g id="xtick_4">
     <g id="line2d_7">
      <g>
       <use xlink:href="#mddddc3fda4" x="217.683494" y="256.32" style="stroke: #000000; stroke-width: 0.5"/>
      </g>
     </g>
     <g id="line2d_8">
      <g>
       <use xlink:href="#m55c864834a" x="217.683494" y="34.56" style="stroke: #000000; stroke-width: 0.5"/>
      </g>
     </g>
     <g id="text_4">
      <!-- 4 -->
      <g transform="translate(214.503517 267.415398) scale(0.09996 -0.09996)">
       <defs>
        <path id="DejaVuSerif-34" d="M 2234 1581 
L 2234 4063 
L 641 1581 
L 2234 1581 
z
M 3609 0 
L 1484 0 
L 1484 331 
L 2234 331 
L 2234 1247 
L 197 1247 
L 197 1588 
L 2241 4750 
L 2859 4750 
L 2859 1581 
L 3750 1581 
L 3750 1247 
L 2859 1247 
L 2859 331 
L 3609 331 
L 3609 0 
z
" transform="scale(0.015625)"/>
       </defs>
       <use xlink:href="#DejaVuSerif-34"/>
      </g>
     </g>
    </g>
    <g id="xtick_5">
     <g id="line2d_9">
      <defs>
       <path id="m6d59da857c" d="M 0 0 
L 0 -2 
" style="stroke: #000000; stroke-width: 0.5"/>
      </defs>
      <g>
       <use xlink:href="#m6d59da857c" x="58.026623" y="256.32" style="stroke: #000000; stroke-width: 0.5"/>
      </g>
     </g>
     <g id="line2d_10">
      <defs>
       <path id="mebeed5d34e" d="M 0 0 
L 0 2 
" style="stroke: #000000; stroke-width: 0.5"/>
      </defs>
      <g>
       <use xlink:href="#mebeed5d34e" x="58.026623" y="34.56" style="stroke: #000000; stroke-width: 0.5"/>
      </g>
     </g>
    </g>
    <g id="xtick_6">
     <g id="line2d_11">
      <g>
       <use xlink:href="#m6d59da857c" x="72.540884" y="256.32" style="stroke: #000000; stroke-width: 0.5"/>
      </g>
     </g>
     <g id="line2d_12">
      <g>
       <use xlink:href="#mebeed5d34e" x="72.540884" y="34.56" style="stroke: #000000; stroke-width: 0.5"/>
      </g>
     </g>
    </g>
    <g id="xtick_7">
     <g id="line2d_13">
      <g>
       <use xlink:href="#m6d59da857c" x="87.055145" y="256.32" style="stroke: #000000; stroke-width: 0.5"/>
      </g>
     </g>
     <g id="line2d_14">
      <g>
       <use xlink:href="#mebeed5d34e" x="87.055145" y="34.56" style="stroke: #000000; stroke-width: 0.5"/>
      </g>
     </g>
    </g>
    <g id="xtick_8">
     <g id="line2d_15">
      <g>
       <use xlink:href="#m6d59da857c" x="116.083667" y="256.32" style="stroke: #000000; stroke-width: 0.5"/>
      </g>
     </g>
     <g id="line2d_16">
      <g>
       <use xlink:href="#mebeed5d34e" x="116.083667" y="34.56" style="stroke: #000000; stroke-width: 0.5"/>
      </g>
     </g>
    </g>
    <g id="xtick_9">
     <g id="line2d_17">
      <g>
       <use xlink:href="#m6d59da857c" x="130.597928" y="256.32" style="stroke: #000000; stroke-width: 0.5"/>
      </g>
     </g>
     <g id="line2d_18">
      <g>
       <use xlink:href="#mebeed5d34e" x="130.597928" y="34.56" style="stroke: #000000; stroke-width: 0.5"/>
      </g>
     </g>
    </g>
    <g id="xtick_10">
     <g id="line2d_19">
      <g>
       <use xlink:href="#m6d59da857c" x="145.112189" y="256.32" style="stroke: #000000; stroke-width: 0.5"/>
      </g>
     </g>
     <g id="line2d_20">
      <g>
       <use xlink:href="#mebeed5d34e" x="145.112189" y="34.56" style="stroke: #000000; stroke-width: 0.5"/>
      </g>
     </g>
    </g>
    <g id="xtick_11">
     <g id="line2d_21">
      <g>
       <use xlink:href="#m6d59da857c" x="174.140711" y="256.32" style="stroke: #000000; stroke-width: 0.5"/>
      </g>
     </g>
     <g id="line2d_22">
      <g>
       <use xlink:href="#mebeed5d34e" x="174.140711" y="34.56" style="stroke: #000000; stroke-width: 0.5"/>
      </g>
     </g>
    </g>
    <g id="xtick_12">
     <g id="line2d_23">
      <g>
       <use xlink:href="#m6d59da857c" x="188.654972" y="256.32" style="stroke: #000000; stroke-width: 0.5"/>
      </g>
     </g>
     <g id="line2d_24">
      <g>
       <use xlink:href="#mebeed5d34e" x="188.654972" y="34.56" style="stroke: #000000; stroke-width: 0.5"/>
      </g>
     </g>
    </g>
    <g id="xtick_13">
     <g id="line2d_25">
      <g>
       <use xlink:href="#m6d59da857c" x="203.169233" y="256.32" style="stroke: #000000; stroke-width: 0.5"/>
      </g>
     </g>
     <g id="line2d_26">
      <g>
       <use xlink:href="#mebeed5d34e" x="203.169233" y="34.56" style="stroke: #000000; stroke-width: 0.5"/>
      </g>
     </g>
    </g>
    <g id="xtick_14">
     <g id="line2d_27">
      <g>
       <use xlink:href="#m6d59da857c" x="232.197756" y="256.32" style="stroke: #000000; stroke-width: 0.5"/>
      </g>
     </g>
     <g id="line2d_28">
      <g>
       <use xlink:href="#mebeed5d34e" x="232.197756" y="34.56" style="stroke: #000000; stroke-width: 0.5"/>
      </g>
     </g>
    </g>
    <g id="xtick_15">
     <g id="line2d_29">
      <g>
       <use xlink:href="#m6d59da857c" x="246.712017" y="256.32" style="stroke: #000000; stroke-width: 0.5"/>
      </g>
     </g>
     <g id="line2d_30">
      <g>
       <use xlink:href="#mebeed5d34e" x="246.712017" y="34.56" style="stroke: #000000; stroke-width: 0.5"/>
      </g>
     </g>
    </g>
    <g id="text_5">
     <!-- Moran's I -->
     <g transform="translate(123.38469 281.089652) scale(0.09996 -0.09996)">
      <defs>
       <path id="DejaVuSerif-4d" d="M 353 0 
L 353 331 
L 947 331 
L 947 4331 
L 319 4331 
L 319 4666 
L 1678 4666 
L 3316 1344 
L 4953 4666 
L 6228 4666 
L 6228 4331 
L 5606 4331 
L 5606 331 
L 6203 331 
L 6203 0 
L 4378 0 
L 4378 331 
L 4972 331 
L 4972 3938 
L 3372 684 
L 2931 684 
L 1331 3938 
L 1331 331 
L 1925 331 
L 1925 0 
L 353 0 
z
" transform="scale(0.015625)"/>
       <path id="DejaVuSerif-6f" d="M 1925 219 
Q 2388 219 2623 584 
Q 2859 950 2859 1663 
Q 2859 2375 2623 2739 
Q 2388 3103 1925 3103 
Q 1463 3103 1227 2739 
Q 991 2375 991 1663 
Q 991 950 1228 584 
Q 1466 219 1925 219 
z
M 1925 -91 
Q 1200 -91 759 389 
Q 319 869 319 1663 
Q 319 2456 758 2934 
Q 1197 3413 1925 3413 
Q 2653 3413 3092 2934 
Q 3531 2456 3531 1663 
Q 3531 869 3092 389 
Q 2653 -91 1925 -91 
z
" transform="scale(0.015625)"/>
       <path id="DejaVuSerif-72" d="M 3059 3328 
L 3059 2497 
L 2728 2497 
Q 2713 2744 2591 2866 
Q 2469 2988 2234 2988 
Q 1809 2988 1582 2694 
Q 1356 2400 1356 1850 
L 1356 331 
L 2022 331 
L 2022 0 
L 263 0 
L 263 331 
L 781 331 
L 781 2994 
L 231 2994 
L 231 3322 
L 1356 3322 
L 1356 2731 
Q 1525 3078 1790 3245 
Q 2056 3413 2438 3413 
Q 2578 3413 2733 3391 
Q 2888 3369 3059 3328 
z
" transform="scale(0.015625)"/>
       <path id="DejaVuSerif-61" d="M 2547 1044 
L 2547 1747 
L 1806 1747 
Q 1378 1747 1168 1562 
Q 959 1378 959 997 
Q 959 650 1171 447 
Q 1384 244 1747 244 
Q 2106 244 2326 466 
Q 2547 688 2547 1044 
z
M 3122 2075 
L 3122 331 
L 3634 331 
L 3634 0 
L 2547 0 
L 2547 359 
Q 2356 128 2106 18 
Q 1856 -91 1522 -91 
Q 969 -91 644 203 
Q 319 497 319 997 
Q 319 1513 691 1797 
Q 1063 2081 1741 2081 
L 2547 2081 
L 2547 2309 
Q 2547 2688 2317 2895 
Q 2088 3103 1672 3103 
Q 1328 3103 1125 2947 
Q 922 2791 872 2484 
L 575 2484 
L 575 3156 
Q 875 3284 1158 3348 
Q 1441 3413 1709 3413 
Q 2400 3413 2761 3070 
Q 3122 2728 3122 2075 
z
" transform="scale(0.015625)"/>
       <path id="DejaVuSerif-6e" d="M 263 0 
L 263 331 
L 781 331 
L 781 2988 
L 231 2988 
L 231 3322 
L 1356 3322 
L 1356 2731 
Q 1516 3069 1770 3241 
Q 2025 3413 2363 3413 
Q 2913 3413 3172 3097 
Q 3431 2781 3431 2113 
L 3431 331 
L 3944 331 
L 3944 0 
L 2356 0 
L 2356 331 
L 2853 331 
L 2853 1931 
Q 2853 2541 2703 2767 
Q 2553 2994 2175 2994 
Q 1775 2994 1565 2701 
Q 1356 2409 1356 1850 
L 1356 331 
L 1856 331 
L 1856 0 
L 263 0 
z
" transform="scale(0.015625)"/>
       <path id="DejaVuSerif-27" d="M 1125 4666 
L 1125 2931 
L 628 2931 
L 628 4666 
L 1125 4666 
z
" transform="scale(0.015625)"/>
       <path id="DejaVuSerif-73" d="M 359 184 
L 359 959 
L 691 959 
Q 703 588 923 403 
Q 1144 219 1575 219 
Q 1963 219 2166 364 
Q 2369 509 2369 788 
Q 2369 1006 2220 1140 
Q 2072 1275 1594 1428 
L 1178 1569 
Q 750 1706 558 1912 
Q 366 2119 366 2438 
Q 366 2894 700 3153 
Q 1034 3413 1625 3413 
Q 1888 3413 2178 3344 
Q 2469 3275 2778 3144 
L 2778 2419 
L 2447 2419 
Q 2434 2741 2221 2922 
Q 2009 3103 1644 3103 
Q 1281 3103 1095 2975 
Q 909 2847 909 2591 
Q 909 2381 1050 2254 
Q 1191 2128 1613 1997 
L 2069 1856 
Q 2541 1709 2748 1489 
Q 2956 1269 2956 922 
Q 2956 450 2595 179 
Q 2234 -91 1600 -91 
Q 1278 -91 972 -22 
Q 666 47 359 184 
z
" transform="scale(0.015625)"/>
       <path id="DejaVuSerif-20" transform="scale(0.015625)"/>
       <path id="DejaVuSerif-49" d="M 1581 331 
L 2175 331 
L 2175 0 
L 353 0 
L 353 331 
L 947 331 
L 947 4331 
L 353 4331 
L 353 4666 
L 2175 4666 
L 2175 4331 
L 1581 4331 
L 1581 331 
z
" transform="scale(0.015625)"/>
      </defs>
      <use xlink:href="#DejaVuSerif-4d"/>
      <use xlink:href="#DejaVuSerif-6f" x="102.392578"/>
      <use xlink:href="#DejaVuSerif-72" x="162.597656"/>
      <use xlink:href="#DejaVuSerif-61" x="210.400391"/>
      <use xlink:href="#DejaVuSerif-6e" x="270.019531"/>
      <use xlink:href="#DejaVuSerif-27" x="334.423828"/>
      <use xlink:href="#DejaVuSerif-73" x="361.914062"/>
      <use xlink:href="#DejaVuSerif-20" x="413.232422"/>
      <use xlink:href="#DejaVuSerif-49" x="445.019531"/>
     </g>
    </g>
   </g>
   <g id="matplotlib.axis_2">
    <g id="ytick_1">
     <g id="line2d_31">
      <defs>
       <path id="m372c9c0440" d="M 0 0 
L 5 0 
" style="stroke: #000000; stroke-width: 0.5"/>
      </defs>
      <g>
       <use xlink:href="#m372c9c0440" x="36" y="256.32" style="stroke: #000000; stroke-width: 0.5"/>
      </g>
     </g>
     <g id="line2d_32">
      <defs>
       <path id="ma824e92e1f" d="M 0 0 
L -5 0 
" style="stroke: #000000; stroke-width: 0.5"/>
      </defs>
      <g>
       <use xlink:href="#ma824e92e1f" x="259.2" y="256.32" style="stroke: #000000; stroke-width: 0.5"/>
      </g>
     </g>
     <g id="text_6">
      <!-- 0.0 -->
      <g transform="translate(16.603236 260.117699) scale(0.09996 -0.09996)">
       <defs>
        <path id="DejaVuSerif-2e" d="M 603 325 
Q 603 500 722 622 
Q 841 744 1019 744 
Q 1191 744 1312 622 
Q 1434 500 1434 325 
Q 1434 153 1312 31 
Q 1191 -91 1019 -91 
Q 841 -91 722 29 
Q 603 150 603 325 
z
" transform="scale(0.015625)"/>
       </defs>
       <use xlink:href="#DejaVuSerif-30"/>
       <use xlink:href="#DejaVuSerif-2e" x="63.623047"/>
       <use xlink:href="#DejaVuSerif-30" x="95.410156"/>
      </g>
     </g>
    </g>
    <g id="ytick_2">
     <g id="line2d_33">
      <g>
       <use xlink:href="#m372c9c0440" x="36" y="207.9253" style="stroke: #000000; stroke-width: 0.5"/>
      </g>
     </g>
     <g id="line2d_34">
      <g>
       <use xlink:href="#ma824e92e1f" x="259.2" y="207.9253" style="stroke: #000000; stroke-width: 0.5"/>
      </g>
     </g>
     <g id="text_7">
      <!-- 0.2 -->
      <g transform="translate(16.603236 211.722999) scale(0.09996 -0.09996)">
       <use xlink:href="#DejaVuSerif-30"/>
       <use xlink:href="#DejaVuSerif-2e" x="63.623047"/>
       <use xlink:href="#DejaVuSerif-32" x="95.410156"/>
      </g>
     </g>
    </g>
    <g id="ytick_3">
     <g id="line2d_35">
      <g>
       <use xlink:href="#m372c9c0440" x="36" y="159.530599" style="stroke: #000000; stroke-width: 0.5"/>
      </g>
     </g>
     <g id="line2d_36">
      <g>
       <use xlink:href="#ma824e92e1f" x="259.2" y="159.530599" style="stroke: #000000; stroke-width: 0.5"/>
      </g>
     </g>
     <g id="text_8">
      <!-- 0.4 -->
      <g transform="translate(16.603236 163.328298) scale(0.09996 -0.09996)">
       <use xlink:href="#DejaVuSerif-30"/>
       <use xlink:href="#DejaVuSerif-2e" x="63.623047"/>
       <use xlink:href="#DejaVuSerif-34" x="95.410156"/>
      </g>
     </g>
    </g>
    <g id="ytick_4">
     <g id="line2d_37">
      <g>
       <use xlink:href="#m372c9c0440" x="36" y="111.135899" style="stroke: #000000; stroke-width: 0.5"/>
      </g>
     </g>
     <g id="line2d_38">
      <g>
       <use xlink:href="#ma824e92e1f" x="259.2" y="111.135899" style="stroke: #000000; stroke-width: 0.5"/>
      </g>
     </g>
     <g id="text_9">
      <!-- 0.6 -->
      <g transform="translate(16.603236 114.933598) scale(0.09996 -0.09996)">
       <defs>
        <path id="DejaVuSerif-36" d="M 2094 219 
Q 2534 219 2771 542 
Q 3009 866 3009 1472 
Q 3009 2078 2771 2401 
Q 2534 2725 2094 2725 
Q 1647 2725 1412 2412 
Q 1178 2100 1178 1509 
Q 1178 888 1415 553 
Q 1653 219 2094 219 
z
M 1075 2569 
Q 1288 2803 1556 2918 
Q 1825 3034 2163 3034 
Q 2859 3034 3264 2615 
Q 3669 2197 3669 1472 
Q 3669 763 3233 336 
Q 2797 -91 2069 -91 
Q 1278 -91 853 498 
Q 428 1088 428 2181 
Q 428 3406 931 4078 
Q 1434 4750 2350 4750 
Q 2597 4750 2869 4703 
Q 3141 4656 3425 4563 
L 3425 3794 
L 3072 3794 
Q 3034 4109 2831 4275 
Q 2628 4441 2284 4441 
Q 1678 4441 1381 3981 
Q 1084 3522 1075 2569 
z
" transform="scale(0.015625)"/>
       </defs>
       <use xlink:href="#DejaVuSerif-30"/>
       <use xlink:href="#DejaVuSerif-2e" x="63.623047"/>
       <use xlink:href="#DejaVuSerif-36" x="95.410156"/>
      </g>
     </g>
    </g>
    <g id="ytick_5">
     <g id="line2d_39">
      <g>
       <use xlink:href="#m372c9c0440" x="36" y="62.741199" style="stroke: #000000; stroke-width: 0.5"/>
      </g>
     </g>
     <g id="line2d_40">
      <g>
       <use xlink:href="#ma824e92e1f" x="259.2" y="62.741199" style="stroke: #000000; stroke-width: 0.5"/>
      </g>
     </g>
     <g id="text_10">
      <!-- 0.8 -->
      <g transform="translate(16.603236 66.538898) scale(0.09996 -0.09996)">
       <defs>
        <path id="DejaVuSerif-38" d="M 2981 1275 
Q 2981 1775 2732 2051 
Q 2484 2328 2034 2328 
Q 1584 2328 1336 2051 
Q 1088 1775 1088 1275 
Q 1088 772 1336 495 
Q 1584 219 2034 219 
Q 2484 219 2732 495 
Q 2981 772 2981 1275 
z
M 2853 3541 
Q 2853 3966 2637 4203 
Q 2422 4441 2034 4441 
Q 1650 4441 1433 4203 
Q 1216 3966 1216 3541 
Q 1216 3113 1433 2875 
Q 1650 2638 2034 2638 
Q 2422 2638 2637 2875 
Q 2853 3113 2853 3541 
z
M 2516 2484 
Q 3047 2413 3344 2092 
Q 3641 1772 3641 1275 
Q 3641 619 3225 264 
Q 2809 -91 2034 -91 
Q 1263 -91 845 264 
Q 428 619 428 1275 
Q 428 1772 725 2092 
Q 1022 2413 1556 2484 
Q 1084 2569 832 2842 
Q 581 3116 581 3541 
Q 581 4103 968 4426 
Q 1356 4750 2034 4750 
Q 2713 4750 3100 4426 
Q 3488 4103 3488 3541 
Q 3488 3116 3236 2842 
Q 2984 2569 2516 2484 
z
" transform="scale(0.015625)"/>
       </defs>
       <use xlink:href="#DejaVuSerif-30"/>
       <use xlink:href="#DejaVuSerif-2e" x="63.623047"/>
       <use xlink:href="#DejaVuSerif-38" x="95.410156"/>
      </g>
     </g>
    </g>
    <g id="ytick_6">
     <g id="line2d_41">
      <defs>
       <path id="m4684fbf341" d="M 0 0 
L 3 0 
" style="stroke: #000000; stroke-width: 0.5"/>
      </defs>
      <g>
       <use xlink:href="#m4684fbf341" x="36" y="244.221325" style="stroke: #000000; stroke-width: 0.5"/>
      </g>
     </g>
     <g id="line2d_42">
      <defs>
       <path id="mcc8d2ea531" d="M 0 0 
L -3 0 
" style="stroke: #000000; stroke-width: 0.5"/>
      </defs>
      <g>
       <use xlink:href="#mcc8d2ea531" x="259.2" y="244.221325" style="stroke: #000000; stroke-width: 0.5"/>
      </g>
     </g>
    </g>
    <g id="ytick_7">
     <g id="line2d_43">
      <g>
       <use xlink:href="#m4684fbf341" x="36" y="232.12265" style="stroke: #000000; stroke-width: 0.5"/>
      </g>
     </g>
     <g id="line2d_44">
      <g>
       <use xlink:href="#mcc8d2ea531" x="259.2" y="232.12265" style="stroke: #000000; stroke-width: 0.5"/>
      </g>
     </g>
    </g>
    <g id="ytick_8">
     <g id="line2d_45">
      <g>
       <use xlink:href="#m4684fbf341" x="36" y="220.023975" style="stroke: #000000; stroke-width: 0.5"/>
      </g>
     </g>
     <g id="line2d_46">
      <g>
       <use xlink:href="#mcc8d2ea531" x="259.2" y="220.023975" style="stroke: #000000; stroke-width: 0.5"/>
      </g>
     </g>
    </g>
    <g id="ytick_9">
     <g id="line2d_47">
      <g>
       <use xlink:href="#m4684fbf341" x="36" y="195.826625" style="stroke: #000000; stroke-width: 0.5"/>
      </g>
     </g>
     <g id="line2d_48">
      <g>
       <use xlink:href="#mcc8d2ea531" x="259.2" y="195.826625" style="stroke: #000000; stroke-width: 0.5"/>
      </g>
     </g>
    </g>
    <g id="ytick_10">
     <g id="line2d_49">
      <g>
       <use xlink:href="#m4684fbf341" x="36" y="183.727949" style="stroke: #000000; stroke-width: 0.5"/>
      </g>
     </g>
     <g id="line2d_50">
      <g>
       <use xlink:href="#mcc8d2ea531" x="259.2" y="183.727949" style="stroke: #000000; stroke-width: 0.5"/>
      </g>
     </g>
    </g>
    <g id="ytick_11">
     <g id="line2d_51">
      <g>
       <use xlink:href="#m4684fbf341" x="36" y="171.629274" style="stroke: #000000; stroke-width: 0.5"/>
      </g>
     </g>
     <g id="line2d_52">
      <g>
       <use xlink:href="#mcc8d2ea531" x="259.2" y="171.629274" style="stroke: #000000; stroke-width: 0.5"/>
      </g>
     </g>
    </g>
    <g id="ytick_12">
     <g id="line2d_53">
      <g>
       <use xlink:href="#m4684fbf341" x="36" y="147.431924" style="stroke: #000000; stroke-width: 0.5"/>
      </g>
     </g>
     <g id="line2d_54">
      <g>
       <use xlink:href="#mcc8d2ea531" x="259.2" y="147.431924" style="stroke: #000000; stroke-width: 0.5"/>
      </g>
     </g>
    </g>
    <g id="ytick_13">
     <g id="line2d_55">
      <g>
       <use xlink:href="#m4684fbf341" x="36" y="135.333249" style="stroke: #000000; stroke-width: 0.5"/>
      </g>
     </g>
     <g id="line2d_56">
      <g>
       <use xlink:href="#mcc8d2ea531" x="259.2" y="135.333249" style="stroke: #000000; stroke-width: 0.5"/>
      </g>
     </g>
    </g>
    <g id="ytick_14">
     <g id="line2d_57">
      <g>
       <use xlink:href="#m4684fbf341" x="36" y="123.234574" style="stroke: #000000; stroke-width: 0.5"/>
      </g>
     </g>
     <g id="line2d_58">
      <g>
       <use xlink:href="#mcc8d2ea531" x="259.2" y="123.234574" style="stroke: #000000; stroke-width: 0.5"/>
      </g>
     </g>
    </g>
    <g id="ytick_15">
     <g id="line2d_59">
      <g>
       <use xlink:href="#m4684fbf341" x="36" y="99.037224" style="stroke: #000000; stroke-width: 0.5"/>
      </g>
     </g>
     <g id="line2d_60">
      <g>
       <use xlink:href="#mcc8d2ea531" x="259.2" y="99.037224" style="stroke: #000000; stroke-width: 0.5"/>
      </g>
     </g>
    </g>
    <g id="ytick_16">
     <g id="line2d_61">
      <g>
       <use xlink:href="#m4684fbf341" x="36" y="86.938549" style="stroke: #000000; stroke-width: 0.5"/>
      </g>
     </g>
     <g id="line2d_62">
      <g>
       <use xlink:href="#mcc8d2ea531" x="259.2" y="86.938549" style="stroke: #000000; stroke-width: 0.5"/>
      </g>
     </g>
    </g>
    <g id="ytick_17">
     <g id="line2d_63">
      <g>
       <use xlink:href="#m4684fbf341" x="36" y="74.839874" style="stroke: #000000; stroke-width: 0.5"/>
      </g>
     </g>
     <g id="line2d_64">
      <g>
       <use xlink:href="#mcc8d2ea531" x="259.2" y="74.839874" style="stroke: #000000; stroke-width: 0.5"/>
      </g>
     </g>
    </g>
    <g id="ytick_18">
     <g id="line2d_65">
      <g>
       <use xlink:href="#m4684fbf341" x="36" y="50.642523" style="stroke: #000000; stroke-width: 0.5"/>
      </g>
     </g>
     <g id="line2d_66">
      <g>
       <use xlink:href="#mcc8d2ea531" x="259.2" y="50.642523" style="stroke: #000000; stroke-width: 0.5"/>
      </g>
     </g>
    </g>
    <g id="ytick_19">
     <g id="line2d_67">
      <g>
       <use xlink:href="#m4684fbf341" x="36" y="38.543848" style="stroke: #000000; stroke-width: 0.5"/>
      </g>
     </g>
     <g id="line2d_68">
      <g>
       <use xlink:href="#mcc8d2ea531" x="259.2" y="38.543848" style="stroke: #000000; stroke-width: 0.5"/>
      </g>
     </g>
    </g>
    <g id="text_11">
     <!-- Density -->
     <g transform="translate(10.38225 164.619825) rotate(-90) scale(0.09996 -0.09996)">
      <defs>
       <path id="DejaVuSerif-44" d="M 1581 331 
L 2163 331 
Q 3072 331 3558 850 
Q 4044 1369 4044 2338 
Q 4044 3306 3559 3818 
Q 3075 4331 2163 4331 
L 1581 4331 
L 1581 331 
z
M 353 0 
L 353 331 
L 947 331 
L 947 4331 
L 353 4331 
L 353 4666 
L 2209 4666 
Q 3416 4666 4089 4050 
Q 4763 3434 4763 2338 
Q 4763 1238 4088 619 
Q 3413 0 2209 0 
L 353 0 
z
" transform="scale(0.015625)"/>
       <path id="DejaVuSerif-65" d="M 3469 1600 
L 991 1600 
L 991 1575 
Q 991 903 1244 561 
Q 1497 219 1991 219 
Q 2369 219 2611 417 
Q 2853 616 2950 1006 
L 3413 1006 
Q 3275 459 2904 184 
Q 2534 -91 1931 -91 
Q 1203 -91 761 389 
Q 319 869 319 1663 
Q 319 2450 753 2931 
Q 1188 3413 1894 3413 
Q 2647 3413 3050 2948 
Q 3453 2484 3469 1600 
z
M 2791 1931 
Q 2772 2513 2545 2808 
Q 2319 3103 1894 3103 
Q 1497 3103 1269 2806 
Q 1041 2509 991 1931 
L 2791 1931 
z
" transform="scale(0.015625)"/>
       <path id="DejaVuSerif-69" d="M 622 4353 
Q 622 4497 726 4603 
Q 831 4709 978 4709 
Q 1122 4709 1226 4603 
Q 1331 4497 1331 4353 
Q 1331 4206 1228 4103 
Q 1125 4000 978 4000 
Q 831 4000 726 4103 
Q 622 4206 622 4353 
z
M 1356 331 
L 1900 331 
L 1900 0 
L 231 0 
L 231 331 
L 781 331 
L 781 2988 
L 231 2988 
L 231 3322 
L 1356 3322 
L 1356 331 
z
" transform="scale(0.015625)"/>
       <path id="DejaVuSerif-74" d="M 691 2988 
L 184 2988 
L 184 3322 
L 691 3322 
L 691 4353 
L 1269 4353 
L 1269 3322 
L 2350 3322 
L 2350 2988 
L 1269 2988 
L 1269 878 
Q 1269 456 1350 337 
Q 1431 219 1650 219 
Q 1875 219 1978 351 
Q 2081 484 2088 781 
L 2522 781 
Q 2497 328 2275 118 
Q 2053 -91 1600 -91 
Q 1103 -91 897 129 
Q 691 350 691 878 
L 691 2988 
z
" transform="scale(0.015625)"/>
       <path id="DejaVuSerif-79" d="M 1381 -609 
L 1600 -56 
L 359 2988 
L -19 2988 
L -19 3322 
L 1509 3322 
L 1509 2988 
L 978 2988 
L 1913 703 
L 2847 2988 
L 2350 2988 
L 2350 3322 
L 3597 3322 
L 3597 2988 
L 3225 2988 
L 1703 -750 
Q 1547 -1138 1356 -1280 
Q 1166 -1422 819 -1422 
Q 672 -1422 517 -1397 
Q 363 -1372 206 -1325 
L 206 -691 
L 500 -691 
Q 519 -903 608 -995 
Q 697 -1088 884 -1088 
Q 1056 -1088 1161 -992 
Q 1266 -897 1381 -609 
z
" transform="scale(0.015625)"/>
      </defs>
      <use xlink:href="#DejaVuSerif-44"/>
      <use xlink:href="#DejaVuSerif-65" x="80.175781"/>
      <use xlink:href="#DejaVuSerif-6e" x="139.355469"/>
      <use xlink:href="#DejaVuSerif-73" x="203.759766"/>
      <use xlink:href="#DejaVuSerif-69" x="255.078125"/>
      <use xlink:href="#DejaVuSerif-74" x="287.060547"/>
      <use xlink:href="#DejaVuSerif-79" x="327.246094"/>
     </g>
    </g>
   </g>
   <g id="LineCollection_1">
    <path d="M 93.686254 256.32 
L 93.686254 250.776 
" clip-path="url(#p0c42c58077)" style="fill: none; stroke: #ff0000"/>
    <path d="M 102.794861 256.32 
L 102.794861 250.776 
" clip-path="url(#p0c42c58077)" style="fill: none; stroke: #ff0000"/>
    <path d="M 95.167282 256.32 
L 95.167282 250.776 
" clip-path="url(#p0c42c58077)" style="fill: none; stroke: #ff0000"/>
    <path d="M 94.847894 256.32 
L 94.847894 250.776 
" clip-path="url(#p0c42c58077)" style="fill: none; stroke: #ff0000"/>
    <path d="M 100.725302 256.32 
L 100.725302 250.776 
" clip-path="url(#p0c42c58077)" style="fill: none; stroke: #ff0000"/>
    <path d="M 103.614418 256.32 
L 103.614418 250.776 
" clip-path="url(#p0c42c58077)" style="fill: none; stroke: #ff0000"/>
    <path d="M 106.253627 256.32 
L 106.253627 250.776 
" clip-path="url(#p0c42c58077)" style="fill: none; stroke: #ff0000"/>
    <path d="M 99.197831 256.32 
L 99.197831 250.776 
" clip-path="url(#p0c42c58077)" style="fill: none; stroke: #ff0000"/>
    <path d="M 101.841433 256.32 
L 101.841433 250.776 
" clip-path="url(#p0c42c58077)" style="fill: none; stroke: #ff0000"/>
    <path d="M 102.300379 256.32 
L 102.300379 250.776 
" clip-path="url(#p0c42c58077)" style="fill: none; stroke: #ff0000"/>
    <path d="M 96.23483 256.32 
L 96.23483 250.776 
" clip-path="url(#p0c42c58077)" style="fill: none; stroke: #ff0000"/>
    <path d="M 101.621079 256.32 
L 101.621079 250.776 
" clip-path="url(#p0c42c58077)" style="fill: none; stroke: #ff0000"/>
    <path d="M 101.650498 256.32 
L 101.650498 250.776 
" clip-path="url(#p0c42c58077)" style="fill: none; stroke: #ff0000"/>
    <path d="M 103.759195 256.32 
L 103.759195 250.776 
" clip-path="url(#p0c42c58077)" style="fill: none; stroke: #ff0000"/>
    <path d="M 112.063719 256.32 
L 112.063719 250.776 
" clip-path="url(#p0c42c58077)" style="fill: none; stroke: #ff0000"/>
    <path d="M 103.492536 256.32 
L 103.492536 250.776 
" clip-path="url(#p0c42c58077)" style="fill: none; stroke: #ff0000"/>
    <path d="M 101.242946 256.32 
L 101.242946 250.776 
" clip-path="url(#p0c42c58077)" style="fill: none; stroke: #ff0000"/>
    <path d="M 106.328708 256.32 
L 106.328708 250.776 
" clip-path="url(#p0c42c58077)" style="fill: none; stroke: #ff0000"/>
    <path d="M 115.295101 256.32 
L 115.295101 250.776 
" clip-path="url(#p0c42c58077)" style="fill: none; stroke: #ff0000"/>
    <path d="M 90.982361 256.32 
L 90.982361 250.776 
" clip-path="url(#p0c42c58077)" style="fill: none; stroke: #ff0000"/>
    <path d="M 102.804954 256.32 
L 102.804954 250.776 
" clip-path="url(#p0c42c58077)" style="fill: none; stroke: #ff0000"/>
    <path d="M 101.23512 256.32 
L 101.23512 250.776 
" clip-path="url(#p0c42c58077)" style="fill: none; stroke: #ff0000"/>
    <path d="M 91.505198 256.32 
L 91.505198 250.776 
" clip-path="url(#p0c42c58077)" style="fill: none; stroke: #ff0000"/>
    <path d="M 95.14389 256.32 
L 95.14389 250.776 
" clip-path="url(#p0c42c58077)" style="fill: none; stroke: #ff0000"/>
    <path d="M 99.635672 256.32 
L 99.635672 250.776 
" clip-path="url(#p0c42c58077)" style="fill: none; stroke: #ff0000"/>
    <path d="M 93.786919 256.32 
L 93.786919 250.776 
" clip-path="url(#p0c42c58077)" style="fill: none; stroke: #ff0000"/>
    <path d="M 87.344918 256.32 
L 87.344918 250.776 
" clip-path="url(#p0c42c58077)" style="fill: none; stroke: #ff0000"/>
    <path d="M 104.700108 256.32 
L 104.700108 250.776 
" clip-path="url(#p0c42c58077)" style="fill: none; stroke: #ff0000"/>
    <path d="M 101.567144 256.32 
L 101.567144 250.776 
" clip-path="url(#p0c42c58077)" style="fill: none; stroke: #ff0000"/>
    <path d="M 98.161035 256.32 
L 98.161035 250.776 
" clip-path="url(#p0c42c58077)" style="fill: none; stroke: #ff0000"/>
    <path d="M 108.496099 256.32 
L 108.496099 250.776 
" clip-path="url(#p0c42c58077)" style="fill: none; stroke: #ff0000"/>
    <path d="M 103.160119 256.32 
L 103.160119 250.776 
" clip-path="url(#p0c42c58077)" style="fill: none; stroke: #ff0000"/>
    <path d="M 121.029101 256.32 
L 121.029101 250.776 
" clip-path="url(#p0c42c58077)" style="fill: none; stroke: #ff0000"/>
    <path d="M 105.729213 256.32 
L 105.729213 250.776 
" clip-path="url(#p0c42c58077)" style="fill: none; stroke: #ff0000"/>
    <path d="M 105.564376 256.32 
L 105.564376 250.776 
" clip-path="url(#p0c42c58077)" style="fill: none; stroke: #ff0000"/>
    <path d="M 113.791784 256.32 
L 113.791784 250.776 
" clip-path="url(#p0c42c58077)" style="fill: none; stroke: #ff0000"/>
    <path d="M 105.740491 256.32 
L 105.740491 250.776 
" clip-path="url(#p0c42c58077)" style="fill: none; stroke: #ff0000"/>
    <path d="M 100.683479 256.32 
L 100.683479 250.776 
" clip-path="url(#p0c42c58077)" style="fill: none; stroke: #ff0000"/>
    <path d="M 104.061819 256.32 
L 104.061819 250.776 
" clip-path="url(#p0c42c58077)" style="fill: none; stroke: #ff0000"/>
    <path d="M 117.459501 256.32 
L 117.459501 250.776 
" clip-path="url(#p0c42c58077)" style="fill: none; stroke: #ff0000"/>
    <path d="M 98.523894 256.32 
L 98.523894 250.776 
" clip-path="url(#p0c42c58077)" style="fill: none; stroke: #ff0000"/>
    <path d="M 103.298899 256.32 
L 103.298899 250.776 
" clip-path="url(#p0c42c58077)" style="fill: none; stroke: #ff0000"/>
    <path d="M 113.470046 256.32 
L 113.470046 250.776 
" clip-path="url(#p0c42c58077)" style="fill: none; stroke: #ff0000"/>
    <path d="M 108.848622 256.32 
L 108.848622 250.776 
" clip-path="url(#p0c42c58077)" style="fill: none; stroke: #ff0000"/>
    <path d="M 99.27184 256.32 
L 99.27184 250.776 
" clip-path="url(#p0c42c58077)" style="fill: none; stroke: #ff0000"/>
    <path d="M 104.7854 256.32 
L 104.7854 250.776 
" clip-path="url(#p0c42c58077)" style="fill: none; stroke: #ff0000"/>
    <path d="M 88.147389 256.32 
L 88.147389 250.776 
" clip-path="url(#p0c42c58077)" style="fill: none; stroke: #ff0000"/>
    <path d="M 115.4777 256.32 
L 115.4777 250.776 
" clip-path="url(#p0c42c58077)" style="fill: none; stroke: #ff0000"/>
    <path d="M 114.19658 256.32 
L 114.19658 250.776 
" clip-path="url(#p0c42c58077)" style="fill: none; stroke: #ff0000"/>
    <path d="M 109.282296 256.32 
L 109.282296 250.776 
" clip-path="url(#p0c42c58077)" style="fill: none; stroke: #ff0000"/>
    <path d="M 118.533013 256.32 
L 118.533013 250.776 
" clip-path="url(#p0c42c58077)" style="fill: none; stroke: #ff0000"/>
    <path d="M 100.390144 256.32 
L 100.390144 250.776 
" clip-path="url(#p0c42c58077)" style="fill: none; stroke: #ff0000"/>
    <path d="M 105.271901 256.32 
L 105.271901 250.776 
" clip-path="url(#p0c42c58077)" style="fill: none; stroke: #ff0000"/>
    <path d="M 139.426855 256.32 
L 139.426855 250.776 
" clip-path="url(#p0c42c58077)" style="fill: none; stroke: #ff0000"/>
    <path d="M 113.904971 256.32 
L 113.904971 250.776 
" clip-path="url(#p0c42c58077)" style="fill: none; stroke: #ff0000"/>
    <path d="M 126.9382 256.32 
L 126.9382 250.776 
" clip-path="url(#p0c42c58077)" style="fill: none; stroke: #ff0000"/>
    <path d="M 129.797099 256.32 
L 129.797099 250.776 
" clip-path="url(#p0c42c58077)" style="fill: none; stroke: #ff0000"/>
    <path d="M 101.533548 256.32 
L 101.533548 250.776 
" clip-path="url(#p0c42c58077)" style="fill: none; stroke: #ff0000"/>
    <path d="M 101.939823 256.32 
L 101.939823 250.776 
" clip-path="url(#p0c42c58077)" style="fill: none; stroke: #ff0000"/>
    <path d="M 116.177851 256.32 
L 116.177851 250.776 
" clip-path="url(#p0c42c58077)" style="fill: none; stroke: #ff0000"/>
    <path d="M 95.907188 256.32 
L 95.907188 250.776 
" clip-path="url(#p0c42c58077)" style="fill: none; stroke: #ff0000"/>
    <path d="M 166.296887 256.32 
L 166.296887 250.776 
" clip-path="url(#p0c42c58077)" style="fill: none; stroke: #ff0000"/>
    <path d="M 99.866276 256.32 
L 99.866276 250.776 
" clip-path="url(#p0c42c58077)" style="fill: none; stroke: #ff0000"/>
    <path d="M 95.806966 256.32 
L 95.806966 250.776 
" clip-path="url(#p0c42c58077)" style="fill: none; stroke: #ff0000"/>
    <path d="M 154.968824 256.32 
L 154.968824 250.776 
" clip-path="url(#p0c42c58077)" style="fill: none; stroke: #ff0000"/>
    <path d="M 114.785226 256.32 
L 114.785226 250.776 
" clip-path="url(#p0c42c58077)" style="fill: none; stroke: #ff0000"/>
    <path d="M 100.24775 256.32 
L 100.24775 250.776 
" clip-path="url(#p0c42c58077)" style="fill: none; stroke: #ff0000"/>
    <path d="M 108.422124 256.32 
L 108.422124 250.776 
" clip-path="url(#p0c42c58077)" style="fill: none; stroke: #ff0000"/>
    <path d="M 95.610231 256.32 
L 95.610231 250.776 
" clip-path="url(#p0c42c58077)" style="fill: none; stroke: #ff0000"/>
    <path d="M 120.854622 256.32 
L 120.854622 250.776 
" clip-path="url(#p0c42c58077)" style="fill: none; stroke: #ff0000"/>
    <path d="M 107.429192 256.32 
L 107.429192 250.776 
" clip-path="url(#p0c42c58077)" style="fill: none; stroke: #ff0000"/>
    <path d="M 128.737199 256.32 
L 128.737199 250.776 
" clip-path="url(#p0c42c58077)" style="fill: none; stroke: #ff0000"/>
    <path d="M 101.026344 256.32 
L 101.026344 250.776 
" clip-path="url(#p0c42c58077)" style="fill: none; stroke: #ff0000"/>
    <path d="M 95.272529 256.32 
L 95.272529 250.776 
" clip-path="url(#p0c42c58077)" style="fill: none; stroke: #ff0000"/>
    <path d="M 136.111009 256.32 
L 136.111009 250.776 
" clip-path="url(#p0c42c58077)" style="fill: none; stroke: #ff0000"/>
    <path d="M 114.322769 256.32 
L 114.322769 250.776 
" clip-path="url(#p0c42c58077)" style="fill: none; stroke: #ff0000"/>
    <path d="M 112.351177 256.32 
L 112.351177 250.776 
" clip-path="url(#p0c42c58077)" style="fill: none; stroke: #ff0000"/>
    <path d="M 121.853407 256.32 
L 121.853407 250.776 
" clip-path="url(#p0c42c58077)" style="fill: none; stroke: #ff0000"/>
    <path d="M 105.063002 256.32 
L 105.063002 250.776 
" clip-path="url(#p0c42c58077)" style="fill: none; stroke: #ff0000"/>
    <path d="M 101.102195 256.32 
L 101.102195 250.776 
" clip-path="url(#p0c42c58077)" style="fill: none; stroke: #ff0000"/>
    <path d="M 125.25846 256.32 
L 125.25846 250.776 
" clip-path="url(#p0c42c58077)" style="fill: none; stroke: #ff0000"/>
    <path d="M 130.699035 256.32 
L 130.699035 250.776 
" clip-path="url(#p0c42c58077)" style="fill: none; stroke: #ff0000"/>
    <path d="M 101.287816 256.32 
L 101.287816 250.776 
" clip-path="url(#p0c42c58077)" style="fill: none; stroke: #ff0000"/>
    <path d="M 96.942164 256.32 
L 96.942164 250.776 
" clip-path="url(#p0c42c58077)" style="fill: none; stroke: #ff0000"/>
    <path d="M 139.388389 256.32 
L 139.388389 250.776 
" clip-path="url(#p0c42c58077)" style="fill: none; stroke: #ff0000"/>
    <path d="M 117.109364 256.32 
L 117.109364 250.776 
" clip-path="url(#p0c42c58077)" style="fill: none; stroke: #ff0000"/>
    <path d="M 171.694638 256.32 
L 171.694638 250.776 
" clip-path="url(#p0c42c58077)" style="fill: none; stroke: #ff0000"/>
    <path d="M 101.4679 256.32 
L 101.4679 250.776 
" clip-path="url(#p0c42c58077)" style="fill: none; stroke: #ff0000"/>
    <path d="M 107.638393 256.32 
L 107.638393 250.776 
" clip-path="url(#p0c42c58077)" style="fill: none; stroke: #ff0000"/>
    <path d="M 101.051291 256.32 
L 101.051291 250.776 
" clip-path="url(#p0c42c58077)" style="fill: none; stroke: #ff0000"/>
    <path d="M 99.218627 256.32 
L 99.218627 250.776 
" clip-path="url(#p0c42c58077)" style="fill: none; stroke: #ff0000"/>
    <path d="M 122.330879 256.32 
L 122.330879 250.776 
" clip-path="url(#p0c42c58077)" style="fill: none; stroke: #ff0000"/>
    <path d="M 112.465786 256.32 
L 112.465786 250.776 
" clip-path="url(#p0c42c58077)" style="fill: none; stroke: #ff0000"/>
    <path d="M 101.334067 256.32 
L 101.334067 250.776 
" clip-path="url(#p0c42c58077)" style="fill: none; stroke: #ff0000"/>
    <path d="M 122.059055 256.32 
L 122.059055 250.776 
" clip-path="url(#p0c42c58077)" style="fill: none; stroke: #ff0000"/>
    <path d="M 99.708169 256.32 
L 99.708169 250.776 
" clip-path="url(#p0c42c58077)" style="fill: none; stroke: #ff0000"/>
    <path d="M 120.539238 256.32 
L 120.539238 250.776 
" clip-path="url(#p0c42c58077)" style="fill: none; stroke: #ff0000"/>
    <path d="M 107.626839 256.32 
L 107.626839 250.776 
" clip-path="url(#p0c42c58077)" style="fill: none; stroke: #ff0000"/>
    <path d="M 112.616017 256.32 
L 112.616017 250.776 
" clip-path="url(#p0c42c58077)" style="fill: none; stroke: #ff0000"/>
    <path d="M 108.758259 256.32 
L 108.758259 250.776 
" clip-path="url(#p0c42c58077)" style="fill: none; stroke: #ff0000"/>
    <path d="M 106.111626 256.32 
L 106.111626 250.776 
" clip-path="url(#p0c42c58077)" style="fill: none; stroke: #ff0000"/>
    <path d="M 101.989201 256.32 
L 101.989201 250.776 
" clip-path="url(#p0c42c58077)" style="fill: none; stroke: #ff0000"/>
    <path d="M 108.242152 256.32 
L 108.242152 250.776 
" clip-path="url(#p0c42c58077)" style="fill: none; stroke: #ff0000"/>
    <path d="M 101.847824 256.32 
L 101.847824 250.776 
" clip-path="url(#p0c42c58077)" style="fill: none; stroke: #ff0000"/>
    <path d="M 109.845811 256.32 
L 109.845811 250.776 
" clip-path="url(#p0c42c58077)" style="fill: none; stroke: #ff0000"/>
    <path d="M 101.655766 256.32 
L 101.655766 250.776 
" clip-path="url(#p0c42c58077)" style="fill: none; stroke: #ff0000"/>
    <path d="M 111.989972 256.32 
L 111.989972 250.776 
" clip-path="url(#p0c42c58077)" style="fill: none; stroke: #ff0000"/>
    <path d="M 103.9821 256.32 
L 103.9821 250.776 
" clip-path="url(#p0c42c58077)" style="fill: none; stroke: #ff0000"/>
    <path d="M 102.003958 256.32 
L 102.003958 250.776 
" clip-path="url(#p0c42c58077)" style="fill: none; stroke: #ff0000"/>
    <path d="M 109.24742 256.32 
L 109.24742 250.776 
" clip-path="url(#p0c42c58077)" style="fill: none; stroke: #ff0000"/>
    <path d="M 148.352464 256.32 
L 148.352464 250.776 
" clip-path="url(#p0c42c58077)" style="fill: none; stroke: #ff0000"/>
    <path d="M 161.469709 256.32 
L 161.469709 250.776 
" clip-path="url(#p0c42c58077)" style="fill: none; stroke: #ff0000"/>
    <path d="M 96.858889 256.32 
L 96.858889 250.776 
" clip-path="url(#p0c42c58077)" style="fill: none; stroke: #ff0000"/>
    <path d="M 109.847085 256.32 
L 109.847085 250.776 
" clip-path="url(#p0c42c58077)" style="fill: none; stroke: #ff0000"/>
    <path d="M 99.996604 256.32 
L 99.996604 250.776 
" clip-path="url(#p0c42c58077)" style="fill: none; stroke: #ff0000"/>
    <path d="M 99.553783 256.32 
L 99.553783 250.776 
" clip-path="url(#p0c42c58077)" style="fill: none; stroke: #ff0000"/>
    <path d="M 109.287318 256.32 
L 109.287318 250.776 
" clip-path="url(#p0c42c58077)" style="fill: none; stroke: #ff0000"/>
    <path d="M 100.815667 256.32 
L 100.815667 250.776 
" clip-path="url(#p0c42c58077)" style="fill: none; stroke: #ff0000"/>
    <path d="M 88.019579 256.32 
L 88.019579 250.776 
" clip-path="url(#p0c42c58077)" style="fill: none; stroke: #ff0000"/>
    <path d="M 194.582363 256.32 
L 194.582363 250.776 
" clip-path="url(#p0c42c58077)" style="fill: none; stroke: #ff0000"/>
    <path d="M 127.602129 256.32 
L 127.602129 250.776 
" clip-path="url(#p0c42c58077)" style="fill: none; stroke: #ff0000"/>
    <path d="M 98.743987 256.32 
L 98.743987 250.776 
" clip-path="url(#p0c42c58077)" style="fill: none; stroke: #ff0000"/>
    <path d="M 95.322801 256.32 
L 95.322801 250.776 
" clip-path="url(#p0c42c58077)" style="fill: none; stroke: #ff0000"/>
    <path d="M 103.406236 256.32 
L 103.406236 250.776 
" clip-path="url(#p0c42c58077)" style="fill: none; stroke: #ff0000"/>
    <path d="M 105.353805 256.32 
L 105.353805 250.776 
" clip-path="url(#p0c42c58077)" style="fill: none; stroke: #ff0000"/>
    <path d="M 92.161703 256.32 
L 92.161703 250.776 
" clip-path="url(#p0c42c58077)" style="fill: none; stroke: #ff0000"/>
    <path d="M 102.555535 256.32 
L 102.555535 250.776 
" clip-path="url(#p0c42c58077)" style="fill: none; stroke: #ff0000"/>
    <path d="M 103.300962 256.32 
L 103.300962 250.776 
" clip-path="url(#p0c42c58077)" style="fill: none; stroke: #ff0000"/>
    <path d="M 102.173349 256.32 
L 102.173349 250.776 
" clip-path="url(#p0c42c58077)" style="fill: none; stroke: #ff0000"/>
    <path d="M 83.801999 256.32 
L 83.801999 250.776 
" clip-path="url(#p0c42c58077)" style="fill: none; stroke: #ff0000"/>
    <path d="M 97.136549 256.32 
L 97.136549 250.776 
" clip-path="url(#p0c42c58077)" style="fill: none; stroke: #ff0000"/>
    <path d="M 99.195794 256.32 
L 99.195794 250.776 
" clip-path="url(#p0c42c58077)" style="fill: none; stroke: #ff0000"/>
    <path d="M 102.55075 256.32 
L 102.55075 250.776 
" clip-path="url(#p0c42c58077)" style="fill: none; stroke: #ff0000"/>
    <path d="M 123.807657 256.32 
L 123.807657 250.776 
" clip-path="url(#p0c42c58077)" style="fill: none; stroke: #ff0000"/>
    <path d="M 101.218943 256.32 
L 101.218943 250.776 
" clip-path="url(#p0c42c58077)" style="fill: none; stroke: #ff0000"/>
    <path d="M 88.909668 256.32 
L 88.909668 250.776 
" clip-path="url(#p0c42c58077)" style="fill: none; stroke: #ff0000"/>
    <path d="M 120.24252 256.32 
L 120.24252 250.776 
" clip-path="url(#p0c42c58077)" style="fill: none; stroke: #ff0000"/>
    <path d="M 101.547578 256.32 
L 101.547578 250.776 
" clip-path="url(#p0c42c58077)" style="fill: none; stroke: #ff0000"/>
    <path d="M 119.887375 256.32 
L 119.887375 250.776 
" clip-path="url(#p0c42c58077)" style="fill: none; stroke: #ff0000"/>
    <path d="M 120.208386 256.32 
L 120.208386 250.776 
" clip-path="url(#p0c42c58077)" style="fill: none; stroke: #ff0000"/>
    <path d="M 110.678514 256.32 
L 110.678514 250.776 
" clip-path="url(#p0c42c58077)" style="fill: none; stroke: #ff0000"/>
    <path d="M 140.968759 256.32 
L 140.968759 250.776 
" clip-path="url(#p0c42c58077)" style="fill: none; stroke: #ff0000"/>
    <path d="M 116.871368 256.32 
L 116.871368 250.776 
" clip-path="url(#p0c42c58077)" style="fill: none; stroke: #ff0000"/>
    <path d="M 101.861669 256.32 
L 101.861669 250.776 
" clip-path="url(#p0c42c58077)" style="fill: none; stroke: #ff0000"/>
    <path d="M 117.94325 256.32 
L 117.94325 250.776 
" clip-path="url(#p0c42c58077)" style="fill: none; stroke: #ff0000"/>
    <path d="M 118.732126 256.32 
L 118.732126 250.776 
" clip-path="url(#p0c42c58077)" style="fill: none; stroke: #ff0000"/>
    <path d="M 118.0365 256.32 
L 118.0365 250.776 
" clip-path="url(#p0c42c58077)" style="fill: none; stroke: #ff0000"/>
    <path d="M 103.680367 256.32 
L 103.680367 250.776 
" clip-path="url(#p0c42c58077)" style="fill: none; stroke: #ff0000"/>
    <path d="M 103.798026 256.32 
L 103.798026 250.776 
" clip-path="url(#p0c42c58077)" style="fill: none; stroke: #ff0000"/>
    <path d="M 104.070125 256.32 
L 104.070125 250.776 
" clip-path="url(#p0c42c58077)" style="fill: none; stroke: #ff0000"/>
    <path d="M 119.637138 256.32 
L 119.637138 250.776 
" clip-path="url(#p0c42c58077)" style="fill: none; stroke: #ff0000"/>
    <path d="M 108.55903 256.32 
L 108.55903 250.776 
" clip-path="url(#p0c42c58077)" style="fill: none; stroke: #ff0000"/>
    <path d="M 114.66979 256.32 
L 114.66979 250.776 
" clip-path="url(#p0c42c58077)" style="fill: none; stroke: #ff0000"/>
    <path d="M 122.199913 256.32 
L 122.199913 250.776 
" clip-path="url(#p0c42c58077)" style="fill: none; stroke: #ff0000"/>
    <path d="M 114.358136 256.32 
L 114.358136 250.776 
" clip-path="url(#p0c42c58077)" style="fill: none; stroke: #ff0000"/>
    <path d="M 106.13658 256.32 
L 106.13658 250.776 
" clip-path="url(#p0c42c58077)" style="fill: none; stroke: #ff0000"/>
    <path d="M 97.206747 256.32 
L 97.206747 250.776 
" clip-path="url(#p0c42c58077)" style="fill: none; stroke: #ff0000"/>
    <path d="M 103.683021 256.32 
L 103.683021 250.776 
" clip-path="url(#p0c42c58077)" style="fill: none; stroke: #ff0000"/>
    <path d="M 103.825435 256.32 
L 103.825435 250.776 
" clip-path="url(#p0c42c58077)" style="fill: none; stroke: #ff0000"/>
    <path d="M 130.015082 256.32 
L 130.015082 250.776 
" clip-path="url(#p0c42c58077)" style="fill: none; stroke: #ff0000"/>
    <path d="M 96.544944 256.32 
L 96.544944 250.776 
" clip-path="url(#p0c42c58077)" style="fill: none; stroke: #ff0000"/>
    <path d="M 107.315935 256.32 
L 107.315935 250.776 
" clip-path="url(#p0c42c58077)" style="fill: none; stroke: #ff0000"/>
    <path d="M 110.614021 256.32 
L 110.614021 250.776 
" clip-path="url(#p0c42c58077)" style="fill: none; stroke: #ff0000"/>
    <path d="M 89.602435 256.32 
L 89.602435 250.776 
" clip-path="url(#p0c42c58077)" style="fill: none; stroke: #ff0000"/>
    <path d="M 128.741352 256.32 
L 128.741352 250.776 
" clip-path="url(#p0c42c58077)" style="fill: none; stroke: #ff0000"/>
    <path d="M 88.557098 256.32 
L 88.557098 250.776 
" clip-path="url(#p0c42c58077)" style="fill: none; stroke: #ff0000"/>
    <path d="M 225.252632 256.32 
L 225.252632 250.776 
" clip-path="url(#p0c42c58077)" style="fill: none; stroke: #ff0000"/>
    <path d="M 96.257017 256.32 
L 96.257017 250.776 
" clip-path="url(#p0c42c58077)" style="fill: none; stroke: #ff0000"/>
    <path d="M 93.761391 256.32 
L 93.761391 250.776 
" clip-path="url(#p0c42c58077)" style="fill: none; stroke: #ff0000"/>
    <path d="M 121.446208 256.32 
L 121.446208 250.776 
" clip-path="url(#p0c42c58077)" style="fill: none; stroke: #ff0000"/>
    <path d="M 224.464042 256.32 
L 224.464042 250.776 
" clip-path="url(#p0c42c58077)" style="fill: none; stroke: #ff0000"/>
    <path d="M 118.633081 256.32 
L 118.633081 250.776 
" clip-path="url(#p0c42c58077)" style="fill: none; stroke: #ff0000"/>
    <path d="M 79.115675 256.32 
L 79.115675 250.776 
" clip-path="url(#p0c42c58077)" style="fill: none; stroke: #ff0000"/>
    <path d="M 100.952096 256.32 
L 100.952096 250.776 
" clip-path="url(#p0c42c58077)" style="fill: none; stroke: #ff0000"/>
    <path d="M 94.113952 256.32 
L 94.113952 250.776 
" clip-path="url(#p0c42c58077)" style="fill: none; stroke: #ff0000"/>
    <path d="M 114.175932 256.32 
L 114.175932 250.776 
" clip-path="url(#p0c42c58077)" style="fill: none; stroke: #ff0000"/>
    <path d="M 85.629127 256.32 
L 85.629127 250.776 
" clip-path="url(#p0c42c58077)" style="fill: none; stroke: #ff0000"/>
    <path d="M 138.669581 256.32 
L 138.669581 250.776 
" clip-path="url(#p0c42c58077)" style="fill: none; stroke: #ff0000"/>
    <path d="M 111.38436 256.32 
L 111.38436 250.776 
" clip-path="url(#p0c42c58077)" style="fill: none; stroke: #ff0000"/>
    <path d="M 110.926228 256.32 
L 110.926228 250.776 
" clip-path="url(#p0c42c58077)" style="fill: none; stroke: #ff0000"/>
    <path d="M 83.685243 256.32 
L 83.685243 250.776 
" clip-path="url(#p0c42c58077)" style="fill: none; stroke: #ff0000"/>
    <path d="M 183.90027 256.32 
L 183.90027 250.776 
" clip-path="url(#p0c42c58077)" style="fill: none; stroke: #ff0000"/>
    <path d="M 98.99148 256.32 
L 98.99148 250.776 
" clip-path="url(#p0c42c58077)" style="fill: none; stroke: #ff0000"/>
    <path d="M 160.369587 256.32 
L 160.369587 250.776 
" clip-path="url(#p0c42c58077)" style="fill: none; stroke: #ff0000"/>
    <path d="M 99.465513 256.32 
L 99.465513 250.776 
" clip-path="url(#p0c42c58077)" style="fill: none; stroke: #ff0000"/>
    <path d="M 104.525378 256.32 
L 104.525378 250.776 
" clip-path="url(#p0c42c58077)" style="fill: none; stroke: #ff0000"/>
    <path d="M 106.826468 256.32 
L 106.826468 250.776 
" clip-path="url(#p0c42c58077)" style="fill: none; stroke: #ff0000"/>
    <path d="M 131.812622 256.32 
L 131.812622 250.776 
" clip-path="url(#p0c42c58077)" style="fill: none; stroke: #ff0000"/>
    <path d="M 100.574266 256.32 
L 100.574266 250.776 
" clip-path="url(#p0c42c58077)" style="fill: none; stroke: #ff0000"/>
    <path d="M 204.792532 256.32 
L 204.792532 250.776 
" clip-path="url(#p0c42c58077)" style="fill: none; stroke: #ff0000"/>
    <path d="M 156.553683 256.32 
L 156.553683 250.776 
" clip-path="url(#p0c42c58077)" style="fill: none; stroke: #ff0000"/>
    <path d="M 199.472084 256.32 
L 199.472084 250.776 
" clip-path="url(#p0c42c58077)" style="fill: none; stroke: #ff0000"/>
    <path d="M 114.015674 256.32 
L 114.015674 250.776 
" clip-path="url(#p0c42c58077)" style="fill: none; stroke: #ff0000"/>
    <path d="M 122.498951 256.32 
L 122.498951 250.776 
" clip-path="url(#p0c42c58077)" style="fill: none; stroke: #ff0000"/>
    <path d="M 69.947368 256.32 
L 69.947368 250.776 
" clip-path="url(#p0c42c58077)" style="fill: none; stroke: #ff0000"/>
   </g>
   <g id="patch_3">
    <path d="M 36 256.32 
L 36 34.56 
" style="fill: none; stroke: #000000; stroke-width: 0.5; stroke-linejoin: miter; stroke-linecap: square"/>
   </g>
   <g id="patch_4">
    <path d="M 259.2 256.32 
L 259.2 34.56 
" style="fill: none; stroke: #000000; stroke-width: 0.5; stroke-linejoin: miter; stroke-linecap: square"/>
   </g>
   <g id="patch_5">
    <path d="M 36 256.32 
L 259.2 256.32 
" style="fill: none; stroke: #000000; stroke-width: 0.5; stroke-linejoin: miter; stroke-linecap: square"/>
   </g>
   <g id="patch_6">
    <path d="M 36 34.56 
L 259.2 34.56 
" style="fill: none; stroke: #000000; stroke-width: 0.5; stroke-linejoin: miter; stroke-linecap: square"/>
   </g>
  </g>
 </g>
 <defs>
  <clipPath id="p0c42c58077">
   <rect x="36" y="34.56" width="223.2" height="221.76"/>
  </clipPath>
 </defs>
</svg>
