<?xml version="1.0" encoding="utf-8" standalone="no"?>
<!DOCTYPE svg PUBLIC "-//W3C//DTD SVG 1.1//EN"
  "http://www.w3.org/Graphics/SVG/1.1/DTD/svg11.dtd">
<svg xmlns:xlink="http://www.w3.org/1999/xlink" width="288pt" height="288pt" viewBox="0 0 288 288" xmlns="http://www.w3.org/2000/svg" version="1.1">
 <metadata>
  <rdf:RDF xmlns:dc="http://purl.org/dc/elements/1.1/" xmlns:cc="http://creativecommons.org/ns#" xmlns:rdf="http://www.w3.org/1999/02/22-rdf-syntax-ns#">
   <cc:Work>
    <dc:type rdf:resource="http://purl.org/dc/dcmitype/StillImage"/>
    <dc:date>2023-01-14T06:22:15.639315</dc:date>
    <dc:format>image/svg+xml</dc:format>
    <dc:creator>
     <cc:Agent>
      <dc:title>Matplotlib v3.6.3, https://matplotlib.org/</dc:title>
     </cc:Agent>
    </dc:creator>
   </cc:Work>
  </rdf:RDF>
 </metadata>
 <defs>
  <style type="text/css">*{stroke-linejoin: round; stroke-linecap: butt}</style>
 </defs>
 <g id="figure_1">
  <g id="patch_1">
   <path d="M 0 288 
L 288 288 
L 288 0 
L 0 0 
z
" style="fill: #ffffff"/>
  </g>
  <g id="axes_1">
   <g id="patch_2">
    <path d="M 36 256.32 
L 259.2 256.32 
L 259.2 34.56 
L 36 34.56 
z
" style="fill: #ffffff"/>
   </g>
   <g id="PolyCollection_1">
    <defs>
     <path id="m4a55d006f4" d="M 46.145455 -31.700913 
L 46.145455 -31.68 
L 47.165098 -31.68 
L 48.184742 -31.68 
L 49.204386 -31.68 
L 50.224029 -31.68 
L 51.243673 -31.68 
L 52.263317 -31.68 
L 53.28296 -31.68 
L 54.302604 -31.68 
L 55.322248 -31.68 
L 56.341891 -31.68 
L 57.361535 -31.68 
L 58.381179 -31.68 
L 59.400822 -31.68 
L 60.420466 -31.68 
L 61.44011 -31.68 
L 62.459753 -31.68 
L 63.479397 -31.68 
L 64.499041 -31.68 
L 65.518684 -31.68 
L 66.538328 -31.68 
L 67.557972 -31.68 
L 68.577615 -31.68 
L 69.597259 -31.68 
L 70.616903 -31.68 
L 71.636546 -31.68 
L 72.65619 -31.68 
L 73.675834 -31.68 
L 74.695477 -31.68 
L 75.715121 -31.68 
L 76.734765 -31.68 
L 77.754408 -31.68 
L 78.774052 -31.68 
L 79.793696 -31.68 
L 80.813339 -31.68 
L 81.832983 -31.68 
L 82.852627 -31.68 
L 83.87227 -31.68 
L 84.891914 -31.68 
L 85.911558 -31.68 
L 86.931201 -31.68 
L 87.950845 -31.68 
L 88.970489 -31.68 
L 89.990132 -31.68 
L 91.009776 -31.68 
L 92.02942 -31.68 
L 93.049063 -31.68 
L 94.068707 -31.68 
L 95.088351 -31.68 
L 96.107995 -31.68 
L 97.127638 -31.68 
L 98.147282 -31.68 
L 99.166926 -31.68 
L 100.186569 -31.68 
L 101.206213 -31.68 
L 102.225857 -31.68 
L 103.2455 -31.68 
L 104.265144 -31.68 
L 105.284788 -31.68 
L 106.304431 -31.68 
L 107.324075 -31.68 
L 108.343719 -31.68 
L 109.363362 -31.68 
L 110.383006 -31.68 
L 111.40265 -31.68 
L 112.422293 -31.68 
L 113.441937 -31.68 
L 114.461581 -31.68 
L 115.481224 -31.68 
L 116.500868 -31.68 
L 117.520512 -31.68 
L 118.540155 -31.68 
L 119.559799 -31.68 
L 120.579443 -31.68 
L 121.599086 -31.68 
L 122.61873 -31.68 
L 123.638374 -31.68 
L 124.658017 -31.68 
L 125.677661 -31.68 
L 126.697305 -31.68 
L 127.716948 -31.68 
L 128.736592 -31.68 
L 129.756236 -31.68 
L 130.775879 -31.68 
L 131.795523 -31.68 
L 132.815167 -31.68 
L 133.83481 -31.68 
L 134.854454 -31.68 
L 135.874098 -31.68 
L 136.893741 -31.68 
L 137.913385 -31.68 
L 138.933029 -31.68 
L 139.952672 -31.68 
L 140.972316 -31.68 
L 141.99196 -31.68 
L 143.011603 -31.68 
L 144.031247 -31.68 
L 145.050891 -31.68 
L 146.070534 -31.68 
L 147.090178 -31.68 
L 148.109822 -31.68 
L 149.129466 -31.68 
L 150.149109 -31.68 
L 151.168753 -31.68 
L 152.188397 -31.68 
L 153.20804 -31.68 
L 154.227684 -31.68 
L 155.247328 -31.68 
L 156.266971 -31.68 
L 157.286615 -31.68 
L 158.306259 -31.68 
L 159.325902 -31.68 
L 160.345546 -31.68 
L 161.36519 -31.68 
L 162.384833 -31.68 
L 163.404477 -31.68 
L 164.424121 -31.68 
L 165.443764 -31.68 
L 166.463408 -31.68 
L 167.483052 -31.68 
L 168.502695 -31.68 
L 169.522339 -31.68 
L 170.541983 -31.68 
L 171.561626 -31.68 
L 172.58127 -31.68 
L 173.600914 -31.68 
L 174.620557 -31.68 
L 175.640201 -31.68 
L 176.659845 -31.68 
L 177.679488 -31.68 
L 178.699132 -31.68 
L 179.718776 -31.68 
L 180.738419 -31.68 
L 181.758063 -31.68 
L 182.777707 -31.68 
L 183.79735 -31.68 
L 184.816994 -31.68 
L 185.836638 -31.68 
L 186.856281 -31.68 
L 187.875925 -31.68 
L 188.895569 -31.68 
L 189.915212 -31.68 
L 190.934856 -31.68 
L 191.9545 -31.68 
L 192.974143 -31.68 
L 193.993787 -31.68 
L 195.013431 -31.68 
L 196.033074 -31.68 
L 197.052718 -31.68 
L 198.072362 -31.68 
L 199.092005 -31.68 
L 200.111649 -31.68 
L 201.131293 -31.68 
L 202.150937 -31.68 
L 203.17058 -31.68 
L 204.190224 -31.68 
L 205.209868 -31.68 
L 206.229511 -31.68 
L 207.249155 -31.68 
L 208.268799 -31.68 
L 209.288442 -31.68 
L 210.308086 -31.68 
L 211.32773 -31.68 
L 212.347373 -31.68 
L 213.367017 -31.68 
L 214.386661 -31.68 
L 215.406304 -31.68 
L 216.425948 -31.68 
L 217.445592 -31.68 
L 218.465235 -31.68 
L 219.484879 -31.68 
L 220.504523 -31.68 
L 221.524166 -31.68 
L 222.54381 -31.68 
L 223.563454 -31.68 
L 224.583097 -31.68 
L 225.602741 -31.68 
L 226.622385 -31.68 
L 227.642028 -31.68 
L 228.661672 -31.68 
L 229.681316 -31.68 
L 230.700959 -31.68 
L 231.720603 -31.68 
L 232.740247 -31.68 
L 233.75989 -31.68 
L 234.779534 -31.68 
L 235.799178 -31.68 
L 236.818821 -31.68 
L 237.838465 -31.68 
L 238.858109 -31.68 
L 239.877752 -31.68 
L 240.897396 -31.68 
L 241.91704 -31.68 
L 242.936683 -31.68 
L 243.956327 -31.68 
L 244.975971 -31.68 
L 245.995614 -31.68 
L 247.015258 -31.68 
L 248.034902 -31.68 
L 249.054545 -31.68 
L 249.054545 -31.700913 
L 249.054545 -31.700913 
L 248.034902 -31.713085 
L 247.015258 -31.731068 
L 245.995614 -31.756906 
L 244.975971 -31.792995 
L 243.956327 -31.841977 
L 242.936683 -31.906538 
L 241.91704 -31.989114 
L 240.897396 -32.091519 
L 239.877752 -32.214508 
L 238.858109 -32.357345 
L 237.838465 -32.517449 
L 236.818821 -32.690182 
L 235.799178 -32.868866 
L 234.779534 -33.045083 
L 233.75989 -33.209247 
L 232.740247 -33.351435 
L 231.720603 -33.462357 
L 230.700959 -33.534363 
L 229.681316 -33.562312 
L 228.661672 -33.544191 
L 227.642028 -33.48136 
L 226.622385 -33.378409 
L 225.602741 -33.242631 
L 224.583097 -33.083223 
L 223.563454 -32.910339 
L 222.54381 -32.734146 
L 221.524166 -32.564031 
L 220.504523 -32.408049 
L 219.484879 -32.272666 
L 218.465235 -32.162792 
L 217.445592 -32.082037 
L 216.425948 -32.033111 
L 215.406304 -32.018241 
L 214.386661 -32.03951 
L 213.367017 -32.09903 
L 212.347373 -32.198873 
L 211.32773 -32.340768 
L 210.308086 -32.525564 
L 209.288442 -32.752557 
L 208.268799 -33.018767 
L 207.249155 -33.318328 
L 206.229511 -33.64211 
L 205.209868 -33.977721 
L 204.190224 -34.309959 
L 203.17058 -34.621742 
L 202.150937 -34.895449 
L 201.131293 -35.114532 
L 200.111649 -35.265213 
L 199.092005 -35.33802 
L 198.072362 -35.328957 
L 197.052718 -35.240126 
L 196.033074 -35.079725 
L 195.013431 -34.861414 
L 193.993787 -34.603154 
L 192.974143 -34.32568 
L 191.9545 -34.050797 
L 190.934856 -33.799687 
L 189.915212 -33.591387 
L 188.895569 -33.441521 
L 187.875925 -33.361339 
L 186.856281 -33.357059 
L 185.836638 -33.42951 
L 184.816994 -33.574058 
L 183.79735 -33.780839 
L 182.777707 -34.035321 
L 181.758063 -34.319231 
L 180.738419 -34.611865 
L 179.718776 -34.891719 
L 178.699132 -35.13836 
L 177.679488 -35.334336 
L 176.659845 -35.466908 
L 175.640201 -35.529355 
L 174.620557 -35.521641 
L 173.600914 -35.450317 
L 172.58127 -35.327634 
L 171.561626 -35.169987 
L 170.541983 -34.995908 
L 169.522339 -34.823916 
L 168.502695 -34.670553 
L 167.483052 -34.548887 
L 166.463408 -34.467703 
L 165.443764 -34.431462 
L 164.424121 -34.440985 
L 163.404477 -34.494702 
L 162.384833 -34.59022 
L 161.36519 -34.725934 
L 160.345546 -34.902412 
L 159.325902 -35.123326 
L 158.306259 -35.395819 
L 157.286615 -35.730242 
L 156.266971 -36.139341 
L 155.247328 -36.636986 
L 154.227684 -37.236654 
L 153.20804 -37.949855 
L 152.188397 -38.78474 
L 151.168753 -39.745085 
L 150.149109 -40.829851 
L 149.129466 -42.033432 
L 148.109822 -43.346642 
L 147.090178 -44.758388 
L 146.070534 -46.257871 
L 145.050891 -47.837073 
L 144.031247 -49.493207 
L 143.011603 -51.230803 
L 141.99196 -53.063112 
L 140.972316 -55.012582 
L 139.952672 -57.110246 
L 138.933029 -59.393945 
L 137.913385 -61.905426 
L 136.893741 -64.68641 
L 135.874098 -67.773875 
L 134.854454 -71.194882 
L 133.83481 -74.961475 
L 132.815167 -79.066294 
L 131.795523 -83.479716 
L 130.775879 -88.149322 
L 129.756236 -93.002392 
L 128.736592 -97.951839 
L 127.716948 -102.905515 
L 126.697305 -107.778242 
L 125.677661 -112.50536 
L 124.658017 -117.056028 
L 123.638374 -121.444237 
L 122.61873 -125.735434 
L 121.599086 -130.046924 
L 120.579443 -134.540778 
L 119.559799 -139.408789 
L 118.540155 -144.850067 
L 117.520512 -151.04292 
L 116.500868 -158.113803 
L 115.481224 -166.10696 
L 114.461581 -174.958961 
L 113.441937 -184.482366 
L 112.422293 -194.36215 
L 111.40265 -204.167226 
L 110.383006 -213.377572 
L 109.363362 -221.425199 
L 108.343719 -227.744946 
L 107.324075 -231.829255 
L 106.304431 -233.28 
L 105.284788 -231.850472 
L 104.265144 -227.471807 
L 103.2455 -220.260317 
L 102.225857 -210.50496 
L 101.206213 -198.637118 
L 100.186569 -185.187278 
L 99.166926 -170.73483 
L 98.147282 -155.857687 
L 97.127638 -141.087758 
L 96.107995 -126.876854 
L 95.088351 -113.575486 
L 94.068707 -101.424942 
L 93.049063 -90.561137 
L 92.02942 -81.027478 
L 91.009776 -72.793326 
L 89.990132 -65.774717 
L 88.970489 -59.854468 
L 87.950845 -54.899639 
L 86.931201 -50.77522 
L 85.911558 -47.353709 
L 84.891914 -44.520888 
L 83.87227 -42.17846 
L 82.852627 -40.244401 
L 81.832983 -38.651803 
L 80.813339 -37.346908 
L 79.793696 -36.286802 
L 78.774052 -35.437086 
L 77.754408 -34.769713 
L 76.734765 -34.26106 
L 75.715121 -33.890291 
L 74.695477 -33.638032 
L 73.675834 -33.485392 
L 72.65619 -33.413364 
L 71.636546 -33.402617 
L 70.616903 -33.433685 
L 69.597259 -33.487505 
L 68.577615 -33.546209 
L 67.557972 -33.594053 
L 66.538328 -33.618321 
L 65.518684 -33.610049 
L 64.499041 -33.564443 
L 63.479397 -33.480897 
L 62.459753 -33.362607 
L 61.44011 -33.215828 
L 60.420466 -33.048871 
L 59.400822 -32.870996 
L 58.381179 -32.691351 
L 57.361535 -32.518077 
L 56.341891 -32.357674 
L 55.322248 -32.214676 
L 54.302604 -32.091603 
L 53.28296 -31.989155 
L 52.263317 -31.906557 
L 51.243673 -31.841986 
L 50.224029 -31.792999 
L 49.204386 -31.756908 
L 48.184742 -31.731069 
L 47.165098 -31.713085 
L 46.145455 -31.700913 
z
" style="stroke: #48a185"/>
    </defs>
    <g clip-path="url(#pc8715a635f)">
     <use xlink:href="#m4a55d006f4" x="0" y="288" style="fill: #48a185; fill-opacity: 0.25; stroke: #48a185"/>
    </g>
   </g>
   <g id="matplotlib.axis_1">
    <g id="xtick_1">
     <g id="line2d_1">
      <defs>
       <path id="m7609596f5d" d="M 0 0 
L 0 -4 
" style="stroke: #000000; stroke-width: 0.5"/>
      </defs>
      <g>
       <use xlink:href="#m7609596f5d" x="44.517596" y="256.32" style="stroke: #000000; stroke-width: 0.5"/>
      </g>
     </g>
     <g id="line2d_2">
      <defs>
       <path id="m2d421b7288" d="M 0 0 
L 0 4 
" style="stroke: #000000; stroke-width: 0.5"/>
      </defs>
      <g>
       <use xlink:href="#m2d421b7288" x="44.517596" y="34.56" style="stroke: #000000; stroke-width: 0.5"/>
      </g>
     </g>
     <g id="text_1">
      <!-- −2 -->
      <g transform="translate(37.149451 267.415398) scale(0.09996 -0.09996)">
       <defs>
        <path id="DejaVuSerif-2212" d="M 678 2259 
L 4684 2259 
L 4684 1753 
L 678 1753 
L 678 2259 
z
" transform="scale(0.015625)"/>
        <path id="DejaVuSerif-32" d="M 819 3553 
L 469 3553 
L 469 4384 
Q 803 4563 1142 4656 
Q 1481 4750 1806 4750 
Q 2534 4750 2956 4397 
Q 3378 4044 3378 3438 
Q 3378 2753 2422 1800 
Q 2347 1728 2309 1691 
L 1131 513 
L 3078 513 
L 3078 1088 
L 3444 1088 
L 3444 0 
L 434 0 
L 434 341 
L 1850 1753 
Q 2319 2222 2519 2614 
Q 2719 3006 2719 3438 
Q 2719 3909 2473 4175 
Q 2228 4441 1797 4441 
Q 1350 4441 1106 4219 
Q 863 3997 819 3553 
z
" transform="scale(0.015625)"/>
       </defs>
       <use xlink:href="#DejaVuSerif-2212"/>
       <use xlink:href="#DejaVuSerif-32" x="83.789062"/>
      </g>
     </g>
    </g>
    <g id="xtick_2">
     <g id="line2d_3">
      <g>
       <use xlink:href="#m7609596f5d" x="104.643686" y="256.32" style="stroke: #000000; stroke-width: 0.5"/>
      </g>
     </g>
     <g id="line2d_4">
      <g>
       <use xlink:href="#m2d421b7288" x="104.643686" y="34.56" style="stroke: #000000; stroke-width: 0.5"/>
      </g>
     </g>
     <g id="text_2">
      <!-- 0 -->
      <g transform="translate(101.463708 267.415398) scale(0.09996 -0.09996)">
       <defs>
        <path id="DejaVuSerif-30" d="M 2034 219 
Q 2513 219 2750 744 
Q 2988 1269 2988 2328 
Q 2988 3391 2750 3916 
Q 2513 4441 2034 4441 
Q 1556 4441 1318 3916 
Q 1081 3391 1081 2328 
Q 1081 1269 1318 744 
Q 1556 219 2034 219 
z
M 2034 -91 
Q 1275 -91 848 546 
Q 422 1184 422 2328 
Q 422 3475 848 4112 
Q 1275 4750 2034 4750 
Q 2797 4750 3222 4112 
Q 3647 3475 3647 2328 
Q 3647 1184 3222 546 
Q 2797 -91 2034 -91 
z
" transform="scale(0.015625)"/>
       </defs>
       <use xlink:href="#DejaVuSerif-30"/>
      </g>
     </g>
    </g>
    <g id="xtick_3">
     <g id="line2d_5">
      <g>
       <use xlink:href="#m7609596f5d" x="164.769775" y="256.32" style="stroke: #000000; stroke-width: 0.5"/>
      </g>
     </g>
     <g id="line2d_6">
      <g>
       <use xlink:href="#m2d421b7288" x="164.769775" y="34.56" style="stroke: #000000; stroke-width: 0.5"/>
      </g>
     </g>
     <g id="text_3">
      <!-- 2 -->
      <g transform="translate(161.589798 267.415398) scale(0.09996 -0.09996)">
       <use xlink:href="#DejaVuSerif-32"/>
      </g>
     </g>
    </g>
    <g id="xtick_4">
     <g id="line2d_7">
      <g>
       <use xlink:href="#m7609596f5d" x="224.895865" y="256.32" style="stroke: #000000; stroke-width: 0.5"/>
      </g>
     </g>
     <g id="line2d_8">
      <g>
       <use xlink:href="#m2d421b7288" x="224.895865" y="34.56" style="stroke: #000000; stroke-width: 0.5"/>
      </g>
     </g>
     <g id="text_4">
      <!-- 4 -->
      <g transform="translate(221.715888 267.415398) scale(0.09996 -0.09996)">
       <defs>
        <path id="DejaVuSerif-34" d="M 2234 1581 
L 2234 4063 
L 641 1581 
L 2234 1581 
z
M 3609 0 
L 1484 0 
L 1484 331 
L 2234 331 
L 2234 1247 
L 197 1247 
L 197 1588 
L 2241 4750 
L 2859 4750 
L 2859 1581 
L 3750 1581 
L 3750 1247 
L 2859 1247 
L 2859 331 
L 3609 331 
L 3609 0 
z
" transform="scale(0.015625)"/>
       </defs>
       <use xlink:href="#DejaVuSerif-34"/>
      </g>
     </g>
    </g>
    <g id="xtick_5">
     <g id="line2d_9">
      <defs>
       <path id="m8fe81b0f90" d="M 0 0 
L 0 -2 
" style="stroke: #000000; stroke-width: 0.5"/>
      </defs>
      <g>
       <use xlink:href="#m8fe81b0f90" x="59.549118" y="256.32" style="stroke: #000000; stroke-width: 0.5"/>
      </g>
     </g>
     <g id="line2d_10">
      <defs>
       <path id="mdaeac079a6" d="M 0 0 
L 0 2 
" style="stroke: #000000; stroke-width: 0.5"/>
      </defs>
      <g>
       <use xlink:href="#mdaeac079a6" x="59.549118" y="34.56" style="stroke: #000000; stroke-width: 0.5"/>
      </g>
     </g>
    </g>
    <g id="xtick_6">
     <g id="line2d_11">
      <g>
       <use xlink:href="#m8fe81b0f90" x="74.580641" y="256.32" style="stroke: #000000; stroke-width: 0.5"/>
      </g>
     </g>
     <g id="line2d_12">
      <g>
       <use xlink:href="#mdaeac079a6" x="74.580641" y="34.56" style="stroke: #000000; stroke-width: 0.5"/>
      </g>
     </g>
    </g>
    <g id="xtick_7">
     <g id="line2d_13">
      <g>
       <use xlink:href="#m8fe81b0f90" x="89.612163" y="256.32" style="stroke: #000000; stroke-width: 0.5"/>
      </g>
     </g>
     <g id="line2d_14">
      <g>
       <use xlink:href="#mdaeac079a6" x="89.612163" y="34.56" style="stroke: #000000; stroke-width: 0.5"/>
      </g>
     </g>
    </g>
    <g id="xtick_8">
     <g id="line2d_15">
      <g>
       <use xlink:href="#m8fe81b0f90" x="119.675208" y="256.32" style="stroke: #000000; stroke-width: 0.5"/>
      </g>
     </g>
     <g id="line2d_16">
      <g>
       <use xlink:href="#mdaeac079a6" x="119.675208" y="34.56" style="stroke: #000000; stroke-width: 0.5"/>
      </g>
     </g>
    </g>
    <g id="xtick_9">
     <g id="line2d_17">
      <g>
       <use xlink:href="#m8fe81b0f90" x="134.706731" y="256.32" style="stroke: #000000; stroke-width: 0.5"/>
      </g>
     </g>
     <g id="line2d_18">
      <g>
       <use xlink:href="#mdaeac079a6" x="134.706731" y="34.56" style="stroke: #000000; stroke-width: 0.5"/>
      </g>
     </g>
    </g>
    <g id="xtick_10">
     <g id="line2d_19">
      <g>
       <use xlink:href="#m8fe81b0f90" x="149.738253" y="256.32" style="stroke: #000000; stroke-width: 0.5"/>
      </g>
     </g>
     <g id="line2d_20">
      <g>
       <use xlink:href="#mdaeac079a6" x="149.738253" y="34.56" style="stroke: #000000; stroke-width: 0.5"/>
      </g>
     </g>
    </g>
    <g id="xtick_11">
     <g id="line2d_21">
      <g>
       <use xlink:href="#m8fe81b0f90" x="179.801298" y="256.32" style="stroke: #000000; stroke-width: 0.5"/>
      </g>
     </g>
     <g id="line2d_22">
      <g>
       <use xlink:href="#mdaeac079a6" x="179.801298" y="34.56" style="stroke: #000000; stroke-width: 0.5"/>
      </g>
     </g>
    </g>
    <g id="xtick_12">
     <g id="line2d_23">
      <g>
       <use xlink:href="#m8fe81b0f90" x="194.83282" y="256.32" style="stroke: #000000; stroke-width: 0.5"/>
      </g>
     </g>
     <g id="line2d_24">
      <g>
       <use xlink:href="#mdaeac079a6" x="194.83282" y="34.56" style="stroke: #000000; stroke-width: 0.5"/>
      </g>
     </g>
    </g>
    <g id="xtick_13">
     <g id="line2d_25">
      <g>
       <use xlink:href="#m8fe81b0f90" x="209.864343" y="256.32" style="stroke: #000000; stroke-width: 0.5"/>
      </g>
     </g>
     <g id="line2d_26">
      <g>
       <use xlink:href="#mdaeac079a6" x="209.864343" y="34.56" style="stroke: #000000; stroke-width: 0.5"/>
      </g>
     </g>
    </g>
    <g id="xtick_14">
     <g id="line2d_27">
      <g>
       <use xlink:href="#m8fe81b0f90" x="239.927388" y="256.32" style="stroke: #000000; stroke-width: 0.5"/>
      </g>
     </g>
     <g id="line2d_28">
      <g>
       <use xlink:href="#mdaeac079a6" x="239.927388" y="34.56" style="stroke: #000000; stroke-width: 0.5"/>
      </g>
     </g>
    </g>
    <g id="xtick_15">
     <g id="line2d_29">
      <g>
       <use xlink:href="#m8fe81b0f90" x="254.95891" y="256.32" style="stroke: #000000; stroke-width: 0.5"/>
      </g>
     </g>
     <g id="line2d_30">
      <g>
       <use xlink:href="#mdaeac079a6" x="254.95891" y="34.56" style="stroke: #000000; stroke-width: 0.5"/>
      </g>
     </g>
    </g>
    <g id="text_5">
     <!-- Moran's I -->
     <g transform="translate(123.38469 281.089652) scale(0.09996 -0.09996)">
      <defs>
       <path id="DejaVuSerif-4d" d="M 353 0 
L 353 331 
L 947 331 
L 947 4331 
L 319 4331 
L 319 4666 
L 1678 4666 
L 3316 1344 
L 4953 4666 
L 6228 4666 
L 6228 4331 
L 5606 4331 
L 5606 331 
L 6203 331 
L 6203 0 
L 4378 0 
L 4378 331 
L 4972 331 
L 4972 3938 
L 3372 684 
L 2931 684 
L 1331 3938 
L 1331 331 
L 1925 331 
L 1925 0 
L 353 0 
z
" transform="scale(0.015625)"/>
       <path id="DejaVuSerif-6f" d="M 1925 219 
Q 2388 219 2623 584 
Q 2859 950 2859 1663 
Q 2859 2375 2623 2739 
Q 2388 3103 1925 3103 
Q 1463 3103 1227 2739 
Q 991 2375 991 1663 
Q 991 950 1228 584 
Q 1466 219 1925 219 
z
M 1925 -91 
Q 1200 -91 759 389 
Q 319 869 319 1663 
Q 319 2456 758 2934 
Q 1197 3413 1925 3413 
Q 2653 3413 3092 2934 
Q 3531 2456 3531 1663 
Q 3531 869 3092 389 
Q 2653 -91 1925 -91 
z
" transform="scale(0.015625)"/>
       <path id="DejaVuSerif-72" d="M 3059 3328 
L 3059 2497 
L 2728 2497 
Q 2713 2744 2591 2866 
Q 2469 2988 2234 2988 
Q 1809 2988 1582 2694 
Q 1356 2400 1356 1850 
L 1356 331 
L 2022 331 
L 2022 0 
L 263 0 
L 263 331 
L 781 331 
L 781 2994 
L 231 2994 
L 231 3322 
L 1356 3322 
L 1356 2731 
Q 1525 3078 1790 3245 
Q 2056 3413 2438 3413 
Q 2578 3413 2733 3391 
Q 2888 3369 3059 3328 
z
" transform="scale(0.015625)"/>
       <path id="DejaVuSerif-61" d="M 2547 1044 
L 2547 1747 
L 1806 1747 
Q 1378 1747 1168 1562 
Q 959 1378 959 997 
Q 959 650 1171 447 
Q 1384 244 1747 244 
Q 2106 244 2326 466 
Q 2547 688 2547 1044 
z
M 3122 2075 
L 3122 331 
L 3634 331 
L 3634 0 
L 2547 0 
L 2547 359 
Q 2356 128 2106 18 
Q 1856 -91 1522 -91 
Q 969 -91 644 203 
Q 319 497 319 997 
Q 319 1513 691 1797 
Q 1063 2081 1741 2081 
L 2547 2081 
L 2547 2309 
Q 2547 2688 2317 2895 
Q 2088 3103 1672 3103 
Q 1328 3103 1125 2947 
Q 922 2791 872 2484 
L 575 2484 
L 575 3156 
Q 875 3284 1158 3348 
Q 1441 3413 1709 3413 
Q 2400 3413 2761 3070 
Q 3122 2728 3122 2075 
z
" transform="scale(0.015625)"/>
       <path id="DejaVuSerif-6e" d="M 263 0 
L 263 331 
L 781 331 
L 781 2988 
L 231 2988 
L 231 3322 
L 1356 3322 
L 1356 2731 
Q 1516 3069 1770 3241 
Q 2025 3413 2363 3413 
Q 2913 3413 3172 3097 
Q 3431 2781 3431 2113 
L 3431 331 
L 3944 331 
L 3944 0 
L 2356 0 
L 2356 331 
L 2853 331 
L 2853 1931 
Q 2853 2541 2703 2767 
Q 2553 2994 2175 2994 
Q 1775 2994 1565 2701 
Q 1356 2409 1356 1850 
L 1356 331 
L 1856 331 
L 1856 0 
L 263 0 
z
" transform="scale(0.015625)"/>
       <path id="DejaVuSerif-27" d="M 1125 4666 
L 1125 2931 
L 628 2931 
L 628 4666 
L 1125 4666 
z
" transform="scale(0.015625)"/>
       <path id="DejaVuSerif-73" d="M 359 184 
L 359 959 
L 691 959 
Q 703 588 923 403 
Q 1144 219 1575 219 
Q 1963 219 2166 364 
Q 2369 509 2369 788 
Q 2369 1006 2220 1140 
Q 2072 1275 1594 1428 
L 1178 1569 
Q 750 1706 558 1912 
Q 366 2119 366 2438 
Q 366 2894 700 3153 
Q 1034 3413 1625 3413 
Q 1888 3413 2178 3344 
Q 2469 3275 2778 3144 
L 2778 2419 
L 2447 2419 
Q 2434 2741 2221 2922 
Q 2009 3103 1644 3103 
Q 1281 3103 1095 2975 
Q 909 2847 909 2591 
Q 909 2381 1050 2254 
Q 1191 2128 1613 1997 
L 2069 1856 
Q 2541 1709 2748 1489 
Q 2956 1269 2956 922 
Q 2956 450 2595 179 
Q 2234 -91 1600 -91 
Q 1278 -91 972 -22 
Q 666 47 359 184 
z
" transform="scale(0.015625)"/>
       <path id="DejaVuSerif-20" transform="scale(0.015625)"/>
       <path id="DejaVuSerif-49" d="M 1581 331 
L 2175 331 
L 2175 0 
L 353 0 
L 353 331 
L 947 331 
L 947 4331 
L 353 4331 
L 353 4666 
L 2175 4666 
L 2175 4331 
L 1581 4331 
L 1581 331 
z
" transform="scale(0.015625)"/>
      </defs>
      <use xlink:href="#DejaVuSerif-4d"/>
      <use xlink:href="#DejaVuSerif-6f" x="102.392578"/>
      <use xlink:href="#DejaVuSerif-72" x="162.597656"/>
      <use xlink:href="#DejaVuSerif-61" x="210.400391"/>
      <use xlink:href="#DejaVuSerif-6e" x="270.019531"/>
      <use xlink:href="#DejaVuSerif-27" x="334.423828"/>
      <use xlink:href="#DejaVuSerif-73" x="361.914062"/>
      <use xlink:href="#DejaVuSerif-20" x="413.232422"/>
      <use xlink:href="#DejaVuSerif-49" x="445.019531"/>
     </g>
    </g>
   </g>
   <g id="matplotlib.axis_2">
    <g id="ytick_1">
     <g id="line2d_31">
      <defs>
       <path id="meacd728308" d="M 0 0 
L 5 0 
" style="stroke: #000000; stroke-width: 0.5"/>
      </defs>
      <g>
       <use xlink:href="#meacd728308" x="36" y="256.32" style="stroke: #000000; stroke-width: 0.5"/>
      </g>
     </g>
     <g id="line2d_32">
      <defs>
       <path id="mea606940a9" d="M 0 0 
L -5 0 
" style="stroke: #000000; stroke-width: 0.5"/>
      </defs>
      <g>
       <use xlink:href="#mea606940a9" x="259.2" y="256.32" style="stroke: #000000; stroke-width: 0.5"/>
      </g>
     </g>
     <g id="text_6">
      <!-- 0.0 -->
      <g transform="translate(16.603236 260.117699) scale(0.09996 -0.09996)">
       <defs>
        <path id="DejaVuSerif-2e" d="M 603 325 
Q 603 500 722 622 
Q 841 744 1019 744 
Q 1191 744 1312 622 
Q 1434 500 1434 325 
Q 1434 153 1312 31 
Q 1191 -91 1019 -91 
Q 841 -91 722 29 
Q 603 150 603 325 
z
" transform="scale(0.015625)"/>
       </defs>
       <use xlink:href="#DejaVuSerif-30"/>
       <use xlink:href="#DejaVuSerif-2e" x="63.623047"/>
       <use xlink:href="#DejaVuSerif-30" x="95.410156"/>
      </g>
     </g>
    </g>
    <g id="ytick_2">
     <g id="line2d_33">
      <g>
       <use xlink:href="#meacd728308" x="36" y="216.568736" style="stroke: #000000; stroke-width: 0.5"/>
      </g>
     </g>
     <g id="line2d_34">
      <g>
       <use xlink:href="#mea606940a9" x="259.2" y="216.568736" style="stroke: #000000; stroke-width: 0.5"/>
      </g>
     </g>
     <g id="text_7">
      <!-- 0.2 -->
      <g transform="translate(16.603236 220.366435) scale(0.09996 -0.09996)">
       <use xlink:href="#DejaVuSerif-30"/>
       <use xlink:href="#DejaVuSerif-2e" x="63.623047"/>
       <use xlink:href="#DejaVuSerif-32" x="95.410156"/>
      </g>
     </g>
    </g>
    <g id="ytick_3">
     <g id="line2d_35">
      <g>
       <use xlink:href="#meacd728308" x="36" y="176.817471" style="stroke: #000000; stroke-width: 0.5"/>
      </g>
     </g>
     <g id="line2d_36">
      <g>
       <use xlink:href="#mea606940a9" x="259.2" y="176.817471" style="stroke: #000000; stroke-width: 0.5"/>
      </g>
     </g>
     <g id="text_8">
      <!-- 0.4 -->
      <g transform="translate(16.603236 180.615171) scale(0.09996 -0.09996)">
       <use xlink:href="#DejaVuSerif-30"/>
       <use xlink:href="#DejaVuSerif-2e" x="63.623047"/>
       <use xlink:href="#DejaVuSerif-34" x="95.410156"/>
      </g>
     </g>
    </g>
    <g id="ytick_4">
     <g id="line2d_37">
      <g>
       <use xlink:href="#meacd728308" x="36" y="137.066207" style="stroke: #000000; stroke-width: 0.5"/>
      </g>
     </g>
     <g id="line2d_38">
      <g>
       <use xlink:href="#mea606940a9" x="259.2" y="137.066207" style="stroke: #000000; stroke-width: 0.5"/>
      </g>
     </g>
     <g id="text_9">
      <!-- 0.6 -->
      <g transform="translate(16.603236 140.863906) scale(0.09996 -0.09996)">
       <defs>
        <path id="DejaVuSerif-36" d="M 2094 219 
Q 2534 219 2771 542 
Q 3009 866 3009 1472 
Q 3009 2078 2771 2401 
Q 2534 2725 2094 2725 
Q 1647 2725 1412 2412 
Q 1178 2100 1178 1509 
Q 1178 888 1415 553 
Q 1653 219 2094 219 
z
M 1075 2569 
Q 1288 2803 1556 2918 
Q 1825 3034 2163 3034 
Q 2859 3034 3264 2615 
Q 3669 2197 3669 1472 
Q 3669 763 3233 336 
Q 2797 -91 2069 -91 
Q 1278 -91 853 498 
Q 428 1088 428 2181 
Q 428 3406 931 4078 
Q 1434 4750 2350 4750 
Q 2597 4750 2869 4703 
Q 3141 4656 3425 4563 
L 3425 3794 
L 3072 3794 
Q 3034 4109 2831 4275 
Q 2628 4441 2284 4441 
Q 1678 4441 1381 3981 
Q 1084 3522 1075 2569 
z
" transform="scale(0.015625)"/>
       </defs>
       <use xlink:href="#DejaVuSerif-30"/>
       <use xlink:href="#DejaVuSerif-2e" x="63.623047"/>
       <use xlink:href="#DejaVuSerif-36" x="95.410156"/>
      </g>
     </g>
    </g>
    <g id="ytick_5">
     <g id="line2d_39">
      <g>
       <use xlink:href="#meacd728308" x="36" y="97.314943" style="stroke: #000000; stroke-width: 0.5"/>
      </g>
     </g>
     <g id="line2d_40">
      <g>
       <use xlink:href="#mea606940a9" x="259.2" y="97.314943" style="stroke: #000000; stroke-width: 0.5"/>
      </g>
     </g>
     <g id="text_10">
      <!-- 0.8 -->
      <g transform="translate(16.603236 101.112642) scale(0.09996 -0.09996)">
       <defs>
        <path id="DejaVuSerif-38" d="M 2981 1275 
Q 2981 1775 2732 2051 
Q 2484 2328 2034 2328 
Q 1584 2328 1336 2051 
Q 1088 1775 1088 1275 
Q 1088 772 1336 495 
Q 1584 219 2034 219 
Q 2484 219 2732 495 
Q 2981 772 2981 1275 
z
M 2853 3541 
Q 2853 3966 2637 4203 
Q 2422 4441 2034 4441 
Q 1650 4441 1433 4203 
Q 1216 3966 1216 3541 
Q 1216 3113 1433 2875 
Q 1650 2638 2034 2638 
Q 2422 2638 2637 2875 
Q 2853 3113 2853 3541 
z
M 2516 2484 
Q 3047 2413 3344 2092 
Q 3641 1772 3641 1275 
Q 3641 619 3225 264 
Q 2809 -91 2034 -91 
Q 1263 -91 845 264 
Q 428 619 428 1275 
Q 428 1772 725 2092 
Q 1022 2413 1556 2484 
Q 1084 2569 832 2842 
Q 581 3116 581 3541 
Q 581 4103 968 4426 
Q 1356 4750 2034 4750 
Q 2713 4750 3100 4426 
Q 3488 4103 3488 3541 
Q 3488 3116 3236 2842 
Q 2984 2569 2516 2484 
z
" transform="scale(0.015625)"/>
       </defs>
       <use xlink:href="#DejaVuSerif-30"/>
       <use xlink:href="#DejaVuSerif-2e" x="63.623047"/>
       <use xlink:href="#DejaVuSerif-38" x="95.410156"/>
      </g>
     </g>
    </g>
    <g id="ytick_6">
     <g id="line2d_41">
      <g>
       <use xlink:href="#meacd728308" x="36" y="57.563679" style="stroke: #000000; stroke-width: 0.5"/>
      </g>
     </g>
     <g id="line2d_42">
      <g>
       <use xlink:href="#mea606940a9" x="259.2" y="57.563679" style="stroke: #000000; stroke-width: 0.5"/>
      </g>
     </g>
     <g id="text_11">
      <!-- 1.0 -->
      <g transform="translate(16.603236 61.361378) scale(0.09996 -0.09996)">
       <defs>
        <path id="DejaVuSerif-31" d="M 909 0 
L 909 331 
L 1722 331 
L 1722 4213 
L 781 3603 
L 781 4013 
L 1919 4750 
L 2350 4750 
L 2350 331 
L 3163 331 
L 3163 0 
L 909 0 
z
" transform="scale(0.015625)"/>
       </defs>
       <use xlink:href="#DejaVuSerif-31"/>
       <use xlink:href="#DejaVuSerif-2e" x="63.623047"/>
       <use xlink:href="#DejaVuSerif-30" x="95.410156"/>
      </g>
     </g>
    </g>
    <g id="ytick_7">
     <g id="line2d_43">
      <defs>
       <path id="mfdd8bb21d5" d="M 0 0 
L 3 0 
" style="stroke: #000000; stroke-width: 0.5"/>
      </defs>
      <g>
       <use xlink:href="#mfdd8bb21d5" x="36" y="246.382184" style="stroke: #000000; stroke-width: 0.5"/>
      </g>
     </g>
     <g id="line2d_44">
      <defs>
       <path id="m236c942668" d="M 0 0 
L -3 0 
" style="stroke: #000000; stroke-width: 0.5"/>
      </defs>
      <g>
       <use xlink:href="#m236c942668" x="259.2" y="246.382184" style="stroke: #000000; stroke-width: 0.5"/>
      </g>
     </g>
    </g>
    <g id="ytick_8">
     <g id="line2d_45">
      <g>
       <use xlink:href="#mfdd8bb21d5" x="36" y="236.444368" style="stroke: #000000; stroke-width: 0.5"/>
      </g>
     </g>
     <g id="line2d_46">
      <g>
       <use xlink:href="#m236c942668" x="259.2" y="236.444368" style="stroke: #000000; stroke-width: 0.5"/>
      </g>
     </g>
    </g>
    <g id="ytick_9">
     <g id="line2d_47">
      <g>
       <use xlink:href="#mfdd8bb21d5" x="36" y="226.506552" style="stroke: #000000; stroke-width: 0.5"/>
      </g>
     </g>
     <g id="line2d_48">
      <g>
       <use xlink:href="#m236c942668" x="259.2" y="226.506552" style="stroke: #000000; stroke-width: 0.5"/>
      </g>
     </g>
    </g>
    <g id="ytick_10">
     <g id="line2d_49">
      <g>
       <use xlink:href="#mfdd8bb21d5" x="36" y="206.63092" style="stroke: #000000; stroke-width: 0.5"/>
      </g>
     </g>
     <g id="line2d_50">
      <g>
       <use xlink:href="#m236c942668" x="259.2" y="206.63092" style="stroke: #000000; stroke-width: 0.5"/>
      </g>
     </g>
    </g>
    <g id="ytick_11">
     <g id="line2d_51">
      <g>
       <use xlink:href="#mfdd8bb21d5" x="36" y="196.693104" style="stroke: #000000; stroke-width: 0.5"/>
      </g>
     </g>
     <g id="line2d_52">
      <g>
       <use xlink:href="#m236c942668" x="259.2" y="196.693104" style="stroke: #000000; stroke-width: 0.5"/>
      </g>
     </g>
    </g>
    <g id="ytick_12">
     <g id="line2d_53">
      <g>
       <use xlink:href="#mfdd8bb21d5" x="36" y="186.755288" style="stroke: #000000; stroke-width: 0.5"/>
      </g>
     </g>
     <g id="line2d_54">
      <g>
       <use xlink:href="#m236c942668" x="259.2" y="186.755288" style="stroke: #000000; stroke-width: 0.5"/>
      </g>
     </g>
    </g>
    <g id="ytick_13">
     <g id="line2d_55">
      <g>
       <use xlink:href="#mfdd8bb21d5" x="36" y="166.879655" style="stroke: #000000; stroke-width: 0.5"/>
      </g>
     </g>
     <g id="line2d_56">
      <g>
       <use xlink:href="#m236c942668" x="259.2" y="166.879655" style="stroke: #000000; stroke-width: 0.5"/>
      </g>
     </g>
    </g>
    <g id="ytick_14">
     <g id="line2d_57">
      <g>
       <use xlink:href="#mfdd8bb21d5" x="36" y="156.941839" style="stroke: #000000; stroke-width: 0.5"/>
      </g>
     </g>
     <g id="line2d_58">
      <g>
       <use xlink:href="#m236c942668" x="259.2" y="156.941839" style="stroke: #000000; stroke-width: 0.5"/>
      </g>
     </g>
    </g>
    <g id="ytick_15">
     <g id="line2d_59">
      <g>
       <use xlink:href="#mfdd8bb21d5" x="36" y="147.004023" style="stroke: #000000; stroke-width: 0.5"/>
      </g>
     </g>
     <g id="line2d_60">
      <g>
       <use xlink:href="#m236c942668" x="259.2" y="147.004023" style="stroke: #000000; stroke-width: 0.5"/>
      </g>
     </g>
    </g>
    <g id="ytick_16">
     <g id="line2d_61">
      <g>
       <use xlink:href="#mfdd8bb21d5" x="36" y="127.128391" style="stroke: #000000; stroke-width: 0.5"/>
      </g>
     </g>
     <g id="line2d_62">
      <g>
       <use xlink:href="#m236c942668" x="259.2" y="127.128391" style="stroke: #000000; stroke-width: 0.5"/>
      </g>
     </g>
    </g>
    <g id="ytick_17">
     <g id="line2d_63">
      <g>
       <use xlink:href="#mfdd8bb21d5" x="36" y="117.190575" style="stroke: #000000; stroke-width: 0.5"/>
      </g>
     </g>
     <g id="line2d_64">
      <g>
       <use xlink:href="#m236c942668" x="259.2" y="117.190575" style="stroke: #000000; stroke-width: 0.5"/>
      </g>
     </g>
    </g>
    <g id="ytick_18">
     <g id="line2d_65">
      <g>
       <use xlink:href="#mfdd8bb21d5" x="36" y="107.252759" style="stroke: #000000; stroke-width: 0.5"/>
      </g>
     </g>
     <g id="line2d_66">
      <g>
       <use xlink:href="#m236c942668" x="259.2" y="107.252759" style="stroke: #000000; stroke-width: 0.5"/>
      </g>
     </g>
    </g>
    <g id="ytick_19">
     <g id="line2d_67">
      <g>
       <use xlink:href="#mfdd8bb21d5" x="36" y="87.377127" style="stroke: #000000; stroke-width: 0.5"/>
      </g>
     </g>
     <g id="line2d_68">
      <g>
       <use xlink:href="#m236c942668" x="259.2" y="87.377127" style="stroke: #000000; stroke-width: 0.5"/>
      </g>
     </g>
    </g>
    <g id="ytick_20">
     <g id="line2d_69">
      <g>
       <use xlink:href="#mfdd8bb21d5" x="36" y="77.439311" style="stroke: #000000; stroke-width: 0.5"/>
      </g>
     </g>
     <g id="line2d_70">
      <g>
       <use xlink:href="#m236c942668" x="259.2" y="77.439311" style="stroke: #000000; stroke-width: 0.5"/>
      </g>
     </g>
    </g>
    <g id="ytick_21">
     <g id="line2d_71">
      <g>
       <use xlink:href="#mfdd8bb21d5" x="36" y="67.501495" style="stroke: #000000; stroke-width: 0.5"/>
      </g>
     </g>
     <g id="line2d_72">
      <g>
       <use xlink:href="#m236c942668" x="259.2" y="67.501495" style="stroke: #000000; stroke-width: 0.5"/>
      </g>
     </g>
    </g>
    <g id="ytick_22">
     <g id="line2d_73">
      <g>
       <use xlink:href="#mfdd8bb21d5" x="36" y="47.625863" style="stroke: #000000; stroke-width: 0.5"/>
      </g>
     </g>
     <g id="line2d_74">
      <g>
       <use xlink:href="#m236c942668" x="259.2" y="47.625863" style="stroke: #000000; stroke-width: 0.5"/>
      </g>
     </g>
    </g>
    <g id="ytick_23">
     <g id="line2d_75">
      <g>
       <use xlink:href="#mfdd8bb21d5" x="36" y="37.688046" style="stroke: #000000; stroke-width: 0.5"/>
      </g>
     </g>
     <g id="line2d_76">
      <g>
       <use xlink:href="#m236c942668" x="259.2" y="37.688046" style="stroke: #000000; stroke-width: 0.5"/>
      </g>
     </g>
    </g>
    <g id="text_12">
     <!-- Density -->
     <g transform="translate(10.38225 164.619825) rotate(-90) scale(0.09996 -0.09996)">
      <defs>
       <path id="DejaVuSerif-44" d="M 1581 331 
L 2163 331 
Q 3072 331 3558 850 
Q 4044 1369 4044 2338 
Q 4044 3306 3559 3818 
Q 3075 4331 2163 4331 
L 1581 4331 
L 1581 331 
z
M 353 0 
L 353 331 
L 947 331 
L 947 4331 
L 353 4331 
L 353 4666 
L 2209 4666 
Q 3416 4666 4089 4050 
Q 4763 3434 4763 2338 
Q 4763 1238 4088 619 
Q 3413 0 2209 0 
L 353 0 
z
" transform="scale(0.015625)"/>
       <path id="DejaVuSerif-65" d="M 3469 1600 
L 991 1600 
L 991 1575 
Q 991 903 1244 561 
Q 1497 219 1991 219 
Q 2369 219 2611 417 
Q 2853 616 2950 1006 
L 3413 1006 
Q 3275 459 2904 184 
Q 2534 -91 1931 -91 
Q 1203 -91 761 389 
Q 319 869 319 1663 
Q 319 2450 753 2931 
Q 1188 3413 1894 3413 
Q 2647 3413 3050 2948 
Q 3453 2484 3469 1600 
z
M 2791 1931 
Q 2772 2513 2545 2808 
Q 2319 3103 1894 3103 
Q 1497 3103 1269 2806 
Q 1041 2509 991 1931 
L 2791 1931 
z
" transform="scale(0.015625)"/>
       <path id="DejaVuSerif-69" d="M 622 4353 
Q 622 4497 726 4603 
Q 831 4709 978 4709 
Q 1122 4709 1226 4603 
Q 1331 4497 1331 4353 
Q 1331 4206 1228 4103 
Q 1125 4000 978 4000 
Q 831 4000 726 4103 
Q 622 4206 622 4353 
z
M 1356 331 
L 1900 331 
L 1900 0 
L 231 0 
L 231 331 
L 781 331 
L 781 2988 
L 231 2988 
L 231 3322 
L 1356 3322 
L 1356 331 
z
" transform="scale(0.015625)"/>
       <path id="DejaVuSerif-74" d="M 691 2988 
L 184 2988 
L 184 3322 
L 691 3322 
L 691 4353 
L 1269 4353 
L 1269 3322 
L 2350 3322 
L 2350 2988 
L 1269 2988 
L 1269 878 
Q 1269 456 1350 337 
Q 1431 219 1650 219 
Q 1875 219 1978 351 
Q 2081 484 2088 781 
L 2522 781 
Q 2497 328 2275 118 
Q 2053 -91 1600 -91 
Q 1103 -91 897 129 
Q 691 350 691 878 
L 691 2988 
z
" transform="scale(0.015625)"/>
       <path id="DejaVuSerif-79" d="M 1381 -609 
L 1600 -56 
L 359 2988 
L -19 2988 
L -19 3322 
L 1509 3322 
L 1509 2988 
L 978 2988 
L 1913 703 
L 2847 2988 
L 2350 2988 
L 2350 3322 
L 3597 3322 
L 3597 2988 
L 3225 2988 
L 1703 -750 
Q 1547 -1138 1356 -1280 
Q 1166 -1422 819 -1422 
Q 672 -1422 517 -1397 
Q 363 -1372 206 -1325 
L 206 -691 
L 500 -691 
Q 519 -903 608 -995 
Q 697 -1088 884 -1088 
Q 1056 -1088 1161 -992 
Q 1266 -897 1381 -609 
z
" transform="scale(0.015625)"/>
      </defs>
      <use xlink:href="#DejaVuSerif-44"/>
      <use xlink:href="#DejaVuSerif-65" x="80.175781"/>
      <use xlink:href="#DejaVuSerif-6e" x="139.355469"/>
      <use xlink:href="#DejaVuSerif-73" x="203.759766"/>
      <use xlink:href="#DejaVuSerif-69" x="255.078125"/>
      <use xlink:href="#DejaVuSerif-74" x="287.060547"/>
      <use xlink:href="#DejaVuSerif-79" x="327.246094"/>
     </g>
    </g>
   </g>
   <g id="LineCollection_1">
    <path d="M 96.985715 256.32 
L 96.985715 250.776 
" clip-path="url(#pc8715a635f)" style="fill: none; stroke: #ff0000"/>
    <path d="M 106.288038 256.32 
L 106.288038 250.776 
" clip-path="url(#pc8715a635f)" style="fill: none; stroke: #ff0000"/>
    <path d="M 100.475236 256.32 
L 100.475236 250.776 
" clip-path="url(#pc8715a635f)" style="fill: none; stroke: #ff0000"/>
    <path d="M 110.609384 256.32 
L 110.609384 250.776 
" clip-path="url(#pc8715a635f)" style="fill: none; stroke: #ff0000"/>
    <path d="M 103.599828 256.32 
L 103.599828 250.776 
" clip-path="url(#pc8715a635f)" style="fill: none; stroke: #ff0000"/>
    <path d="M 105.31421 256.32 
L 105.31421 250.776 
" clip-path="url(#pc8715a635f)" style="fill: none; stroke: #ff0000"/>
    <path d="M 144.080734 256.32 
L 144.080734 250.776 
" clip-path="url(#pc8715a635f)" style="fill: none; stroke: #ff0000"/>
    <path d="M 102.976202 256.32 
L 102.976202 250.776 
" clip-path="url(#pc8715a635f)" style="fill: none; stroke: #ff0000"/>
    <path d="M 104.465673 256.32 
L 104.465673 250.776 
" clip-path="url(#pc8715a635f)" style="fill: none; stroke: #ff0000"/>
    <path d="M 109.951574 256.32 
L 109.951574 250.776 
" clip-path="url(#pc8715a635f)" style="fill: none; stroke: #ff0000"/>
    <path d="M 100.335092 256.32 
L 100.335092 250.776 
" clip-path="url(#pc8715a635f)" style="fill: none; stroke: #ff0000"/>
    <path d="M 105.617883 256.32 
L 105.617883 250.776 
" clip-path="url(#pc8715a635f)" style="fill: none; stroke: #ff0000"/>
    <path d="M 105.686029 256.32 
L 105.686029 250.776 
" clip-path="url(#pc8715a635f)" style="fill: none; stroke: #ff0000"/>
    <path d="M 107.155793 256.32 
L 107.155793 250.776 
" clip-path="url(#pc8715a635f)" style="fill: none; stroke: #ff0000"/>
    <path d="M 121.588417 256.32 
L 121.588417 250.776 
" clip-path="url(#pc8715a635f)" style="fill: none; stroke: #ff0000"/>
    <path d="M 105.81387 256.32 
L 105.81387 250.776 
" clip-path="url(#pc8715a635f)" style="fill: none; stroke: #ff0000"/>
    <path d="M 109.770142 256.32 
L 109.770142 250.776 
" clip-path="url(#pc8715a635f)" style="fill: none; stroke: #ff0000"/>
    <path d="M 104.399874 256.32 
L 104.399874 250.776 
" clip-path="url(#pc8715a635f)" style="fill: none; stroke: #ff0000"/>
    <path d="M 105.753073 256.32 
L 105.753073 250.776 
" clip-path="url(#pc8715a635f)" style="fill: none; stroke: #ff0000"/>
    <path d="M 95.064773 256.32 
L 95.064773 250.776 
" clip-path="url(#pc8715a635f)" style="fill: none; stroke: #ff0000"/>
    <path d="M 104.777155 256.32 
L 104.777155 250.776 
" clip-path="url(#pc8715a635f)" style="fill: none; stroke: #ff0000"/>
    <path d="M 103.512245 256.32 
L 103.512245 250.776 
" clip-path="url(#pc8715a635f)" style="fill: none; stroke: #ff0000"/>
    <path d="M 101.400244 256.32 
L 101.400244 250.776 
" clip-path="url(#pc8715a635f)" style="fill: none; stroke: #ff0000"/>
    <path d="M 97.800243 256.32 
L 97.800243 250.776 
" clip-path="url(#pc8715a635f)" style="fill: none; stroke: #ff0000"/>
    <path d="M 108.404703 256.32 
L 108.404703 250.776 
" clip-path="url(#pc8715a635f)" style="fill: none; stroke: #ff0000"/>
    <path d="M 92.146494 256.32 
L 92.146494 250.776 
" clip-path="url(#pc8715a635f)" style="fill: none; stroke: #ff0000"/>
    <path d="M 99.36954 256.32 
L 99.36954 250.776 
" clip-path="url(#pc8715a635f)" style="fill: none; stroke: #ff0000"/>
    <path d="M 105.003439 256.32 
L 105.003439 250.776 
" clip-path="url(#pc8715a635f)" style="fill: none; stroke: #ff0000"/>
    <path d="M 103.521916 256.32 
L 103.521916 250.776 
" clip-path="url(#pc8715a635f)" style="fill: none; stroke: #ff0000"/>
    <path d="M 103.359827 256.32 
L 103.359827 250.776 
" clip-path="url(#pc8715a635f)" style="fill: none; stroke: #ff0000"/>
    <path d="M 108.666313 256.32 
L 108.666313 250.776 
" clip-path="url(#pc8715a635f)" style="fill: none; stroke: #ff0000"/>
    <path d="M 107.621803 256.32 
L 107.621803 250.776 
" clip-path="url(#pc8715a635f)" style="fill: none; stroke: #ff0000"/>
    <path d="M 126.067953 256.32 
L 126.067953 250.776 
" clip-path="url(#pc8715a635f)" style="fill: none; stroke: #ff0000"/>
    <path d="M 115.697284 256.32 
L 115.697284 250.776 
" clip-path="url(#pc8715a635f)" style="fill: none; stroke: #ff0000"/>
    <path d="M 106.670285 256.32 
L 106.670285 250.776 
" clip-path="url(#pc8715a635f)" style="fill: none; stroke: #ff0000"/>
    <path d="M 107.308161 256.32 
L 107.308161 250.776 
" clip-path="url(#pc8715a635f)" style="fill: none; stroke: #ff0000"/>
    <path d="M 107.572336 256.32 
L 107.572336 250.776 
" clip-path="url(#pc8715a635f)" style="fill: none; stroke: #ff0000"/>
    <path d="M 104.08613 256.32 
L 104.08613 250.776 
" clip-path="url(#pc8715a635f)" style="fill: none; stroke: #ff0000"/>
    <path d="M 107.366581 256.32 
L 107.366581 250.776 
" clip-path="url(#pc8715a635f)" style="fill: none; stroke: #ff0000"/>
    <path d="M 114.636049 256.32 
L 114.636049 250.776 
" clip-path="url(#pc8715a635f)" style="fill: none; stroke: #ff0000"/>
    <path d="M 104.337338 256.32 
L 104.337338 250.776 
" clip-path="url(#pc8715a635f)" style="fill: none; stroke: #ff0000"/>
    <path d="M 106.498952 256.32 
L 106.498952 250.776 
" clip-path="url(#pc8715a635f)" style="fill: none; stroke: #ff0000"/>
    <path d="M 114.731906 256.32 
L 114.731906 250.776 
" clip-path="url(#pc8715a635f)" style="fill: none; stroke: #ff0000"/>
    <path d="M 108.941763 256.32 
L 108.941763 250.776 
" clip-path="url(#pc8715a635f)" style="fill: none; stroke: #ff0000"/>
    <path d="M 102.059041 256.32 
L 102.059041 250.776 
" clip-path="url(#pc8715a635f)" style="fill: none; stroke: #ff0000"/>
    <path d="M 105.687418 256.32 
L 105.687418 250.776 
" clip-path="url(#pc8715a635f)" style="fill: none; stroke: #ff0000"/>
    <path d="M 89.752224 256.32 
L 89.752224 250.776 
" clip-path="url(#pc8715a635f)" style="fill: none; stroke: #ff0000"/>
    <path d="M 116.705094 256.32 
L 116.705094 250.776 
" clip-path="url(#pc8715a635f)" style="fill: none; stroke: #ff0000"/>
    <path d="M 106.531399 256.32 
L 106.531399 250.776 
" clip-path="url(#pc8715a635f)" style="fill: none; stroke: #ff0000"/>
    <path d="M 105.055221 256.32 
L 105.055221 250.776 
" clip-path="url(#pc8715a635f)" style="fill: none; stroke: #ff0000"/>
    <path d="M 124.538121 256.32 
L 124.538121 250.776 
" clip-path="url(#pc8715a635f)" style="fill: none; stroke: #ff0000"/>
    <path d="M 104.852726 256.32 
L 104.852726 250.776 
" clip-path="url(#pc8715a635f)" style="fill: none; stroke: #ff0000"/>
    <path d="M 110.576486 256.32 
L 110.576486 250.776 
" clip-path="url(#pc8715a635f)" style="fill: none; stroke: #ff0000"/>
    <path d="M 133.688304 256.32 
L 133.688304 250.776 
" clip-path="url(#pc8715a635f)" style="fill: none; stroke: #ff0000"/>
    <path d="M 128.335435 256.32 
L 128.335435 250.776 
" clip-path="url(#pc8715a635f)" style="fill: none; stroke: #ff0000"/>
    <path d="M 129.753399 256.32 
L 129.753399 250.776 
" clip-path="url(#pc8715a635f)" style="fill: none; stroke: #ff0000"/>
    <path d="M 122.997529 256.32 
L 122.997529 250.776 
" clip-path="url(#pc8715a635f)" style="fill: none; stroke: #ff0000"/>
    <path d="M 106.727229 256.32 
L 106.727229 250.776 
" clip-path="url(#pc8715a635f)" style="fill: none; stroke: #ff0000"/>
    <path d="M 107.043125 256.32 
L 107.043125 250.776 
" clip-path="url(#pc8715a635f)" style="fill: none; stroke: #ff0000"/>
    <path d="M 120.584458 256.32 
L 120.584458 250.776 
" clip-path="url(#pc8715a635f)" style="fill: none; stroke: #ff0000"/>
    <path d="M 94.648965 256.32 
L 94.648965 250.776 
" clip-path="url(#pc8715a635f)" style="fill: none; stroke: #ff0000"/>
    <path d="M 127.128508 256.32 
L 127.128508 250.776 
" clip-path="url(#pc8715a635f)" style="fill: none; stroke: #ff0000"/>
    <path d="M 105.078889 256.32 
L 105.078889 250.776 
" clip-path="url(#pc8715a635f)" style="fill: none; stroke: #ff0000"/>
    <path d="M 100.779605 256.32 
L 100.779605 250.776 
" clip-path="url(#pc8715a635f)" style="fill: none; stroke: #ff0000"/>
    <path d="M 134.853734 256.32 
L 134.853734 250.776 
" clip-path="url(#pc8715a635f)" style="fill: none; stroke: #ff0000"/>
    <path d="M 145.103249 256.32 
L 145.103249 250.776 
" clip-path="url(#pc8715a635f)" style="fill: none; stroke: #ff0000"/>
    <path d="M 103.397738 256.32 
L 103.397738 250.776 
" clip-path="url(#pc8715a635f)" style="fill: none; stroke: #ff0000"/>
    <path d="M 118.287429 256.32 
L 118.287429 250.776 
" clip-path="url(#pc8715a635f)" style="fill: none; stroke: #ff0000"/>
    <path d="M 100.940989 256.32 
L 100.940989 250.776 
" clip-path="url(#pc8715a635f)" style="fill: none; stroke: #ff0000"/>
    <path d="M 128.387634 256.32 
L 128.387634 250.776 
" clip-path="url(#pc8715a635f)" style="fill: none; stroke: #ff0000"/>
    <path d="M 109.599622 256.32 
L 109.599622 250.776 
" clip-path="url(#pc8715a635f)" style="fill: none; stroke: #ff0000"/>
    <path d="M 120.4604 256.32 
L 120.4604 250.776 
" clip-path="url(#pc8715a635f)" style="fill: none; stroke: #ff0000"/>
    <path d="M 104.048202 256.32 
L 104.048202 250.776 
" clip-path="url(#pc8715a635f)" style="fill: none; stroke: #ff0000"/>
    <path d="M 106.657953 256.32 
L 106.657953 250.776 
" clip-path="url(#pc8715a635f)" style="fill: none; stroke: #ff0000"/>
    <path d="M 132.4692 256.32 
L 132.4692 250.776 
" clip-path="url(#pc8715a635f)" style="fill: none; stroke: #ff0000"/>
    <path d="M 127.012852 256.32 
L 127.012852 250.776 
" clip-path="url(#pc8715a635f)" style="fill: none; stroke: #ff0000"/>
    <path d="M 117.802433 256.32 
L 117.802433 250.776 
" clip-path="url(#pc8715a635f)" style="fill: none; stroke: #ff0000"/>
    <path d="M 125.633032 256.32 
L 125.633032 250.776 
" clip-path="url(#pc8715a635f)" style="fill: none; stroke: #ff0000"/>
    <path d="M 110.223865 256.32 
L 110.223865 250.776 
" clip-path="url(#pc8715a635f)" style="fill: none; stroke: #ff0000"/>
    <path d="M 103.571785 256.32 
L 103.571785 250.776 
" clip-path="url(#pc8715a635f)" style="fill: none; stroke: #ff0000"/>
    <path d="M 115.009409 256.32 
L 115.009409 250.776 
" clip-path="url(#pc8715a635f)" style="fill: none; stroke: #ff0000"/>
    <path d="M 133.352952 256.32 
L 133.352952 250.776 
" clip-path="url(#pc8715a635f)" style="fill: none; stroke: #ff0000"/>
    <path d="M 125.088875 256.32 
L 125.088875 250.776 
" clip-path="url(#pc8715a635f)" style="fill: none; stroke: #ff0000"/>
    <path d="M 97.811757 256.32 
L 97.811757 250.776 
" clip-path="url(#pc8715a635f)" style="fill: none; stroke: #ff0000"/>
    <path d="M 119.175246 256.32 
L 119.175246 250.776 
" clip-path="url(#pc8715a635f)" style="fill: none; stroke: #ff0000"/>
    <path d="M 123.246188 256.32 
L 123.246188 250.776 
" clip-path="url(#pc8715a635f)" style="fill: none; stroke: #ff0000"/>
    <path d="M 151.589708 256.32 
L 151.589708 250.776 
" clip-path="url(#pc8715a635f)" style="fill: none; stroke: #ff0000"/>
    <path d="M 102.958742 256.32 
L 102.958742 250.776 
" clip-path="url(#pc8715a635f)" style="fill: none; stroke: #ff0000"/>
    <path d="M 123.488148 256.32 
L 123.488148 250.776 
" clip-path="url(#pc8715a635f)" style="fill: none; stroke: #ff0000"/>
    <path d="M 103.941065 256.32 
L 103.941065 250.776 
" clip-path="url(#pc8715a635f)" style="fill: none; stroke: #ff0000"/>
    <path d="M 106.003094 256.32 
L 106.003094 250.776 
" clip-path="url(#pc8715a635f)" style="fill: none; stroke: #ff0000"/>
    <path d="M 127.677633 256.32 
L 127.677633 250.776 
" clip-path="url(#pc8715a635f)" style="fill: none; stroke: #ff0000"/>
    <path d="M 115.574293 256.32 
L 115.574293 250.776 
" clip-path="url(#pc8715a635f)" style="fill: none; stroke: #ff0000"/>
    <path d="M 104.362736 256.32 
L 104.362736 250.776 
" clip-path="url(#pc8715a635f)" style="fill: none; stroke: #ff0000"/>
    <path d="M 124.671675 256.32 
L 124.671675 250.776 
" clip-path="url(#pc8715a635f)" style="fill: none; stroke: #ff0000"/>
    <path d="M 103.371983 256.32 
L 103.371983 250.776 
" clip-path="url(#pc8715a635f)" style="fill: none; stroke: #ff0000"/>
    <path d="M 120.334563 256.32 
L 120.334563 250.776 
" clip-path="url(#pc8715a635f)" style="fill: none; stroke: #ff0000"/>
    <path d="M 113.96955 256.32 
L 113.96955 250.776 
" clip-path="url(#pc8715a635f)" style="fill: none; stroke: #ff0000"/>
    <path d="M 116.279077 256.32 
L 116.279077 250.776 
" clip-path="url(#pc8715a635f)" style="fill: none; stroke: #ff0000"/>
    <path d="M 109.517286 256.32 
L 109.517286 250.776 
" clip-path="url(#pc8715a635f)" style="fill: none; stroke: #ff0000"/>
    <path d="M 107.605676 256.32 
L 107.605676 250.776 
" clip-path="url(#pc8715a635f)" style="fill: none; stroke: #ff0000"/>
    <path d="M 105.313339 256.32 
L 105.313339 250.776 
" clip-path="url(#pc8715a635f)" style="fill: none; stroke: #ff0000"/>
    <path d="M 117.664313 256.32 
L 117.664313 250.776 
" clip-path="url(#pc8715a635f)" style="fill: none; stroke: #ff0000"/>
    <path d="M 104.647679 256.32 
L 104.647679 250.776 
" clip-path="url(#pc8715a635f)" style="fill: none; stroke: #ff0000"/>
    <path d="M 109.292927 256.32 
L 109.292927 250.776 
" clip-path="url(#pc8715a635f)" style="fill: none; stroke: #ff0000"/>
    <path d="M 104.100531 256.32 
L 104.100531 250.776 
" clip-path="url(#pc8715a635f)" style="fill: none; stroke: #ff0000"/>
    <path d="M 114.122387 256.32 
L 114.122387 250.776 
" clip-path="url(#pc8715a635f)" style="fill: none; stroke: #ff0000"/>
    <path d="M 107.275935 256.32 
L 107.275935 250.776 
" clip-path="url(#pc8715a635f)" style="fill: none; stroke: #ff0000"/>
    <path d="M 104.946763 256.32 
L 104.946763 250.776 
" clip-path="url(#pc8715a635f)" style="fill: none; stroke: #ff0000"/>
    <path d="M 110.095247 256.32 
L 110.095247 250.776 
" clip-path="url(#pc8715a635f)" style="fill: none; stroke: #ff0000"/>
    <path d="M 119.246567 256.32 
L 119.246567 250.776 
" clip-path="url(#pc8715a635f)" style="fill: none; stroke: #ff0000"/>
    <path d="M 133.298603 256.32 
L 133.298603 250.776 
" clip-path="url(#pc8715a635f)" style="fill: none; stroke: #ff0000"/>
    <path d="M 108.338157 256.32 
L 108.338157 250.776 
" clip-path="url(#pc8715a635f)" style="fill: none; stroke: #ff0000"/>
    <path d="M 111.531553 256.32 
L 111.531553 250.776 
" clip-path="url(#pc8715a635f)" style="fill: none; stroke: #ff0000"/>
    <path d="M 101.668441 256.32 
L 101.668441 250.776 
" clip-path="url(#pc8715a635f)" style="fill: none; stroke: #ff0000"/>
    <path d="M 102.941502 256.32 
L 102.941502 250.776 
" clip-path="url(#pc8715a635f)" style="fill: none; stroke: #ff0000"/>
    <path d="M 111.623791 256.32 
L 111.623791 250.776 
" clip-path="url(#pc8715a635f)" style="fill: none; stroke: #ff0000"/>
    <path d="M 103.541441 256.32 
L 103.541441 250.776 
" clip-path="url(#pc8715a635f)" style="fill: none; stroke: #ff0000"/>
    <path d="M 100.069754 256.32 
L 100.069754 250.776 
" clip-path="url(#pc8715a635f)" style="fill: none; stroke: #ff0000"/>
    <path d="M 141.525439 256.32 
L 141.525439 250.776 
" clip-path="url(#pc8715a635f)" style="fill: none; stroke: #ff0000"/>
    <path d="M 124.429743 256.32 
L 124.429743 250.776 
" clip-path="url(#pc8715a635f)" style="fill: none; stroke: #ff0000"/>
    <path d="M 104.150897 256.32 
L 104.150897 250.776 
" clip-path="url(#pc8715a635f)" style="fill: none; stroke: #ff0000"/>
    <path d="M 104.284901 256.32 
L 104.284901 250.776 
" clip-path="url(#pc8715a635f)" style="fill: none; stroke: #ff0000"/>
    <path d="M 107.473377 256.32 
L 107.473377 250.776 
" clip-path="url(#pc8715a635f)" style="fill: none; stroke: #ff0000"/>
    <path d="M 104.4977 256.32 
L 104.4977 250.776 
" clip-path="url(#pc8715a635f)" style="fill: none; stroke: #ff0000"/>
    <path d="M 101.338717 256.32 
L 101.338717 250.776 
" clip-path="url(#pc8715a635f)" style="fill: none; stroke: #ff0000"/>
    <path d="M 107.215698 256.32 
L 107.215698 250.776 
" clip-path="url(#pc8715a635f)" style="fill: none; stroke: #ff0000"/>
    <path d="M 107.512353 256.32 
L 107.512353 250.776 
" clip-path="url(#pc8715a635f)" style="fill: none; stroke: #ff0000"/>
    <path d="M 107.334609 256.32 
L 107.334609 250.776 
" clip-path="url(#pc8715a635f)" style="fill: none; stroke: #ff0000"/>
    <path d="M 83.398526 256.32 
L 83.398526 250.776 
" clip-path="url(#pc8715a635f)" style="fill: none; stroke: #ff0000"/>
    <path d="M 104.990194 256.32 
L 104.990194 250.776 
" clip-path="url(#pc8715a635f)" style="fill: none; stroke: #ff0000"/>
    <path d="M 103.264897 256.32 
L 103.264897 250.776 
" clip-path="url(#pc8715a635f)" style="fill: none; stroke: #ff0000"/>
    <path d="M 103.489283 256.32 
L 103.489283 250.776 
" clip-path="url(#pc8715a635f)" style="fill: none; stroke: #ff0000"/>
    <path d="M 105.971026 256.32 
L 105.971026 250.776 
" clip-path="url(#pc8715a635f)" style="fill: none; stroke: #ff0000"/>
    <path d="M 104.250669 256.32 
L 104.250669 250.776 
" clip-path="url(#pc8715a635f)" style="fill: none; stroke: #ff0000"/>
    <path d="M 105.968646 256.32 
L 105.968646 250.776 
" clip-path="url(#pc8715a635f)" style="fill: none; stroke: #ff0000"/>
    <path d="M 126.594114 256.32 
L 126.594114 250.776 
" clip-path="url(#pc8715a635f)" style="fill: none; stroke: #ff0000"/>
    <path d="M 104.785549 256.32 
L 104.785549 250.776 
" clip-path="url(#pc8715a635f)" style="fill: none; stroke: #ff0000"/>
    <path d="M 123.490926 256.32 
L 123.490926 250.776 
" clip-path="url(#pc8715a635f)" style="fill: none; stroke: #ff0000"/>
    <path d="M 122.469015 256.32 
L 122.469015 250.776 
" clip-path="url(#pc8715a635f)" style="fill: none; stroke: #ff0000"/>
    <path d="M 116.553982 256.32 
L 116.553982 250.776 
" clip-path="url(#pc8715a635f)" style="fill: none; stroke: #ff0000"/>
    <path d="M 135.043217 256.32 
L 135.043217 250.776 
" clip-path="url(#pc8715a635f)" style="fill: none; stroke: #ff0000"/>
    <path d="M 126.584101 256.32 
L 126.584101 250.776 
" clip-path="url(#pc8715a635f)" style="fill: none; stroke: #ff0000"/>
    <path d="M 105.889052 256.32 
L 105.889052 250.776 
" clip-path="url(#pc8715a635f)" style="fill: none; stroke: #ff0000"/>
    <path d="M 122.99739 256.32 
L 122.99739 250.776 
" clip-path="url(#pc8715a635f)" style="fill: none; stroke: #ff0000"/>
    <path d="M 125.543672 256.32 
L 125.543672 250.776 
" clip-path="url(#pc8715a635f)" style="fill: none; stroke: #ff0000"/>
    <path d="M 119.970698 256.32 
L 119.970698 250.776 
" clip-path="url(#pc8715a635f)" style="fill: none; stroke: #ff0000"/>
    <path d="M 108.424587 256.32 
L 108.424587 250.776 
" clip-path="url(#pc8715a635f)" style="fill: none; stroke: #ff0000"/>
    <path d="M 107.074128 256.32 
L 107.074128 250.776 
" clip-path="url(#pc8715a635f)" style="fill: none; stroke: #ff0000"/>
    <path d="M 106.33853 256.32 
L 106.33853 250.776 
" clip-path="url(#pc8715a635f)" style="fill: none; stroke: #ff0000"/>
    <path d="M 123.791139 256.32 
L 123.791139 250.776 
" clip-path="url(#pc8715a635f)" style="fill: none; stroke: #ff0000"/>
    <path d="M 124.38712 256.32 
L 124.38712 250.776 
" clip-path="url(#pc8715a635f)" style="fill: none; stroke: #ff0000"/>
    <path d="M 118.772723 256.32 
L 118.772723 250.776 
" clip-path="url(#pc8715a635f)" style="fill: none; stroke: #ff0000"/>
    <path d="M 122.911015 256.32 
L 122.911015 250.776 
" clip-path="url(#pc8715a635f)" style="fill: none; stroke: #ff0000"/>
    <path d="M 122.078609 256.32 
L 122.078609 250.776 
" clip-path="url(#pc8715a635f)" style="fill: none; stroke: #ff0000"/>
    <path d="M 109.609061 256.32 
L 109.609061 250.776 
" clip-path="url(#pc8715a635f)" style="fill: none; stroke: #ff0000"/>
    <path d="M 111.123679 256.32 
L 111.123679 250.776 
" clip-path="url(#pc8715a635f)" style="fill: none; stroke: #ff0000"/>
    <path d="M 107.518487 256.32 
L 107.518487 250.776 
" clip-path="url(#pc8715a635f)" style="fill: none; stroke: #ff0000"/>
    <path d="M 113.666333 256.32 
L 113.666333 250.776 
" clip-path="url(#pc8715a635f)" style="fill: none; stroke: #ff0000"/>
    <path d="M 135.943272 256.32 
L 135.943272 250.776 
" clip-path="url(#pc8715a635f)" style="fill: none; stroke: #ff0000"/>
    <path d="M 98.853646 256.32 
L 98.853646 250.776 
" clip-path="url(#pc8715a635f)" style="fill: none; stroke: #ff0000"/>
    <path d="M 110.374566 256.32 
L 110.374566 250.776 
" clip-path="url(#pc8715a635f)" style="fill: none; stroke: #ff0000"/>
    <path d="M 107.66674 256.32 
L 107.66674 250.776 
" clip-path="url(#pc8715a635f)" style="fill: none; stroke: #ff0000"/>
    <path d="M 105.5492 256.32 
L 105.5492 250.776 
" clip-path="url(#pc8715a635f)" style="fill: none; stroke: #ff0000"/>
    <path d="M 111.523123 256.32 
L 111.523123 250.776 
" clip-path="url(#pc8715a635f)" style="fill: none; stroke: #ff0000"/>
    <path d="M 90.601028 256.32 
L 90.601028 250.776 
" clip-path="url(#pc8715a635f)" style="fill: none; stroke: #ff0000"/>
    <path d="M 197.174588 256.32 
L 197.174588 250.776 
" clip-path="url(#pc8715a635f)" style="fill: none; stroke: #ff0000"/>
    <path d="M 99.316369 256.32 
L 99.316369 250.776 
" clip-path="url(#pc8715a635f)" style="fill: none; stroke: #ff0000"/>
    <path d="M 99.110123 256.32 
L 99.110123 250.776 
" clip-path="url(#pc8715a635f)" style="fill: none; stroke: #ff0000"/>
    <path d="M 140.435293 256.32 
L 140.435293 250.776 
" clip-path="url(#pc8715a635f)" style="fill: none; stroke: #ff0000"/>
    <path d="M 229.573309 256.32 
L 229.573309 250.776 
" clip-path="url(#pc8715a635f)" style="fill: none; stroke: #ff0000"/>
    <path d="M 121.23231 256.32 
L 121.23231 250.776 
" clip-path="url(#pc8715a635f)" style="fill: none; stroke: #ff0000"/>
    <path d="M 65.626691 256.32 
L 65.626691 250.776 
" clip-path="url(#pc8715a635f)" style="fill: none; stroke: #ff0000"/>
    <path d="M 104.126166 256.32 
L 104.126166 250.776 
" clip-path="url(#pc8715a635f)" style="fill: none; stroke: #ff0000"/>
    <path d="M 94.085164 256.32 
L 94.085164 250.776 
" clip-path="url(#pc8715a635f)" style="fill: none; stroke: #ff0000"/>
    <path d="M 112.950488 256.32 
L 112.950488 250.776 
" clip-path="url(#pc8715a635f)" style="fill: none; stroke: #ff0000"/>
    <path d="M 97.838792 256.32 
L 97.838792 250.776 
" clip-path="url(#pc8715a635f)" style="fill: none; stroke: #ff0000"/>
    <path d="M 135.762332 256.32 
L 135.762332 250.776 
" clip-path="url(#pc8715a635f)" style="fill: none; stroke: #ff0000"/>
    <path d="M 119.495638 256.32 
L 119.495638 250.776 
" clip-path="url(#pc8715a635f)" style="fill: none; stroke: #ff0000"/>
    <path d="M 118.630573 256.32 
L 118.630573 250.776 
" clip-path="url(#pc8715a635f)" style="fill: none; stroke: #ff0000"/>
    <path d="M 89.838565 256.32 
L 89.838565 250.776 
" clip-path="url(#pc8715a635f)" style="fill: none; stroke: #ff0000"/>
    <path d="M 177.047752 256.32 
L 177.047752 250.776 
" clip-path="url(#pc8715a635f)" style="fill: none; stroke: #ff0000"/>
    <path d="M 103.375808 256.32 
L 103.375808 250.776 
" clip-path="url(#pc8715a635f)" style="fill: none; stroke: #ff0000"/>
    <path d="M 160.789723 256.32 
L 160.789723 250.776 
" clip-path="url(#pc8715a635f)" style="fill: none; stroke: #ff0000"/>
    <path d="M 106.318838 256.32 
L 106.318838 250.776 
" clip-path="url(#pc8715a635f)" style="fill: none; stroke: #ff0000"/>
    <path d="M 107.932698 256.32 
L 107.932698 250.776 
" clip-path="url(#pc8715a635f)" style="fill: none; stroke: #ff0000"/>
    <path d="M 112.739762 256.32 
L 112.739762 250.776 
" clip-path="url(#pc8715a635f)" style="fill: none; stroke: #ff0000"/>
    <path d="M 143.7114 256.32 
L 143.7114 250.776 
" clip-path="url(#pc8715a635f)" style="fill: none; stroke: #ff0000"/>
    <path d="M 106.193901 256.32 
L 106.193901 250.776 
" clip-path="url(#pc8715a635f)" style="fill: none; stroke: #ff0000"/>
    <path d="M 200.335935 256.32 
L 200.335935 250.776 
" clip-path="url(#pc8715a635f)" style="fill: none; stroke: #ff0000"/>
    <path d="M 141.505055 256.32 
L 141.505055 250.776 
" clip-path="url(#pc8715a635f)" style="fill: none; stroke: #ff0000"/>
    <path d="M 174.672624 256.32 
L 174.672624 250.776 
" clip-path="url(#pc8715a635f)" style="fill: none; stroke: #ff0000"/>
    <path d="M 118.917719 256.32 
L 118.917719 250.776 
" clip-path="url(#pc8715a635f)" style="fill: none; stroke: #ff0000"/>
    <path d="M 126.158966 256.32 
L 126.158966 250.776 
" clip-path="url(#pc8715a635f)" style="fill: none; stroke: #ff0000"/>
    <path d="M 98.283527 256.32 
L 98.283527 250.776 
" clip-path="url(#pc8715a635f)" style="fill: none; stroke: #ff0000"/>
   </g>
   <g id="patch_3">
    <path d="M 36 256.32 
L 36 34.56 
" style="fill: none; stroke: #000000; stroke-width: 0.5; stroke-linejoin: miter; stroke-linecap: square"/>
   </g>
   <g id="patch_4">
    <path d="M 259.2 256.32 
L 259.2 34.56 
" style="fill: none; stroke: #000000; stroke-width: 0.5; stroke-linejoin: miter; stroke-linecap: square"/>
   </g>
   <g id="patch_5">
    <path d="M 36 256.32 
L 259.2 256.32 
" style="fill: none; stroke: #000000; stroke-width: 0.5; stroke-linejoin: miter; stroke-linecap: square"/>
   </g>
   <g id="patch_6">
    <path d="M 36 34.56 
L 259.2 34.56 
" style="fill: none; stroke: #000000; stroke-width: 0.5; stroke-linejoin: miter; stroke-linecap: square"/>
   </g>
  </g>
 </g>
 <defs>
  <clipPath id="pc8715a635f">
   <rect x="36" y="34.56" width="223.2" height="221.76"/>
  </clipPath>
 </defs>
</svg>
